<svg width="52" height="69" viewBox="0 0 52 69" xmlns="http://www.w3.org/2000/svg"><title>10years</title><path d="M26.115 40.181c-6.906 0-12.505-5.61-12.505-12.529 0-6.92 5.599-12.53 12.505-12.53 6.906 0 12.505 5.61 12.505 12.53 0 3.46-1.4 6.592-3.663 8.86l7.431 7.485 4.242-5.85 3.823-2.558-1.592-4.32v-7.233l1.592-4.321-3.823-2.557-4.242-5.852-1.246-4.433-4.594.183-6.864-2.235-3.609-2.853-3.609 2.853-6.864 2.235-4.594-.183-1.245 4.433-4.243 5.852-3.823 2.557 1.592 4.32v7.233L1.697 35.59l3.823 2.557 4.243 5.85 1.245 4.434 4.594-.182-2.786 18.818 13.299-4.53 13.298 4.53-2.865-18.818" stroke="#FFF" stroke-width="3" fill="none" stroke-linecap="round" stroke-linejoin="round"/></svg>