<svg width="80" height="80" viewBox="0 0 80 80" xmlns="http://www.w3.org/2000/svg"><title>Group 6</title><g fill="none" fill-rule="evenodd"><circle fill="#003398" cx="40" cy="40" r="40"/><path d="M33.07 44.687v7.973a5.394 5.394 0 0 0 5.394 5.394h9.45A11.917 11.917 0 0 0 59.79 47.14l.788-9.33a4.365 4.365 0 0 0-4.35-4.732h-8.463a1.414 1.414 0 0 1-1.408-1.55l.58-5.984a6.39 6.39 0 0 0-6.361-7.006l-1.538 14.064a5.884 5.884 0 0 1-5.849 5.246v-3.715H19V54.42a5.041 5.041 0 0 0 5.042 5.042h3.87" stroke="#FFF" stroke-width="3" stroke-linecap="round" stroke-linejoin="round"/></g></svg>