<svg width="715" height="349" viewBox="0 0 715 349" xmlns="http://www.w3.org/2000/svg"><title>Stroke 1</title><path d="M1 346.229h451.062c5.06-4.663 12.23-6.548 19.101-6.17 6.87.377 13.478 2.717 19.795 5.438 1.435.616 2.93 1.269 4.488 1.166 1.726-.11 3.246-1.125 4.64-2.15 14.865-10.942 25.99-28.157 33.249-44.857 4.36-10.033 8.688-20.503 8.398-31.439-.291-10.935-6.493-22.492-17.01-25.504-7.835-2.247-14.511-2.393-22.66-2.619a1302.532 1302.532 0 0 0-49.237-.428c-6.717.068-13.473.192-20.07 1.454-2.847.544-5.728 1.334-8.071 3.043-2.342 1.71-4.066 4.506-3.808 7.393.693 7.789 10.931 7.917 16.637 8.75a210.16 210.16 0 0 0 25.75 2.158c17.234.38 34.516-1.354 51.32-5.194 6.147-1.405 12.429-3.186 17.327-7.159 6.854-5.553 10.662-20.994 4.866-28.516-3.177-4.124-8.927-5.043-14.106-5.564-23.525-2.368-47.293-2.897-70.848-.647-10.158.97-21.57 1.174-30.4 6.684-10.827 6.751-13.989 17.87-12.239 29.949 1.573 10.855 4.392 21.493 7.856 31.89 3.35 10.064 8.053 17.874 13.438 26.944 4.428 7.458 8.977 15.063 15.6 20.662-7.682-5.614-14.296-12.54-20.861-19.426-11.505-12.065-19.506-27.23-24.091-43.192-5.174-18.02-10.069-34.466-9.708-53.562.044-2.346.154-4.73.892-6.956 1.59-4.79 5.956-8.257 10.702-9.976 4.745-1.718 9.884-1.94 14.93-2.05 13.996-.307 29.161 2.553 42.81-1.213 8.635-2.382 16.83-8.282 19.508-16.828.654-2.087.965-4.311.611-6.47-.736-4.486-4.16-8.001-7.555-11.024-10.128-9.02-21.143-13.64-33.096-19.63-8.227-4.124-16.288-11.073-16.819-20.26-.364-6.257 2.868-12.11 6.16-17.443 7.327-11.874 17.987-20.832 26.513-31.841a189.41 189.41 0 0 0 22.093-36.285c4.49-9.676 8.126-21.109 3.52-30.731-1.084-2.263-4.305-4.407-5.726-2.336-.429.627-.464 1.438-.416 2.196.391 6.398 5.145 11.529 9.195 16.497 5.523 6.775 10.215 14.354 12.781 22.71 2.563 8.355 2.892 17.552-.095 25.767-2.547 7.007-7.314 12.946-10.98 19.437-3.665 6.493-6.27 14.263-3.965 21.353 2.782 8.558 11.567 13.331 19.07 18.304 8.23 5.454 22.91 14.868 23.312 26.072.098 2.685-.634 5.327-1.47 7.876-2.609 7.95-8.85 11.485-15.446 16.012-8.86 6.081-17.902 11.761-26.515 18.129a700.07 700.07 0 0 0 55.328 1.787c5.203-.04 11.517.503 13.82 5.169 1.231 2.491.967 5.71 2.858 7.747 1.48 1.595 3.934 1.964 6.056 1.473 4.488-1.037 8.978-4.62 12.956-6.895 4.92-2.813 10.048-4.87 15.695-5.653 6.549-.908 14.005.172 18.244 5.246 3.2 3.83 3.92 9.146 3.845 14.139-.298 20.133-11.469 39.097-25.855 52.576-6.683 6.263-13.176 10.783-18.705 18.175-6.973 9.322-9.514 22.104-19.289 29.079-1.684 1.202-3.794 2.273-5.751 1.597-2.226-.771-3.147-3.392-3.532-5.715-2.366-14.266 4.82-22.542 15.712-30.475 9.589-6.982 19.176-13.965 28.765-20.949 12.817-9.334 23.606-27.191 14.765-43.114-2.478-4.465-7.74-7.75-12.68-6.45-4.277 1.126-7.052 5.134-9.447 8.852-4.277 6.651-8.192 15.51-14.002 20.94-2.245 2.1-5.213 3.592-8.285 3.468-2.674-.998-2.907-2.576-2.837-3.918.236-4.521 2.416-8.782 5.386-12.2 6.308-7.264 16.744-14.205 24.82-4.849 4.505 5.223 5.412 14.654 3.36 21.045-3.375 10.499-6.664 19.15-13.482 28.182-6.983 9.254-15.686 17.062-23.185 25.9-5.256 6.197-9.993 13.062-12.773 20.748-2.078 5.737-3.744 12.042-.864 17.792 3.274 6.53 11.128 6.715 17.69 6.708 20.442-.025 143.512-.05 163.955-.075" stroke="#E01976" stroke-width="2" fill="none" stroke-linecap="round" stroke-linejoin="round"/></svg>