<svg width="108" height="80" viewBox="0 0 108 80" xmlns="http://www.w3.org/2000/svg"><title>importers</title><g stroke="#FFF" stroke-width="3" fill="none" fill-rule="evenodd" stroke-linecap="round" stroke-linejoin="round"><path d="M46 63.934V1.524v9.238h38l-8.55 14.981L84 40.975H54.788"/><path d="M2.249 28.926c18.501.252 1.686 10.244 27.502 14.03 2.892.423 10.114 5.588 6.999 9.518-8.68 10.95-10.046-7.654-12.75 5.511-.26 1.27.086 2.841 1.001 3.758 6.187 6.197 40.096-1.283 42 5.26.762 2.62-4.933 10.028 1.001 10.771 3.142.394 6.528 1.097 9.499 0 7.156-2.642 11.816-13.363 20-14.027 1.37-.112 3.028.028 4 1.002 1.193 1.195.837 3.337 1.749 4.759.64.998 1.969 1.566 3 2.505"/></g></svg>