<svg width="122" height="121" viewBox="0 0 122 121" xmlns="http://www.w3.org/2000/svg"><title>Group 6</title><g transform="translate(2)" fill="none" fill-rule="evenodd"><ellipse fill="#E21776" cx="60" cy="60.432" rx="60" ry="60.12"/><g stroke="#FFF" stroke-width="3" stroke-linecap="round" stroke-linejoin="round"><path d="M44 92.934v-62.41 9.238h38l-8.55 14.981L82 69.975H52.788"/><path d="M.249 57.926c18.501.252 1.686 10.244 27.502 14.03 2.892.423 10.114 5.588 6.999 9.518-8.68 10.95-10.046-7.654-12.75 5.511-.26 1.27.086 2.841 1.001 3.758 6.187 6.197 40.096-1.283 42 5.26.762 2.62-4.933 10.028 1.001 10.771 3.142.394 6.528 1.097 9.499 0 7.156-2.642 11.816-13.363 20-14.027 1.37-.112 3.028.028 4 1.002 1.193 1.195.837 3.337 1.749 4.759.64.998 1.969 1.566 3 2.505"/></g></g></svg>