<svg width="300" height="200" viewBox="0 0 300 200" xmlns="http://www.w3.org/2000/svg"><title>icon-smesi-noact</title><g stroke="#C1C1C1" stroke-width="2" fill="none" fill-rule="evenodd" stroke-linecap="round"><g stroke-linejoin="round"><path d="M.688 200.042h88.335s5.651-.471 8.266-1.434c1.202-.443 2.408-1.202 2.822-2.414.731-2.145-1.307-4.153-3.123-5.51l-23.834-17.815c-3.138-2.346-6.398-4.837-8.049-8.39-2.11-4.538-1.72-10.409-.057-15.025.994-2.761 6.326-9.62 10.12-8.068-4.507-1.844-9.132-4.804-10.381-9.51-.596-2.247-.337-4.621-.073-6.931.325-2.847 2.55-17.522 7.995-16.124-5.098-1.31-8.555-6.33-9.602-11.487-1.045-5.157-.14-10.488.767-15.671.305-1.75.69-3.643 2.033-4.803.755-.652 1.724-.987 2.671-1.297 10.143-3.314 20.918-3.9 31.504-4.822a567.509 567.509 0 0 1 19.768-1.377c3.673-.192 13.943-.305 15.653.977 1.563 1.171 1.26 3.669 1.308 5.622.173 7.094-.406 14.195.024 21.286.373 6.164 1.368 12.46-.318 18.535-9.727 1.562-19.64.174-29.38 1.854-3.37.582-7.462-.218-10.803-.767-4.443-.73-8.826-1.91-12.971-3.677-3.72-1.586-7.553-2.368-10.923-4.79-2.098-1.51-4.886-3.815-5.998-6.203-.622-1.335-.849-2.814-1.069-4.27-.202-1.334-.388-2.775.242-3.969 1.34 1.244 2.68 2.488 4.018 3.733 1.397 1.296 2.8 2.599 4.379 3.665 4.418 2.984 9.865 3.911 15.127 4.768.336.054.682.11 1.014.037 1.136-.245 1.461-1.681 1.573-2.838a119.38 119.38 0 0 1 1.58-10.994c.16-.835.336-1.691.796-2.407 1.012-1.576 2.873-1.76 2.954.396a63.24 63.24 0 0 1-1.799 17.532c-.77 3.113-1.538 7.01.963 9.017.904.726 2.075 1.02 3.09 1.58 5.239 2.89 4.644 12.244 4.535 17.362-.124 5.79-.412 11.624-1.835 17.238-.207.814-.56 1.75-1.372 1.963-.48.126-.981-.05-1.446-.222-6.276-2.334-12.317-5.662-18.082-9.088-3.326-1.977-6.59-4.133-9.264-6.929-2.673-2.795-4.737-6.297-5.255-10.13-.095-.702.195-1.723.885-1.56 2.321 2.314 3.772 4.604 5.873 6.207 1.506 1.148 3.275 1.888 5.024 2.616 4.732 1.97 9.583 3.968 14.703 4.226.95.048 2.012-.008 2.682-.684.538-.542.684-1.349.804-2.103l1.264-7.925c.266-1.664 1.737-4.389 3.151-1.857 1.906 3.412 1.02 8.176.769 11.948-.539 8.103-.82 16.221-1.425 24.32-.248 3.323-.467 6.653-.937 9.954-.232 1.627-.461 3.312-.918 4.894-.368 1.274-.35 2.856-1.09 3.985-1.64 2.505-4.105 1.27-6.235.426a52.089 52.089 0 0 1-7.64-3.774c-2.84-1.707-5.511-3.68-8.177-5.65-3.39-2.506-6.193-5.446-8.076-9.305-1.297-2.66-1.895-5.783-1.01-8.608.147-.476.392-.992.868-1.141.601-.188 1.187.314 1.578.808 1.73 2.186 2.5 4.964 3.848 7.405 2.014 3.647 5.247 6.397 8.622 8.747 3.147 2.19 6.49 5.611 10.462 6.033.381.04.773.05 1.14-.061 1.366-.417 1.684-2.16 1.875-3.575a27.191 27.191 0 0 1 3.794-10.602c.319-.518.704-1.062 1.288-1.23.912-.263 1.836.57 2.063 1.49.779 3.162-.158 7.167-.334 10.385a466.23 466.23 0 0 0-.495 11.81c-.038 1.28-.06 2.613.477 3.775.09.192.2.384.377.499 7.988.417 15.32.212 22.619-.375 7.076-.569 14.04-2.065 21.035-2.78-5.378-33.811-6.95-68.098-8.512-102.299l-1.67-36.539c-.173-3.785-.284-7.827 1.685-11.065 1.969-3.238 6.87-4.954 9.638-2.366l10.702 156.561c.066.97.114 2.017-.409 2.837-.594.933-1.78 1.316-2.885 1.351-3.984.128-7.507-4.035-6.722-7.943a24.704 24.704 0 0 0 12.295 6.236c4.135.773 8.387.471 12.583.158a2996.877 2996.877 0 0 0 61.613-5.24c4.198-.4 8.898-1.08 11.428-4.454 1.46-1.949 1.901-4.46 2.215-6.875 2.035-15.65.565-31.522-.95-47.232a8458.364 8458.364 0 0 0-9.068-89.06c-.328-3.058-.906-6.535-3.505-8.178-1.393-.88-3.108-1.039-4.75-1.165a475.634 475.634 0 0 0-79.501.561c-2.463.224-5.775 1.654-5.004 4.004a442.76 442.76 0 0 1 73.935-1.922c5.193.3 10.696.804 14.866 3.912 6.716 5.005 7.48 14.6 7.65 22.973l2.222 109.447c.04 1.991.05 4.1-.967 5.813-1.4 2.355-4.302 3.27-6.956 3.952a240.795 240.795 0 0 1-42.92 6.963c-7.293.514-20.495 12.669-20.495 12.669h128.714"/><path d="M102.87 146.989l-.346 5.264c-.078 1.187-.087 2.552.8 3.344.75.671 1.866.67 2.871.626a248.897 248.897 0 0 0 34.568-3.968"/></g><path d="M.5 200H73m131.995 0H299.5"/></g></svg>