<svg width="300" height="200" viewBox="0 0 300 200" xmlns="http://www.w3.org/2000/svg"><title>icon-pnevmotransport-noact</title><path d="M0 200h49.935s11.548-91.51 12.513-100.535c.85-7.957 1.708-15.949 3.76-23.684 1.273-4.803 4.095-7.239 9.158-7.74 2.591-.256 5.201.081 7.784.417.41 3.414-.008 6.866-.427 10.28l-.904 7.371c-.292.606-.635.567-.912.506l-10.54-2.332c-2.261-.5-4.663-.995-6.854-.24-4.41 1.518-3.312 6.795-1.86 10.116.749-3.505 5.325-5.207 8.605-3.765 3.281 1.442 5.138 5.116 5.395 8.69.14 1.97-.143 4.019-1.142 5.722-2.562 4.365-9.652 4.688-12.99.886-3.34-3.804-2.502-10.296 1.357-13.57 2.747-2.33 6.545-3.11 10.14-2.883 3.595.228 7.062 1.368 10.483 2.498-4.313 2.254-4.96 9.238-1.135 12.247 1.275 1.004 2.84 1.553 4.386 2.046 3.07.979 6.232 1.91 9.41 2.472 1.606.283 5.301 1.44 6.9.962 4.069-1.217 3.002-10.378 1.537-13.489-.49-1.039-1.234-2.039-2.313-2.432-1.603-.583-3.466.436-4.272 1.94-2.258 4.212-.76 11.351 2.258 14.77a643.448 643.448 0 0 1-15.777-4.286c-1.544-.44-3.474-1.547-2.99-3.078a26.83 26.83 0 0 1 12.602 1.614 7.545 7.545 0 0 0 .403-3.685c-1.97-1.317-4.568-.955-6.895-1.403-2.328-.446-4.795-2.754-3.703-4.857 4.907.61 9.922.348 14.74-.768.445-.783-.674-1.504-1.548-1.72l-13.542-3.34a10.856 10.856 0 0 1 .308-5.865c8.998 8.16 27.223 3.981 32.009 1.196.525-.306.493-12.725-.06-18.182-10.317 4.068-22.128 4.21-32.54.392.497-2.804.995-5.61 1.494-8.414 0 0-30.439-25.017-40.179-33.976-2.39-2.198-4.979-5.557-3.273-8.32C51.547 12.666 82.605 3.754 88.26 3.244c5.765-.52 57.523 4.641 68.033 6.663-17.244 4.042-54.707 12.917-56.32 13.046-2.3.182-40.253-3.977-57.01-4.58 2.638 2.2 5.222 3.029 8.638 3.384 15.25 1.582 47.025 4.908 47.404 5.382.49.613.024 3.035-.003 3.742a130.15 130.15 0 0 1-.567 7.992c-.61 6.083-3.218 13.142-1.048 19.103.86 2.36 4.48 2.714 6.525 1.907 6.957-2.746 2.964-12.506 1.723-17.414-1.046-4.136-2.252-8.236-2.997-12.442-.103-.582-.23-1.215.042-1.739.281-.54.9-.797 1.47-1.01a245.266 245.266 0 0 1 51.067-13.041c-9.778 13.456-39.037 40.717-39.613 43.85-1.802 9.805-2.068 20.099-.313 29.912 2.276-.11 4.666.27 6.508 1.611 1.842 1.342 2.979 3.803 2.292 5.975-.629 1.992-2.543 3.28-4.438 4.16a24.671 24.671 0 0 1-12.172 2.216 40.546 40.546 0 0 0-1.637 9.92c5.702-.413 14.818-2.124 17.718-2.704-4.503 19.538-11.007 49.521-13.34 51.911-6.335 6.49-17.69 4.64-23.491 1.16-.515-.308-11.761-39.023-14.826-51.652.969 2.134 3.249 3.319 5.425 4.19 14.652 5.863 28.647 3.83 43.004-.413-.429 5.145-1.122 52.516-1.122 52.516-6.932 3.041-14.532 6.895-21.813 8.856-1.147.309-13.48 2.917-13.473 4.034-.17-2.197-.339-4.395-.51-6.591-4.285 1.464-14.464 5.425-14.173-3.374.136-4.1 5.364-6.063 7.965-2.884 1.77 2.163 1.558 8.367-1.78 9.034-1.232.246-2.438-.522-3.34-1.397-1.603-1.552-2.782-3.92-1.96-5.993.726-1.833 2.712-2.777 4.525-3.55 2.925-1.248 15.594-9.064 15.576-9.073a24.999 24.999 0 0 0 14.77 2.21c1.769-.28 3.521-.753 5.31-.75 2.174.004 22.824 2.517 29.332 4.21 0 0-8.353-73.38-10.859-87.826 0 0-5.137 1.81-6.588 7.9-3.584 15.057-10.711 97.362-11.455 100.43-.355 1.462-.757 3.117.057 4.383.819 1.273 2.62 1.597 4.069 1.15 4.493-1.391 30.883-19.937 32.216-23.09.418-.99.445-2.093.466-3.166.38-20.116.243-40.243-.413-60.352 16.218-1.166 97.644-6.07 99.664-6.056.104.782 2.229 1.578 2.334 2.36-18.691.622-98.071 7.52-98.071 7.52 1.861 2.045 9.686 9.29 11.073 9.813.987.372 110.213-10.558 110.213-10.558.07.482 3.179.826 3.248 1.308-11.22 3.137-110.522 12.4-110.856 11.503l.682 72.183c-4.445-6.072-10.03-15.87-14.396-22a5.92 5.92 0 0 0-2.846.708c.328 5.503 13.912 29.582 14.728 30.178l5.803-.69c-.989-21.042.27-66.103.395-67.259a341.442 341.442 0 0 1 44.884-5.78 100.693 100.693 0 0 0-.557 14.367 1022.08 1022.08 0 0 0-42.296 5.004l-.363 6.136c4.337 3.34 6.98 8.777 6.93 14.251-.05 5.475-2.793 10.862-7.19 14.122 10.375-.637 41.502-5.471 41.502-5.471 5.22-5.027 6.173-19.006-2.721-28.286-.67-.7-21.516 2.474-29.116 4.154l-.303 6.196a336.671 336.671 0 0 1 25.417-4.22c-.128 2.889.06 5.79.559 8.637a244.34 244.34 0 0 1-24.623 3.09l1.01 9.754c13.175-2.94 24.143-3.539 37.318-6.478l-.911-18.68c-3.02 1.59-4.44-3.018-3.82-6.374 1.012-5.479 6.892-8.707 12.4-9.558 5.506-.851 11.222-.136 16.618-1.522.49 3.257-2.721 5.993-5.927 6.746-3.206.754-6.59.263-9.825.886-3.234.623-6.607 3.02-6.516 6.312l3.236.9c1.5 2.66-1.686 6.436-4.56 5.402 2.636 7.9 2.855 16.59.62 24.614 1.335 2.776 4.603 4.194 7.683 4.22 3.08.028 6.044-1.081 8.924-2.174l-.11-34.549-9.357.54-1.484 33.952a5.85 5.85 0 0 0 3.85-.437 272.021 272.021 0 0 0 .85-28.562c.465-1.072 2.167-.988 2.94-.113.774.876.871 2.14.92 3.308.316 7.385.233 14.786-.247 22.162a118.489 118.489 0 0 0 19.043-4.081c1.219-.369 2.473-.78 3.415-1.636 1.285-1.165 1.785-2.987 1.822-4.721.058-2.763-1.067-5.69-3.412-7.153-2.345-1.462-5.93-.908-7.236 1.527-1.306 2.436.883 6.086 3.605 5.607l-.354 2.651a44.961 44.961 0 0 0-12.618 2.42l-.368-28.662c-.014-1.145.003-2.39.709-3.292.792-1.012 2.191-1.271 3.462-1.46l17.443-2.586v40.326c.49.048 3.956-.842 4.446-.793 1.591-17.976 2.162-56.89 3.168-58.524 1.006-1.635 3.087-2.78 4.876-2.083 0 0-1.515 63.947-2.243 64.86-.777.973-99.958 17.207-99.958 17.207-.037 1.328-.02 7.784-.02 7.784H300M.5 200h49.51m123.986 0H299.5" stroke="#C1C1C1" stroke-width="2" fill="none" stroke-linecap="round" stroke-linejoin="round"/></svg>