<svg width="300" height="200" viewBox="0 0 300 200" xmlns="http://www.w3.org/2000/svg"><title>icon-silos-noact</title><g stroke="#C1C1C1" stroke-width="2" fill="none" fill-rule="evenodd" stroke-linecap="round" stroke-linejoin="round"><path d="M0 200l102.53-.038s11.591-69.676 13.949-89.732c-.355 3.02 27.222 40.667 28.989 42.07l7.83.11c3.293-4.355 28.173-43.572 28.173-43.572-6.366-2.935-15.606-6.381-32.068-6.381-18.063 0-27.894 4.343-32.995 6.044-.308-10.379-1.518-98.067-.386-98.872C128.809.535 166.236.456 180.825 8.238c1.959 16.536.422 89.744.646 100.6l15.946 91.124L300 200"/><path d="M102.76 199.628l4.947-.042c3.594-24.494 12.201-76.78 12.201-76.78 3.58 6.579 13.08 22.479 17.458 29.348-6.093-.033-12.189.22-18.258.757a319.23 319.23 0 0 1-5.61 23.609l7.327.48c.445.03.919.052 1.306-.169.71-.405.78-1.38.78-2.197a68.831 68.831 0 0 1 2.758-19.314l10.576-.17c-1.037 4.13-2.888 17.891-3.543 20.496-.526 2.097-1.426 4.08-2.322 6.048l-4.543 9.986a55.09 55.09 0 0 0-2.31-14.462c-1.683 5.027-3.377 10.081-5.87 14.76a51.16 51.16 0 0 0-3.276-14.5l-.487 14.927 12.146.61c-1.507 0-3.013-.002-4.52-.003.262 2.202.321 4.427.177 6.64l-4.187-.287.314-5.454a45.893 45.893 0 0 1 8.183-.05l4.632-11.995c7.24-.403 14.488-.653 21.74-.75.668-6.003.901-12.052.696-18.087-4.818.071-9.63.487-14.389 1.242l-.04-3.513 13.943.03.008-2.321c-4.8.173-8.253.37-13.033.847.185-2.513-.387-2.697.465-5.069h24.693c-.633 1.967.289 2.752-.344 4.72a70.202 70.202 0 0 1 13.45-.152c-5.572 8.437-17.469 26.439-18.04 26.782-.516.31-15.413 1.913-22.288 2.063a19.724 19.724 0 0 1-1.05 4.823c18.065-1.148 54.195-1.313 54.195-1.313s-10.095-61.415-11.062-72.707l1.888-9.623M.5 200H79m123.98 0h96.52"/></g></svg>