<svg width="300" height="200" viewBox="0 0 300 200" xmlns="http://www.w3.org/2000/svg"><title>icon-spaklevochnie-noact</title><g stroke="#C1C1C1" stroke-width="2" fill="none" fill-rule="evenodd" stroke-linecap="round"><g stroke-linejoin="round"><path d="M.749 199.89h81.74c-.47-.439.793-4.958.966-5.559.64-2.216 2.349-6.057 1.78-8.29-1.972-1.187-7.325 2.932-3.842 5.416 1.865 1.33 4.41 1.152 6.701.682l25.084-5.145c-.087-3.698-2.375-6.878-6.313-6.494-3.938.385-10.466.978-14.332 2.894 3.866 1.017 7.297 2.453 7.333 5.855 1.127-3.541.489-7.536-1.695-10.614l8.486-10.01c.999-1.178 2.093-2.419 3.632-2.856 1.392-.396 2.895-.057 4.27.386 6.274 2.017 11.704 6.238 14.97 11.633l-10.831 8.336c-.68-4.195-4.342-7.825-8.784-8.709 1.716.342 8.55-15.251 9.642-16.94 6.229-9.615 31.17-48.708 37.456-58.724 2.623-4.18 5.91-8.547 11.407-5.297.372.22.746.493.88.884.22.646-15.758 25.333-22.77 37.332-7.049 12.06-16.53 22.651-25.15 33.738 1.054 3.506 3.809 6.531 7.343 8.066l17.753-26.62c.713-1.069 1.444-2.186 1.586-3.438.447-3.945-4.643-6.16-8.757-7.152l-13.996-3.374c-8.93 13.056-18.784 29.286-27.165 42.655"/><path d="M129.848 137.096c3.53-5.477 22.46-34.15 24.018-37.198-3.123-8.852-32.345-65.533-37.348-77.247 19.803-2.154 39.475-4.59 59.047-8.132 11.732 4.25 23.907 10.116 33.576 17.638.363 2.171-21.739 41.947-32.142 59.403-1.062-4.26-1.41-67.805-.713-72.693-1.459.782-17.792 4.888-18.453 5.24.661.951 11.866 45.255 10.15 47.36-.581.714-8.592 4.612-12.28 6.383-.181-3.504-1.994-6.496-3.204-9.817-5.962 1.072-11.763 3.205-17.726 4.277 1.527 3.618 2.892 6.176 4.418 9.794 4.894-1.337 12.666-3.568 17.56-4.906 2.233-3.403-1.498-11.405-3.838-11.405-.698 0-13.777 3.194-17.791 4.562 4.884-7.17 8.023-12.058 8.595-12.573 5.012-.698 10.34-1.362 14.98.541 4.86 1.993 8.09 6.561 9.415 11.363 1.325 4.8.994 9.856.421 14.785l-8.32-1.81c.235 3.677 12.484 9.01 16.422 9.202 10.219.494 11.695-9.663 16.965-17.856 5.271-8.193 7.6-17.688 11.085-26.676l6.437 1.617a40.425 40.425 0 0 0-6.357 11.587c-1.449-.92-1.876-2.983-.9-4.342-2.038 2.67-4.812 10.58-1.764 12.207 4.884 2.606 8.936.563 11.97 2.214 3.033 1.65 6.038 3.861 7.007 7.014.97 3.152-1.179 7.232-4.689 7.308-4.428.096-4.025 4.663-1.788 8.234"/><path d="M204.891 41.476l24.67-.233c-8.69 8.503-18.497 15.409-18.04 27.156.155 4.015 2.01 10.977 1.416 14.956-.443 2.968-19.949 38.615-29.86 52.836-.441.634-.928 1.3-1.674 1.595-.724.286-1.548.167-2.322.043l-31.198-4.996"/><path d="M189.194 83.064c2.093.326 7.326.651 9.768.651-3.78 7.864-14.159 25.912-15.018 26.344-.733.368-17.833-.594-18.472-.273-.626.314-11.423 18.87-16.745 27.373 18.558 1.938 33.937 3.261 52.495 5.2-5.169 7.268-5.384 16.556-5.426 25.282-.01 2.232.49 5.098 2.828 5.56 1.297.257 2.592-.426 3.616-1.214 6.439-4.954 7.024-13.922 6.034-21.66-.391-3.058-2.455-7.049-5.592-6.099-1.617.49-2.426 2.15-2.953 3.66a39.408 39.408 0 0 0-2.047 9.455 36.175 36.175 0 0 1 9.29-1.728 31.51 31.51 0 0 1-8.679 6.925l8.163-1.618a88.605 88.605 0 0 0-10.069 11.81c-17.73.83-31.712-.31-49.405-1.682-1.57-6.949-3.776-15.65 1.396-20.856 4.097-4.124 8.06-3.372 13.992-2.406-5.107 6.398-6.461 15.251-3.48 22.73 7.795.75 15.674.734 23.467-.045l-.616-2.91c-6.232.041-12.269.144-18.362-1.075-.011-2.353.01-3.84 0-6.192 5.837 1.752 11.806.879 17.92.453a9.602 9.602 0 0 0 .454-5.19c-3.195-1.591-16.98-1.128-16.98-.802 0 .46 0-4.237-.11-5.586 10.966-.165 21.934-.254 32.903-.27"/><path d="M208.485 169.785c-.056 2.44-.036 5.094 1.571 7.018 2.93 3.51 9.443 2.096 12.185-1.545 2.741-3.64 2.802-8.418 2.76-12.869-.034-3.449-1.172-8.028-4.862-8.118-2.946-.072-4.736 3-5.435 5.674a29.41 29.41 0 0 0-.81 10.38c.308 3.053 2.474 6.902 5.627 6.05 1.806-3.648 2.55-7.749 2.13-11.749-.096 1.651-1.786 3.072-3.553 2.99-1.68-.73-1.79-3.36-.177-4.21 1.612-.85 3.965.595 3.766 2.315-2.908.358-6.424.492-8.156-1.72-.916-1.168-1.051-2.7-1.145-4.145a315.944 315.944 0 0 1 2.718-66.357l10.968-.177a147.978 147.978 0 0 1-4.252 51.246l-7.847.618c-1.695-9.21-1.957-18.588-1.492-27.907.195-3.914 4.226-21.556-.679-21.85-3.877 24.093-2.755 50.005-3.317 74.356z"/><path d="M132.911 157.238a175.17 175.17 0 0 1 .727 27.372c-2.901-.857-7.512-.565-7.276 2.268 3.876-.512 9.389 1.668 12.597-.837-6.977-.978-3.617-5.773-5.233-7.17 9.07-.326 32.529 2.631 39.77 2.282-.35-4.563-.466-35.094-.35-49.534 2.67-.003 4.307.33 6.978.326-.855 18.251-2.093 56.376-2.093 59.31 2.91-.087 5.976 2.35 8.72 3.258 8.025 2.607-.697 5.214-12.209 4.562-9.07-.977-3.43-4.75 1.396-4.888 10.924-.311 9.593 5.704 9.593 5.704h115.218"/></g><path d="M.5 200h78.557m115.823 0H299.5"/></g></svg>