<svg width="300" height="200" viewBox="0 0 300 200" xmlns="http://www.w3.org/2000/svg"><title>icon-rastvorosmesitel-noact</title><g stroke="#C1C1C1" stroke-width="2" fill="none" fill-rule="evenodd" stroke-linecap="round"><g stroke-linejoin="round"><path d="M.56 200l83.15-.013s9.108-5.458 12.8-10.332c4.227-5.58-.04-12.612-2.266-18.3-4.224-10.803-9.61-21.156-13.726-32.086-1.147-3.045-2.307-6.16-2.4-9.413-.09-3.253 1.082-6.727 3.761-8.572 2.163-1.491 4.927-1.716 7.548-1.892 29.658-2.003 59.269-4.72 88.89-7.25 13.648-1.166 28.477-2.055 39.84 5.695.364.249.689.567.893.958.814 1.558-.662 2.857-1.945 3.705a1133.708 1133.708 0 0 1-104.014 61.04c-1.12.58-2.346.957-3.607 1.007-3.867.153-4.882-2.68-5.678-5.237a566.993 566.993 0 0 1-8.239-29.191c-.525-2.072-.989-4.449.24-6.199 1.121-1.599 3.244-2.066 5.167-2.412l20.166-3.622c39.33-7.064 80.822-12.493 120.358-18.297 6.437-.945 13.254-.778 17.046 4.509 2.644 3.69.987 6.893-1.411 10.693a23.583 23.583 0 0 1-6.966 7.09c-10.42 6.88-21.56 12.54-32.681 18.192l-45.33 23.03c-7.018 3.566-14.062 7.143-21.3 10.225-7.145 3.043-15.435.074-19.111-6.767l-9.434-17.547c-4.377-8.14-8.89-16.88-7.611-26.161.2-1.455.79-2.818 1.718-3.958 1.76-2.162 4.544-4.418 7.218-4.932 26.45-5.084 83.311-12.968 83.941-14.357.307-.677-1.014-14.701-1.618-22.082a266.436 266.436 0 0 0-42.754 3.386c.557 9.533.833 16.644 1.39 26.177"/><path d="M216.677 168.004c.142 2.57 1.971 6.114 4.192 4.813.589-7.394.76-14.822.511-22.236 4.906-1.19 8.67 4.67 9.093 9.7.586 6.945-1.996 14.095-6.884 19.064-2.718 2.765-6.475 4.946-10.312 4.377-1.92-.284-3.692-1.24-5.19-2.472-5.204-4.276-7.032-11.998-4.815-18.358 2.216-6.36 8.096-11.15 14.67-12.614 5.362-1.196 11.585-.057 15.1 4.165 2.263 2.717 3.146 6.356 3.26 9.89.287 8.86-4.271 17.872-11.918 22.357-7.645 4.485-18.127 3.9-24.847-1.88-10.821-9.305-7.53-24.035 1.696-32.686 2.248-2.108 11.756-9.784 15.154-6.32 1.22 1.243-.043 8.808-.04 10.673.008 3.845.118 7.689.33 11.527zm-158.81-53.279c1.491 10.944-2.587 19.005-13.167 22.177a585.353 585.353 0 0 1-.172-33.035 45.086 45.086 0 0 1 10.02-1.785l-.252 8.586c-5.586 7.017-16.356 9.266-24.284 5.072l.558 16.148 11.192 2.632a340.406 340.406 0 0 1 .092-33.653 34.301 34.301 0 0 1-10.6-5.762l15.278-7.271c1.577-.75 3.29-1.52 5.005-1.191 3 .575 4.352 4.047 4.987 7.036a72.907 72.907 0 0 1 1.343 21.046 408.75 408.75 0 0 0 57.923-7.344c1.284-.257 2.645-.561 3.57-1.486 1.09-1.09 1.303-2.757 1.429-4.292.25-3.034.396-6.077.44-9.12.067-4.732-.928-10.613-5.448-12.014-1.36-.422-2.818-.327-4.237-.223a487.209 487.209 0 0 0-54.078 7.066 30.662 30.662 0 0 1 6.369 15.384 855.342 855.342 0 0 1 61.502-8.44c2.645-5.058 2.385-11.514-.658-16.345-3.043-4.83-8.753-7.853-14.458-7.653a108.353 108.353 0 0 0-.326 44.983l21.055 9.468-1.148-33.642c-.184-5.416-.552-11.313-4.157-15.359l26.212-2.56c1.26-.124 2.635-.22 3.683.49.83.563 1.284 1.527 1.664 2.457 3.11 7.626 3.779 16.225 1.884 24.239-.322 1.362-.775 2.8-1.876 3.664-1.076.844-2.535.958-3.901 1.038l-20.639 1.21-.1-9.893c7.232.071 14.47-.401 21.631-1.411 1.157-.164 2.354-.356 3.327-1.006 1.298-.867 1.972-2.392 2.508-3.858 3.386-9.253 3.893-19.537 1.435-29.08L122.807 49.17a83.634 83.634 0 0 0 11.131 25.97"/><path d="M160.74 61.62c23.138-2.485 42.608-4.969 65.746-7.453-3.753 3.124-9.942 11.34-10.663 12.668-.838 1.543 2.174 46.138-1.027 50.394"/><path d="M128.712 50.92a90.875 90.875 0 0 0-7.425-26.28c14.085-1.772 69.106-5.946 69.106-5.946 4.788 1.187 32.218 10.368 40.25 11.472-17.096 1.79-62.86 6.567-68.583 5.746-2.894-.416-25.818-6.694-35.904-9.457 14.048.855 25.144 1.821 38.968 4.47a264.704 264.704 0 0 1-3.593 24.173c23.669-2.264 51.025-5.001 74.783-5.929-5 5.554-12.835 12.958-16.087 19.687l29.5-.602c.937-.02 1.927-.027 2.745.431.935.523 1.462 1.545 1.887 2.528 1.792 4.142 2.723 8.92 1.184 13.163-1.54 4.243-6.144 7.558-10.526 6.477.405-4.12 2.978-7.678 4.239-11.62 1.262-3.943.51-9.293-3.387-10.685a18.971 18.971 0 0 0 .446 7.815 145.62 145.62 0 0 0-26.8 4.156c1.083 4.697-1.985 10.918 1.916 13.748 1.759 1.277 4.153 1.05 6.308.766l25.126-3.313c1.8-.237 3.641-.487 5.25-1.325 2.975-1.55 4.707-5.175 4.043-8.462-.665-3.287-3.67-5.955-7.012-6.228m-46.239 70.034c.699-3.697-2.312-7.282-5.852-8.554-3.54-1.273-7.439-.809-11.167-.308-13.846 1.861-22.629 14.348-15.195 27.555 3.05 5.416 9.253 8.277 15.325 8.256l.642-5.828c-3.746.25-7.51-2.236-8.75-5.78-.318-.91-.484-1.885-.383-2.844.287-2.777 2.773-4.925 5.456-5.702 2.682-.778 5.543-.471 8.318-.156a9.155 9.155 0 0 1 1.234 1.956m16.261-37.105c1.446-.991 3.566-.057 4.45 1.456.883 1.513.874 3.366.84 5.118-.417 21.763-1.252 76.184-1.252 76.184h81.727"/></g><path d="M.5 200H73m151.893 0H299.5"/></g></svg>