<svg width="300" height="200" viewBox="0 0 300 200" xmlns="http://www.w3.org/2000/svg"><title>icon-zavod-noact</title><g stroke="#C1C1C1" stroke-width="2" fill="none" fill-rule="evenodd" stroke-linecap="round" stroke-linejoin="round"><path d="M1 200l32.392-.145c-.13-7.99-.203-28.25-.149-28.382.08-.192 7.479-3.542 12.011.872-2.26.06-4.52.12-6.779.178l6.62.068c1.075.011-.058 14.374-.126 15.588l2.612.274c-.253-5.281.292-16.773.374-16.883.065-.089 2.453-1.152 4.225-1.291 1.771-.14 4.833.672 6.072 2.054 0 .023-4.385.094-4.852.11l4.99.217c-.29-.011-.721 15.062-.685 16.404.946-.097 1.992-.384 2.937-.48.077-5.16.963-18.38.963-18.38.14-.193 3.945-1.49 5.702-1.514 1.761-.024 3.88.64 4.32 2.492l-5.371.243a45.874 45.874 0 0 1 5.353.057l.088 17.056a14.145 14.145 0 0 1 4.482-.48c.19-5.724.385-17.788.599-17.955 3.073-2.406 8.578-2.437 10.707.743-2.093.29-4.205.413-6.314.37l6.188.014c.317 5.47.448 10.95.394 16.43 1.403-.383 2.677-.156 4.096-.214v-17.754c-.1-1.699 3.331-2.355 4.272-2.372 1.182-.021 2.39-.038 3.516.359 1.125.397 2.171 1.292 2.48 2.533a12.12 12.12 0 0 1-4.862.493l4.68-.186c.138 1.652.004 3.154-.142 4.807v12.17c1.87 0 3.623-.5 5.516-.356-.293-5.52-.22-17.8-.22-17.8.464-1.133 8.107-3.756 11.233.785l-5.232.556 5.129.093c.472 5.564.314 11.166.716 16.714.354.055 3.503-.698 3.503-.244l.298-18.53c.675-1.956 8.025-4.186 10.878 1.497-1.229.077-2.46.1-3.691.067a21.65 21.65 0 0 1 3.382.134c-.141 5.536.29 11.112.514 16.649 1.684-.035 3.228-.275 4.912-.31.042-5.649.141-18.093.141-18.093 1.185-2.252 7.779-3.074 10.244.508-1.538.965-4.242.9-6.006.947a21.75 21.75 0 0 1 6.292-.283c.28 5.621.402 11.252.365 16.88 1.807-.081 3.524-.188 5.332-.27a271.184 271.184 0 0 1 .05-18.268c1.338-1.884 8.04-2.823 10.592 1.034-1.894.402-3.841.5-5.762.291a23.65 23.65 0 0 1 5.426.12c.379 5.592.12 11.128.178 16.716 1.254.128 2.525.055 3.759-.217-.017-4.432-.317-18.067-.317-18.067 1.178-2.348 7.675-2.817 9.897-.145-1.391.482-2.96.629-4.415.723l4.31-.222a661.534 661.534 0 0 1-.397 18.079c1.345-.069 2.808.097 4.152.028-.263-6.019-.241-18.71-.062-18.935 1.216-1.523 6.119-3.87 10.586.763l-6.21.098 6.097.18a87.74 87.74 0 0 1 .524 16.56c1.547-.044 3.147.01 4.694-.035-.423-.423-.478-1.114-.503-1.736-.205-5.254.04-16.098.112-16.238.137-.26 7.426-3.228 8.677 2.147l-3.923.165 3.544-.082c.54 5.075.566 10.214.079 15.295a15.73 15.73 0 0 0 4.26-.305c.11-5.794.06-17.585.195-17.679 1.944-1.36 8.321-1.713 8.81 1.59a13.416 13.416 0 0 0-3.489.36l3.368-.212c.328 1.291.713 13.634.713 15.157 0 0 23.655-1.097 25.79-1.225 8.893-.531 17.793-.957 26.697-1.143 2.573-.053 5.146-.087 7.72-.098a6.43 6.43 0 0 1 .143-1.862v-25.05c-.94-.006-1.883.163-2.824.157-.587.254-.597.462-.6.648-.09 7.821-.182 15.642-.274 23.462-.623.059-.431.157-1.058.157h-37.292c0-8.842.503-17.292.251-25.972 5.336-.913 19.159-3.826 21.2-3.67 2.82.214 32.127 7.925 32.954 7.832.826-.092 1.669-.734 1.732-1.634a156.818 156.818 0 0 0-25.073-6.086c-.142-.62-.3-1.475-.113-2.08v-13.15c-3.58-.924-13.44-3.32-14.612-3.3-.79.012-13.71 2.582-19.391 3.712 3.726 4.896 7.052 10.23 10.191 15.59a181.22 181.22 0 0 0 6.874-17.018 66.167 66.167 0 0 0 5.892 14.898 346.48 346.48 0 0 0 9.42-12.416c-.483 10.314-.298 20.759-.525 31.084l-35.465 1.214c-.112-.649-.356-1.302.001-1.836V60.97c-2.82-.995-5.929-1.508-8.876-1.155-.861.103-1.785.302-2.371.996 0 .209.006.733.006.942v38.817c.217-12.738-.087-25.816-.985-38.519-.024-.335-.058-.697-.268-.944-.182-.217-.46-.299-.721-.371-2.028-.561-4.103-1.085-6.205-1.115-1.89-.028-3.467.573-5.147 1.447.037 2.12.066 4.227.066 6.358v32.678c-.504-.011-.597-9.162-.576-13.782.01-2.065.173-3.598.144-6.083-.069-5.892-.614-11.776-.243-17.655.019-.296.035-.61-.098-.87-.127-.246-.368-.395-.601-.522-3.178-1.732-7.209-1.448-10.155.715v38.037c-.543-.37-.622-1.22-.615-1.915.11-9.908.384-20 .25-30-.024-1.865-.144-3.727-.217-5.59-.051-1.316-.384-2.672-1.736-2.903-1.254-.214-2.647-.175-3.918-.134-.872.03-1.796.055-2.618.412-.404.175-.847.394-1.011.862-.099.28-.114.585-.128.884-.07 1.499-.15 3.016.025 4.51.107.92.312 1.683.312 2.619v31.577c-.623-4.54-.015-9.505.05-14.095.043-3.133-.056-6.267-.156-9.4l-.363-11.425c-.045-1.408-.122-2.918-.912-4.037-1.114-1.576-3.195-1.792-5.025-1.802-3.04-.015-7.227.155-9.568 2.568.351 8.229.12 16.197.12 24.098v14.549c.106-11.666-.302-23.02-.72-34.678-.028-.818-.062-1.652-.326-2.42-.475-1.378-1.731-2.398-3.084-2.502-1.353-.105-2.729.711-3.38 2.004.05.574.112 1.34.16 1.913v36.354c.62-11.715.043-23.675-.297-35.403-.018-.618-.04-1.253-.27-1.82-.485-1.193-1.807-1.77-3.006-1.69-1.2.08-2.311.678-3.385 1.264.05.678-.153 1.713-.104 2.39v36.775c2.95 0 5.477-1.67 8.423-1.811l9.572-.46-.026 1.37c-3.485.91-6.933 1.736-10.45 2.433-3.533.701-7.08 1.514-10.69 1.514V62.501c7.536 0 14.644-1.935 21.747-4.664 1.214-.466 2.226-.413 3.33-.465h56.065c-.327-1-.146-38.085-.146-38.085-.576 0-61.108-.411-61.108-.411.135.1.29 36.63.29 36.63.345.49.95-.2.983-.817a649.77 649.77 0 0 0 .889-38.022c-12.291 4.152-24.47 8.393-36.47 13.452l.44 118.642"/><path d="M216.497 185.644c1.033.2 2.077.334 3.125.398-.288 2.699-3.413 6.532-3.65 6.615-.299.105-4.327-3.788-4.527-7.108-.033-.554-8.899.074-9.432.034l3.572.407c-.204.676-3.073 7.077-3.29 6.85-1.257-1.315-4.26-6.473-4.392-8.045-2.914.718-5.949.953-8.878 1.642 1.195.013 2.39.11 3.573.292-.445-.069-4.585 7.258-4.585 7.258-.547-.827-4.26-6.622-4.96-7.212-.154-.131-.367-.137-.563-.138-2.233-.006-4.673.386-6.877.791 1.061.121 2.13.155 3.195.103.205.315-4.084 7.197-4.45 7.083-.175-.054-3.284-4.591-4.84-7.963-2.8.388-5.711 1.063-8.555.864l4.143.29c.135.01.307.05.332.196.013.07-.016.14-.043.203-.495 1.129-4.283 6.164-4.404 6.095-.874-.486-3.882-3.994-5.199-6.69-.531-1.022-3.865.066-4.792.137-2.296.177-4.587.42-6.87.729 1.695.086 3.391-.095 5.08-.276-.577.947-4.937 6.335-4.937 6.335-.615-.488-5.783-7.347-5.717-7.399-3.03.706-6.5 1.152-9.602 1.218a48.048 48.048 0 0 1 3.46.05c-1.295 2.111-4.878 6.494-5.19 6.403-.236-.068-3.706-6.502-4.21-6.823-.357-.226-5.891.312-8.46.73l3.532-.142c-1.672 2.353-5.059 7.168-5.245 7.168-.237 0-4.128-5.056-5.13-7.839-.998-.033-10.114.73-10.114 1.098a8.084 8.084 0 0 1 4.817.074c-.86 3.046-2.727 5.425-4.496 7.86-.932-.559-5.691-8.129-6.492-8.444-1.021-.401-2.73.247-3.77.414-1.456.232-2.91.477-4.362.732a26.28 26.28 0 0 1 3.317.167c-.293.573-4.815 7.132-4.815 7.132-.984-.965-5.367-8.015-6.87-8.077-1.01-.04-2.304.502-3.355.608-1.328.135-2.66.24-3.992.317l3.398-.02c-.344.935-4.685 6.88-4.766 6.894-.188.035-4.912-6.94-4.912-6.94-1.443-1.012-5.897.283-7.451.857a7.569 7.569 0 0 1 3.795-.38c-1.156 2.054-3.735 4.65-5.32 6.298-2.01-2.195-4.6-6.687-4.6-6.687-1.018-.78-2.152-.479-3.412-.452-.353.008-4.215.079-4.215.092 1.286.167 3.015.386 4.301.553 0 0-3.531 5.32-4.612 6.338l-3.819-7.042c-.275-.857.333-17.938.56-25.62 18.817-4.894 38.554-7.425 57.7-10.411 26.05 2.112 35.454 3.168 53.657 5.455l.003 7.418c.403.008.87.005 1.272.013.097.003.205 0 .273-.075.06-.065.07-.166.075-.258.162-2.532.218-5.072.171-7.61a1.128 1.128 0 0 1-.72.098c-6.924-1.378-13.53-2.754-20.569-2.918.426-4.457.579-8.944.458-13.423-.001-.04-22.68 1.674-24.33 2.19.087 3-.165 6.011.087 8.993.012.137 7.48.897 8.13.813.31-.04-.347-12.788-.347-12.788l.216.003c2.492 0 14.211-.604 17.133.291.033.595.178 6.97-.084 6.985 4.737-.295 41.735 12.415 44.817 12.45l-1.003 2.319c-8.404-3.302-37.26-11.278-43.045-12.291.275 1.776 1.6 2.854 2.685 4.117 1.017-.752 3.471-2.565 3.718-2.571.401-.011 3.027 3.606 3.25 3.675.263.082 3.043-1.423 4.175-2.04a16.253 16.253 0 0 1 2.73 3.61 20.42 20.42 0 0 1 2.8-2.233 18.816 18.816 0 0 1 2.678 4.713 53.44 53.44 0 0 0 4.208-2.946c.289-.224 2.266 4.863 2.347 4.872.052.006 4.053-2.392 4.053-1.86.546.406.137 2.495.874 3.107.093.078 4.661-.552 4.661-1.334-.273.171.71 2.704.761 2.971.354-.213 3.047-1.503 3.047-2.014a20.217 20.217 0 0 0 3.183 1.982c.055-5.363-.404-62.536-.404-62.536.632 0 59.279-.536 59.522.158v47.732l-1.729-.003h-52.35c.598.825 1.641 1.117 2.607 1.086a530.263 530.263 0 0 1 51.347.852c.148.163-.083.824-.163 1.036v31.884c-3.012-.164-16.766.685-17.923.46zm23.973-18.29c.174 3.746-.213 32.5-.826 32.5L301 200M155.851 64.376c.682-.342 1.397-.646 2.148-.695.75-.05 1.547.188 2.056.788.66.778.7 1.943.704 3.001l.033 10.52.024 7.572c.007 1.896.013 3.791.018 5.687.007 2.095.014 4.192-.119 6.283-.035.543-.083 1.101-.316 1.583-.24.495-.65.86-1.063 1.195a18.418 18.418 0 0 1-3.37 2.164m6.724-38.751a9.397 9.397 0 0 1 2.607-.858c.278-.047.57-.08.834.024.303.122.524.408.702.7 1.293 2.124 1.05 4.889.907 7.43-.18 3.184-.123 6.378-.067 9.567l.234 13.32c.017 1.02.033 2.059-.247 3.031-.2.696-.55 1.339-.998 1.884-.84 1.022-2.035 1.693-3.29 1.845m6.831-38.36c1.223-.525 2.471-1.038 3.78-1.182 1.309-.144 2.706.121 3.733 1.014 1.625 1.412 1.922 3.927 2.064 6.181.36 5.674.515 11.361.67 17.046.055 2.036.11 4.077-.03 6.108-.072 1.044-.2 2.104-.61 3.05-.993 2.291-3.352 3.416-5.519 4.351l-3.912 1.688m15.579-39.282c.815-.818 2.175-.696 3.07.016s1.397 1.871 1.698 3.03c.67 2.579.515 5.311.49 7.99-.043 4.863.364 9.741-.09 14.579-.176 1.87-.48 3.726-.577 5.604-.056 1.092-.043 2.197-.271 3.263-.5 2.342-2.235 4.324-4.363 4.988m9.935-38.103a13.966 13.966 0 0 1 2.697-.81c.343-.067.699-.12 1.039-.034.767.192 1.243 1.015 1.55 1.802.819 2.092 1.042 4.395 1.17 6.664.428 7.683-.147 15.385-.342 23.08-.04 1.578-.088 3.25-.884 4.572-.643 1.066-1.707 1.766-2.823 2.156-1.118.388-2.298.496-3.467.602m12.758-38.828a6.401 6.401 0 0 1 3.995-.16c.688.196 1.373.531 1.815 1.135.342.467.51 1.053.641 1.633.625 2.775.548 5.673.423 8.527-.145 3.32-.349 6.636-.576 9.951-.325 4.744-.7 9.512-1.803 14.116-.21.878-.483 1.808-1.14 2.366-.365.31-.813.473-1.253.624-.635.218-1.274.421-1.917.61M220.77 61.12c.923-.548 2.122-.297 2.967.385.846.681 1.386 1.72 1.77 2.785.924 2.57 1.053 5.391 1.015 8.15-.089 6.373-1.01 12.698-1.316 19.064-.09 1.874-.134 3.793-.754 5.544-.62 1.752-1.957 3.339-3.67 3.591M1.5 200h48m203 0h48"/></g></svg>