<svg width="302" height="172" viewBox="0 0 302 172" xmlns="http://www.w3.org/2000/svg"><g stroke="#C1C1C1" stroke-width="2" fill="none" fill-rule="evenodd" stroke-linecap="round" stroke-linejoin="round"><path d="M1 170.018h38.137s1.07-38.683.68-55.98c.018.825 1.325 1.715 1.753 2.3 2.664 3.647 9.387 24.415 11.02 26.907.063.096.13.194.223.246.119.064.256.044.385.021 3.327-.572 6.842-.259 10.237-.54.21-.018 8.933-25.498 11.31-31.398-5.95.147-11.9.225-17.852.234-5.71.009-11.432-.172-17.137.179.376-3.603.473-7.244.29-10.866 4.124-.15 8.127.224 12.26.128 4.524-.105 9.162-.37 13.672.062 3.636.35 7.352.32 11.014.597-.62 6.138.471 19.142.623 25.296.164 6.694.12 13.395-.135 20.086-.006.663-4.453 1.747-4.916 1.895-2.803.897-5.57 1.697-8.355 2.715-.51.187-1.029.375-1.564.404-.552.03-1.1-.111-1.64-.25a373.62 373.62 0 0 0-10.494-2.544c-3.063-.696-6.36-1.903-9.454-2.026-.006.765-.035 1.607-.041 2.372l19.056 4.191c1.197.263 2.463.565 3.361 1.524l-.087-12.415c-.065-9.287-.103-25.352-.435-34.684-.06-1.695-1.528-29.658-.722-29.694l8.42-.374c-.26 5.02-.522 17.632-.783 22.652"/><path d="M52.051 101.208c.875-3.28 1.85-14.209 2.054-17.656.076-1.295-.305-5.347 1.252-5.741a52.695 52.695 0 0 1 11.812-1.576"/><path d="M58.52 72.007c6.352 1.618 11.527 6.76 16.588 11.503 13.857 12.988 28.886 24.168 43.88 35.32l15.048 11.19c.113-3.847 2.985-7.32 6.29-7.605.863 2.492.046 5.62-1.863 7.135-1.909 1.514-4.714 1.258-6.396-.583-2.046-2.237-2.164-5.905-2.143-9.169l.08-12.217a20.634 20.634 0 0 1 7.848.3l-1.405 14.003c-3.704-3.88-8.603-5.742-13.03-8.412-4.765-2.873-9.033-6.723-13.331-10.463-14.597-12.7-29.844-24.35-45.08-35.992-.87-.665-1.806-1.354-2.848-1.353-2.498.003-3.616 3.586-4.044 6.446 1.837 1.074 4.113.146 5.72-1.345 1.607-1.492 2.816-3.494 4.404-5.013.381-.364.808-.712 1.3-.775.61-.078 1.19.296 1.72.655 18.722 12.67 38.194 23.844 58.233 33.415 4.268 2.04 8.567 4.009 12.708 6.378 3.944 2.258 7.735 4.875 11.733 7.003 4.337 2.309 8.886 4.025 13.424 5.737l15.559 5.87c-1.477 1.308-2.644 3.083-3.342 5.082-.19.547-.349 1.146-.236 1.722.203 1.044 1.263 1.616 2.174 1.463.912-.153 1.686-.84 2.367-1.56.895-.946 1.772-2.203 1.594-3.593-.261-2.039-2.73-2.752-4.267-1.723-1.537 1.029-2.323 3.058-3.013 4.957-3.67-2.216-7.844-2.964-11.787-4.414-3.383-1.245-6.604-3.01-9.812-4.771L92.229 85.893c-1.397-.766-2.844-1.577-3.813-2.975-2.305-3.326-.765-8.67 2.25-11.11 3.016-2.44 6.924-2.706 10.598-2.642 1.907.033 4.19-.093 5.168-1.996.368-.72.47-1.576.557-2.407.61-5.804.89-11.655.839-17.502.005.624 24.432 1.232 26.676 1.272 8.747.158 17.517.097 26.24-.4a79.758 79.758 0 0 1-.222-4.941c-.001-.042-25.074-.762-27.341-.817-9.472-.23-18.95-.274-28.42.063a19.235 19.235 0 0 0-.338 5.199l6.77.123-.218 9.716c-.065 2.959-.742 6.836-.217 9.719.286 1.57.286 1.136 1.724 1.111 1.43-.024 2.895.195 4.325.285 2.77.176 5.542.338 8.315.465 11.053.505 22.181.46 33.14-1.48-.747.134-2.687 4.936-3.072 5.682l-4.186 8.133c-1.385 2.69-2.771 5.382-4.287 7.975-2.416 4.136-5.235 8.059-7.034 12.634-.716 1.82-1.438 2.004-3.141 1.94-2.733-.102-5.406-.497-8.155-.375-1.732.077-5.737-7.663-6.656-9.124-2.467-3.918-4.675-8.075-6.272-12.572-.433-1.219-.712-3.286-1.398-4.302-.739-1.093-1.612-.814-2.899-.883-2.775-.151-5.558-.243-8.33-.45.647.049 1.537 78.072.82 84.018-.044.363-4.997.49-5.387.575.598-.131 1.185-94.069.755-94.09 1.076.054 3.126.285 4.202.338l.037 4.571c16.179.628 26.512.013 39.722 1.241l-.259-4.387 5.037-.156c-.168 1.65.16 3.229-.009 4.879 5.52-.552 10.52-1.388 15.955-2.644-.029-8.27-.029-18.235-.165-23.296.953-.158 2.922-.182 4.628-.158-1.169 8.196-.136 93.794-.387 108.847-1.891.238-3.302.368-5.194.605 0-6.327.953-74.971.953-80.824-4.764.95-9.664 1.898-15.01 2.969-.235 16.96.532 72.78.037 84.815-1.75.634-3.339.299-5.173.311-1.204-10.625.634-67.956-.558-85.824-9.475-.175-19.367-.675-29.067-1.199"/><path d="M119.435 90.158c-.537 21.034-2.12 42.283-.972 63.28 3.076-.85 6.096-1.02 9.221-1.315a1424.44 1424.44 0 0 1-.403-24.46c-.06-7.533-.442-15.173-.102-22.652m29.801-55.844a139.8 139.8 0 0 1-.409 17.519l24.582-3.227c-.242-7.02-.064-14.061.533-21.054-7.011-.43-14.013.765-20.958 1.957"/><path d="M167.487 70.052a176.158 176.158 0 0 0 15.626-2.488 280.244 280.244 0 0 1 .058-26.164l13.313-1.6c1.096 1.935-.263 5.001-2.254 5.088a9.726 9.726 0 0 1-.469-4.332c1.307-.547 2.287 1.634 2.001 3.214-.285 1.58-1.155 3.094-.88 4.676l-7.837.121c.71 13.773 1.421 27.554 1.459 41.351.049 18.423-1.103 36.854-.356 55.257l-4.513.322c-2.238-10.104-.137-20.73.01-31.162.204-14.369-3.315-28.951-.504-42.945l-7.853 1.68c-1.748.375-3.704 1.369-5.465 1.27-.386 9.447.12 19.131.577 28.536.485 9.971.141 19.857 1.112 29.835.464 4.757 1.318 10.016 4.634 12.856 2.103 1.802 4.823 2.266 7.428 2.492 3.709.322 7.449.274 11.133-.315 13.617-2.178 26.226-11.662 39.954-10.861-1.121.503-2.538-.458-2.713-1.84-.173-1.38.947-2.773 2.145-2.664 1.23.928.847 3.584-.582 3.963-1.43.378-2.758-1.892-1.906-3.278-3.02-.496-5.945 1.19-8.742 2.607-9.868 4.999-20.614 7.09-31.234 9.139-2.422.467-4.912.933-7.311.33-3.11-.782-5.746-3.33-7.478-6.433-1.732-3.102-2.645-6.727-3.235-10.36a66.816 66.816 0 0 1-.776-13.939c.232-4.74.968-9.433 1.149-14.175.341-8.975-1.307-18.039-.055-26.903"/><path d="M233.234 136.332l1.598.349 2.985 6.432c1.883 4.058 4.04 8.41 7.713 10.154 4.44 2.106 8.553-.696 11.523-5.073 2.97-4.377 4.9-15.342 4.9-15.342.272-13.444 1.44-66.481 1.092-70.84-8.516-.221-19.962.062-28.527 0-.35 24.347-.372 49.03-.723 73.376 9.768.209 20.45.091 30.193-.127.18-.005.375-.003.515.127.174.16.198.449.213.705a25.77 25.77 0 0 0 .618 4.315c.126.544.278 1.1.6 1.522.32.422.855.673 1.304.46.449-.215.67-.8.798-1.344a9.751 9.751 0 0 0 .143-3.694c-.117-.761-.345-1.539-.835-2.062-.49-.522-1.298-.7-1.826-.23-.614.55-.581 1.62-.49 2.516l.42 4.082c-1.63.209-3.273.266-4.91.17-1.77-7.485-1.229-63.212-1.362-69.763-.115-5.686.884-11.692.253-17.321-3.775.22-7.816-.645-11.677-.761a251.96 251.96 0 0 0-14.098-.034l.141 5.504c6.893.554 13.651.435 20.511.298.18-8.11.069-16.228-.332-24.327-3.479.325-6.233.089-9.716-.162 0 5.378.438 9.849.265 14.706-.007.19-.012.39.062.56.097.226.308.347.505.452 2.572 1.376 6.215.568 8.69-.807.347-.192.732-.484.745-.93.015-.56-.549-.868-1.017-1.007-2.065-.613-8.401-2.445-8.19 1.854l.532 10.77c0 .336-7.31.025-8.67.184-.143.016-.167 7.063-.353 8.845-3.783-.28-7.576-.372-11.366-.276.17 2.38.442 4.75.813 7.097.057.361 10.307-.184 11.066-.239 4.7-.34 9.417-1.045 14.125-.464v-6.222c0 .382-14.177 1.12-14.157.053-.071 3.859-1.037 58.384-.217 70.57-.066-.968-4.602-.707-5.214-.573-.144 7.777.186 15.566.164 23.355l2.477-.833a251.743 251.743 0 0 1-.118-20.9c1.846.012 3.353 1.737 4.318 3.565.964 1.828 1.631 3.905 2.912 5.448 2.958 3.56 7.897 3.04 12.101 2.257l.855 13.613 2.518.076c-.006-4.043.063-8.085-.151-12.12-.036-.671-.07-1.359.09-2.005.361-1.448 2.05-2.854 2.857-4.059a54.723 54.723 0 0 0 3.145-5.339l.177 19.956a7.493 7.493 0 0 0 2.846-.117c.208-5.577.12-11.146.099-16.728h-.85c.033 8.852 0 24.014 0 24.014H301M113.322 41.913c-3.069-11.867-2.235-25.037 2.294-36.257.307-.76.657-1.548 1.26-2.013.576-.445 1.297-.529 1.986-.6 9.843-1.015 19.75-2.03 29.59-.964.486.053.995.12 1.4.437.466.364.714.991.947 1.584 1.747 4.428 4.054 8.614 5.034 13.396 1.65 8.05-1.06 16.415-4.355 23.753-.14.308-.287.627-.527.836-.349.303-.818.314-1.253.313a4509.958 4509.958 0 0 1-33.61-.206c.634-3.115.151-6.368-.158-9.549a85.902 85.902 0 0 1 1.676-27.03c.105-.462.238-.965.582-1.228.418-.32.972-.158 1.453.006a44.013 44.013 0 0 0 29.866-.547c-.865.33.427 18.914.507 21.05.143 3.781.282 7.562.426 11.344.026.68-.269 4.75.216 5.202 8.8-.733 17.377-.363 26.121-1.953 4.43-10.632 5.452-24.031-.203-33.847-.513-.89-1.102-1.77-1.92-2.264-.63-.38-1.348-.503-2.052-.609a67.516 67.516 0 0 0-19.233-.125c-1.18.163-2.536.494-3.08 1.722.31-.7 8.294 1.195 9.168 1.235 4.415.203 8.805-.76 13.123-1.707 1.275-.28 2.433 11.411 2.455 13.028.074 5.327-.443 10.618-.554 15.938a468.246 468.246 0 0 1-1.665 30.828m-74.354 77.1l46.174 3.59c1.127.087 2.27.174 3.378-.08.882-.2 1.717-.612 2.551-1.002 11.728-5.488 24.594-7.261 36.13-13.275l.418 3.17c0 1.056-15.279 5.047-16.868 5.827-4.783 2.348-9.508 4.213-14.562 5.936-2.963 1.012-5.946 2.027-9.017 2.4-2.261.276-4.542.2-6.815.113-13.787-.52-27.613-1.434-41.356-2.279.43-1.084 1.5-1.577 2.471-1.97l14.737-5.972c6.059-2.455 12.089-4.035 17.563-8.142-.52.465-1.161-.307-1.7-.743-1.255-1.016-2.952-.134-4.311.681-4.505 2.705-9.182 4.252-13.916 6.062l-14.877 5.684z"/></g></svg>