<svg width="300" height="200" viewBox="0 0 300 200" xmlns="http://www.w3.org/2000/svg"><title>icon-service-noact</title><g stroke="#C1C1C1" stroke-width="2" fill="none" fill-rule="evenodd" stroke-linecap="round"><path d="M-.086 199.9h100.258s-17.463-14.847-22.174-24.15c-2.242-4.426-3.637-9.686-2.38-14.553 1.32-5.101 5.241-8.815 8.983-12.198a1954.334 1954.334 0 0 1 69.46-59.924c-1.572-9.902-3.102-29.159-1.989-31.56.55-1.188 30.405-29.037 32.825-29.988.945-.372 14.565 3.147 19.495 4.811-8.122 7.227-20.476 21.051-30.342 32.013 6.364 6.353 17.761 18.138 19.09 18.2 0 0 22.09-22.879 29.678-32.218 1.693 6.105 4.377 23.265 3.012 25.17-4.078 5.688-27.154 34.05-30.123 33.69-6.134-.743-19.393-3.692-25.037-.966-2.602 1.257-4.444 3.816-6.2 6.259-14.542 20.223-30.725 39.042-48.298 56.166-4.565 4.448-9.473 8.925-15.435 10.444-5.961 1.52-13.227-.93-15.572-7.097-1.74-4.577-.252-10.178 3.063-13.564 3.315-3.388 8.144-4.682 12.655-4.095 1.375.18 2.77.536 3.905 1.403 3.35 2.56 2.552 9.025-1.064 11.115-3.922 2.268-9.178-.479-11-4.894-1.822-4.416-.78-9.735 1.57-13.841 2.353-4.107 5.854-7.249 9.29-10.313l31.32-27.925c3.117-2.78 4.627-3.625 7.754-6.393L121.06 86.514c-6.526-5.734-12.302-13.956-18.579-20.004 3.875-4.292 6.1-5.707 8.905-10.91-8.795-5.996-26.165-18.945-32.189-23.648-1.29 1.444-10.883 9.416-15.224 11.54C69.06 52.843 80.087 71.432 85 80.299c.026.047 9.495-6.539 11.805-8.077 2.878 3.505 15.19 14.051 19.462 18.417 14.397 14.71 44.046 45.368 44.046 45.368.315 2.35-9.87 13.037-13.638 18.629 5.964 8.686 13.505 18.189 20.893 25.458 7.566 7.446 17.169 13.42 27.348 12.873 10.179-.548 20.334-9.605 19.99-20.713-.27-8.747-6.424-15.797-12.422-21.61a262.928 262.928 0 0 0-30.412-25.34c-2.14-.283-3.73 2.526-3.35 4.839.382 2.313 2.01 4.108 3.556 5.743l18.386 19.443c4.888 5.168 10.214 12.086 8.058 19.13-3.534 4.069-11.203-.291-10.168-5.782 1.035-5.49 11.212 2.487 14.808 7.402s6.215 10.825 10.797 14.64c4.281 3.565 12.035 6.625 23.26 9.182h62.602" stroke-linejoin="round"/><path d="M.5 200H73m167.957 0H299.5"/></g></svg>