<svg width="300" height="200" viewBox="0 0 300 200" xmlns="http://www.w3.org/2000/svg"><title>icon-rastvoronasos</title><defs><linearGradient x1="0%" y1="50%" y2="50%" id="a"><stop stop-color="#C1C1C1" offset="0%"/><stop stop-color="#E01976" offset="99.492%"/></linearGradient><linearGradient x1="99.492%" y1="50%" x2="0%" y2="50%" id="b"><stop stop-color="#C1C1C1" offset="0%"/><stop stop-color="#E01976" offset="100%"/></linearGradient></defs><g stroke-width="2" fill="none" fill-rule="evenodd" stroke-linecap="round"><path d="M0 200c13.826 0 39.901.223 53.772-.124 9.999-.249 21.117-1.473 27.667-9.031 5.37-6.195 6.523-16.228 7.198-24.111.772-9.023-3.941-19.042-13.098-21.923-5.288-1.666-11.146-.899-16.217 1.341-2.077.918-4.088 2.108-5.556 3.84-8.113 9.56-7.766 25.797-1.706 36.156 3.684 6.295 11.02 7.905 17.866 7.126.978-.111 1.961-.277 2.87-.656 8.82-3.674 5.15-17.676 3.878-24.62-.513-2.8-1.1-5.758-3.013-7.866-1.914-2.108-5.631-2.843-7.543-.733-1.136 1.254-1.319 3.075-1.446 4.761-.243 3.231-.488 6.462-.732 9.692-.023.31-.038.65.15.898.243.32.708.34 1.11.333 22.66-.434 104.822 12.063 116.779 14.735 8.768 1.96 14.095 1.085 14.095 1.085 3.026-2.763 29.669-82.149 29.635-83.125-21.28-2.42-46.846-5.576-67.922-9.386-1.105-.2-2.416-1.637-1.375-2.057-.52-21.175-1.128-41.038.907-62.122 0 .97-55.58.542-60.75.535a30.387 30.387 0 0 0 1.135-12.878L81.99 21l.013 14.423 11.286.092c-7.209-.28-14.767-1.166-21.905-.614-.968 6.916-1.853 49.596-1.605 50.695.358 1.59 1.495 2.88 2.663 4.018 9.241 9.003 22.603 12.752 35.503 12.86 12.9.11 27.55-2.033 40.061-5.177-9.264 4.796-21.111 7.457-31.442 7.951-9.419.451-20.221-.345-29.377-3.402-10.379-3.464-18.826-9.874-19.721-10.083-.89-.207-34.153 5.79-37.888 8.887-2.13 1.766-2.346 50.878-1.152 56.057.934 4.043 11.446 7.837 16.145 9.409a590.251 590.251 0 0 0 5.493-59.763c-5.495-.547-6.253-1.094-11.747-1.64-.354 10.92-.708 21.842-1.06 32.763a449.15 449.15 0 0 0 61.23 12.462l.007-40.587c-12.937.145-27.008-2.984-39.756-5.187-2.453-.423-4.531-.13-3.46-2.376 22.253 3.822 86.476 12.066 113.69 15.748 0 0 31.248-4.226 49.877-8.666-14.83 4.855-32.429 10.467-47.995 11.558 2.438 7.496 17.61 52.235 23.436 63.33-8.981-12.066-25.777-51.603-27.486-52.85-2.057-1.499-47.056-6.232-65.533-8.312 6.806 13.053 22.353 50.008 24.058 51.08 1.924 1.21 5.571 1.269 7.738 1.71 6.481 1.318 12.976 2.574 19.47 3.83 17.66 3.419 35.635 8.118 53.563 9.54-1.079-3.339-2.172-6.801-1.776-10.286.791-6.982 6.817-8.958 12.703-6.4 6.24 2.712 12.382 3.699 19.12 5.194.814.18 1.651.376 2.33.86.707.504 1.175 1.276 1.542 2.062 1.83 3.916 1.487 8.764-.873 12.385-6.676 10.246-23.598 1.805-31.843-2.591 4.53.68 9.028 1.583 13.47 2.704-.379-1.936-.757-3.925-.408-5.866.63-3.505 4.866-7.037 8.143-7.963 2.378-.671 4.898-.633 7.36-.416 8.767.773 17.268 3.99 25.794 6.038 4.988 1.199 10.15 1.873 15.102 3.166 5.085 1.325 3.976 3.94 3.861 8.822a226.772 226.772 0 0 1-27.806-6.544c-1.262-4.558-2.501-9.55-.611-13.885 1.89-4.335 8.437-6.699 11.433-3.04 1.652 2.018 1.566 4.897 1.396 7.499-.525 8.052-1.576 19.182-1.576 19.182L300 200" stroke="#E01976" stroke-linejoin="round"/><path d="M-.188 200H48.01" stroke="url(#a)"/><path d="M266 200h33.813" stroke="url(#b)"/></g></svg>