<svg width="223" height="148" viewBox="0 0 223 148" xmlns="http://www.w3.org/2000/svg"><title>Group</title><g stroke="#E01976" stroke-width="2" fill="none" fill-rule="evenodd" stroke-linecap="round" stroke-linejoin="round"><path d="M1 146.121h54.473s3.772-.143 4.27-1.897c.286-1.012-.103-2.123-.776-2.931-.721-.867-1.338-1.012-2.361-1.282-.899-.237-1.933-.452-2.694.082-2.677 1.88.2 4.37 2.409 4.317 5-.117 9.324-4.755 13.237-7.374-2.04-1.68-7.272-3.801-7.435-3.774-.223.038-3.726 3.479-5.308 5.037a10.837 10.837 0 0 1 3.276-5.484l-2.659-1.418c4.232-5.48 16.385-22.422 16.385-22.422l14.29 6.093s-9.138 14.478-13.023 22.102c.662-1.298-5.417-3.786-6.143-4.026-.125-.041 37.6-58.461 41.025-62.292.397-.444.82-.891 1.016-1.454.357-1.026-.166-2.2-1-2.895-1.254-1.045-4.373-2.24-6.014-2.155-2.512.129-2.371 1.825-3.588 4.029-2.003 3.628-36.228 61.718-36.228 61.718s2.038 1.162 2.98 1.86c3.778-5.984 21.185-34.453 21.185-34.453s-8.46-1.073-11.945-2.995c-4.893-2.7-6.486-9.268-5.13-14.39 2.572-9.72 15.943-15.562 25.15-15.618.496 1.91.787 3.874.866 5.846l2.136-6.336c2.977-8.825-31.19-47.118-36.167-51.113.846.68 8.076-1.744 9.372-2.004a7710.443 7710.443 0 0 1 32.685-6.49c1.776-.348 3.567-.698 5.377-.686 1.856.012 3.686.404 5.5.795 5.528 1.19 11.06 2.183 16.578 3.278 6.176 1.227 12.371 2.458 18.347 4.44a423.769 423.769 0 0 1-21.007 21.688c-.58 2.535.436 5.993-.173 8.522-.316 1.31-11.901 17.377-17.292 23.998.658-5.219-2.468-37.829-3.53-43.881-1.355-7.716 1.025-14.298 3.5-21.556 6.744 1.341 22.222 4.415 23.21 4.256.654-.106 7.081-1.406 9.607-1.518 1.43-.063 6.008 1.762 6.741 2.563 1.417 1.544 2.665 3.3 3.26 5.31.597 2.008.47 4.303-.694 6.045-1.163 1.743-3.468 2.763-5.458 2.108a84.609 84.609 0 0 0-4.28 11.2c-1.795-1.001-3.818-1.698-5.716-2.486l2.954-5.812a106.046 106.046 0 0 0 12.77 2.916c-.473 2.574-2.002 10.777-2.981 11.933-.98 1.156-2.868 1.69-4.03.718-1.084-.906-1.037-2.592-.638-3.947.252-.854.632-1.714 1.329-2.268.697-.554 1.778-.703 2.464-.136-2.259 5.61-1.216 25.255-1.878 28.932 2.775-1.002 6.219-1.531 9.142-1.934a26.974 26.974 0 0 1 4.943-13.937l5.47.167c.333-.727-.81-1.19-1.61-1.178l-36.8.533-1.225 1.809 18.565-.564"/><path d="M142.038 115.248a39.3 39.3 0 0 0 6.435-2.257c.699-.316 1.408-.667 1.91-1.247.472-.545.718-1.244.963-1.921a73.97 73.97 0 0 1 5.825-12.354c.615-1.042 2.23-.474 2.046.722a.923.923 0 0 1-.01.06c-.225 1.227-.664 2.241-.503 3.522 1.606.35 2.805 1.331 3.677 2.765.144.237.316.458.541.618 2.175 1.55 3.214-2.398 2.858-3.751-.401-1.529-2.314-2.254-3.785-2.088 1.061-6.815-.183-13.745-.643-20.627-.227-3.395-.261-6.8-.29-10.203-.065-7.91.122-16.495 5.026-22.702.441.076.123.643-.036 1.061l-2.242 5.897 2.864.198a1274.99 1274.99 0 0 0-.322 25.348l-9.307.167c.56 3.575.967 7.174 1.221 10.783.033.47.063.947-.03 1.409-.12.592-.435 1.125-.752 1.64-2.003 3.256-4.315 6.415-5.355 10.093-.672 2.378-.94 5.162-2.917 6.644-1.038.778-2.363 1.03-3.616 1.365a23.715 23.715 0 0 0-5.293 2.126c.678.662 1.155 1.983 1.735 2.732z"/><path d="M81.78 125.37c.765 2.47 6.288 3.222 9.333 2.06s5.047-5.548 5.302-8.798c-.058.733 21.383 5.436 23.794 5.699 5.353.487 10.752 1.52 16.112 1.702-1.458-1.534-4.223-2.035-2.492-4.703 1.045-1.61 3.707-2.031 5.149-.756 1.699 1.501 1.512 4.163 1.12 6.397-.377 2.143-1.124 4.642-3.197 5.307-2.182.699-4.474-1.316-4.952-3.556-.477-2.241.313-4.536 1.093-6.69-1.723.18-3.527.35-5.136-.293-1.609-.641-2.925-2.376-2.481-4.05.236-.891.904-1.592 1.548-2.251 1.494-1.53 3.02-3.085 4.898-4.108 1.878-1.024 4.198-1.456 6.172-.63 1.93.807 3.22 2.662 4.083 4.568 3.36 7.427 1.214 16.96-5.004 22.231-2.803 2.375-6.994 3.876-10.11 1.929-.966-.604-1.73-1.486-2.371-2.428-3.263-4.784-4.055-11.541-1.043-16.488a204.858 204.858 0 0 0-27.72-6.1c-.176-3.61-.1-7.233.225-10.833 1.895-.825 7.042-3.06 7.77-3.09.92-.039 1.796.35 2.648.7 8.072 3.33 16.965 3.945 25.678 4.52-1.558 2.12-3.615 3.758-4.705 3.965-2.584.49-22.077-3.737-28.134-4.939 3.459-1.88 6.346-3.897 10.068-5.181-.159-4.126.795-7.843 1.404-11.927a27.527 27.527 0 0 0-6.286-.281c7.345-.516 14.647 1.026 21.928.879l9.683-27.494c.483-1.372 1.02-2.82 2.168-3.715 1.147-.895 3.105-.904 3.832.356-4.065 9.039-20.56 49.52-21.616 53.854 0 0 2.16.344 3.386.772l-2.628 5.107c-2.566-.416-8.516-1.403-8.712-1.74-.204-.351 1.098-3.95 1.621-5.195l4.216.723c1.696-4.616 5.855-16.398 7.22-18.623 0 0-2.842-.794-5.105-.807-.433 1.759-1.37 5.858-2.184 8.663-.583.496-2.284-.075-2.284-.075-.357-.678 1.04-6.954 1.986-8.63-1.241-.372-2.67-.434-3.753-.304-.235 1.69-.715 8.343-1.027 8.624-.437.392-1.499-.109-2.111-.187.233-3.204.53-7.41 1.986-10.275 5.603-.05 26.703 2.697 31.685 3.346.678.088 1.38.185 1.955.552.78.497 1.19 1.396 1.559 2.245.942 2.171 1.89 4.655.944 6.825-.522 1.197-1.553 2.092-2.617 2.848-.944.67-2.05 1.29-3.194 1.117-1.363-2.701-1.224-5.91-.701-8.89.138-.791.31-1.596.733-2.277.425-.681 1.156-1.223 1.958-1.213.802.011 1.59.724 1.5 1.521-1.533.117-3.08.059-4.6-.174-.443-.068-.945-.137-1.299.14-.194.15-.306.383-.396.612-.527 1.344-.604 8.493-.066 10.697-.86-.525-5.043-1.017-5.586-1.31-.63-.34 1.701-8.199 3.394-11.103-2.383-.097-4.695-.151-7.078-.248-.333.666-.78 1.642-1.113 2.308l5.294.447c-.23.881-.908 2.033-1.077 2.77-2.105.151-3.381-.491-5.456-.883 0 0-.645 1.415-.69 2.063 1.675.34 3.925.454 5.629.583.004.913-.724 2.335-1.035 3.142 0 0-6.917-.769-7.512-.79 1.098-2.264 17.542-36.477 17.917-38.512 4.45-.99 8.956-1.733 13.488-2.225l-.444 22.18c-.006.329-.04.711-.313.895-.157.106-.358.118-.548.125-3.227.117-6.623-.109-9.372-1.804-2.753-1.699-4.475-4.632-5.925-7.525-.657.514-1.188 1.222-1.4 2.03-1.855 7.062 5.98 9.228 7.178 9.467a69.733 69.733 0 0 0 15.283 1.324c.886-.021 1.84-.084 2.527-.643.688-.56.863-1.801.112-2.272-.256-.16-.565-.203-.864-.234a16.49 16.49 0 0 0-3.271-.017 31.011 31.011 0 0 1-.09-4.006c3.393-1.172 7.434-.159 9.873 2.476 4.937 5.33 2.09 12.544-4.422 14.359 2.44.253 4.286 2.315 5.115 4.51.792 2.094.693 4.427.265 6.624-.3 1.535-.764 3.063-1.622 4.37-1.064 1.62-2.754 2.848-4.656 3.216-1.901.368-3.99-.177-5.373-1.533-1.719-1.685-2.156-4.274-2.204-6.68-.057-2.864.45-6.016 2.616-7.89 1.096.697 2.014 1.143 2.946 2.048.396.384.793.817.893 1.36.093.497-.08 1-.215 1.487-.5 1.792-.431 3.955.934 5.221.613.569 1.158.167 1.708-.462 1.972-2.255 3.254-8.19-1-9.132-.838-.185-2.015-.238-2.128-1.089-.036-.276.076-.547.181-.805a24.094 24.094 0 0 0 1.765-9.705c6.365.7 11.404-4.033 11.725-10.342.068-1.337-.126-2.748-.912-3.832-.876-1.207-2.345-1.826-3.781-2.226a19.902 19.902 0 0 0-4.523-.711"/><path d="M136.321 126.033c3.982 3.414 2.192 10.141-5.028 10.126-2.582-.005-4.26-2.884-6.067-4.728-1.236 3.442-.852 8.674 2.276 10.569 3.128 1.895 9.333 4.11 13.17 4.121h81.325"/></g></svg>