<svg width="300" height="200" viewBox="0 0 300 200" xmlns="http://www.w3.org/2000/svg"><title>icon-snekpair-noact</title><g stroke="#C1C1C1" stroke-width="2" fill="none" fill-rule="evenodd" stroke-linecap="round"><path d="M0 200h93.759c15.846 0 33.711-.24 48.4-6.986 11.145-5.119 24.038-20.512 19.676-33.562-.746-2.233-2.016-4.25-3.36-6.183-.49-.705-1.012-1.421-1.74-1.876-1.54-.96-3.645-.48-5.059.656-1.414 1.136-2.29 2.793-3.116 4.408-5.81 11.367-9.133 27.361-24.771 27.222-1.116-.01-2.272-.14-3.234-.705-2.182-1.279-2.616-4.41-1.662-6.75.954-2.342 2.922-4.09 4.777-5.807 5.097-4.716 9.864-9.9 13.258-15.959 3.393-6.06 5.35-13.081 4.566-19.981-.206-1.814-.632-3.679-1.774-5.102-1.143-1.423-3.164-2.272-4.855-1.586-1.058.431-1.818 1.363-2.512 2.27-7.294 9.528-8.371 22.305-20.358 28.055-2.086 1-4.473 1.589-6.721 1.048-2.248-.54-4.267-2.43-4.421-4.738-.103-1.53.584-2.995 1.313-4.344 6.495-12.029 17.352-20.088 23.17-32.856 1.688-3.704 2.033-7.056 1.575-11.046-.102-.897-.33-1.889-1.088-2.38-1.498-.972-3.247.789-4.17 2.318-6.076 10.07-11.412 21.664-21.671 27.888-1.627.987-3.354 1.895-5.236 2.164-1.883.27-3.964-.201-5.235-1.615-1.969-2.188-1.33-5.714.204-8.226 2.831-4.64 6.54-8.313 10.329-12.126 5.574-5.61 9.426-12.443 12.979-19.47.839-1.66 1.64-3.384 1.858-5.232.217-1.847-.236-3.864-1.592-5.138-5.766-5.42-13.29 14.076-15.326 17.334-2.825 4.523-6.296 8.785-10.86 11.545-1.437.87-3.01 1.592-4.683 1.735-1.674.145-3.469-.364-4.578-1.626-1.947-2.216-1.141-5.687.189-8.32 3.661-7.25 9.745-14.042 15.048-20.15a43.02 43.02 0 0 0 8.906-16.537c.509-1.816.462-4.422-1.378-4.84-1.203-.272-2.312.688-3.119 1.62-3.988 4.613-6.513 10.223-10.623 14.747-4.668 5.139-10.258 9.353-16.574 12.262-1.222.564-2.708 1.066-3.853.358-.637-.393-1.024-1.093-1.259-1.804-2.46-7.465 5.707-11.662 10.363-15.495 6.035-4.969 12.25-9.988 15.173-17.5 2.315-5.947 2.2-13.145-1.607-18.267-3.398 9.06-10.057 16.7-18.226 21.804-6.79 4.242-20.314 10.92-28.31 8.027-3.632-1.315 6.117-13.34 7.321-14.376 8.322-7.16 34.665-27.776 42.468-9.95 2.135 4.878 2.664 10.614 6.172 14.62 4.605 5.26 14.02 7.473 14.123 14.464.04 2.658-1.479 5.37-.566 7.866.586 1.604 2.04 2.691 3.286 3.858a20.15 20.15 0 0 1 6.13 11.807c.137.983.219 2.027.79 2.84.64.913 1.75 1.337 2.752 1.827 6.494 3.184 9.958 11.485 7.655 18.34 8.757 3.116 14.886 12.426 14.285 21.703 11.553 3.335 16.148 18.814 11.183 29.767-4.966 10.951-16.534 17.529-28.162 20.59-4.208 1.107-10.237.768-11.01-3.513-.295-1.641.382-3.45-.363-4.941-.62-1.242-2.018-1.839-3.233-2.508-6.304-3.468-9.602-11.607-7.49-18.484-5.336-.905-9.731-5.776-10.085-11.178-.127-1.928.206-3.895-.213-5.782-1.448-6.539-10.937-9.183-11.594-15.849-.156-1.58.231-3.257-.4-4.715-1.25-2.887-5.357-2.95-7.805-4.925-5.847-4.72.573-16.805-5.862-20.687-2.826-1.705-7.346-1.004-8.715-4.008-.786-1.724.043-3.716.07-5.61.102-7.285-10.448-9.583-13.76-16.072-2.894-5.664.645-12.47 4.761-17.317 7.559-8.9 18.64-16.09 30.23-14.67 9.893 1.214 42.755 8.371 49.142 16.023 3.823 4.582 7.363 9.63 8.74 15.437.266 1.122.537 2.398 1.52 3.002.973.6 2.231.278 3.309-.102a45.71 45.71 0 0 0 17.966-11.666c.798-.844 1.609-1.835 1.595-2.996-.011-.863-.48-1.644-.935-2.376l-10.286-16.58c-1.007-1.624-2.046-3.283-3.553-4.458-3.376-2.634-8.395-2.16-12.1-.015-3.707 2.146-6.399 5.644-8.99 9.053-.995 1.306-2.01 3.123-1.052 4.456.707.985 2.125 1.087 3.33.949 5.986-.687 11.32-5.332 12.823-11.167-1.33-1.949-4.762-.54-5.34 1.747-.578 2.289.63 4.61 1.797 6.66l9.029 15.87c1.084 1.907 2.254 3.901 4.155 4.995 4.594 2.645 10.088-1.267 13.924-4.926 2.91 1.042 4.577 4.325 4.515 7.415-.061 3.09-1.529 5.986-3.29 8.526-4.824 6.957-12.168 12.126-20.346 14.32.701 3.432 6.354 2.39 8.62 4.018 3.743 2.688 2.983 7.654 2.06 11.47 10.007 3.192 20.855-4.35 23.544-13.912 1.076-3.825.977-8.175-1.215-11.488-2.193-3.313-6.816-5.127-10.372-3.354-2.319 5.373-4.552 10.361-7.418 15.501-2.374 4.256-4.824 8.844-4.411 13.7.458 5.384 8.696 1.188 11.039 6.343 1.817 4-3.687 9.688-.12 13.08 1.045.991 2.612 1.192 4.049 1.106 6.087-.364 11.155-4.816 14.873-9.65 3.183-4.138 5.862-9.132 5.31-14.323-.55-5.191-5.572-10.09-10.631-8.805.204 9.288-3.531 18.6-10.097 25.173-1.917 1.92-4.234 4.728-2.666 6.942 1.808 2.554 6.13.448 8.854 1.987 5.25 2.964-1.53 13.834 3.965 16.312 1.298.584 2.806.321 4.183-.03 7.648-1.947 15.172-7.004 17.154-14.643 1.982-7.638-4.307-17.071-12.117-15.94.87 8.451-2.459 17.234-8.712 22.985-1.532 1.408-3.407 3.162-2.858 5.17 1.043 3.81 7.882 1.26 10.332 4.361 2.704 3.424-3.213 8.377-1.544 12.408 1.175 2.838 5.141 3.002 8.12 2.255 7.194-1.803 14.032-6.684 16.23-13.766 2.196-7.084-1.79-16.045-9.047-17.57 1.21 6.212-.3 12.905-4.063 17.995-3.322 4.496-8.465 8.155-9.274 13.686l8.732.506c2.433 2.124-.6 5.942-.565 9.172.049 4.714 6.691 6.376 11.061 4.606 5.266-2.132 9.24-7.174 10.081-12.792.842-5.618-1.48-11.604-5.89-15.184l-9.65 27.754a14.004 14.004 0 0 0 5.549 1.661c-3.617 4.676 1.626 12.21 7.534 12.008 5.908-.201 10.493-5.728 11.816-11.49 1.43-6.23-1.453-14.32-7.8-15.085.695 5.246-1.01 10.76-4.54 14.701-2.042 2.28-4.895 4.865-3.93 7.769.996 3.001 5.325 3.252 8.134 1.799 2.81-1.453 5.064-3.979 8.1-4.864 2.237-.651 5.655 11.91 21.333 11.91H300" stroke-linejoin="round"/><path d="M.5 200h48m203 0h48"/></g></svg>