<svg width="300" height="200" viewBox="0 0 300 200" xmlns="http://www.w3.org/2000/svg"><title>icon-rashod-noact</title><g stroke="#C1C1C1" stroke-width="2" fill="none" fill-rule="evenodd" stroke-linecap="round"><path d="M.996 199.693h72.557s.593-3.81.381-7.373c-.049-.816-.851-7.702-.453-7.63a25.752 25.752 0 0 1-12.575-6.177 121.92 121.92 0 0 0-8.733 6.113c-1.283-.532-12.57-9.373-11.303-10.423a119.02 119.02 0 0 1 9.84-7.337 27.344 27.344 0 0 1-1.751-13.59c-3.227-.759-6.376-.533-9.583-1.253-.154-4.1-.003-8.012.317-12.126a22.732 22.732 0 0 0 8.413 2.081c1.05.047 2.91-4.507 3.34-5.29 1.69-3.077 3.381-6.154 5.07-9.232a28.688 28.688 0 0 1-5.936-6.786 58.55 58.55 0 0 1 10.149-7.307l6.263 5.482c.216.189 4.059-.773 4.676-.878 2.74-.467 5.478-1.375 8.176-2.052a82.314 82.314 0 0 1-.12-8.699c4.09-.014 7.932-.671 12.035-.627.003 0-.245 7.875-.275 8.374 2.956.444 5.887.913 8.68 2.023 2.775 1.103 5.07 3.207 7.693 4.664.907.219 1.212-.066 1.477-.322a16.964 16.964 0 0 1 7.582-4.227c1.229.615 8.141 7.545 7.852 7.795-1.526 1.316-3.01 2.89-4.624 4.075-.271.2-3.536 1.716-3.545 1.673 1.065 4.86 1.245 10.4 1.245 15.437a33.74 33.74 0 0 0 7.376 1.086 84.11 84.11 0 0 0-.482 15.671l-7.922-.115c-.355-.005-.724-.008-1.05.133-.425.184-.712.58-.978.958-2.662 3.78-5.146 7.42-8.377 10.67 1.775 2.875 2.708 5.075 5.252 7.378.247.532.07.687-.09.804l-9.934 7.249a30.526 30.526 0 0 0-4.546-6.869c-.733-.482-1.06-.372-1.352-.262-1.078.406-15.178 5.221-15.187 4.035-.012-2.828.027-5.657.118-8.484-.054 1.698-12.861-3.624-13.822-4.228-4.111-2.585-7.522-6.332-9.414-10.828-1.888-4.486-2.396-9.454-2.186-14.316.11-2.548.419-5.123 1.372-7.488 2.833-7.041 10.568-10.69 17.862-12.786 4.49-1.29 9.314-2.241 13.786-.892 5.93 1.789 9.998 7.241 12.722 12.804 2.913 5.948 4.81 12.665 3.684 19.191-1.126 6.527-5.83 12.718-12.308 14.096a52.65 52.65 0 0 1-8.675-21.946c1.903.38 2.584 3.086 1.49 4.69-1.091 1.603-3.26 2.144-5.188 1.942-1.105-.116-2.266-.485-2.934-1.373-2.233-2.968 3.107-7.41 4.747-9.496a332.77 332.77 0 0 1 8.806-10.73c4.577-5.345 9.117-10.723 13.77-16.002 1.136-1.29 2.294-2.56 3.43-3.85 1.548-1.755 1.249-1.5.583-3.48-.805-2.397-1.94-5.159-2.428-7.657-.413-2.12-.18-4.433-.65-6.608a33.593 33.593 0 0 1-13.979-3.823 39.674 39.674 0 0 1 1.269-12.856l13.057-.408c2.848-6.581 6.553-13.264 10.656-19.146-3.256-2.842-5.301-6.723-8.792-9.345 4.286-3.064 8.592-5.983 12.838-9.119-.755.557 7.032 5.847 7.517 6.25 4.901-3.404 11.33-4.435 17.295-4.243 1.545-3.804 3.468-7.335 4.936-11.177.445-.537.654-.515.844-.489 4.906.67 9.538.423 14.48.646.195 4.202.609 8.394 1.238 12.554 5.127 1.843 10.277 5.403 14.085 9.299 3.992-2.003 8.25-3.03 12.24-5.032.791-.148 1.014.071 1.206.276 1.846 1.967 3.61 4.006 5.389 6.032.257.291 2.986 4.546 3.553 4.1-.903.71-7.517 8.324-8.392 7.61.66.54.898 1.431 1.088 2.263 1.33 5.804 2.56 12.294 2.994 18.23 4.895.995 9.204 3.648 13.771 5.638l-1.721 12.223c.001-.01-11.855 2.17-12.942 2.482a46.475 46.475 0 0 1-6.956 16.498c1.599 3.498 3.26 6.974 4.67 10.547-3.46 3.867-6.891 6.877-11.267 9.669a24.238 24.238 0 0 1-10.985-7.628c-5.267 3.527-11.154 4.731-17.338 5.364-.338 4.273-1.319 8.072-2.964 12.01l-14.078-1.264c-.455-4.382-1.866-8.116-2.32-12.498-3.142-.72-5.392-2.327-8.075-3.949-2.502-1.51-5.216-2.384-7.536-4.325 3.729-3.352 6.875-7.74 10.215-11.491-6.786-2.18-11.663-8.543-13.494-15.431-1.83-6.889-.992-14.231.792-21.132 1.505-5.824 3.818-11.694 8.24-15.772 4.93-4.545 11.8-6.262 18.43-7.25 5.594-.834 11.374-1.257 16.851.158 9.188 2.373 16.597 9.96 19.745 18.911 3.15 8.952 2.297 19.036-1.323 27.808-1.483 3.591-3.423 7.014-5.94 9.974-9.82 11.554-28.707 13.979-41.128 5.28a665.785 665.785 0 0 0 15.182-15.963c4.14-4.505 10.207-9.743 12.212-15.696 1.583-4.7 4.063-9.802-5.82-10.602-9.882-.8-13.566 6.44-10.352 11.918.74 1.263 4.084 5.476 5.98 7.742 4.296 5.13 9.55 9.266 14.32 13.927 5.005 4.889 9.743 10.04 14.477 15.186 9.568 10.4 29.68 32.255 30.33 32.534.64.276 67.706-2.228 72.426-2.91-.56-21.674 2.656-43.428.405-64.992-8.867.079-60.781-1.182-61.28-1.328-.522-.154-14.13-20.706-16.097-24.49 9.481-.93 58.198.112 58.748.332.463.184 20.465 24.954 20.104 28.71-20.918-.839-41.836.839-62.755 0-2.134 33.33-2.027 98.503-2.027 98.503h81.655" stroke-linejoin="round"/><path d="M.5 200H73m151.893 0H299.5"/></g></svg>