<svg width="300" height="200" viewBox="0 0 300 200" xmlns="http://www.w3.org/2000/svg"><title>icon-products-noact</title><g stroke="#C1C1C1" stroke-width="2" fill="none" fill-rule="evenodd" stroke-linecap="round" stroke-linejoin="round"><path d="M16.873 199.917h54.38c-.33-.33.556-3.726.678-4.177.449-1.665 1.648-4.55 1.25-6.229-1.385-.89-5.142 2.204-2.697 4.07 1.308.999 3.094.865 4.702.513l17.603-3.866c-.061-2.778-1.667-5.167-4.43-4.878-2.764.289-7.345.734-10.057 2.173 2.712.764 5.12 1.843 5.145 4.399.79-2.66.343-5.661-1.19-7.974l5.956-7.52c.7-.885 1.469-1.817 2.549-2.146.976-.297 2.031-.042 2.997.29 4.402 1.516 8.213 4.687 10.504 8.74l-7.6 6.263c-.478-3.152-3.047-5.879-6.164-6.543 1.204.257 6-11.458 6.766-12.726 4.372-7.223 21.874-36.593 26.285-44.116 1.841-3.14 4.148-6.421 8.006-3.98.26.165.523.37.616.664.155.486-11.057 19.031-15.978 28.046-4.946 9.06-11.6 17.016-17.65 25.345.74 2.634 2.673 4.906 5.154 6.06l12.458-19.999c.5-.803 1.013-1.641 1.113-2.582.313-2.964-3.258-4.629-6.145-5.373l-9.823-2.535c-6.266 9.808-13.182 22-19.063 32.045"/><path d="M104.488 152.742c2.477-4.114 15.762-25.654 16.855-27.945-2.192-6.65-22.699-49.232-26.21-58.031 13.897-1.619 27.702-3.449 41.438-6.11 8.233 3.194 16.777 7.6 23.562 13.25.254 1.632-15.256 31.513-22.557 44.627-.744-3.2-.99-50.938-.5-54.61-1.023.587-12.485 3.672-12.95 3.936.465.715 8.328 33.997 7.124 35.579-.408.537-6.03 3.465-8.618 4.796-.127-2.633-1.4-4.88-2.249-7.375-4.184.805-8.255 2.408-12.44 3.213 1.072 2.718 2.03 4.64 3.101 7.358 3.435-1.005 8.889-2.681 12.323-3.686 1.568-2.556-1.05-8.569-2.693-8.569-.49 0-9.668 2.4-12.485 3.428 3.427-5.386 5.63-9.058 6.031-9.445 3.518-.525 7.256-1.024 10.513.406 3.41 1.497 5.677 4.93 6.607 8.536.93 3.607.698 7.405.296 11.108l-5.84-1.36c.166 2.762 8.762 6.77 11.525 6.913 7.171.371 8.208-7.26 11.906-13.414 3.699-6.155 5.334-13.289 7.779-20.04l4.518 1.214a31.06 31.06 0 0 0-4.462 8.705c-1.016-.691-1.316-2.242-.63-3.262-1.432 2.006-3.378 7.948-1.24 9.17 3.428 1.959 6.272.423 8.4 1.663 2.13 1.24 4.238 2.902 4.918 5.27.68 2.368-.827 5.433-3.29 5.49-3.108.072-2.825 3.503-1.255 6.186"/><path d="M157.15 80.908l17.314-.175c-6.099 6.388-12.982 11.576-12.661 20.401.11 3.016 1.411 8.246.994 11.235-.31 2.23-14 29.01-20.955 39.693-.31.476-.651.977-1.175 1.198-.507.215-1.086.126-1.629.033l-21.894-3.753"/><path d="M146.135 112.15c1.468.245 5.14.49 6.854.49-2.652 5.907-9.935 19.466-10.538 19.79-.515.277-12.515-.445-12.964-.205-.439.237-8.016 14.177-11.75 20.564 13.022 1.457 23.816 2.45 36.839 3.907-3.628 5.46-3.779 12.438-3.808 18.993-.007 1.677.345 3.83 1.984 4.177.91.193 1.82-.32 2.538-.912 4.519-3.722 4.93-10.459 4.235-16.272-.274-2.297-1.724-5.295-3.925-4.581-1.134.368-1.702 1.613-2.072 2.748a31.383 31.383 0 0 0-1.436 7.104 23.897 23.897 0 0 1 6.52-1.298 22.474 22.474 0 0 1-6.091 5.202l5.728-1.215a65.573 65.573 0 0 0-7.066 8.872c-12.443.623-22.255-.233-34.67-1.264-1.103-5.22-2.65-11.757.978-15.668 2.875-3.098 5.657-2.533 9.82-1.808-3.584 4.807-4.535 11.458-2.442 17.076 5.47.563 11 .552 16.467-.033l-.431-2.186c-4.373.03-8.61.107-12.886-.808-.008-1.767.007-2.885 0-4.652 4.096 1.317 8.285.66 12.576.34.44-1.243.55-2.6.318-3.899-2.243-1.195-11.915-.847-11.915-.603 0 .347 0-3.182-.079-4.196 7.696-.124 15.393-.19 23.09-.202"/><path d="M159.673 177.3c-.04 1.832-.025 3.826 1.102 5.272 2.057 2.636 6.627 1.574 8.551-1.16 1.924-2.735 1.967-6.325 1.937-9.668-.024-2.591-.822-6.031-3.412-6.099-2.067-.054-3.324 2.254-3.814 4.262a23.594 23.594 0 0 0-.569 7.798c.217 2.294 1.737 5.185 3.95 4.545a17.162 17.162 0 0 0 1.494-8.826c-.067 1.24-1.254 2.308-2.494 2.246-1.178-.55-1.256-2.523-.124-3.162 1.132-.64 2.783.447 2.644 1.739-2.041.269-4.508.37-5.724-1.292-.643-.878-.738-2.029-.804-3.114a253.916 253.916 0 0 1 1.908-49.851l7.697-.133a118.747 118.747 0 0 1-2.985 38.499l-5.506.464c-1.19-6.92-1.373-13.965-1.047-20.965.137-2.94 2.965-16.195-.476-16.415-2.721 18.1-1.934 37.566-2.328 55.86z"/><path d="M106.637 167.874c.671 6.83.842 13.708.51 20.563-2.035-.644-5.271-.425-5.106 1.704 2.72-.385 6.59 1.253 8.84-.63-4.896-.734-2.538-4.336-3.672-5.385 6.366-.245 22.828 1.976 27.91 1.713-.246-3.427-.327-26.364-.246-37.211 1.874-.002 3.022.247 4.897.245-.6 13.71-1.47 42.352-1.47 44.556 2.042-.065 4.195 1.766 6.121 2.448 5.63 1.958-.49 3.917-8.568 3.427-6.366-.734-2.408-3.569.979-3.672 7.666-.234 6.732 4.285 6.732 4.285h30.9"/><path d="M154.296 199.917h30.379s9.772-58.747 11.76-75.656c-.3 2.547 22.952 34.288 24.441 35.47l6.602.093c2.776-3.672 23.754-36.737 23.754-36.737-5.368-2.474-13.158-5.38-27.038-5.38-15.23 0-23.518 3.662-27.82 5.095-.258-8.75-1.279-82.683-.325-83.362 10.782-7.668 42.338-7.734 54.638-1.172 1.651 13.942.356 75.666.545 84.819l13.445 76.83h30.057"/><path d="M184.868 199.635l4.17-.036c3.031-20.652 10.288-64.736 10.288-64.736 3.018 5.547 11.028 18.953 14.72 24.745a164.311 164.311 0 0 0-15.395.638 269.082 269.082 0 0 1-4.73 19.905l6.178.406c.375.024.775.044 1.101-.143.599-.341.658-1.164.657-1.853a58.048 58.048 0 0 1 2.326-16.284l8.917-.143c-.873 3.482-2.435 15.084-2.987 17.28-.444 1.77-1.203 3.44-1.958 5.1l-3.83 8.42a46.443 46.443 0 0 0-1.948-12.194c-1.419 4.239-2.847 8.5-4.95 12.444a43.122 43.122 0 0 0-2.761-12.224l-.41 12.585 10.24.515-3.81-.003a30.57 30.57 0 0 1 .148 5.598l-3.53-.242.265-4.598a38.691 38.691 0 0 1 6.9-.043l3.905-10.112a435.98 435.98 0 0 1 18.329-.634c.564-5.06.76-10.161.587-15.25a85.6 85.6 0 0 0-12.132 1.048l-.033-2.961 11.755.025.007-1.957c-4.047.146-6.958.311-10.988.714.156-2.119-.327-2.274.391-4.274h20.82c-.534 1.658.244 2.32-.29 3.979a59.274 59.274 0 0 1 11.34-.128c-4.698 7.114-14.728 22.292-15.21 22.58-.435.262-12.995 1.614-18.792 1.74a16.657 16.657 0 0 1-.885 4.067c15.23-.968 45.694-1.107 45.694-1.107s-8.512-51.78-9.327-61.302l1.592-8.113m-236.93 56.117c4.264 0 2.575-2.325 1.888-4.307-.802-2.31-1.65-4.697-3.344-6.459-1.63-1.695-7.287-3.908-7.549-1.4-.554 5.298 3.995 13.863 9.005 12.166 2.232-.756-3.872-3.752-4.52-10.163-.162-1.605-.014-3.305.815-4.69 1.19-1.985 3.637-2.97 5.95-2.897 2.312.073 4.504 1.055 6.479 2.26 1.459.891 3.424 1.895 4.7.756 1.085-.97.613-2.925-.593-3.741-1.205-.816-2.797-.762-4.223-.472-1.422.29-2.909.868-3.666 2.105-1.103 1.805-.22 4.1.353 6.135.633 2.248 2.493 5.037.637 6.937-1.981 2.085-5.672.904-8.457-3.229 1.803-1.924 39.202-28.84 39.202-28.84-.97-.204-1.548-1.457-1.073-2.327 1.088-.415 2.459-.229 3.205.666.746.894.55 2.492-.508 2.981-1.056.49-2.497-.722-2.023-1.786a35.496 35.496 0 0 1 5.655-2.99c.336 1.358-.223 2.893-1.354 3.716-1.749-1.61-3.653-3.63-3.305-5.98 1.372.113 2.78.456 3.842 1.333 1.061.877 1.683 2.388 1.206 3.68 1.234-.623 2.49-1.263 3.46-2.248.97-.985 1.616-2.394 1.343-3.748-.276-1.366-1.545-2.467-2.937-2.548-2.437-.14-4.552 2.912-6.914 3.53 1.781-.696 3.754-2.336 5.02-3.77-.536-1.182.354-2.496 1.24-3.443 3.256-3.48 7.702-6.226 11.448-9.231 1.404-1.127 2.953-2.03 4.496-2.958 6.538-3.933 10.154-.833 11.043.98 2.685 5.483-2.18 10.622-2.18 10.622s.856-1.21 1.729-1.755c.408-.257.932-.163 1.413-.127 2.977.221 5.489-2.05 7.598-4.162.405-.406 1.649-1.734 1.88-2.258.96-2.177-1.809-16.42-3.506-17.196-.247-.112-7.404 4.084-8.782 5.461-1.328 1.329-3.026 3.778-2.73 6.09 1.626-.257 4.096 1.072 4.87 1.955.566-1.24.507-2.905.555-4.267.118-3.31 2.734-6.367 5.986-6.993-2.033.568-3.336 2.672-3.603 4.766-.268 2.094.295 4.197.878 6.226.384 1.338.827 2.748 1.875 3.663 1.048.916 2.906 1.044 3.694-.103-1.092 1.146-2.915 1.52-4.37.9-.65.85-1.468 2.201-2.347 2.81l-.498-2.485c.248 1.234.494 2.468.741 3.703.046.228.087.481-.037.677-.19.301-2.264-1.305-2.519-1.058-1.278 1.238-4.857 3.71-4.857 3.71s.148-2.509-1.77-2.804c-1.647-.253-3.805.712-4.761 2.103-1.81 2.635-1.413 5.746.553 8.266 1.57-.05 2.716-.504 3.645-1.77-1.15.376-2.213-1.064-2.002-2.255.238-1.347 1.484-2.334 2.806-2.686 1.321-.352 2.718-.193 4.076-.031l11.24 1.336c.412.049.833.1 1.205.283.938.458 1.322 1.66 1.13 2.685-.194 1.026-.838 1.904-1.515 2.698-.703.824-1.732 1.673-2.75 1.305-.86-.312-1.207-1.343-1.28-2.255-.144-1.773 1-4.045 2.74-3.675 1.187.252 1.79 1.77 1.353 2.904-.435 1.133-1.622 1.838-2.819 2.038-1.197.201-2.42-.016-3.614-.233l-9.304-1.69c-.411-.073-.84-.147-1.239-.024-.426.132-.753.468-1.06.792-2.226 2.349-4.555 4.76-7.56 5.962-3.003 1.203-6.888.846-8.887-1.697 1.034-1.683 2.847-3.207 2.58-5.164-.31-2.273-3.102-3.121-5.37-3.47 1.875-.814 4.164-.588 5.842.58 1.679 1.165 2.689 3.232 2.578 5.273 1.796.926 2.855 3.097 2.48 5.082l-1.644.772a14.358 14.358 0 0 1 1.854 4.164l2.327-.605c-.614-1.384-1.227-2.77-1.84-4.155l6.6-5.609A40.256 40.256 0 0 1 82.3 147.8c.675 1.662 1.231 3.573.482 5.202-.99 2.153-3.703 2.767-6.046 3.118-.586-.664-1.192-1.364-1.4-2.225-.206-.86.137-1.923.97-2.22-.771.75-2.27.447-2.69-.544-.422-.99.403-2.279 1.479-2.312l-2.25.781c-3.227-4.848 3.1-8.353 4.891-8.538.653 3.547 2.77 9.254 4.671 12.32.738-.368 1.68-.719 2.324-.204.951.761-.029 2.388-1.214 2.67-1.184.283-2.458-.099-3.635.215 18.518 6.105-3.916 19.983 2.357 27.818M1.5 200h48m203 0h48"/></g></svg>