<svg width="300" height="200" viewBox="0 0 300 200" xmlns="http://www.w3.org/2000/svg"><title>icon-tools-noact</title><path d="M0 200l59.08-.05c10.737 0 9.505-9.79 7.773-14.78-2.018-5.816-4.154-11.829-8.42-16.267-4.104-4.269-18.351-9.84-19.01-3.527-1.395 13.344 10.061 34.912 22.676 30.64 5.622-1.905-9.751-9.448-11.383-25.593-.408-4.044-.034-8.323 2.055-11.81 2.993-4.998 9.158-7.482 14.981-7.297 5.823.185 11.344 2.658 16.317 5.694 3.674 2.242 8.623 4.768 11.833 1.902 2.734-2.442 1.544-7.366-1.49-9.422-3.036-2.056-7.044-1.919-10.636-1.186-3.579.73-7.325 2.183-9.23 5.3-2.78 4.543-.556 10.321.888 15.448 1.593 5.66 6.278 12.684 1.605 17.469-4.991 5.25-14.284 2.277-21.299-8.13 4.543-4.846 98.721-72.628 98.721-72.628-2.443-.513-3.897-3.668-2.7-5.859 2.739-1.047 6.191-.577 8.07 1.676 1.878 2.252 1.382 6.275-1.28 7.508-2.66 1.232-6.288-1.818-5.095-4.497a89.402 89.402 0 0 1 14.241-7.53c.848 3.419-.562 7.285-3.41 9.357-4.403-4.053-9.2-9.141-8.322-15.06 3.456.285 7.002 1.149 9.675 3.358 2.673 2.208 4.239 6.014 3.038 9.267 3.105-1.569 6.27-3.181 8.711-5.661 2.44-2.48 4.072-6.028 3.383-9.438-.695-3.441-3.89-6.214-7.395-6.417-6.138-.354-11.465 7.332-17.412 8.89 4.486-1.753 9.452-5.884 12.64-9.495-1.347-2.976.892-6.285 3.124-8.67 8.198-8.762 19.397-15.679 28.829-23.247 3.536-2.837 7.438-5.11 11.323-7.447 16.464-9.904 25.57-2.098 27.808 2.47 6.761 13.805-5.49 26.747-5.49 26.747s2.157-3.047 4.353-4.422c1.029-.644 2.348-.41 3.559-.32 7.497.559 13.824-5.162 19.136-10.48 1.02-1.021 4.15-4.366 4.732-5.686 2.416-5.483-4.553-41.351-8.828-43.302-.621-.284-18.646 10.283-22.116 13.752-3.345 3.346-7.62 9.514-6.876 15.333 4.096-.646 10.318 2.702 12.266 4.925 1.425-3.123 1.277-7.315 1.398-10.746.296-8.336 6.883-16.032 15.074-17.609-5.12 1.432-8.4 6.729-9.075 12.002-.674 5.274.744 10.568 2.212 15.678.968 3.369 2.082 6.92 4.722 9.226 2.64 2.305 7.318 2.629 9.303-.26-2.75 2.885-7.342 3.83-11.007 2.264-1.634 2.14-3.696 5.544-5.91 7.076l-1.252-6.255 1.866 9.323c.115.573.219 1.213-.093 1.707-.478.757-5.7-3.288-6.344-2.665-3.217 3.118-12.23 9.344-12.23 9.344s.371-6.32-4.461-7.063c-4.145-.637-9.58 1.793-11.987 5.297-4.557 6.636-3.559 14.47 1.394 20.815 3.951-.124 6.838-1.269 9.177-4.456-2.896.945-5.572-2.681-5.04-5.68.599-3.392 3.737-5.878 7.065-6.763 3.327-.887 6.845-.486 10.264-.08l28.304 3.365c1.038.123 2.1.253 3.038.713 2.36 1.155 3.328 4.18 2.842 6.762-.486 2.583-2.109 4.795-3.814 6.795-1.768 2.074-4.36 4.213-6.924 3.285-2.165-.785-3.04-3.382-3.226-5.678-.36-4.466 2.52-10.187 6.903-9.255 2.99.636 4.506 4.46 3.408 7.312-1.098 2.853-4.085 4.629-7.1 5.134-3.014.506-6.095-.041-9.102-.588l-23.43-4.253c-1.035-.188-2.116-.373-3.12-.063-1.073.332-1.895 1.18-2.668 1.995-5.606 5.913-11.472 11.986-19.037 15.014-7.566 3.028-17.346 2.13-22.383-4.275 2.606-4.237 7.172-8.075 6.498-13.003-.782-5.724-7.811-7.86-13.522-8.737 4.72-2.052 10.485-1.481 14.711 1.456 4.227 2.938 6.77 8.143 6.492 13.282 4.522 2.333 7.189 7.799 6.245 12.798l-4.14 1.944a36.158 36.158 0 0 1 4.668 10.484l5.861-1.521-4.635-10.463 16.622-14.126a101.368 101.368 0 0 1 15.341 25.885c1.699 4.184 3.101 8.998 1.214 13.1-2.494 5.42-9.324 6.968-15.225 7.852-1.477-1.671-3.003-3.435-3.524-5.603-.521-2.168.342-4.844 2.442-5.593-1.943 1.89-5.718 1.129-6.778-1.366-1.059-2.496 1.017-5.74 3.726-5.825l-5.665 1.97c-8.126-12.211 7.809-21.037 12.317-21.504 1.643 8.932 6.978 23.305 11.763 31.024 1.858-.924 4.232-1.808 5.852-.512 2.395 1.917-.072 6.013-3.056 6.725-2.984.712-6.19-.25-9.154.541 46.632 15.375-12.839 50.16 16.508 62.208L300 200M.5 200h57.25M247 200h52.5" stroke="#C1C1C1" stroke-width="2" fill="none" stroke-linecap="round" stroke-linejoin="round"/></svg>