<svg width="300" height="200" viewBox="0 0 300 200" xmlns="http://www.w3.org/2000/svg"><title>icon-shtukatur-noact</title><g stroke="#C1C1C1" stroke-width="2" fill="none" fill-rule="evenodd" stroke-linecap="round"><g stroke-linejoin="round"><path d="M0 200h73.946s5.121-.195 5.796-2.575c.39-1.374-.14-2.882-1.053-3.98-.979-1.176-1.817-1.373-3.205-1.739-1.22-.322-2.624-.614-3.657.11-3.633 2.553.27 5.932 3.27 5.862 6.79-.16 12.658-6.455 17.97-10.01-2.77-2.281-9.872-5.16-10.093-5.123-.303.05-5.058 4.722-7.206 6.836a14.71 14.71 0 0 1 4.448-7.444l-3.61-1.925c5.744-7.44 22.242-30.438 22.242-30.438l19.398 8.272s-12.405 19.654-17.677 30.003c.898-1.763-7.355-5.14-8.34-5.465-.17-.056 51.043-79.36 55.691-84.561.538-.603 1.114-1.21 1.38-1.973.484-1.394-.226-2.986-1.358-3.93-1.703-1.42-5.937-3.04-8.165-2.926-3.41.175-3.218 2.478-4.87 5.47-2.72 4.925-49.18 83.78-49.18 83.78s2.768 1.578 4.046 2.526c5.129-8.123 28.759-46.77 28.759-46.77s-11.486-1.456-16.215-4.066c-6.643-3.665-8.806-12.58-6.966-19.535 3.493-13.194 21.644-21.123 34.141-21.2a37.52 37.52 0 0 1 1.176 7.937l2.9-8.602c4.041-11.98-42.34-63.963-49.096-69.385 1.149.922 10.964-2.368 12.723-2.72a10466.81 10466.81 0 0 1 44.369-8.81c2.411-.473 4.842-.948 7.3-.932 2.52.017 5.003.549 7.466 1.079 7.504 1.615 15.014 2.963 22.504 4.45 8.384 1.665 16.794 3.336 24.905 6.028a575.26 575.26 0 0 1-28.516 29.44c-.787 3.442.592 8.136-.235 11.568-.428 1.779-16.156 23.59-23.473 32.577.892-7.084-3.35-51.351-4.793-59.567-1.839-10.474 1.393-19.41 4.752-29.262 9.155 1.82 30.166 5.993 31.507 5.777.888-.143 9.613-1.908 13.041-2.06 1.941-.086 8.156 2.392 9.152 3.479 1.922 2.096 3.617 4.481 4.425 7.208.81 2.727.637 5.841-.942 8.207-1.579 2.366-4.708 3.75-7.41 2.861a114.855 114.855 0 0 0-5.81 15.203c-2.436-1.358-5.182-2.304-7.759-3.373l4.01-7.891a143.956 143.956 0 0 0 17.335 3.959c-.643 3.494-2.717 14.63-4.047 16.198-1.33 1.57-3.893 2.295-5.47.975-1.472-1.23-1.409-3.518-.867-5.357.342-1.16.859-2.327 1.804-3.08.947-.75 2.414-.953 3.346-.184-3.067 7.616-1.652 34.284-2.55 39.275 3.767-1.36 8.442-2.08 12.41-2.626a36.616 36.616 0 0 1 6.71-18.919l7.425.227c.453-.987-1.099-1.615-2.185-1.599l-49.955.724-1.663 2.455 25.202-.765"/><path d="M191.457 158.09a53.348 53.348 0 0 0 8.736-3.064c.948-.429 1.911-.905 2.592-1.692.64-.74.975-1.689 1.308-2.609a100.414 100.414 0 0 1 7.907-16.77c.835-1.414 3.026-.644 2.778.98a1.254 1.254 0 0 1-.013.08c-.306 1.668-.903 3.044-.683 4.782 2.179.476 3.807 1.808 4.99 3.755.195.32.43.62.735.839 2.953 2.104 4.363-3.256 3.88-5.093-.545-2.075-3.142-3.059-5.138-2.834 1.44-9.25-.25-18.658-.873-28-.308-4.61-.355-9.232-.394-13.851-.089-10.738.166-22.392 6.823-30.817.599.102.167.872-.05 1.44l-3.042 8.004 3.887.269c-.26 11.468-.405 22.939-.437 34.41l-12.634.226a173.56 173.56 0 0 1 1.657 14.639c.045.638.086 1.285-.04 1.912-.164.804-.591 1.527-1.02 2.226-2.72 4.42-5.859 8.708-7.27 13.702-.913 3.227-1.277 7.006-3.96 9.018-1.41 1.057-3.208 1.4-4.91 1.854a32.196 32.196 0 0 0-7.184 2.886c.92.899 1.568 2.691 2.355 3.709z"/><path d="M109.659 171.832c1.037 3.35 8.534 4.373 12.668 2.795 4.134-1.577 6.852-7.532 7.197-11.943-.078.995 29.028 7.38 32.3 7.736 7.267.66 14.596 2.063 21.873 2.31-1.98-2.082-5.734-2.762-3.383-6.383 1.418-2.186 5.032-2.758 6.989-1.027 2.306 2.038 2.053 5.652 1.52 8.683-.511 2.91-1.526 6.303-4.339 7.205-2.962.949-6.074-1.786-6.722-4.827-.648-3.042.425-6.157 1.483-9.082-2.34.243-4.787.475-6.971-.397-2.185-.871-3.972-3.226-3.37-5.5.322-1.208 1.229-2.16 2.102-3.055 2.03-2.077 4.1-4.186 6.649-5.576 2.55-1.39 5.7-1.976 8.378-.855 2.62 1.096 4.373 3.614 5.544 6.201 4.562 10.082 1.648 23.025-6.794 30.179-3.804 3.224-9.494 5.26-13.723 2.618-1.312-.82-2.348-2.017-3.22-3.295-4.428-6.496-5.503-15.668-1.415-22.383a278.092 278.092 0 0 0-37.63-8.28 106.16 106.16 0 0 1 .306-14.706c2.573-1.12 9.56-4.155 10.548-4.196 1.249-.052 2.438.475 3.594.951 10.958 4.52 23.03 5.356 34.858 6.136-2.114 2.878-4.908 5.102-6.387 5.382-3.508.666-29.969-5.073-38.192-6.704 4.696-2.552 8.615-5.29 13.667-7.033-.215-5.602 1.08-10.647 1.907-16.191a37.368 37.368 0 0 0-8.534-.382c9.971-.7 19.883 1.393 29.767 1.194l13.145-37.322c.656-1.864 1.385-3.83 2.942-5.045 1.558-1.214 4.216-1.226 5.203.485-5.519 12.269-27.91 67.223-29.344 73.105 0 0 2.932.467 4.597 1.048l-3.567 6.933c-3.484-.564-11.56-1.905-11.827-2.361-.277-.478 1.49-5.362 2.2-7.053l5.724.982c2.301-6.268 7.948-22.261 9.8-25.28 0 0-3.857-1.078-6.929-1.097-.588 2.388-1.86 7.952-2.965 11.76-.792.673-3.101-.102-3.101-.102-.484-.92 1.412-9.44 2.697-11.714-1.686-.506-3.624-.59-5.095-.414-.32 2.296-.97 11.326-1.395 11.707-.593.533-2.034-.147-2.866-.253.318-4.35.72-10.06 2.697-13.948 7.606-.069 36.249 3.66 43.012 4.541.92.12 1.872.252 2.654.75 1.06.675 1.615 1.896 2.116 3.048 1.279 2.947 2.566 6.32 1.281 9.264-.708 1.625-2.108 2.84-3.552 3.867-1.281.91-2.783 1.751-4.336 1.516-1.85-3.667-1.661-8.024-.952-12.07.189-1.072.42-2.165.996-3.09.576-.924 1.568-1.66 2.657-1.645 1.09.015 2.16.982 2.037 2.064a27.42 27.42 0 0 1-6.245-.236c-.601-.093-1.282-.186-1.763.189-.264.205-.416.52-.538.832-.715 1.824-.82 11.528-.09 14.52-1.166-.712-6.846-1.38-7.582-1.777-.855-.462 2.31-11.13 4.607-15.073-3.235-.131-6.373-.206-9.608-.337-.452.904-1.06 2.23-1.51 3.134l7.186.606c-.313 1.197-1.233 2.76-1.462 3.76-2.858.206-4.59-.666-7.408-1.198 0 0-.875 1.921-.935 2.8 2.273.461 5.328.617 7.64.791.007 1.24-.982 3.17-1.404 4.266 0 0-9.39-1.043-10.198-1.072 1.49-3.074 23.813-49.517 24.323-52.28a167.819 167.819 0 0 1 18.31-3.02l-.603 30.108c-.009.447-.055.966-.425 1.216-.214.144-.486.16-.744.169-4.38.16-8.991-.147-12.722-2.448-3.738-2.306-6.076-6.288-8.043-10.215-.893.698-1.614 1.659-1.902 2.755-2.518 9.587 8.117 12.527 9.745 12.852a94.662 94.662 0 0 0 20.746 1.796c1.203-.028 2.498-.114 3.431-.872.934-.76 1.17-2.446.151-3.085-.346-.216-.766-.275-1.172-.318a22.386 22.386 0 0 0-4.441-.022 42.098 42.098 0 0 1-.123-5.438c4.607-1.59 10.093-.215 13.404 3.36 6.702 7.237 2.836 17.03-6.003 19.492 3.31.345 5.817 3.143 6.944 6.122 1.075 2.843.94 6.01.358 8.994-.406 2.083-1.036 4.158-2.201 5.932-1.444 2.198-3.738 3.866-6.32 4.365-2.581.5-5.416-.24-7.294-2.08-2.333-2.288-2.926-5.803-2.991-9.07-.078-3.887.61-8.165 3.55-10.709 1.488.946 2.734 1.552 4 2.78.537.52 1.075 1.11 1.212 1.845.126.675-.108 1.358-.292 2.02-.68 2.433-.585 5.368 1.268 7.087.833.772 1.571.227 2.318-.627 2.677-3.061 4.418-11.119-1.358-12.397-1.137-.25-2.735-.323-2.887-1.478-.05-.374.102-.742.245-1.092a32.708 32.708 0 0 0 2.396-13.176c8.64.95 15.48-5.474 15.916-14.038.093-1.815-.17-3.73-1.238-5.202-1.189-1.638-3.182-2.48-5.132-3.022-2-.556-4.066-.881-6.14-.965"/><path d="M183.697 172.73c5.405 4.635 2.976 13.768-6.825 13.747-3.506-.007-5.783-3.915-8.237-6.418-1.678 4.672-1.156 11.775 3.09 14.347 4.246 2.572 12.669 5.58 17.877 5.594H300"/></g><path d="M.5 200h48m203 0h48"/></g></svg>