<svg width="300" height="200" viewBox="0 0 300 200" xmlns="http://www.w3.org/2000/svg"><title>icon-penobeton-noact</title><g stroke="#C1C1C1" stroke-width="2" fill="none" fill-rule="evenodd" stroke-linecap="round"><g stroke-linejoin="round"><path d="M0 200h65.625c5-.417 9.567-1.263 11.654-2.24 2.087-.976 3.748-3.276 3.206-5.515-.165-.682-.586-1.367-1.26-1.564-1.026-.302-2.035.71-2.236 1.76-.286 1.49.63 3.121 2.051 3.653 1.067.4 2.254.214 3.377.024 10.557-1.791 21.178-2.724 31.715-4.672-.15-2.26.335-4.321.251-6.499-5.528.684-11.162 2.544-16.601 3.804l-8.165 1.891c-2.267.526-4.363.462-6.67.682-.502.048-1.034.088-1.486-.134-.453-.223-.767-.807-.52-1.247l13.695-1.876c.291-.04.618-.1.784-.344.114-.17.121-.388.124-.592.053-4.21.034-8.42-.056-12.63-.016-.707-.075-1.506-.616-1.96-.38-.318-.903-.382-1.395-.434-2.953-.31-4.674-1.118-5.296 2.123-.428 2.234-.808 8.69 1.628 10.103 2.784 1.614 2.118-5.944 2.067-7.126-.026-.63-1.058-4.314-1.972-4.288 3.18-.088 6.29-.056 9.452-.548.17 3.306-.192 6.342-.023 9.647.035.681.086 1.407.494 1.954.408.546 1.314.772 1.768.263l-1.085-33.046 11.154.335c.88 9.787 1.01 19.641.39 29.448l2.932.482c.595-10.57.532-21.176-.187-31.739-4.903.272-9.805.543-14.708.813-.685.039-1.422.064-1.998-.308-.468-.3-.749-.812-1.007-1.305-2.505-4.78-5-9.917-6.473-15.127-1.236-4.372-3.646-7.9-5.16-12.15-1.316-3.695-.948-7.744-.703-11.66a163.16 163.16 0 0 0-.632-27.728l16.216-2.146c.885 14.377 1.77 28.826.388 43.164 8.746-.597 17.488-1.016 26-1.488a747.65 747.65 0 0 0 .649-42.008c-4.918.16-9.835.298-14.754.413-4.02.095-7.99-.05-12.032-.136-.115-1.846-.421-3.876-.246-5.72.101-1.073.761-2.127.552-3.207-.943.102-9.863.946-9.885.52-.164-3.58-.268-7.104-.346-10.689 3.599-.016 7.197-.385 10.797-.505.36-.012 7.252.159 7.251.35l.012-3.09c-3.766-.145-7.372.376-11.15.507-2.317.08-4.65.017-6.97.02-.276-6.572.039-12.829.254-19.074.112-3.275.23-6.55.35-9.826.091-2.467-.347-5.764.82-8.03.57-1.11 1.833-1.655 3.023-2.028a25.982 25.982 0 0 1 14.595-.256c2.038.562 4.121 1.466 5.311 3.213 1.25 1.835 1.269 4.214 1.237 6.435a1769.947 1769.947 0 0 1-1.107 42.471c-.05 1.324.464 5.947-.436 6.806-.76.726-3.51.087-4.338-.104-.149-7.386-.14-14.78-.208-22.169-.024-2.454-.047-4.91.06-7.362.138-3.146.489-6.277.727-9.417.54-7.103.638-14.313.044-21.383-.336-4.004-.305-9.955-6.006-9.335-3.169.345-5.656 2.058-6.674 5.112.081 7.252-3.53 5.114-4.858 5.584.068-2.324-.132-4.803.74-7.003 1.63-4.112 7.081-6.653 11.175-7.24 1.424-.205 2.9-.22 4.279.193 5.438 1.63 4.834 7.494 4.898 12.082.054 3.802.104 7.604.149 11.406.06 5.12.227 10.258.124 15.378a875.328 875.328 0 0 1-2.07 45.117l-25.524.465c-1.04.019-2.111.043-3.073.443-1.996.829-3.02 3.02-3.713 5.066-3.388 9.996-3.194 20.8-2.964 31.353.03 1.389.073 2.83.691 4.074 1.828 3.675 8.075 4.078 11.654 4.571-.37-.05-1.66-5.069-1.867-5.66a169.918 169.918 0 0 0-2.284-6.126c1.063 1.811 3.042 1.07 4.6.758 2.637-.53 5.718-.098 8.389.055-.014-.001.24 19.737.257 21.125.194-3.446.5-6.887.916-10.313.368-3.015 1.08-5.735 1.248-8.794 8.146-1.182 16.191-1.101 24.253-2.403-3.324 8.124-9.635 16.067-10.115 25.094-.116 2.186.437 4.173-.537 6.244 3.216-.202 6.443-1.812 8.742 1.017 2.893 3.56 3.378 12.948 4.51 17.436.1.405.203.829.105 1.234-.182.75-.998 1.184-1.765 1.254-2.537.232-4.364-2.29-5.63-4.498l-3.967-6.92c-.884-1.542 5.435-3.88 6.237-4.105 3.11-.877 6.55-1.483 9.565.054.848.433 1.611 1.014 2.317 1.652 1.301 1.176 2.425 2.558 3.243 4.11 1.8 3.416 2.693 8.684.438 11.944-3.3 4.775-8.278 9.237-14.593 7.403-3.415-.992-6.035-3.965-6.666-7.454-.352-1.944.024-4.131 1.446-5.502 2.558-2.463 6.695-1.194 10.192-.579 3.86.68 7.896.325 11.579-1.016.63-.23 1.308-.49 1.95-.299.514.154.9.57 1.234.99 2.603 3.281 3.427 7.583 5.043 11.448 1.616 3.864 4.713 7.734 8.9 7.863 1.16.036 2.402-.276 3.164-1.151 1.485-1.706.44-4.31-.468-6.38a35.899 35.899 0 0 1-2.925-11.83c-.616-8.595-9.147-1.247-11.238 2.281-1.158 1.952-1.827 4.153-2.358 6.36-.633 2.638-1.084 5.379-.666 8.06.796 5.117 4.721 8.332 9.616 9.871 5.046 1.585 12.76.379 16.665-2.987 3.863-3.33 4.21-9.388 3.335-14.138-.512-3.695-2.6-7.743-5.702-9.814-4.047-2.705-9.005-.955-13.513-2.231l-.08-3.54a86.129 86.129 0 0 1-12.98.113 43.585 43.585 0 0 1 1.146-11.123c3.962-.188 7.884-.523 11.826-.949.247-.026.513-.062.69-.235.167-.162.217-.406.254-.635.34-2.07.375-4.178.403-6.276.145-11.128.256-22.213.195-33.338-.016-2.89.063-41.11-1.364-41.087-11.601.217-23.251.76-34.852.577l.622-4.49c.464-3.308 26.254-1.948 28.897-1.936 28.504.134 57.28-.044 85.756-.883.86 11.304-1.105 21.844-2.016 32.976-3.934 3.664-7.172 7.015-11.107 10.678.915-.852.339-7.902.396-9.346.381-9.54 1.39-19.621.316-29.12-19.391 1.013-38.846.037-58.301 1.088-.872 8.1-.672 16.274-.472 24.42l.698 28.387c.222 9.076-.534 18.848.754 27.81 3.195.744 7.29-.885 10.528-1.207a2409.14 2409.14 0 0 0 60.87-6.823c-.567.07-.266 9.277-.27 9.935l-15.45 2.17c-.148.905-.29 2.17-.437 3.074l3.448.298 10.538 15.083c.36.514.778 1.07 1.394 1.197 1.191.245 1.99-1.209 2.184-2.41.754-4.704-1.215-9.37-3.14-13.726-.202-.456-.433-.945-.873-1.178-.403-.214-.89-.165-1.338-.075-2.248.45-4.247 1.756-5.918 3.325-3.502 3.288-5.805 8.058-5.364 12.84.685 7.43 7.247 11.071 14.16 10.433 6.356-.586 10.41-8.19 9.467-14.143-.2-1.253-.579-2.47-1.014-3.662-1.42-3.895-1.814-5.554-6.125-5.974a94.887 94.887 0 0 0-12.05-.401c-.023-2.215-.046-4.43-.067-6.645.006.69-17.813 1.573-19.73 1.732.447 4.336.594 7.608-1.212 11.657-.403.904-.816 1.823-1.466 2.568-1.043 1.195-2.594 1.824-4.137 2.188-6.697 1.58-14.238-1.536-17.865-7.383-.77-1.242-1.388-2.758-.913-4.14a265.49 265.49 0 0 0 19.808-1.038c.77 1.513 1.268 3.316.65 4.897-1.395 3.565-5.168 1.53-6.694-.613-1.83-2.569-3.77-5.33-7.152-5.672-4.341-.438-9.322.703-13.654 1.127-9.814.96-19.572 2.278-29.352 3.508 1.358-.171-.951-37.159-1.818-40.466-1.373-.186-2.935.36-4.34.402-2.272.069-4.549.062-6.821.092a118.76 118.76 0 0 1 .014-21.67c.121-1.32.252-2.72-.334-3.909l21.502-.259.21 1.842-15.808 1.043.003 2.675 15.41.153.013 5.268a206.952 206.952 0 0 1-15.252-.464 137.17 137.17 0 0 1-.032 11.64l-3.001-.017c.198.001.78-16.212.828-17.694.187-5.822.862-11.613 1.361-17.413.428-4.975 4.205-8.747 6.802-13.058.467-.775 8.342-.082 9.482-.083 3.194 0 6.382-.056 9.575-.088l21.261-.217c-5.576 11.669-11.15 23.337-16.727 35.006-.391.82-.787 1.65-.95 2.544-.11.614-.109 1.242-.107 1.865l.127 39.893c17.79-2.004 35.588-3.2 53.441-4.62.269-5.328 1.08-39.33.95-50.583 4.027-2.076 7.603-5.973 11.142-8.826.529-.426 1.068-.86 1.702-1.102.745-.285 1.562-.287 2.359-.286l12.373.018c1.838 2.68 3.725 5.48 4.219 8.692.494 3.21-.85 6.954-3.87 8.152-2.747 1.088-5.355.049-8.093-.042-3.678-.122-7.027 1.56-10.633 2.155.125 8.512 1.064 19.112-6.48 24.848-.822.625-1.728 1.189-2.308 2.043-.89 1.31-.706 3.895-.717 5.478m-36.618-65.588l.514 78.588"/><path d="M243.913 172.97c.637 2.792-1.137 5.774-3.693 7.067-2.556 1.292-5.669 1.105-8.344.082-.755-.29-1.516-.647-2.324-.63-.808.017-1.68.564-1.727 1.37-.046.782.515 2.952 1.048 3.525C231.37 187.07 236.206 200 251 200h49"/></g><path d="M.5 200h48m203 0h48"/></g></svg>