<svg width="300" height="200" viewBox="0 0 300 200" xmlns="http://www.w3.org/2000/svg"><title>icon-arenda-noact</title><g stroke="#C1C1C1" stroke-width="2" fill="none" fill-rule="evenodd" stroke-linecap="round"><path d="M.25 199.98h83.99s-3.533-9.91-5.034-14.657c-1.866-5.904-1.672-12.437.543-18.22a73.644 73.644 0 0 1-12.136 1.442c-.637.023-1.401-.032-1.712-.587-.484-.868.63-1.735 1.55-2.111l14.726-6.03c.647-1.075-1.159-1.902-2.413-1.881l-8.02.134c-1.191.02-2.48.01-3.436-.7-2.996-2.223-1.025-9.895-1.002-12.947a65.367 65.367 0 0 0-2.335-17.82c-1.165-4.23-2.773-8.462-2.548-12.842.412-8.005 6.688-14.307 12.552-19.77 3.492-3.253 6.994-6.513 10.833-9.348 2.263-1.67 4.635-3.188 6.86-4.908 7.788-6.024 13.865-15.765 11.772-25.387-.438-2.015-1.222-3.974-1.304-6.035-.115-2.878 1.256-5.776 3.555-7.513 5.944-4.493 5.335-12.838 9.435-18.531 5.065-7.033 14.624-10.112 22.991-8.237 6.976 1.563 11.728 8.47 12.993 15.507 1.671 9.289-1.484 18.513-2.66 27.655-.213 1.646-.366 3.318-.911 4.886-.69 1.988-1.972 3.706-3.235 5.39-3.645 4.861-7.459 9.87-12.801 12.765-2.104 1.14-4.601 1.925-6.877 1.184-1.49-.485-2.705-1.567-3.818-2.672-4.922-4.886-10.094-10.898-11.249-17.975-1.298-7.951 2.642-16.853 5.03-24.31-1.65-.254-2.459 1.859-3.405 3.235-1.04 1.514-2.816 2.395-4.62 2.744-1.804.348-3.662.222-5.495.096-1.15-.08-2.337-.169-3.358-.703-1.02-.534-1.837-1.638-1.665-2.778.23-1.52 1.914-2.26 3.18-3.132 4.28-2.951 6.992-9.836 9.415-14.306 3.083-5.685 7.594-11.357 13.789-13.735 3.53-1.354 7.402-1.547 11.178-1.362 6.864.335 14.49 1.98 18.481 8.075 4.06 6.201 4.19 13.172 4.043 20.24-.04 1.939-.074 3.921.532 5.764.603 1.838 1.977 3.542 3.858 4.005 1.97.485-1.354 1.634-1.734 1.73-1.91.48-3.758-.722-5.923.333-.42.205-.841.454-1.308.475-1.008.048-1.762-.992-1.904-1.991-.143-.998.12-2.009.11-3.018-.02-2.01-1.139-3.89-2.64-5.225-1.503-1.335-3.363-2.196-5.23-2.94-9.594-3.824-20.506-6.216-30.84-6.246-.863-.001-1.784.03-2.493.522-.769.533-1.11 1.486-1.35 2.39-2.082 7.85 1.656 15.359 1.43 23.286-.262 9.202-2.473 18.245-5.256 26.979-.838 2.628-1.359 4.11-3.596 5.724-1.084.78-2.446 1.579-2.546 2.912-.08 1.076.73 1.99 1.485 2.762l15.85 16.198c11.159 11.405 6.38 29.968 1.438 45.14-1.389-.78-1.894-2.495-2.276-4.04l-4.313-17.48c-.877-3.555-1.88-7.329-4.586-9.794-.428-.39-.928-.753-1.505-.793-1.654-.115-2.227 2.16-2.121 3.814.63 9.924 4.302 19.367 7.93 28.624 1.02 2.603 3.167 2.337 5.958 2.483l30.793 1.62c4.132.218 8.307.433 12.376-.313 8.473-1.553 11.52-7.15 15.805-13.883.787-1.238 1.602-2.754 1.001-4.092-.549-1.223-2.07-1.696-3.41-1.643-1.34.052-2.65.485-3.99.47-.914.775.362 2.119 1.462 2.592 1.239.533 2.52 1.075 3.869 1.082 1.349.007 2.795-.66 3.288-1.915.294-.748.234-1.64.708-2.289.57-.782 1.67-.904 2.637-.958l12.754-.707c1.04-.058 2.566.755 1.876 1.535l-5.096 1.306c1.316-.246 2.751-.475 3.935.152 1.183.627 1.73 2.505.655 3.303-1.03.763-2.855.134-3.52 1.228 1.848.23 3.715.31 5.577.236l.968 2.164-3.434 1.433c1.699.295 3.125 1.767 3.368 3.473l-10.075.565 7.314.706c-1.035 1.095-2.334 1.897-3.618 2.686-13.968 8.592-27.389 18.58-43.376 22.923-8.068 2.19-16.225 4.005-24.446 5.516-7.389 1.36-14.365 1.926-21.924 2.628-1.912.178-3.938.322-5.66-.529-2.998-1.48-4.822-6.235-6.668-8.877-2.815-4.03-3.628-9.044-3.199-13.946.08-.92.222-1.87.73-2.642.602-.914 1.628-1.446 2.632-1.883 7.604-3.312 16.47-3.455 23.542-7.786 1.14-.699 2.26-1.548 2.837-2.755.433-.906.52-1.934.586-2.937.238-3.637.277-7.287.117-10.928-.47-10.738-1.38-20.724-9.023-28.283-4.462-4.414-10.292-7.122-15.995-9.745-4.133-1.9-8.303-3.568-12.456-5.358-.582-.25-1.253-.624-1.284-1.256-.014-.284.114-.554.248-.805 2.316-4.322 7.15-6.548 11.656-8.481.886-.38 1.812-.768 2.775-.715.842.046 1.625.426 2.382.8 6.03 2.97 11.152 6.1 14.655 11.814 4.593 7.493 12.976 11.673 16.958 19.326.714 1.373 1.462 2.885 2.865 3.54.863.402 1.849.412 2.8.415l14.202.041c2.426.007-5.49-18.815-5.975-19.93-1.11-2.548-2.57-4.736-3.884-7.141-.477-.873-2.14-1.555-1.08-2.614.737-.735 2.654.647 3.22 1.092 1.18.927 2.087 2.152 2.978 3.361 8.592 11.658 13.848 25.383 17.247 39.37.672 2.765 1.703 16.95 5.696 16.082 2.994-.65 2.672-8.108 2.792-10.418.375-7.248-1.38-14.472-3.512-21.344-1.071-3.452-2.963-9.931-7.593-9.375l3.693 15.264c2.618 10.82 5.255 21.877 4.257 32.964-.552 6.134-2.206 12.107-3.854 18.04-1.14 4.11-2.28 8.221-3.423 12.33-.864 3.113-2.924 6.574-2.385 9.908.828 5.124 6.104 4.125 9.843 2.78 15.011-5.404 25.408-22.645 42.966-19.002a5.028 5.028 0 0 0 .413-2.922c1.466.7 3.353.383 4.51-.756 1.156-1.14 1.5-3.022.823-4.497 1.522-.166 2.596-1.708 2.758-3.23.163-1.523-.364-3.026-.883-4.467 2.486-.548 3.275-4.019 2.056-6.253-1.22-2.233-3.65-3.478-5.938-4.592a11.708 11.708 0 0 0 .57 8.545c-1.305.874-2.903-.485-4.011-1.597s-3.258-1.942-3.984-.55c-.446.858.119 1.874.664 2.672l3.591 5.253a15.062 15.062 0 0 0-10.14-4.424 17.33 17.33 0 0 0 5.626 8.868 14005.22 14005.22 0 0 0-6.97-5.061l2.828 9.924c-1.142-3.02-5.066-4.198-8.167-3.297-3.1.901-5.506 3.312-7.626 5.748-2.119 2.436-4.174 5.052-6.997 6.619-3.354 1.862-7.358 2.008-11.193 2.11-1.476.04-3.033.06-4.324-.656-1.291-.717-2.14-2.452-1.384-3.72.2-.336.49-.608.779-.873 11.541-10.598 26.041-17.473 37.986-27.615 8.793-7.467 16.015-16.395 26.356-21.885 1.517-.805 3.132-1.563 4.851-1.59.24.707-.372 1.395-.929 1.894l-12.028 10.78c-1.485 1.332-2.994 2.679-4.777 3.574-.231-1.418 1.032-2.593 2.169-3.472l9.32-7.201c1.752-1.353 3.606-2.752 5.793-3.093 2.906-.452 5.723 1.046 8.284 2.494-9.419 15.18-27.038 23.292-41.1 33.673-11.78 8.697-28.819 32.931-28.819 32.931H300.25" stroke-linejoin="round"/><path d="M.5 200H73m131.995 0H299.5"/></g></svg>