<svg width="300" height="200" viewBox="0 0 300 200" xmlns="http://www.w3.org/2000/svg"><title>icon-torket-noact</title><g stroke="#C1C1C1" stroke-width="2" fill="none" fill-rule="evenodd" stroke-linecap="round"><g stroke-linejoin="round"><path d="M0 200h33.5c13.175 0 25.716-19 36.07-42.273-5.205 1.353-10.334-4.024-10.354-9.4-.016-4.069 2.091-7.773 4.795-10.681 3.248-3.492 7.82-5.77 11.506-8.783 3.877-3.172 7.536-6.602 11.469-9.707 1.957-1.547 4.004-3.16 6.054-4.545.698-.471 6.393-3.847 7.06-2.923a48.98 48.98 0 0 0 12.056 11.763L90.85 142.453c-4.477 3.993-8.964 7.994-13.837 11.492-1.962 1.408-4.126 2.78-6.54 2.853-2.414.072-5.038-1.69-5.021-4.106.013-2.08 1.822-3.643 3.475-4.908L95.05 127.79c4.507-3.45 9.251-7.008 14.843-7.989 5.59-.98 12.24 1.55 13.946 6.963 3.331-.834 7.01-2.304 8.189-5.528.983-2.687-.229-5.816-2.345-7.743-2.116-1.926-4.963-2.84-7.778-3.354-5.09-.928-10.88-1.162-15.842.467-1.88.618-3.703 1.486-5.668 1.725l8.186-3.148c-1.254-1.234-1.71-3.129-1.475-4.873.234-1.743 1.088-3.352 2.137-4.764.65-.875 1.388-1.697 2.28-2.322 1.884-1.319 4.041-1.273 6.129-1.908"/><path d="M82.583 46.598c6.6 9.06 12.162 18.883 18.801 27.949 5.665 7.737 12.465 14.277 17.351 22.597 4.256 7.248 11.173 12.37 14.93 19.985 3.303-1.655 6.858-3.522 9.375-6.344 4.471-5.01 6.89-12.193 10.539-17.865l13.198-20.511c3.226-5.015 6.452-10.03 9.68-15.044 2.76-4.29 4.358-9.247 7.592-13.2-10.166-1.358-20.472-.108-30.692.744-24.162 2.013-48.448 1.785-72.693 1.556-.646-.006-1.362-.04-1.825-.49-.366-.359-.48-.896-.574-1.4a77.448 77.448 0 0 1-1.253-15.583c.014-.67.056-1.394.482-1.913.574-.699 1.605-.756 2.509-.757l106.077-.136c.693 5.416 1.576 11.952.407 17.303-2.337.148-1.012-12.592-1.107-15.237-.024-.674-.057-1.364-.32-1.985-.315-.74-.925-1.307-1.518-1.85l-4.43-4.064c-.497-.455-1.01-.921-1.643-1.151-.62-.226-1.299-.204-1.958-.18-9.8.359-19.435.151-29.153.187-14.168.053-28.336.161-42.503.273-4.097.033-8.287.082-12.133 1.49-4.702 1.721-8.738 5.418-13.724 5.875"/><path d="M101.427 91.528c-5.142-4.081-9.833-8.695-14.513-13.3-1.468-1.445-2.985-2.965-3.642-4.918-1.242-3.69 1.098-7.824 4.395-9.896 3.296-2.072 7.313-2.564 11.185-2.973a677.207 677.207 0 0 1 89.353-3.485c.35.01.738.034.987.281.288.286.276.746.243 1.15l-.411 5.137c-.053.671-.118 1.375-.489 1.936-.773 1.172-2.445 1.212-3.845 1.131a499.897 499.897 0 0 0-88.058 2.695c-11.864 1.416-.091 11.274 4.172 14.533 3.775 2.886 6.923 4.916 9.812 8.756 2.387 3.172 4.639 6.447 7.1 9.564 1.55 1.962 5.025 7.507 7.551 8.112-3.316-.794-4.355-.952-6.476-3.395-1.74-2.004-3.309-4.02-5.284-5.825-3.784-3.458-8.059-6.336-12.08-9.503z"/><path d="M267.176 66.115c.646.051 1.32.113 1.867.46.555.352.899.946 1.24 1.508 3.602 5.947 9.001 10.552 14.307 15.047 3.213 2.723 7.31 4.275 9.242-.811a78.61 78.61 0 0 1-8.14-8.199c-.73 1.428-2.234 2.43-3.834 2.55a7.267 7.267 0 0 0 3.26-3.2c-.446.873-7.145-7.16-7.658-7.611-.242 1.33-1.489 2.408-2.84 2.454a5.835 5.835 0 0 0 2.57-2.716c.075-.166.144-.341.145-.524 0-.307-.191-.576-.374-.823-1.014-1.368-2.097-2.792-3.652-3.487-.668-.3-1.392-.447-2.112-.58-3.159-.586-6.312-.821-9.511-1.033-3.617-.238-7.156.044-10.8-.514.544-1.326.857-2.746.919-4.178.008-.18.015-.372.117-.522.098-.144.266-.221.428-.287 4.059-1.649 9.13-.877 13.383-.683.367.017.76.027 1.07-.173.308-.2.444-.697.164-.934l-14.594-.03c-.866-.002-1.886.077-2.344.812-.248.399-.257.896-.26 1.365-.008 1.635-.015 3.271-.024 4.906-6.563-.112-12.968-.51-19.55-.46-7.235.058-14.47.115-21.705.17-.285-3.127.407-6.26.453-9.401.047-3.142-.73-6.576-3.218-8.494-2.291-1.766-5.432-1.818-8.321-1.686-1.172.053-2.387.137-3.414.702-1.979 1.089-2.654 3.574-2.961 5.811-.674 4.902-.497 9.877-.318 14.822l10.444-.497.239-5.492c-1.769.672-3.87.588-5.448-.454-1.579-1.044-2.494-3.107-1.97-4.925.564-1.959 2.57-3.204 4.574-3.568 1.987-.361 4.201.032 5.648 1.439s1.835 3.932.536 5.476c-1.414 1.682-3.975 1.62-6.163 1.416a35.512 35.512 0 0 0 .598 6.56c-3.104.026-6.336-.167-9.397.192-2.16 5.793 10.932 3.415 13.751 3.386a709.23 709.23 0 0 1 63.653 2.206z"/><path d="M194.682 64.356c-3.154 2.118-5.934 4.717-8.84 7.147-2.823 2.36-5.91 4.054-8.864 6.227-.296.217-.602.448-.768.776-.256.508-.115 1.116.03 1.666l4.05 15.264c11.038-13.121 29.903-17.53 41.052-30.559a12.758 12.758 0 0 0 7.336.542 329.382 329.382 0 0 1-29.183 28.625c-2.332 2.019-4.869 4.334-5.125 7.408 9.517-3.802 16.515-11.883 23.867-19.021a159.12 159.12 0 0 1 14.695-12.62c1.52-1.154 3.092-2.295 4.891-2.929 2.19-.77 4.57-.74 6.892-.701l5.392.09c.628.011 1.277.026 1.85.285.69.313 1.178.937 1.639 1.538l18.166 23.72c-20.222 13.433-40.413 26.913-60.665 40.3-3.48-8.774-12.88-13.91-18.817-20.877-3.45-4.048-6.029-8.917-9.993-12.502m17.933-38.82c5.262-.175 9.4-4.358 12.942-8.252 2.359-2.594 4.284-5.556 6.705-8.072 2.995-3.113 6.004-6.212 9.007-9.318 1.194-1.235 2.508-2.535 4.2-2.827 2.57-.443 5.874 1.066 8.125 2.212 3.18 1.62 6.276 3.405 9.271 5.345.671.435 1.366.91 1.726 1.624.86 1.712-.59 3.636-1.935 5a7901.279 7901.279 0 0 1-4.969 5.046c-2.294 2.33-5.297 3.819-7.588 6.297-.181.196-.37.401-.619.495-.162.06-.337.07-.509.08l-7.64.388c5.383-3.44 10.275-7.776 15.193-11.851 6.355-5.267-4.873-8.034-8.333-9.483-.494-.206-1.004-.416-1.54-.414-.813.004-1.533.492-2.197.961-6.002 4.24-11.622 10.222-16.231 15.92a62.194 62.194 0 0 0-3.91 5.401"/><path d="M160.46 83.638c4.306.564 6.599 5.887 5.574 10.106-1.027 4.22-4.282 7.48-7.422 10.479-11.012 10.521-22.593 20.936-36.591 26.936-2.796 1.199-6.915 1.726-8.09-1.08-.764-1.827.5-3.995 2.255-4.912 1.754-.918 3.83-.904 5.81-.838a20.098 20.098 0 0 1-6.768 8.003c-.941 3.748 1.915 7.99 5.741 8.527 2.007.283 4.024-.324 5.94-.981 18.949-6.496 35.864-18.794 47.888-34.815 1.685-2.246 3.345-4.77 3.301-7.578-.073-4.707-6.084-8.15-10.18-5.83l11.11 11.887c.698.746 1.442 1.616 1.38 2.635-.045.71-.478 1.327-.905 1.896-7.034 9.388-16.229 16.895-25.326 24.3l-33.432 27.218c-.302.246-.612.497-.979.63-1.342.488-2.769-.91-2.862-2.335-.093-1.424.7-2.743 1.5-3.926a69.536 69.536 0 0 1 8.54-10.337 94.872 94.872 0 0 0 15.048 16.251l-23.798 13.553c-2.165-3.126 1.38-6.995 4.526-9.133a2020.282 2020.282 0 0 0 99.272-71.972c8.821-6.813 17.588-13.7 26.57-20.3a102.338 102.338 0 0 0 9.868 20.005c-11.572 14.941-31.767 20.35-45.528 33.303a24.406 24.406 0 0 1-9.046-12.4l14.344-8.286c-.878-2.403-1.033-5.422.8-7.207 1.833-1.785 5.857-.562 5.504 1.972l-5.028.882c-.055 4.694 1.893 9.379 5.26 12.65a103.904 103.904 0 0 1-18.66 13.536 32.353 32.353 0 0 0-6.86-5.559c-6.338 3.045-11.053 8.7-17.123 12.251-5.665 3.315-12.233 4.646-18.46 6.723-7.377 2.461-13.97 8.386-18.124 14.877-6.142 9.596-5.71 27.163 2.921 35.084 1.93 1.771 4.246 3.066 6.595 4.226 3.83 1.892 7.889 3.49 12.147 3.847 9.099.762 19.414-3.344 26.182-9.35 4.481-3.977 7.79-12.267 9.486-17.947 1.994-6.676 2.028-13.983-1.882-19.995-4.593-7.063-13.304-10.542-21.715-11.031-14.35-.835-22.44 8.55-25.227 21.885-2.346 11.228.407 23.525 13.5 25.459 5.85.864 11.936-.761 16.98-3.85 11.08-6.783 12.065-24.518-1.022-27.541C149.581 147.727 152.16 200 174.797 200H300"/><path d="M268.851 93.273a10.603 10.603 0 0 0 2.934 5.363l-6.184 15.403c-.606 1.511-1.23 3.052-2.29 4.288-.935 1.09-2.16 1.885-3.375 2.65-18.018 11.343-38.133 19.71-53.942 33.97-.417.377-.859.771-1.409.883-1.322.27-2.314-1.13-3-2.292-6.57-11.155-20.468-17.47-33.191-15.083"/><path d="M262.9 80.472c3.066-.248 6.382-.365 8.955 1.32 2.85 1.865 4.022 5.457 4.456 8.835 1.012 7.89-1.018 16.132-5.58 22.648-2.343 3.349-5.711 6.424-9.792 6.654m-1.066-44.563c1.649.398 3.276-.56 4.82-1.263 1.542-.703 3.594-1.083 4.748.16 1.438 1.549.226 4.087.714 6.144"/></g><path d="M.5 200H36m215.5 0h48"/></g></svg>