<svg width="300" height="200" viewBox="0 0 300 200" xmlns="http://www.w3.org/2000/svg"><title>icon-betonosmesitel-noact</title><g stroke="#C1C1C1" stroke-width="2" fill="none" fill-rule="evenodd" stroke-linecap="round"><g stroke-linejoin="round"><path d="M.5 199.89h101.231c8.697-6.918 13.738-20.193 9.996-30.657-3.743-10.463-16.557-17.23-26.834-13.002-9.703 3.992-14.28 16.786-10.06 26.393 4.218 9.606 15.906 14.923 26.15 12.66-2.03-2.559-2.754-6.102-1.893-9.253-5.041 1.134-11.637.111-13.266-4.792-1.128-3.395.843-7.172 3.664-9.372 3.095-2.414 7.427-3.415 11.078-1.973 3.651 1.441 6.22 5.584 5.31 9.402-.91 3.818-5.668 6.373-9.146 4.554-4.079-2.135-4.216-7.824-3.791-12.408 1.492-16.112 3.189-26.95 4.68-43.061l70.528-1.085c3.663 12.4 5.21 20.088 4.968 33.016l-58.92 2.869a322.775 322.775 0 0 1 .632-45.467c-14.705.297-29.721-.418-45.22-.87l-.08 5.539a2332.18 2332.18 0 0 0 137.694-.892c1.754 7.888-1.997 16.693-8.9 20.894l1.676-16.434-23.843-.125c-1.696-.009-4.124 1.3-3.064 2.625a159.37 159.37 0 0 0 20.862.685l.085 3.137-17.704.085-.004 6.402 17.073-.523.676 4.004c-7 .321-15.084.615-22.09.44"/><path d="M300.5 199.89H179.14s-4.188-28.696-6.025-39.578c-1.97.29-3.135-.043-5.105.249 0 0-.198 19.576 1.834 27.53 2.8-1.219 12.575.145 15.374-1.073-4.626-22.66-8.834-47.934-17.955-69.187 19.838-1.052 54.706 3.98 54.706 3.98 2.852-3.507 4.366-12.468 4.366-12.468-3.653-2.66-41.284-7.981-53.988-11.712-.716-6.078-1.948-42.653-.519-43.62 1.096-.74 18.684-5.081 23.62-5.438 1.762-3.847.307-8.578-2.534-11.715-2.842-3.137-6.818-4.978-10.762-6.514-25.714-10.01-54.09-10.272-81.663-9.192-12.307.482-25.287 1.426-35.478 8.343-2.5 1.697-5.017 4.454-4.179 7.359.564 1.95 2.458 3.167 4.249 4.124 23.55 12.602 51.89 10.677 78.506 8.42 15.144-1.284 31.14-2.873 43.402-11.852 2.034-1.49 4.122-3.64 3.726-6.129-.262-1.65-1.567-2.92-2.868-3.968-9.11-7.347-21.102-9.945-32.709-11.457a237.09 237.09 0 0 0-74.535 2.146c-8.149 1.541-14.447 2.98-21.196 11.388-3.23 4.025-2.622 9.916-2.645 15.077l-.184 43.108-3.053.007-.108-41.855c24.617 9.415 51.135 13.827 77.474 12.89 18.824-.671 38.373-4.413 53.202-16.026-.37 16.772-1.197 53.46-1.914 54.821-.75 1.423-16.984 15.1-50.592 16.53-18.528.789-43.978-.357-58.638-5.005-7.317-2.32-12.872-7.866-17.162-13.587-1.854-2.472-1.874-6.054-3.739-8.518l-5.479 28.124-4.282-.02c1.244-9.244 3.036-29.61 3.363-30.495 3.725-2.167 8.583-1.036 12.219 1.277 3.635 2.314 6.491 5.652 9.869 8.329 9.508 7.537 22.24 9.254 34.3 10.585 23.572 2.599 48.754 3.11 70.309-6.779"/></g><path d="M.5 200H73m151.893 0H299.5"/></g></svg>