<svg width="300" height="200" viewBox="0 0 300 200" xmlns="http://www.w3.org/2000/svg"><title>icon-production-noact</title><g stroke="#C1C1C1" stroke-width="2" fill="none" fill-rule="evenodd" stroke-linecap="round"><g stroke-linejoin="round"><path d="M116.03 71.228c-1.484-1.935-2.12-3.4-3.568-5.358-3.027-4.092-2.482-5.559-3.75-10.394 1.164-.857 4.846-.21 4.846-.21s1.219 3.875 1.534 5.23c.621 2.663.463 4.795 1.083 7.457l4.502-.032-1.773-9.861 3.374-.308 1.625 10.156a26.04 26.04 0 0 0 7.782-.784c.016-2.149.03-7.63.046-9.779l3.945-.248c-.7 2.971-1.005 7.154-.913 10.196 1.55-.34 3.256-.117 4.804.225-.027-2.156.221-2.335.885-4.4 2.908-1.912 6.27 2.633 9.388 1.04-1.536-3.661-1.887-8.192-5.582-13.6 2.775-.703 4.007-.713 6-.523 2.234 3.134 5.274 10.449 5.798 14.177 2.265.029 4.352-.041 6.568.093-1.728-4.61-2.375-8.455-2.622-13.336a9.793 9.793 0 0 1 3.733-.536c1.037 3.918 1.455 9.41 2.432 14.465 1.6.233 4.132.242 5.71-.098-.623-4.782.86-9.587.237-14.369 2.107-.02 3.25.018 5.357-.004-.086 4.796-1.316 9.553-1.402 14.35l2.777.174a100.195 100.195 0 0 0 5.38-14.783c1.385.234 2.735.653 3.995 1.239-1.95 4.271-2.866 8.64-4.815 12.912 1.032.098 3.265.098 4.298.196 2.086-4.333 1.94-8.666 4.026-13 2.072.573 4.247.813 6.404.706-2.663 6.988-2.25 15.076-5.584 23.077 6.131-.239 5.913.011 12.049.025l-.01 7.314-17.963-.382"/><path d="M145.126 70.169c-12.183.6-21.313.828-33.513.974 2.693 7.05 8.065 12.897 11.137 19.81 1.006 2.263 1.634 4.67 2.784 6.871 1.545 2.957 3.974 5.433 5.656 8.324 1.68 2.89 3.218 5.077 1.426 7.909"/><path d="M129.737 170.195c-4.107-7.568-2.793-17.428 0-25.505.231-.667.481-1.364 1.022-1.849.533-.479 1.277-.685 1.997-.84 5.51-1.196 11.262-.411 16.854.378l16.596 2.343c.856.12 1.747.254 2.451.725.664.444 1.082 1.136 1.447 1.82 3.148 5.913 3.713 12.99 1.54 19.276-.213.612-.463 1.238-.948 1.695-.59.557-1.441.781-2.25.984l-14.66 3.677c-.437-4.551-.404-9.087.059-13.665.062-.615-.054-6.664.381-6.8l5.43-1.639c.524-.158 1.056-.317 1.606-.329.553-.01 1.095.128 1.63.262 5.557 1.39 11.171 1.783 16.752 2.73 5.656.96 10.86 3.437 16.657 3.14l-1.21 2.352c-.838 1.625-1.696 3.405-1.287 5.168.188.805.728 1.616 1.58 1.821.418.1.856.045 1.282-.017 1.19-.173 2.447-.42 3.317-1.201.786-.704 1.127-1.727 1.439-2.702.513-1.61.989-3.484-.038-4.862-.148-.199-.332-.385-.574-.47-.203-.073-.427-.067-.643-.047-2.388.224-4.216 2.016-5.813 3.694-.506.532-1.021 1.076-1.317 1.733-.508 1.13-.099 2.524.07 3.695-.009-.548-25.08-2.689-27.312-3.018-.217-.033-1.066 1.892-1 2.21.21 1.002 1.108.956 1.995 1.096 2.456.387 4.988.493 7.46.815 2.821.366 5.622.965 8.444 1.296.607.072 6.883 1.094 6.824 1.206a2.939 2.939 0 0 0-.13 2.441l-12.778-1.657c-3.652-.473-7.408-1.236-11.062-1.459-3.51-.213-6.934.917-10.396 1.503-5.561.944-11.39.468-16.692-1.364-.375-.13-.77-.283-.992-.594-.216-.302-.222-.69-.22-1.052l.033-8.42c.004-.912.01-1.842.32-2.706.444-1.238 1.461-2.213 2.492-3.092 2.14-1.823 4.513-3.279 6.875-4.82 1.277-.833 5.935-4.548 7.564-4.047-1.49-.458-2.76-1.376-3.998-2.278-.986-.717-2.01-1.481-2.506-2.555-1.026-2.223-.328-5.906-.205-8.309.147-2.89.619-5.792.418-8.69l-5.888.02c.747 7.14 1.093 14.207 1.233 21.323-1.564-.009-3.147-.02-4.661-.387-1.515-.367-2.978-1.133-3.83-2.363-.472-.683-.734-1.47-.992-2.248-1.161-3.506-2.652-7.02-3.023-10.644-.378-3.695-.987-7.346-1.195-11.066a39.733 39.733 0 0 1 6.92-.538c-1.34 6.697 1.613 13.585.778 20.353-.105.844-.232 1.807.366 2.447.436.467 1.136.613 1.786.733 5.76 1.064 14.003 3.456 19.118-.513 2.504-1.943 3.565-5.12 3.722-8.163.335-6.532 1.002-14.033-.464-20.48-.631-2.774-1.728-5.432-2.821-8.076l-6.067-14.682c-1.645-3.981-3.288-7.968-5.166-11.86-.285-.59-5.164-9.557-3.67-9.56a959.383 959.383 0 0 1 47.638 1.104c-1.11 7.293-4.884 13.998-9.234 20.134-4.327 6.102-9.05 11.877-13.346 18.02-.404.578-.815 1.169-1.017 1.834-.186.614-.186 1.261-.185 1.9.015 6.692.52 13.377.455 20.07-.023 2.282.15 5.135-.658 7.325-.315.853-4.762 7.47-5.346 7.36a38.509 38.509 0 0 1-5.366-1.416c.284-6.744 1.208-13.218.744-19.957-1.361.312-2.35 1.457-3.684 1.855-1.335.398-3.229-.929-2.346-1.948.281-.323.738-.453 1.17-.558 1.372-.333 2.79-.518 4.145-.84.255-3.914 1.331-7.643 1.165-11.636-.036-.873-.105-1.749-.284-2.607-.155-.743-.391-1.47-.628-2.194-2.703-8.285-7.107-16.04-9.18-24.487-4.106-.086-8.234-.229-12.35-.026a241.325 241.325 0 0 0-.21 40.495 56.26 56.26 0 0 0 13.204-1.24"/><path d="M98.788 60.589c-.122 4.875-.79 15.806-.912 20.681-.033 1.299-.056 2.643.483 3.84.565 1.253 1.68 2.2 2.645 3.217 3.324 3.507 5.05 8.52 3.706 13.04l-7.291 2.996-.005 2.268a63.341 63.341 0 0 1 7.446.221l.09-4.845a15.014 15.014 0 0 1 5.074-.83c.183 2.35-1.431 4.725-3.78 5.562l16.564.68c-1.007 5.42 2.31 10.807 6.57 14.592 1.912 1.7 4.589 3.275 7.032 2.35-.73-1.503.178-3.24.1-4.889-.204-4.377-6.713-6.088-8.274-10.219-1.744-.2-3.177-1.78-3.107-3.424.07-1.645 1.633-3.113 3.388-3.182.397-.016.832.047 1.102.32.267.27.303.67.326 1.038.08 1.322.15 2.701-.413 3.916-.564 1.215-1.972 2.195-3.344 1.878-1.266-.292-2.037-1.583-2.07-2.805-.032-1.222.506-2.387 1.057-3.494l-14.37-.018c.358-3.159-1.585-6.3-.998-9.428.65-3.461 4.138-5.793 5.714-8.982 1.063-2.154 1.203-4.593 1.325-6.964l.565-10.953a89.989 89.989 0 0 1-17.206-1.285l-.338 4.403c1.658.142 3.336.077 4.975-.196l-.301 12.55c-1.945-.246-3.979.198-5.608 1.223 5.773.65 11.607.828 17.413.53m53.254 84.994c-2.999 7.135-7.563 13.688-13.327 19.131-.92.87-1.907 1.762-2.305 2.93-.87 2.546 1.356 5.34.53 7.9-3.082.888-6.904 1.617-9.142-.559l.796-5.146c.112-.725.224-1.468.064-2.185-.175-.781-.658-1.466-1.132-2.13-5.077-7.114-11.657-12.773-16.734-19.888 7.456 1.05 15.908 2.615 23.625 2.907a50.574 50.574 0 0 1-1.145 18.776c6.074-4.612 10-11.175 14.288-17.3.427-.611.88-1.237 1.542-1.621 1.167-.678 2.666-.442 4.011-.184 3.891.747-1.982-.262 11.673 2.241 6.436 1.18-2.129 7.42-12.745 8.004-9.099.5-7.349 17.75-7.349 17.75h127.46"/><path d="M124.16 50.428l1.119 13.855 17.635.615a73.9 73.9 0 0 0 .288-13.934c-5.235-.45-9.727-1.824-14.818-2.542-5.903-.833-11.882-1.027-17.836-1.303a699.025 699.025 0 0 1-46.528-3.715c-4.484-.51-9.005-1.072-13.247-2.524-1.322-.452-2.658-1.022-3.57-2.027-.911-1.005-1.28-2.55-.52-3.66.522-.765 1.45-1.184 2.338-1.55a89.181 89.181 0 0 1 19.892-5.603c.737-.118 1.598-.194 2.135.294.42.38.491.979.537 1.525l.349 4.137c.058.698.105 1.447-.276 2.048-.407.643-1.202.96-1.945 1.23a191.391 191.391 0 0 1-12.134 3.976c-1.233.359-2.542.708-3.8.432-1.258-.277-2.395-1.42-2.122-2.604 3.439-1.433 7.311-1.585 11.074-1.6 23.127-.09 46.088 4.16 69.215 4.062-12.608-6.227-26.82-10.615-40.443-14.78l28.938.1c3.125.01 6.855-.293 8.373-2.853 1.067-1.8.563-4.039-.132-5.992-.34-.955-.76-1.95-1.616-2.558-.927-.656-2.17-.724-3.332-.758a237.847 237.847 0 0 0-23.983.523c-1.01.074-2.034.156-2.984.484-3.704 1.274-4.909 5.529-5.593 9.17 7.328.894 14.72 1.316 22.11 1.26 6.181-.048 12.388-.427 18.527.255 12.499 1.388 24.43 6.88 36.194 10.815 1.605.536 3.225 1.08 4.664 1.934 1.386.823 2.604 1.933 4.144 2.462 2.445.839 5.146.055 7.618-.712 13.595-4.217 27.375-7.93 41.365-10.796 3.032-.621 6.09-1.204 9.192-1.324 3.06-.118 6.115.217 9.157.55l21.717 2.389c.903.099 1.83.197 2.714-.003 1.704-.384 2.949-1.831 3.492-3.392.543-1.561.506-3.24.463-4.882a115.388 115.388 0 0 0-28.313-.973c-1.457.13-2.958.3-4.233.975-1.275.674-2.28 1.98-2.107 3.342.266 2.098 2.885 3.067 5.095 3.49 7.587 1.45 15.442 1.575 22.917 3.467a421.503 421.503 0 0 1-34.97 7.892c-11.723 2.127-23.224 5.514-34.766 8.457 3.372-.86 8.194-.092 11.711-.155 4.133-.074 8.265-.166 12.397-.274 8.186-.213 16.617-1.13 24.792-.816 15.74.604 14.764.362 30.556-1.11l-.657 8.228c.066-.83-49.985-2.788-49.985-2.388a436.249 436.249 0 0 0 28.02 4.55c-1.025 2.541-3.974 4.033-6.859 4.307-2.884.273-5.758-.44-8.57-1.102-10.622-2.502-21.399-4.374-32.167-6.245 2.412 1.297 7.222 5.888 10.218 5.278-2.801.576-5.608 1.154-8.328 2.01-.716.225-1.442.472-2.197.483-.572.008-1.136-.12-1.69-.255-4.437-1.084-8.834-2.875-12.774-5.063.495-1.53.888-3.136 2.041-4.358-9.862-1.423-19.505-1.338-29.325-1.197-11.371.162-22.967-1.1-34.332-1.596-11.52-.503-23.044-.963-34.57-1.34-23.022-.755-46.06-1.184-69.097-.974-.461.003-.957.02-1.326.28-.448.315-.571.886-.647 1.407a27.185 27.185 0 0 0-.159 6.5c21.961-2.458 44.476-3.206 66.585-3.513l.013 1.63-32.862 3.045a12.774 12.774 0 0 0 .1 3.597c.07.415.186.865.545 1.117.37.26.88.227 1.341.182 16.53-1.615 33.026-3.675 49.578-5.171a32.74 32.74 0 0 0-7.528 1.248c-.915.265-1.943.693-2.176 1.564-.375 1.404 1.543 2.318 3.07 2.535 2.76.39 5.585.368 8.337-.066m48.111 58.628a166.147 166.147 0 0 1-.687 15.214c-.063.688-.135 1.393-.462 2.011-.924 1.74-3.365 2.088-5.435 2.217a74.464 74.464 0 0 0-.132-15.796m-4.098-4.032A60.846 60.846 0 0 0 158.723 118c.38-.13.779-.275 1.029-.573.3-.355.323-.843.332-1.295l.11-5.124c-1.064.766-2.473.926-3.807 1.06l-13.73 1.378c.072-10.903.707-21.869 2.01-32.703m-16.488 68.882l-.966 4.89c-.122.623-.243 1.277-.027 1.877.499 1.385 2.392 1.717 3.948 1.82 9.179.602 18.357 1.206 27.535 1.81a44.545 44.545 0 0 1 .4-8.248c2.9-.946 5.768-1.979 8.598-3.097.636-.251 1.295-.523 1.74-1.018.444-.495-.312-1.711-.75-2.212"/><path d="M131.058 26.168l6.428-13.403c1.253-2.612 2.58-5.318 4.925-7.154 2.345-1.836 6.025-2.515 8.437-.757a176.373 176.373 0 0 0-10.678 23.127l8.154 1.79 11.566-17.955c1.062-1.648 3.303-3.5 4.804-2.185a145.109 145.109 0 0 1-6.27 23.274c5.356.862 9.351-4.437 11.531-9.103 2.181-4.667 5.067-10.227 10.482-10.679-.124 4.602-3.647 8.397-5.865 12.504-2.287 4.235-3.239 9.092-2.707 13.812 6.03-4.544 11.192-10.093 15.174-16.309 2.682-4.187 5.546-9.184 10.682-10.009 1.626 8.596-8.154 16.133-7.335 24.829 9.286-6.188 16.538-15.02 20.54-25.019 3.038 3.033.871 8.004-1.836 11.3-2.708 3.296-6.073 7.045-4.963 11.073a189.329 189.329 0 0 1 16.992-14.726c1.567 4.076-6.562 7.066-5.384 11.256l15.203-10.184c.502 2.39-.127 4.968-1.687 6.917M5.499 200h141.787"/></g><path d="M.5 200h48m203 0h48"/></g></svg>