<svg width="300" height="200" viewBox="0 0 300 200" xmlns="http://www.w3.org/2000/svg"><title>icon-delivery-noact</title><path d="M0 200l23.108-.064c3.07 0 5.721-.317 8.492-1.901 2.024-1.157 3.767-2.92 4.556-5.114.44-1.223.573-2.537.575-3.837.002-1.104-.098-2.245-.613-3.221-.515-.977-1.53-1.756-2.634-1.707-1.053.046-1.94.805-2.6 1.627-1.985 2.465-2.715 5.804-2.326 8.945.291 2.344 2.683 2.873 4.713 2.389 2.521-.602 3.36-3.288 3.894-5.632.784-3.44 2.152-7.763 6.455-7.762 1.008.269 1.191.508 1.356.747a9.886 9.886 0 0 1 1.678 6.484c-.232 2.415-1.55 5.788-4.047 6.67-2.567.905-3.88-1.373-4.238-3.604-.49-3.059-.343-6.616 1.713-8.933 3.25-3.66 10.683-4.917 14.2-2.55 1.551 1.043 2.074 3.061 2.332 4.913.157 1.125.258 2.273.065 3.392-.195 1.13-.684 2.186-1.167 3.227-.37.797-.77 1.63-1.482 2.143-.957.688-2.239.644-3.413.557-5.947-.438-3.974-11.942-1.813-15.078 1.81-2.625 4.969-2.924 7.93-3.627 3.44-.817 6.92-1.446 10.398-2.076 11.382-2.061 22.76-4.169 34.046-6.714 5.308-1.198 10.499-2.494 15.85-3.329 5.683-.886 11.381-1.685 17.048-2.676l18.013-3.146c-.305-1.298-.627-83.787-.627-83.787-3.092 2.392-25.271 12.128-32.642 14.753A1141.947 1141.947 0 0 0 18.036 132.5c.137 6.659.012 53.27.012 53.273 0 1.855 42.826-5.162 46.606-5.956 7.823-1.644 15.62-3.416 23.454-5.005 3.792-.768 7.6-1.457 11.414-2.107 1.66-.283 3.142-.527 4.791-.419 1.627.106 3.217-.49 4.835-.34 1.845.17 3.33 1.715 3.99 3.446.66 1.73.657 3.632.644 5.484-.039 5.831-2.008 14.48-9.729 13.68-3.547-.366-5.077-3.153-5.461-6.393-.438-3.693.277-8.06 2.43-11.155 1.071-1.54 2.553-2.745 4.434-3.093 3.618-.67 2.787 1.148 2.975 3.874.246 3.59-.673 7.25-2.587 10.296-.134.214-.29.44-.53.52-.638.212-1.04-.683-1.088-1.353-.175-2.467.11-4.966.837-7.33.15-.49 10.109-1.252 11.22-1.445 3.505-.607 6.803-1.42 10.357-1.841a695.044 695.044 0 0 1 23.756-2.406l-.802 8.49a126.338 126.338 0 0 1-28.803 4.505l-.9-16.763c16.322-1.48 49.36-7.64 49.36-7.75v-77.76c9.882-2.253 19.795-3.593 29.732-5.193 2.398-.386 4.814-.774 7.242-.702 2.617.078 5.185.686 7.723 1.33a258.657 258.657 0 0 1 30.902 9.95c1.27.5 2.576 1.035 3.528 2.012 1.193 1.226 1.66 2.966 2.083 4.624l3.658 14.336c-4.894-.649-29.59-8.369-37.469-11.226.53 5.476 4.651 29.738 6.46 31.335 1.057.933 23.314 3.413 32.773 5.866-.984-5.866-2.631-12.454-4.04-20.616-.083-.483 2.761.182 2.891.42.652 1.198 3.781 15.812 4.583 20.266 1.676 9.312 3.488 16.135 3.9 28.076-6.522-.836-13.507-1.235-20.754-1.235-11.92 0-22.644-.536-35.423-.243-1.887.043-3.671.268-5.507-.169-2.161-.514-3.765-1.232-5.13-2.985-6.07-7.803-25.011-9.615-25.176.597-.089 5.49 0 10.541.163 15.051 4.127-4.827 10.742-7.801 16.953-6.477 6.211 1.324 10.902 8.965 10.027 15.255-1.128 8.116-8.209 13.946-18.99 11.83-8.492-1.666-9.256-17.196-1.4-23.141 6.094-4.612 12.347-4.216 18.882-4.418 6.535-.202 13.02 1.022 19.444 2.24a13.73 13.73 0 0 1-.894-6.475c4.67-.22 9.346-.326 14.021-.32 1.034.002 2.172.048 2.931.75.626.577.839 1.464 1.02 2.297.424 1.935.69 4.339-.888 5.536-.853.649-2 .712-3.072.749l-5.357.184c-1.632.056-3.38.082-4.75-.807-1.368-.89-2-3.07-.788-4.164 11.666-.421 22.367-.702 33.981.475-4.318.468-7.643 1.597-11.961 2.065-.883.096-2.06.96-1.398 1.55 8.015-.35 23.856.755 22.089.75-4.952-.015-5.943-2.768-5.154-4.35 1.466-.018 5.684.28 6.01.551.4.333 1.015 8.461-2.42 11.128-1.697 1.317-4.35 2.134-6.41 2.746-6.188 1.84-12.668 2.48-19.115 2.823-7.564.402-15.148.408-22.712.017-2.155-.111-4.378-.273-6.298-1.256-3.336-1.708-3.274-4.715-3.306-7.998l-.119-12.193c-.01-1.018.004-2.114.6-2.938.807-1.115 2.354-1.326 3.726-1.435 16.72-1.332 35.229-.577 51.986.14-.044-5.277-.906-11.695-1.84-16.892l-28.887-3.675-.228 16.845c-3.42.647-7.038.202-10.2-1.254.589-14.76-2.064-29.434-4.707-43.966l-2.242-12.329c0 .57-31.38 6.349-33.905 6.61.178-.019-4 20.366-4.187 22.826 5.447-1.546 18.815-2.704 19.71-2.23 1.145.607 9.853 6.743 13.978 6.37 4.125-.371 8.227-1.546 12.344-1.094 1.6 9.18 1.463 20.41 2.302 27.768 12.006.964 40.393 2.849 40.992 3.515.473.526 1.756 1.888 1.811 2.53.179 2.084.5 11.162.33 13.505-.159 2.188-3.605 7.624-11.264 8.365-5.077.491-8.536.676-13.607.118-.896 2.882-2.141 10.13-12.847 9.553-6.75-.364-7.824-6.506-8.428-8.964-1.125 2.787 1.032 8.202 4.557 9.623 1.72.693 16.341 1.193 18.196 1.217 13.541.177 50.908-.107 60.094 0M.5 200h76.663m107.484 0H299.5" stroke="#C1C1C1" stroke-width="2" fill="none" stroke-linecap="round" stroke-linejoin="round"/></svg>