<svg width="207" height="129" viewBox="0 0 207 129" xmlns="http://www.w3.org/2000/svg"><title>Group 3</title><g fill="none" fill-rule="evenodd"><path d="M206.44 112.484c-68.535 20.637-137.232 20.642-205.786 0V16.48c68.554-20.643 137.25-20.637 205.786 0v96.004z" stroke="#C1C1C1"/><path d="M30.508 98.715c1.851 0 3.451-.195 5.123-1.17 1.22-.712 2.273-1.797 2.749-3.146.265-.753.346-1.561.347-2.361.001-.68-.06-1.381-.37-1.982-.311-.6-.924-1.08-1.59-1.05-.635.028-1.17.496-1.568 1.001-1.198 1.517-1.638 3.571-1.403 5.503.175 1.443 1.619 1.768 2.843 1.47 1.521-.37 2.028-2.023 2.35-3.465.472-2.117 1.297-4.776 3.894-4.775.154 0 .314.013.452.084.156.081.267.228.366.375a6.174 6.174 0 0 1 1.012 3.99c-.14 1.486-.935 3.56-2.441 4.103-1.55.557-2.342-.844-2.557-2.217-.296-1.882-.207-4.07 1.033-5.496 1.96-2.251 6.445-3.025 8.567-1.57.936.643 1.252 1.884 1.407 3.024.095.692.156 1.398.04 2.087-.118.695-.413 1.345-.705 1.985-.223.49-.464 1.003-.894 1.318-.577.424-1.35.397-2.06.343-3.587-.27-2.396-7.347-1.093-9.277 1.092-1.615 2.998-1.798 4.785-2.231 2.075-.503 4.175-.89 6.273-1.277 6.867-1.269 13.732-2.565 20.54-4.131 3.203-.737 6.334-1.535 9.562-2.048 3.43-.545 6.867-1.037 10.286-1.646l10.868-1.936c-.184-.798-.379-51.55-.379-51.55-1.865 1.471-15.246 7.462-19.693 9.077a681.456 681.456 0 0 0-60.805 25.477c.083 4.097.008 32.774.008 32.776 0 1.141 25.837-3.176 28.118-3.664 4.72-1.011 9.423-2.102 14.15-3.08 2.288-.472 4.585-.896 6.886-1.296 1.002-.174 1.896-.324 2.89-.257.982.065 1.942-.302 2.918-.21 1.113.105 2.009 1.056 2.407 2.12.398 1.065.396 2.235.389 3.375-.024 3.587-1.212 8.908-5.87 8.417-2.14-.226-3.063-1.94-3.295-3.934-.264-2.272.167-4.959 1.466-6.863.647-.948 1.54-1.689 2.675-1.903 2.183-.412 1.682.706 1.795 2.383a10.8 10.8 0 0 1-1.56 6.335c-.081.132-.176.27-.32.32-.385.13-.628-.42-.657-.833a12.643 12.643 0 0 1 .505-4.51c.091-.3 6.099-.77 6.77-.888 2.114-.374 4.104-.874 6.248-1.133 4.769-.577 9.547-1.07 14.333-1.48l-.484 5.223a74.86 74.86 0 0 1-17.378 2.772c-.18-3.438-.362-6.876-.543-10.313 9.847-.911 29.78-4.701 29.78-4.769V27.971c5.962-1.387 11.942-2.211 17.938-3.196 1.446-.237 2.904-.476 4.369-.431 1.579.047 3.128.422 4.659.818a153.891 153.891 0 0 1 18.644 6.122c.766.307 1.554.636 2.128 1.237.72.755 1.002 1.825 1.257 2.845l2.207 8.82c-2.953-.399-17.853-5.148-22.605-6.906.32 3.369 2.805 18.296 3.897 19.278.637.575 14.066 2.1 19.772 3.61-.594-3.61-1.587-7.663-2.437-12.684-.05-.297 1.666.112 1.744.258.393.737 2.281 9.729 2.765 12.468 1.011 5.73 2.104 9.928 2.352 17.275-3.934-.515-8.148-.76-12.52-.76-7.192 0-13.662-.33-21.372-.15-1.138.027-2.215.165-3.322-.104-1.304-.316-2.272-.758-3.095-1.837-3.662-4.8-15.09-5.915-15.19.368-.053 3.377 0 6.485.1 9.26 2.489-2.97 6.48-4.8 10.227-3.985 3.748.814 6.578 5.516 6.05 9.386-.681 4.993-4.953 8.58-11.457 7.278-5.123-1.025-5.585-10.58-.845-14.238 3.677-2.837 7.45-2.594 11.392-2.718 3.942-.124 7.855.629 11.73 1.379a8.6 8.6 0 0 1-.539-3.984c2.818-.135 5.639-.2 8.46-.197.623.001 1.31.03 1.768.46.377.357.506.902.615 1.414.256 1.191.416 2.67-.536 3.407-.515.399-1.207.438-1.853.46l-3.232.114c-.984.034-2.039.05-2.865-.497-.826-.547-1.207-1.888-.476-2.562 7.038-.259 13.494-.432 20.501.292-2.605.288-4.61.983-7.216 1.271-.533.059-1.243.59-.844.953 4.836-.214 14.393.465 13.327.462-2.987-.01-3.585-1.703-3.11-2.676.885-.011 3.43.172 3.627.339.24.204.612 5.206-1.461 6.846-1.024.81-2.624 1.313-3.866 1.69-3.734 1.131-7.644 1.525-11.533 1.736-4.563.248-9.14.252-13.703.011-1.3-.068-2.64-.168-3.8-.773-2.012-1.05-1.974-2.9-1.994-4.92l-.071-7.502c-.007-.627.002-1.3.362-1.808.486-.686 1.42-.816 2.247-.883 10.087-.82 21.254-.355 31.364.086-.027-3.246-.546-7.195-1.11-10.393L153.7 62.45l-.137 10.363a10.086 10.086 0 0 1-6.155-.771c.356-9.08-1.245-18.11-2.84-27.05l-1.351-7.585c0 .35-18.933 3.905-20.456 4.066.107-.011-2.414 12.53-2.526 14.044 3.286-.951 11.351-1.664 11.892-1.372.69.373 5.944 4.148 8.432 3.92 2.489-.23 4.964-.952 7.447-.674.966 5.648.883 12.557 1.39 17.084 7.243.593 24.369 1.753 24.73 2.163.286.323 1.06 1.161 1.093 1.556.108 1.283.302 6.867.2 8.31-.097 1.345-2.175 4.69-6.796 5.146-3.064.302-5.15.416-8.21.072-.54 1.774-1.292 6.233-7.75 5.878-4.073-.224-4.72-4.003-5.085-5.515-.68 1.715.622 5.046 2.749 5.92 1.038.427 9.859.33 10.978.344" stroke="#E01976" stroke-width="2" stroke-linecap="round" stroke-linejoin="round"/></g></svg>