<svg width="226" height="55" viewBox="0 0 226 55" xmlns="http://www.w3.org/2000/svg"><title>Logo/color-horizontal</title><g fill="none" fill-rule="evenodd"><path d="M4.941 52.19c2.764 0 3.115-.5 3.115-3.436 0-2.956-.34-3.445-3.115-3.445-2.803 0-3.143.489-3.143 3.445 0 2.936.384 3.436 3.143 3.436m.017-7.694c3.395 0 4.222.712 4.222 4.258 0 3.538-.827 4.249-4.25 4.249-3.4 0-4.25-.711-4.25-4.25 0-3.545.85-4.257 4.278-4.257zm12.603.09v.81h-5.578v2.869h3.383c2.211 0 3.006.545 3.006 2.268 0 1.691-.839 2.38-2.978 2.38h-4.536v-8.327h6.703zm-5.578 7.516h3.33c1.61 0 1.936-.457 1.936-1.569 0-1.277-.474-1.455-2.085-1.455h-3.18v3.024zm12.093-7.606c3.4 0 4.223.712 4.223 4.258 0 3.538-.822 4.249-4.252 4.249-3.398 0-4.25-.711-4.25-4.25 0-3.545.852-4.257 4.28-4.257zm-.015 7.694c2.762 0 3.113-.5 3.113-3.436 0-2.956-.334-3.445-3.113-3.445-2.805 0-3.139.489-3.139 3.445 0 2.936.378 3.436 3.139 3.436zm7.003.723h-1.125v-8.326h4.831c1.963 0 2.683.71 2.683 2.368 0 2.022-.786 2.7-3.373 2.7h-3.016v3.258zm0-4.07h2.691c1.816 0 2.573-.278 2.573-1.767 0-1.19-.258-1.68-1.717-1.68h-3.547v3.448zm8.434-4.257l3.125 5.77 2.857-5.77h1.164l-3.542 7.024c-.434.88-1.059 1.303-1.899 1.303h-1.059v-.81h.665c.707 0 .964-.179 1.207-.78l-3.736-6.737h1.218zm8.501 7.504c.773-.956 1.03-1.925 1.03-3.213v-4.29h6.894v7.515h.73v2.722h-1.032v-1.91h-7.21v1.91h-1.032v-2.722H48v-.012zm2.155-6.694v3.37c0 1.68-.259 2.457-.878 3.336H54.8v-6.706h-4.646zm11.808-.9c3.4 0 4.222.712 4.222 4.258 0 3.538-.823 4.249-4.25 4.249-3.4 0-4.25-.711-4.25-4.25 0-3.545.85-4.257 4.278-4.257zm-.017 7.694c2.765 0 3.115-.5 3.115-3.436 0-2.956-.335-3.445-3.115-3.445-2.803 0-3.138.489-3.138 3.445 0 2.936.38 3.436 3.138 3.436zm5.88-7.604h4.886c1.732 0 2.56.545 2.56 2.044 0 .934-.108 1.579-1.26 1.914 1.343.3 1.557.856 1.557 1.957 0 1.488-.62 2.412-2.572 2.412h-5.172v-8.327zm1.123 3.679h3.22c1.502 0 1.98-.355 1.98-1.544 0-1.014-.34-1.325-1.558-1.325h-3.642v2.869zm0 3.837h3.127c1.732 0 2.368-.166 2.368-1.536 0-1.355-.416-1.488-1.89-1.488h-3.605v3.024zm11.331-7.515h1.64l3.78 8.326H84.49l-.758-1.711h-5.116l-.81 1.71h-1.224l3.696-8.325zm.84.688l-2.232 5.114h4.48l-2.248-5.114zm12.865 2.99v-3.679h1.124v8.327h-1.124v-3.835h-5.929v3.835h-1.124v-8.327h1.124v3.68h5.93zm4.141 4.015l5.77-7.694h1.798v8.327h-1.123v-7.615l-5.781 7.615h-1.788v-8.327h1.124v7.694zm15.752-4.015v.813h-5.162v3.024h5.374v.811h-6.497v-8.327h6.525v.81h-5.402v2.87h5.162zm6.132 4.015l5.769-7.694h1.8v8.327h-1.125v-7.615l-5.781 7.615h-1.788v-8.327h1.125v7.694zm16.342.633h-1.123v-7.517h-3.275v-.81h7.678v.81h-3.28v7.517zm10.766-4.648v.813h-5.16v3.024h5.375v.811h-6.499v-8.327h6.525v.81h-5.402v2.87h5.161zm5.551-.122l2.874-3.557h1.354l-3.334 4.013 3.63 4.314h-1.382l-3.142-3.824-3.138 3.824h-1.382l3.625-4.314-3.329-4.013h1.356l2.868 3.557zm12.58.122v-3.679h1.125v8.327h-1.125v-3.835h-5.933v3.835h-1.125v-8.327h1.125v3.68h5.933zm7.027-3.77c3.4 0 4.223.713 4.223 4.259 0 3.538-.823 4.249-4.251 4.249-3.394 0-4.25-.711-4.25-4.25 0-3.545.856-4.257 4.278-4.257zm-.011 7.695c2.759 0 3.114-.5 3.114-3.436 0-2.956-.34-3.445-3.114-3.445-2.803 0-3.144.489-3.144 3.445 0 2.936.379 3.436 3.144 3.436zm13.808-7.604v8.327h-1.123v-7.517h-4.904v5.083c0 1.578-.472 2.434-1.908 2.434h-.718v-.81h.273c.866 0 1.23-.213 1.23-1.526v-5.99h7.15zm5.903-.09c3.4 0 4.227.712 4.227 4.258 0 3.538-.827 4.249-4.251 4.249-3.4 0-4.256-.711-4.256-4.25 0-3.545.857-4.257 4.28-4.257zm-.012 7.694c2.764 0 3.115-.5 3.115-3.436 0-2.956-.341-3.445-3.115-3.445-2.803 0-3.143.489-3.143 3.445 0 2.936.379 3.436 3.143 3.436zm12.158-7.604v.81h-5.144v7.517h-1.124v-8.327h6.268zm2.222 7.694l5.77-7.694h1.798v8.327h-1.125v-7.615l-5.78 7.615h-1.787v-8.327h1.124v7.694zm10.59 0l5.77-7.694h1.799v8.327h-1.125v-7.615l-5.781 7.615h-1.787v-8.327h1.125v7.694zM61.003 17.11V9.805a50.232 50.232 0 0 1 5.792-.944 71.791 71.791 0 0 1 7.684-.392c2.286 0 4.485.088 6.536.266 1.77.16 3.456.376 5.002.66v8.134a52.6 52.6 0 0 1-5.002.656 75.529 75.529 0 0 1-6.536.271 68.88 68.88 0 0 1-7.673-.41 61.953 61.953 0 0 1-5.803-.936zm-7.37 16.401V4.227l2.609-.803c2.502-.746 5.32-1.325 8.392-1.725 3.065-.4 6.378-.6 9.845-.6 3.465 0 6.777.2 9.843.6 3.072.4 5.89.98 8.38 1.723l.686.205V23.3l-.686.206c-2.48.737-5.298 1.315-8.38 1.72-3.066.397-6.378.6-9.843.6a80.98 80.98 0 0 1-7.734-.349 58.624 58.624 0 0 1-5.742-.82v8.855h-7.37zm59.246 0V8.55a54.987 54.987 0 0 0-6.384.604c-2.254.353-4.277.795-6.028 1.31l-1.227.365V3.14l.729-.178c2.325-.574 4.909-1.032 7.678-1.36 2.78-.335 5.78-.502 8.919-.502 3.126 0 6.12.167 8.889.501 2.754.33 5.342.787 7.7 1.361l.73.178v7.69l-1.23-.366c-1.742-.515-3.771-.957-6.026-1.31a54.859 54.859 0 0 0-6.378-.604v24.962h-7.372zm61.179 0V11.307l-7.694 6.176a780.518 780.518 0 0 0-5.27 4.26l-14.6 11.768h-6.756V1.001h7.376v22.213L174.677 1h6.756v32.511h-7.376zm34.02.098c-3.467 0-6.769-.2-9.823-.6-3.05-.398-5.868-.996-8.369-1.772l-2.606-.737V4.227l2.611-.803c2.5-.746 5.314-1.325 8.364-1.725 3.054-.4 6.356-.6 9.822-.6 3.12 0 6.115.16 8.912.477 2.775.315 5.38.784 7.738 1.387l.724.184v7.69l-1.234-.374c-2.05-.617-4.48-1.116-7.217-1.478-2.776-.378-5.776-.567-8.923-.567-2.655 0-5.232.14-7.656.413-2.123.247-4.08.56-5.819.935v15.132c1.733.37 3.691.685 5.82.932a68.56 68.56 0 0 0 7.655.411c3.152 0 6.153-.18 8.93-.537 2.746-.35 5.165-.858 7.194-1.5l1.25-.398v7.708l-.724.184c-2.347.606-4.947 1.078-7.732 1.41-2.786.334-5.787.501-8.918.501zM40.14 2.171c1.776.332 3.482.705 5.023 1.16l2.617.803v26.35l-2.606.8c-2.522.749-5.342 1.328-8.401 1.725-3.082.406-6.401.609-9.857.609-3.487 0-6.822-.203-9.91-.61a58.62 58.62 0 0 1-5.045-.89c.264-2.47.828-4.862 1.673-7.16a60.68 60.68 0 0 0 5.544.88c2.436.278 5.04.42 7.738.42 2.694 0 5.294-.142 7.712-.42a59.598 59.598 0 0 0 5.842-.94V9.707c-1.761-.4-3.72-.716-5.837-.95-2.254-.243-4.705-.367-7.271-.38 3.64-2.43 7.913-4.514 12.778-6.206z" fill="#1E1E1E"/><path d="M13.015 1.615C9.4 2.012 6.06 2.59 3.083 3.339L0 4.139v24.003a76.216 76.216 0 0 0 8.068 2.91c.9-6.938 4.87-20.454 23.237-29.846-2.15-.123-4.354-.2-6.63-.2-4.092 0-8.014.203-11.66.609" fill="#E21776"/></g></svg>