<svg width="170" height="26" viewBox="0 0 170 26" xmlns="http://www.w3.org/2000/svg"><title>Logo/color-horizontal</title><g fill="none" fill-rule="evenodd"><path d="M45.754 12.833c1.3.28 2.756.515 4.353.702 1.81.204 3.746.308 5.755.308 1.727 0 3.373-.07 4.902-.203a39.452 39.452 0 0 0 3.752-.492V7.046a42.033 42.033 0 0 0-3.752-.494 57.072 57.072 0 0 0-4.902-.2c-2.025 0-3.962.1-5.764.294-1.58.17-3.037.41-4.344.708v5.48zm-5.528 12.302V3.171l1.957-.603c1.877-.56 3.991-.993 6.295-1.293 2.298-.3 4.783-.45 7.384-.45 2.599 0 5.083.15 7.382.45 2.305.3 4.418.734 6.286 1.292l.514.154v14.755l-.514.154c-1.86.553-3.974.986-6.286 1.29-2.3.298-4.783.45-7.382.45-2.041 0-3.991-.087-5.801-.262a43.97 43.97 0 0 1-4.307-.615v6.642h-5.528zm44.437 0V6.412a41.243 41.243 0 0 0-4.788.453c-1.69.265-3.208.597-4.521.983l-.92.274V2.355l.546-.134a47.616 47.616 0 0 1 5.76-1.02 56.435 56.435 0 0 1 6.689-.377c2.345 0 4.59.126 6.667.376 2.066.247 4.007.59 5.776 1.021l.547.134v5.767l-.922-.274c-1.307-.386-2.83-.718-4.52-.983a41.147 41.147 0 0 0-4.784-.453v18.723h-5.53zm45.887 0V8.48l-5.77 4.632a585.418 585.418 0 0 0-3.953 3.195l-10.951 8.827h-5.067V.75h5.532v16.662L131.015.75h5.068v24.385h-5.533zm25.516.073c-2.6 0-5.076-.15-7.366-.45-2.288-.298-4.402-.747-6.278-1.329l-1.954-.552V3.17l1.958-.603c1.875-.56 3.986-.993 6.274-1.293 2.29-.3 4.767-.45 7.366-.45 2.34 0 4.587.119 6.685.357 2.081.237 4.035.588 5.804 1.04l.543.139v5.767l-.926-.28c-1.537-.463-3.36-.837-5.413-1.109-2.082-.283-4.332-.425-6.693-.425-1.99 0-3.924.104-5.742.31-1.592.185-3.06.42-4.364.701v11.35c1.3.277 2.768.514 4.364.699 1.826.206 3.759.308 5.742.308a52.94 52.94 0 0 0 6.698-.403c2.06-.263 3.874-.643 5.396-1.125l.938-.298v5.781l-.543.138c-1.76.455-3.71.809-5.8 1.058-2.09.25-4.34.375-6.689.375zM30.106 1.628c1.333.25 2.612.529 3.768.87l1.963.603v19.763l-1.955.6c-1.891.562-4.007.996-6.3 1.294-2.313.305-4.802.457-7.394.457-2.616 0-5.117-.152-7.433-.457a43.967 43.967 0 0 1-3.784-.668 22.416 22.416 0 0 1 1.255-5.37c1.264.263 2.648.49 4.158.66 1.827.208 3.781.315 5.804.315 2.02 0 3.97-.107 5.784-.315a44.701 44.701 0 0 0 4.382-.706V7.281a39.6 39.6 0 0 0-4.378-.713 53.867 53.867 0 0 0-5.454-.285c2.73-1.823 5.936-3.386 9.584-4.655z" fill="#1E1E1E"/><path d="M9.762 1.211c-2.712.298-5.216.732-7.45 1.293L0 3.105v18.003a57.165 57.165 0 0 0 6.05 2.182C6.726 18.086 9.704 7.95 23.48.904a86.79 86.79 0 0 0-4.973-.15c-3.07 0-6.01.153-8.745.457" fill="#E21776"/></g></svg>