<svg width="208" height="129" viewBox="0 0 208 129" xmlns="http://www.w3.org/2000/svg"><title>Group 2</title><g fill="none" fill-rule="evenodd"><path d="M206.785 112.484c-68.535 20.637-137.232 20.642-205.785 0V16.48c68.553-20.643 137.25-20.637 205.785 0v96.004z" stroke="#C1C1C1"/><g stroke="#E01976" stroke-width="2" stroke-linecap="round" stroke-linejoin="round"><path d="M26.75 107.767h5.918c6.239 0 21.859-14.846 27.021-20.015-2.463.64-4.892-1.906-4.902-4.451-.007-1.927.99-3.68 2.27-5.057 1.538-1.654 3.704-2.732 5.448-4.16 1.836-1.501 3.569-3.125 5.43-4.595.928-.733 1.897-1.496 2.867-2.152.33-.223 3.028-1.821 3.343-1.384a23.19 23.19 0 0 0 5.708 5.57L69.766 80.52c-2.12 1.89-4.244 3.785-6.551 5.44-.93.667-1.954 1.317-3.097 1.351-1.143.035-2.385-.8-2.378-1.943.007-.985.863-1.725 1.646-2.324l12.368-9.468c2.134-1.633 4.38-3.318 7.028-3.782 2.647-.465 5.795.733 6.603 3.297 1.577-.395 3.319-1.091 3.877-2.618.466-1.272-.108-2.753-1.11-3.666-1.002-.912-2.35-1.345-3.683-1.588-2.41-.44-5.15-.55-7.5.221-.89.293-1.754.704-2.684.817l3.876-1.49c-.594-.585-.81-1.482-.699-2.308.111-.825.515-1.587 1.012-2.256.308-.414.657-.803 1.08-1.099.891-.624 1.913-.603 2.902-.903"/><path d="M65.851 35.134c3.126 4.29 5.759 8.941 8.902 13.234 2.682 3.663 5.902 6.76 8.215 10.699 2.015 3.431 5.29 5.857 7.07 9.462 1.563-.783 3.246-1.668 4.438-3.004 2.117-2.372 3.262-5.773 4.99-8.458l6.249-9.712 4.583-7.123c1.307-2.031 2.064-4.378 3.595-6.25-4.813-.643-9.693-.05-14.532.353-11.44.953-22.94.845-34.418.737-.306-.004-.645-.02-.864-.233-.174-.17-.228-.424-.272-.662a36.67 36.67 0 0 1-.594-7.379c.007-.317.027-.66.229-.906.272-.33.76-.358 1.187-.358l50.226-.064c.328 2.564.746 5.659.193 8.192-1.107.07-.48-5.962-.525-7.214-.011-.32-.027-.646-.151-.94-.15-.35-.438-.619-.72-.876-.698-.642-1.398-1.283-2.097-1.924-.235-.216-.478-.436-.778-.545-.293-.107-.614-.097-.927-.085-4.64.17-9.202.071-13.803.088-6.708.025-13.416.077-20.124.13-1.94.015-3.924.038-5.745.705-2.226.815-4.137 2.565-6.498 2.782"/><path d="M74.774 56.408c-2.435-1.933-4.656-4.117-6.872-6.297-.695-.685-1.414-1.405-1.725-2.33-.587-1.746.52-3.703 2.081-4.685 1.561-.98 3.463-1.214 5.296-1.407a320.642 320.642 0 0 1 42.307-1.65c.166.004.35.016.467.133.137.135.13.353.115.544l-.194 2.432c-.026.318-.056.651-.232.917-.366.555-1.157.574-1.82.536a236.69 236.69 0 0 0-41.694 1.275c-5.617.671-.043 5.339 1.975 6.882 1.788 1.366 3.278 2.327 4.646 4.146 1.13 1.501 2.196 3.052 3.362 4.528.733.929 2.38 3.554 3.575 3.84-1.57-.375-2.062-.45-3.066-1.607-.824-.949-1.567-1.904-2.502-2.758-1.792-1.637-3.816-3-5.72-4.5z"/><path d="M153.252 44.375c.306.024.625.054.884.218.263.167.425.448.586.714 1.706 2.816 4.263 4.996 6.775 7.124 1.521 1.29 3.461 2.025 4.376-.384a37.22 37.22 0 0 1-3.854-3.882 2.271 2.271 0 0 1-1.816 1.208 3.441 3.441 0 0 0 1.544-1.515c-.211.413-3.383-3.39-3.626-3.604a1.46 1.46 0 0 1-1.345 1.162c.532-.28.967-.74 1.217-1.286a.613.613 0 0 0 .069-.248c0-.146-.09-.273-.177-.39-.48-.647-.993-1.322-1.73-1.65-.315-.142-.659-.212-1-.276-1.495-.277-2.988-.388-4.503-.488-1.712-.113-3.388.02-5.113-.244.258-.628.406-1.3.435-1.978.004-.085.007-.176.055-.247a.428.428 0 0 1 .203-.136c1.922-.78 4.323-.415 6.336-.324.174.008.36.013.507-.082.146-.094.21-.33.078-.442l-6.91-.014c-.41 0-.893.036-1.11.385-.117.188-.122.424-.123.646l-.01 2.323c-3.108-.053-6.14-.242-9.257-.218l-10.277.08c-.134-1.48.193-2.964.215-4.45.022-1.488-.346-3.114-1.524-4.022-1.085-.837-2.572-.861-3.94-.799-.555.026-1.13.065-1.616.333-.937.515-1.257 1.692-1.402 2.751-.319 2.321-.235 4.677-.15 7.018l4.944-.236.113-2.6c-.837.319-1.832.279-2.58-.215-.746-.494-1.18-1.47-.932-2.332.267-.927 1.217-1.517 2.166-1.69.94-.17 1.99.016 2.674.682.685.667.869 1.862.254 2.593-.67.797-1.882.767-2.918.67a16.814 16.814 0 0 0 .283 3.106c-1.47.013-3-.079-4.45.091-1.022 2.743 5.177 1.617 6.512 1.604a335.805 335.805 0 0 1 30.138 1.044z"/><path d="M118.927 43.542c-1.493 1.003-2.809 2.234-4.185 3.384-1.336 1.118-2.798 1.92-4.197 2.949-.14.103-.285.212-.364.367-.12.24-.054.529.015.789l1.917 7.227c5.227-6.213 14.159-8.3 19.438-14.469a6.04 6.04 0 0 0 3.473.257 155.955 155.955 0 0 1-13.818 13.553c-1.104.956-2.305 2.052-2.426 3.507 4.506-1.8 7.82-5.626 11.3-9.006a75.34 75.34 0 0 1 6.958-5.975c.72-.546 1.464-1.086 2.316-1.386 1.037-.365 2.164-.351 3.263-.333.85.015 1.702.03 2.553.043.297.005.605.012.876.135.326.148.558.444.776.728l8.601 11.231c-9.574 6.36-19.135 12.743-28.723 19.081-1.648-4.154-6.098-6.586-8.91-9.885-1.633-1.916-2.854-4.221-4.731-5.919m8.491-18.38c2.491-.083 4.45-2.064 6.127-3.907 1.117-1.228 2.029-2.631 3.175-3.822 1.418-1.474 2.843-2.942 4.265-4.412.565-.585 1.187-1.2 1.989-1.339 1.216-.21 2.78.505 3.846 1.048a48.908 48.908 0 0 1 4.39 2.53c.318.206.647.43.817.77.407.81-.28 1.72-.916 2.367l-2.353 2.389c-1.086 1.103-2.508 1.808-3.592 2.981-.086.093-.175.19-.294.235a.799.799 0 0 1-.24.037l-3.618.184c2.549-1.629 4.865-3.681 7.194-5.611 3.008-2.494-2.308-3.804-3.946-4.49-.234-.098-.475-.197-.729-.196-.385.002-.726.233-1.04.455-2.842 2.007-5.503 4.84-7.685 7.538a29.447 29.447 0 0 0-1.852 2.557"/><path d="M102.724 52.672c2.039.267 3.125 2.787 2.64 4.785-.487 1.998-2.028 3.541-3.515 4.961-5.214 4.982-10.697 9.913-17.325 12.754-1.324.568-3.274.817-3.83-.511-.362-.865.237-1.892 1.067-2.326.83-.435 1.814-.428 2.751-.397a9.516 9.516 0 0 1-3.204 3.79c-.446 1.774.907 3.782 2.718 4.037.95.134 1.905-.154 2.813-.465 8.971-3.076 16.98-8.898 22.673-16.484.798-1.063 1.584-2.258 1.563-3.588-.034-2.228-2.88-3.858-4.82-2.76l5.261 5.628c.33.353.683.765.653 1.248-.021.336-.226.628-.428.897-3.33 4.445-7.684 8-11.992 11.506L83.92 88.634c-.143.117-.29.235-.463.298-.636.231-1.311-.43-1.355-1.105-.044-.675.331-1.299.71-1.86a32.924 32.924 0 0 1 4.043-4.894 44.92 44.92 0 0 0 7.125 7.695l-11.268 6.417c-1.025-1.48.654-3.312 2.143-4.324a956.558 956.558 0 0 0 47.003-34.077c4.177-3.226 8.328-6.487 12.58-9.612a48.455 48.455 0 0 0 4.673 9.472c-5.48 7.074-15.041 9.635-21.557 15.768a11.556 11.556 0 0 1-4.283-5.87l6.792-3.924c-.416-1.138-.49-2.567.379-3.413.867-.845 2.773-.266 2.606.934l-2.38.418a8.319 8.319 0 0 0 2.49 5.989 49.196 49.196 0 0 1-8.836 6.41 15.318 15.318 0 0 0-3.248-2.633c-3 1.442-5.233 4.12-8.107 5.801-2.682 1.57-5.792 2.2-8.74 3.183-3.493 1.165-6.615 3.97-8.582 7.044-2.908 4.544-2.703 12.861 1.383 16.611.914.839 2.01 1.452 3.123 2.001 1.814.896 3.735 1.653 5.751 1.822 4.308.36 9.192-1.584 12.397-4.427 2.121-1.883 3.688-5.808 4.491-8.498.944-3.16.96-6.62-.891-9.467-2.175-3.344-6.299-4.991-10.281-5.223-6.795-.395-10.626 4.048-11.945 10.362-1.11 5.317.193 11.139 6.392 12.054 2.77.41 5.652-.36 8.04-1.822 5.246-3.212 5.712-11.61-.484-13.04-16.048-3.707-14.827 21.043-4.109 21.043h59.281"/><path d="M154.045 57.234c.2.958.69 1.853 1.389 2.539l-2.928 7.293c-.287.716-.583 1.445-1.084 2.03-.443.516-1.023.893-1.598 1.255-8.531 5.371-18.055 9.332-25.54 16.084-.198.179-.407.365-.667.418-.627.128-1.096-.535-1.42-1.085-3.112-5.281-9.692-8.271-15.716-7.141"/><path d="M151.228 51.173c1.451-.117 3.02-.173 4.24.625 1.348.883 1.903 2.584 2.109 4.183a15.468 15.468 0 0 1-2.642 10.724c-1.11 1.585-2.704 3.041-4.636 3.15m-.505-21.1c.78.189 1.551-.265 2.282-.598.73-.333 1.702-.513 2.248.076.68.733.107 1.935.338 2.909"/></g></g></svg>