<svg width="564" height="430" viewBox="0 0 564 430" xmlns="http://www.w3.org/2000/svg"><title>bubbles</title><path d="M-57 428.153h72.53c70.098 0 137.198-12.312 192.477-104.651-21.63-.912-46.35-7.642-55.945-15.732-2.665 33.516-10.682 64.4-33.301 82.08 24.642 0 47.024-10.434 67.523-19.303 20.497-8.869 39.301-24.217 47.71-45.365 59.928 0 126.09-24.298 163.16-72.815 30.112-39.406 51.089-91.897 46.621-144.322C439.113 53.325 363.782-3.961 255.96 1.342 144.735 6.814 67.527 94.847 73.929 177.312c4.999 64.394 53.278 112.313 112.576 126.918 25.2 6.206 55.067 4.754 80.787 2.899 31.958 50.573 96.562 80.668 164.817 71.213 7.67 14.927 38.219 25.117 75.604 19.715-12.655-9.576-22.645-27.36-26.441-39.859 67.733-27.172 81.29-96.593 81.72-134.559.562-49.629-51.58-101.148-119.217-115.594-89.04-19.017-195.085-14.094-222.956-9.17-27.87 4.923-50.07 10.993-50.07 26.041 0 7.752 14.21 13.89 22.2 14.592 51.95 4.56 82.808 6.225 101.272 6.225 7.79 0 25.308.91 25.308 14.135 0 9.576-23.762 9.735-47.51 12.016-19.02 1.827-41.127 3.46-70.897 6.75-9.833 1.088-24.545 5.445-24.545 14.502 0 7.02 6.603 10.943 13.708 10.943 15.696 0 73.681 2.515 77.394 4.17 3.712 1.653 6.838 5.477 6.392 9.606-.42 3.887-11.054 12.853-2.051 19.17" stroke="#E8E8E8" stroke-width="2" fill="none"/></svg>