<svg width="208" height="129" viewBox="0 0 208 129" xmlns="http://www.w3.org/2000/svg"><title>Group 5</title><g fill="none" fill-rule="evenodd"><path d="M206.749 112.484c-68.535 20.637-137.232 20.642-205.786 0V16.48c68.554-20.643 137.25-20.637 205.786 0v96.004z" stroke="#C1C1C1"/><path d="M78.228 105.949s-8.998-7.014-11.426-11.41c-1.155-2.09-1.874-4.575-1.226-6.875.68-2.41 2.7-4.164 4.628-5.763a988.194 988.194 0 0 1 35.79-28.31c-.81-4.678-1.598-13.776-1.025-14.91.284-.562 15.666-13.719 16.913-14.168.487-.176 7.505 1.487 10.045 2.273-4.185 3.414-10.55 9.945-15.634 15.124 3.28 3.001 9.152 8.57 9.837 8.598 0 0 11.382-10.809 15.291-15.22.872 2.884 2.255 10.99 1.552 11.89-2.101 2.688-13.991 16.087-15.52 15.917-3.162-.35-9.993-1.744-12.901-.456-1.341.594-2.29 1.803-3.195 2.957A206.449 206.449 0 0 1 86.472 92.13c-2.353 2.102-4.882 4.217-7.953 4.934-3.072.718-6.816-.439-8.024-3.352-.897-2.163-.13-4.809 1.578-6.409 1.708-1.6 4.197-2.212 6.52-1.934.71.084 1.428.253 2.013.662 1.726 1.21 1.315 4.264-.548 5.252-2.021 1.071-4.73-.227-5.668-2.313-.939-2.086-.402-4.599.81-6.539 1.211-1.94 3.015-3.424 4.786-4.872l16.137-13.193c1.606-1.313 2.384-1.713 3.996-3.02l-11.13-8.966c-3.361-2.71-6.338-6.594-9.572-9.451 1.997-2.028 3.143-2.696 4.588-5.155-4.531-2.832-13.48-8.95-16.585-11.172-.665.683-5.608 4.449-7.844 5.453 2.621 4.416 8.303 13.199 10.834 17.388.014.022 4.893-3.09 6.083-3.816 1.483 1.656 7.827 6.639 10.028 8.701 7.418 6.95 22.695 21.434 22.695 21.434.162 1.11-5.085 6.16-7.027 8.8 3.073 4.105 6.958 8.594 10.765 12.029 3.898 3.517 8.846 6.34 14.091 6.081 5.245-.259 10.477-4.537 10.3-9.786-.14-4.132-3.31-7.462-6.4-10.209a133.519 133.519 0 0 0-15.67-11.971c-1.103-.135-1.922 1.192-1.726 2.286.196 1.092 1.035 1.94 1.832 2.713l9.473 9.185c2.519 2.442 5.263 5.71 4.152 9.038-1.82 1.923-5.772-.137-5.239-2.731 2.854-.823 5.777 1.175 7.63 3.497 1.853 2.322 3.202 5.114 5.563 6.916 3.309 2.526 11.985 4.338 11.985 4.338h9.555" stroke="#E01976" stroke-width="2" stroke-linecap="round" stroke-linejoin="round"/></g></svg>