<svg width="1366" height="354" viewBox="0 0 1366 354" xmlns="http://www.w3.org/2000/svg"><title>Stroke 1</title><path d="M0 352.169h168.22c34.105 0 72.555-.516 104.17-15.036 23.984-11.016 51.733-44.146 42.344-72.232-1.605-4.805-4.338-9.148-7.23-13.307-1.057-1.518-2.18-3.059-3.747-4.038-3.313-2.066-7.842-1.032-10.886 1.412-3.043 2.445-4.93 6.012-6.707 9.488-12.505 24.464-19.656 58.887-53.313 58.587-2.401-.02-4.889-.302-6.96-1.517-4.695-2.753-5.63-9.49-3.576-14.53 2.054-5.038 6.288-8.8 10.28-12.496 10.971-10.15 21.23-21.305 28.535-34.347 7.301-13.04 11.513-28.153 9.826-43.004-.443-3.904-1.36-7.916-3.818-10.98-2.459-3.063-6.81-4.89-10.447-3.412-2.28.927-3.913 2.933-5.408 4.884-15.697 20.506-18.016 48.005-43.815 60.38-4.488 2.152-9.625 3.42-14.465 2.256-4.838-1.163-9.183-5.23-9.515-10.197-.22-3.294 1.257-6.445 2.826-9.35 13.98-25.888 37.346-43.233 49.867-70.712 3.633-7.972 4.375-15.186 3.391-23.773-.221-1.931-.713-4.065-2.343-5.122-3.223-2.093-6.987 1.696-8.973 4.989-13.079 21.67-24.562 46.624-46.642 60.02-3.5 2.124-7.218 4.078-11.27 4.657-4.05.58-8.53-.433-11.265-3.476-4.237-4.708-2.863-12.297.439-17.705 6.093-9.983 14.077-17.89 22.23-26.097 11.997-12.074 20.286-26.778 27.933-41.902 1.806-3.575 3.53-7.284 4-11.26.467-3.977-.508-8.317-3.426-11.06-12.41-11.664-28.605 30.295-32.986 37.308-6.08 9.733-13.55 18.907-23.371 24.846-3.094 1.871-6.479 3.426-10.082 3.735-3.602.311-7.465-.783-9.851-3.5-4.192-4.77-2.456-12.24.406-17.908 7.88-15.601 20.973-30.219 32.387-43.367a92.589 92.589 0 0 0 19.167-35.59c1.095-3.908.994-9.515-2.966-10.415-2.588-.587-4.974 1.479-6.711 3.486-8.584 9.928-14.02 22.001-22.863 31.737-10.048 11.06-22.078 20.132-35.67 26.392-2.632 1.213-5.829 2.293-8.294.77-1.372-.846-2.205-2.351-2.71-3.882-5.296-16.066 12.283-25.1 22.303-33.349 12.99-10.693 26.365-21.496 32.656-37.663 4.982-12.799 4.737-28.291-3.459-39.315-7.313 19.497-21.645 35.942-39.226 46.926-14.615 9.13-43.72 23.505-60.927 17.276-7.82-2.83 13.164-28.712 15.755-30.94 17.91-15.41 74.606-59.779 91.399-21.415 4.596 10.499 5.734 22.844 13.284 31.467 9.91 11.32 30.174 16.084 30.395 31.128.085 5.72-3.182 11.557-1.217 16.93 1.26 3.452 4.39 5.792 7.072 8.303 7.104 6.649 11.84 15.776 13.19 25.41.298 2.117.474 4.364 1.702 6.114 1.377 1.963 3.769 2.877 5.924 3.932 13.975 6.852 21.431 24.717 16.474 39.472 18.849 6.704 32.038 26.742 30.745 46.707 24.865 7.18 34.754 40.493 24.067 64.065-10.687 23.57-35.583 37.727-60.61 44.316-9.055 2.383-22.03 1.651-23.694-7.563-.637-3.53.822-7.424-.782-10.633-1.334-2.672-4.343-3.957-6.959-5.397-13.566-7.464-20.664-24.98-16.12-39.782-11.484-1.947-20.944-12.432-21.705-24.057-.272-4.15.443-8.382-.457-12.445-3.118-14.072-23.54-19.763-24.953-34.11-.336-3.4.497-7.01-.86-10.147-2.692-6.213-11.532-6.347-16.8-10.6-12.584-10.16 1.234-36.169-12.615-44.524-6.083-3.669-15.81-2.16-18.757-8.624-1.693-3.71.093-7.997.15-12.076.22-15.677-22.485-20.624-29.615-34.589-6.227-12.189 1.39-26.836 10.249-37.27 16.267-19.155 40.116-34.63 65.06-31.57 21.291 2.611 92.018 18.014 105.763 34.483 8.228 9.86 15.848 20.726 18.811 33.223.572 2.416 1.155 5.16 3.271 6.462 2.095 1.29 4.802.597 7.122-.22a98.38 98.38 0 0 0 38.667-25.108c1.717-1.817 3.462-3.95 3.432-6.448-.024-1.857-1.033-3.538-2.012-5.115l-22.139-35.683c-2.167-3.494-4.403-7.065-7.645-9.594-7.266-5.668-18.068-4.65-26.043-.032-7.977 4.62-13.77 12.147-19.348 19.483-2.14 2.812-4.326 6.722-2.265 9.59 1.523 2.121 4.575 2.341 7.169 2.043 12.883-1.479 24.362-11.475 27.597-24.033-2.864-4.194-10.248-1.164-11.494 3.76-1.244 4.925 1.358 9.92 3.87 14.335l19.43 34.155c2.334 4.102 4.852 8.395 8.943 10.748 9.889 5.694 21.712-2.725 29.967-10.602 6.262 2.245 9.85 9.309 9.719 15.96-.132 6.652-3.292 12.882-7.082 18.35-10.382 14.973-26.189 26.098-43.788 30.82 1.509 7.385 13.675 5.143 18.551 8.646 8.057 5.786 6.42 16.474 4.433 24.686 21.54 6.87 44.886-9.363 50.673-29.942 2.316-8.23 2.103-17.594-2.616-24.723-4.719-7.13-14.67-11.034-22.321-7.22-4.992 11.564-9.799 22.3-15.967 33.363-5.109 9.16-10.382 19.034-9.493 29.485.987 11.588 18.717 2.556 23.758 13.65 3.911 8.61-7.936 20.853-.256 28.15 2.247 2.135 5.62 2.567 8.712 2.381 13.102-.781 24.008-10.363 32.01-20.766 6.851-8.907 12.617-19.655 11.43-30.827-1.185-11.173-11.994-21.717-22.883-18.951.44 19.99-7.598 40.03-21.73 54.177-4.124 4.131-9.112 10.177-5.737 14.941 3.892 5.498 13.191.964 19.057 4.277 11.3 6.38-3.294 29.774 8.533 35.107 2.792 1.257 6.037.69 9.002-.064 16.46-4.19 32.654-15.076 36.919-31.515 4.266-16.44-9.269-36.741-26.079-34.308 1.873 18.19-5.291 37.091-18.75 49.469-3.296 3.03-7.333 6.807-6.15 11.126 2.245 8.203 16.962 2.713 22.235 9.387 5.82 7.37-6.915 18.03-3.323 26.704 2.53 6.108 11.065 6.461 17.478 4.854 15.48-3.88 30.2-14.386 34.928-29.628 4.727-15.245-3.85-34.532-19.47-37.815 2.604 13.371-.647 27.777-8.744 38.731-7.15 9.675-18.22 17.55-19.96 29.454l18.792 1.09c5.237 4.571-1.289 12.788-1.216 19.739.106 10.146 14.402 13.722 23.808 9.914 11.333-4.588 19.886-15.44 21.696-27.53 1.811-12.092-3.187-24.975-12.677-32.681l-20.77 59.732a30.139 30.139 0 0 0 11.943 3.576c-7.784 10.062 3.5 26.278 16.215 25.844 12.716-.434 22.584-12.33 25.43-24.73 3.078-13.406-3.127-30.818-16.785-32.465 1.493 11.29-2.175 23.159-9.773 31.64-4.395 4.904-10.535 10.47-8.459 16.72 2.145 6.459 11.461 6.998 17.507 3.871 6.046-3.127 10.9-8.563 17.434-10.467 4.813-1.403 12.17 25.632 45.912 25.632H1366" stroke="#E01976" stroke-width="2" fill="none" stroke-linecap="round" stroke-linejoin="round"/></svg>