<svg width="1366" height="351" viewBox="0 0 1366 351" xmlns="http://www.w3.org/2000/svg"><title>Group</title><g stroke="#E01976" stroke-width="2" fill="none" fill-rule="evenodd" stroke-linecap="round" stroke-linejoin="round"><path d="M-30 349.021h130.637s9.047-.344 10.239-4.549c.687-2.427-.246-5.092-1.86-7.03-1.73-2.079-3.21-2.426-5.662-3.073-2.155-.569-4.637-1.086-6.461.195-6.419 4.51.478 10.479 5.777 10.355 11.994-.282 22.361-11.404 31.746-17.685-4.892-4.029-17.44-9.116-17.83-9.05-.536.09-8.937 8.342-12.731 12.078a25.989 25.989 0 0 1 7.858-13.152l-6.377-3.4c10.147-13.143 39.293-53.773 39.293-53.773l34.27 14.612s-21.915 34.723-31.23 53.006c1.588-3.114-12.993-9.08-14.734-9.655-.3-.1 90.175-140.201 98.387-149.39.951-1.064 1.968-2.137 2.437-3.486.856-2.46-.398-5.275-2.399-6.943-3.007-2.506-10.488-5.37-14.423-5.168-6.023.31-5.686 4.377-8.604 9.662-4.805 8.702-86.882 148.012-86.882 148.012s4.888 2.786 7.145 4.462c9.062-14.35 50.808-82.626 50.808-82.626s-20.291-2.572-28.646-7.183c-11.736-6.475-15.556-22.226-12.306-34.511 6.17-23.31 38.236-37.318 60.315-37.454a66.284 66.284 0 0 1 2.078 14.021l5.124-15.195c7.137-21.165-74.8-113-86.737-122.58 2.03 1.629 19.37-4.182 22.478-4.805a18493.38 18493.38 0 0 1 78.383-15.564c4.26-.835 8.555-1.675 12.897-1.646 4.45.03 8.839.97 13.19 1.906 13.257 2.853 26.524 5.235 39.757 7.863 14.811 2.94 29.668 5.893 43.998 10.648a1016.28 1016.28 0 0 1-50.378 52.011c-1.39 6.08 1.045 14.373-.415 20.436-.757 3.142-28.542 41.674-41.469 57.552 1.576-12.515-5.918-90.72-8.467-105.235-3.25-18.504 2.46-34.29 8.394-51.695 16.174 3.217 53.293 10.588 55.663 10.206 1.569-.253 16.982-3.371 23.038-3.639 3.43-.152 14.409 4.226 16.168 6.146 3.397 3.703 6.39 7.916 7.819 12.734 1.43 4.817 1.124 10.32-1.666 14.498-2.788 4.18-8.317 6.627-13.09 5.055a202.908 202.908 0 0 0-10.263 26.859c-4.305-2.4-9.156-4.07-13.708-5.96l7.084-13.94a254.318 254.318 0 0 0 30.624 6.994c-1.135 6.173-4.8 25.845-7.149 28.617-2.35 2.772-6.877 4.053-9.665 1.722-2.599-2.174-2.487-6.215-1.53-9.465.604-2.049 1.516-4.11 3.187-5.44 1.672-1.327 4.265-1.685 5.91-.325-5.417 13.455-2.917 60.567-4.505 69.384 6.656-2.402 14.915-3.673 21.925-4.638.735-11.955 4.894-23.679 11.855-33.424l13.117.4c.8-1.743-1.941-2.851-3.86-2.823L280.3 105.23c-.98 1.445-1.958 2.891-2.937 4.337l44.523-1.351"/><path d="M308.237 274.982a94.248 94.248 0 0 0 15.433-5.414c1.675-.757 3.377-1.6 4.58-2.989 1.131-1.308 1.72-2.983 2.31-4.609a177.397 177.397 0 0 1 13.97-29.625c1.474-2.5 5.345-1.139 4.906 1.73-.006.05-.015.096-.023.142-.54 2.945-1.594 5.377-1.207 8.448 3.85.84 6.727 3.193 8.817 6.632.345.567.759 1.098 1.298 1.482 5.217 3.718 7.709-5.75 6.855-8.996-.963-3.666-5.551-5.404-9.078-5.006 2.545-16.344-.44-32.964-1.542-49.468-.544-8.143-.626-16.309-.695-24.47-.157-18.97.293-39.558 12.053-54.442 1.058.18.295 1.541-.088 2.543-1.79 4.714-3.582 9.428-5.374 14.142l6.866.474c-.457 20.26-.715 40.526-.77 60.79l-22.32.4a306.62 306.62 0 0 1 2.927 25.862c.079 1.127.15 2.27-.073 3.377-.288 1.422-1.043 2.698-1.802 3.933-4.804 7.81-10.349 15.385-12.843 24.206-1.612 5.702-2.256 12.378-6.996 15.933-2.489 1.867-5.667 2.472-8.672 3.275a56.873 56.873 0 0 0-12.693 5.098c1.626 1.588 2.77 4.754 4.161 6.552z"/><path d="M163.728 299.258c1.833 5.92 15.077 7.725 22.38 4.938 7.304-2.786 12.105-13.306 12.715-21.098-.137 1.756 51.283 13.037 57.064 13.666 12.837 1.167 25.785 3.644 38.64 4.082-3.496-3.68-10.13-4.88-5.976-11.278 2.505-3.862 8.89-4.872 12.347-1.815 4.074 3.6 3.627 9.986 2.686 15.341-.904 5.142-2.696 11.135-7.666 12.728-5.233 1.676-10.73-3.155-11.875-8.528-1.146-5.374.75-10.877 2.619-16.044-4.132.43-8.457.839-12.316-.701s-7.016-5.699-5.951-9.716c.567-2.135 2.17-3.815 3.713-5.397 3.584-3.67 7.24-7.396 11.745-9.85 4.506-2.456 10.07-3.492 14.802-1.512 4.628 1.937 7.725 6.385 9.793 10.956 8.06 17.81 2.913 40.675-12.001 53.314-6.721 5.697-16.773 9.295-24.245 4.625-2.317-1.449-4.147-3.563-5.687-5.821-7.824-11.475-9.723-27.679-2.5-39.542a491.29 491.29 0 0 0-66.48-14.63c-.42-8.658-.24-17.345.54-25.979 4.546-1.978 16.889-7.34 18.634-7.412 2.207-.091 4.309.839 6.35 1.68 19.359 7.985 40.686 9.461 61.582 10.84-3.735 5.084-8.67 9.013-11.284 9.509-6.197 1.175-52.944-8.963-67.47-11.845 8.294-4.509 15.22-9.346 24.144-12.425-.38-9.896 1.908-18.809 3.368-28.604a66.016 66.016 0 0 0-15.075-.674c17.615-1.235 35.126 2.461 52.587 2.109 7.74-21.979 15.48-43.957 23.222-65.935 1.159-3.292 2.447-6.766 5.199-8.911 2.75-2.145 7.447-2.167 9.19.855-9.749 21.676-49.306 118.76-51.84 129.152 0 0 5.18.825 8.121 1.852-2.1 4.081-4.2 8.165-6.301 12.246-6.154-.996-20.424-3.365-20.893-4.17-.491-.845 2.633-9.473 3.887-12.46l10.11 1.734c4.066-11.072 14.042-39.327 17.314-44.662 0 0-6.814-1.903-12.241-1.935-1.039 4.217-3.286 14.048-5.238 20.775-1.4 1.188-5.479-.18-5.479-.18-.855-1.626 2.494-16.678 4.764-20.695-2.977-.894-6.402-1.043-9-.73-.565 4.054-1.715 20.007-2.464 20.68-1.048.943-3.594-.26-5.063-.447.56-7.685 1.271-17.772 4.763-24.641 13.438-.12 64.04 6.467 75.989 8.024 1.624.211 3.306.443 4.687 1.324 1.872 1.192 2.853 3.349 3.738 5.384 2.26 5.207 4.535 11.164 2.264 16.367-1.251 2.871-3.723 5.018-6.276 6.831-2.263 1.607-4.915 3.094-7.66 2.679-3.268-6.48-2.934-14.176-1.68-21.323.332-1.895.742-3.826 1.759-5.46 1.017-1.632 2.77-2.932 4.694-2.906 1.924.026 3.814 1.735 3.598 3.647a48.55 48.55 0 0 1-11.032-.418c-1.063-.164-2.266-.329-3.115.334-.466.363-.735.92-.95 1.47-1.264 3.222-1.448 20.366-.159 25.653-2.061-1.26-12.094-2.44-13.395-3.14-1.51-.816 4.079-19.663 8.138-26.63-5.715-.231-11.258-.362-16.973-.594-.798 1.597-1.872 3.938-2.67 5.536l12.697 1.071c-.553 2.114-2.178 4.876-2.583 6.644-5.05.362-8.11-1.179-13.086-2.118 0 0-1.546 3.394-1.654 4.946 4.016.816 9.413 1.09 13.5 1.398.01 2.19-1.737 5.601-2.482 7.536 0 0-16.588-1.843-18.017-1.894 2.634-5.43 42.07-87.478 42.97-92.36a296.476 296.476 0 0 1 32.346-5.335l-1.064 53.19c-.015.79-.096 1.707-.75 2.148-.378.255-.86.282-1.315.299-7.738.282-15.884-.26-22.475-4.325-6.604-4.074-10.734-11.11-14.21-18.046-1.576 1.233-2.85 2.93-3.359 4.866-4.448 16.939 14.34 22.133 17.215 22.706a167.234 167.234 0 0 0 36.652 3.173c2.125-.05 4.412-.201 6.061-1.541 1.65-1.341 2.068-4.32.267-5.449-.612-.383-1.353-.486-2.07-.562a39.548 39.548 0 0 0-7.847-.039 74.372 74.372 0 0 1-.216-9.607c8.138-2.81 17.83-.38 23.68 5.936 11.84 12.785 5.01 30.085-10.606 34.436 5.85.609 10.278 5.552 12.267 10.815 1.9 5.023 1.66 10.618.634 15.889-.717 3.68-1.83 7.345-3.89 10.48-2.55 3.882-6.602 6.829-11.164 7.711-4.56.883-9.568-.424-12.886-3.676-4.122-4.04-5.17-10.251-5.285-16.022-.136-6.867 1.078-14.425 6.272-18.919 2.629 1.67 4.831 2.74 7.067 4.91.949.92 1.9 1.961 2.141 3.261.222 1.193-.19 2.399-.517 3.567-1.2 4.299-1.033 9.484 2.242 12.522 1.47 1.363 2.775.4 4.095-1.109 4.728-5.408 7.804-19.643-2.4-21.9-2.009-.443-4.831-.57-5.1-2.611-.087-.662.18-1.312.433-1.93a57.783 57.783 0 0 0 4.233-23.277c15.263 1.679 27.349-9.67 28.118-24.8.164-3.207-.302-6.591-2.188-9.19-2.1-2.894-5.622-4.38-9.067-5.339a47.729 47.729 0 0 0-10.847-1.706"/><path d="M294.527 300.846c9.55 8.186 5.257 24.321-12.058 24.285-6.193-.013-10.215-6.916-14.551-11.339-2.964 8.255-2.042 20.802 5.459 25.346 7.501 4.545 22.381 9.858 31.583 9.883h1218.66"/></g></svg>