<svg width="85" height="23" viewBox="0 0 85 23" xmlns="http://www.w3.org/2000/svg"><title>soobwa</title><path d="M71.321 12.779h-1.375V6.848c0-1.461-.797-2.001-2.02-2.001h-2.155v7.932h-2.625V6.848c0-1.461-.795-2.001-2.018-2.001h-2.156v7.932l-2.624-.001v-5.93c0-1.462-1.923-3.172-4.63-1.807.218.283.455.452.455 1.933l-.002 9.432h17.283c-.348.601-.998 1.161-1.639 1.859-1.925 2.106-.272 4.87 2.242 4.165-.677-2.023 6.408-4.744 1.264-9.651zm8.97-.396a.72.72 0 0 1-.154.431 1.845 1.845 0 0 1-.394.383 2.855 2.855 0 0 1-1.474.44c-.395 0-.721-.103-.979-.307a.97.97 0 0 1-.383-.792c0-.381.168-.696.505-.945.337-.249.763-.374 1.275-.374.234 0 .497.03.791.088.292.059.564.132.813.221v.855zm4.177 2.351V9.549c0-1.64-1.137-5.722-6.585-4.914-2.242.334-4.191 1.715-4.44 4.072 2.4-1.315 5.405-1.316 6.364-.601.695.516.484 1.29.484 1.29-.616-.293-1.391-.44-2.329-.44-.735 0-1.404.095-2.011.285a4.797 4.797 0 0 0-1.572.813c-.439.352-.784.77-1.031 1.253a3.431 3.431 0 0 0-.375 1.604 3.553 3.553 0 0 0 1.154 2.649c.36.328.787.589 1.285.78.498.19 1.033.287 1.604.287.763 0 1.481-.173 2.154-.518.675-.344 1.268-.845 1.78-1.506l.087.418c.119.528.371.927.76 1.197.388.271.956.409 1.702.409.235 0 1.187-.075 1.475-.398-.241-.187-.506-.816-.506-1.495zm-39.384-1.625c-.601 0-2.042-.466-2.042-2.263 0-1.28 1.441-1.757 2.042-1.757.602 0 2.045.342 2.045 1.757 0 2.036-1.443 2.263-2.045 2.263zm1.232-7.317c-.861.056-2.877.491-3.715 1.559.079-3.187 3.524-2.725 5.699-2.821 2.848-.126 3.636-3.25 1.359-4.53-.953 1.91-8.701-.719-10.519 6.155-.263 1-.385 2.222-.385 3.658 0 2.228.536 3.919 1.606 5.076 1.069 1.158 2.645 1.738 4.723 1.738 3.918 0 6.206-2.526 6.331-5.781.027-.688-.125-5.379-5.099-5.054zM33.323 12.45c-.381.439-.874.659-1.473.659-.6 0-1.091-.22-1.474-.659-.379-.439-.571-1.047-.571-1.824 0-.776.192-1.385.571-1.825.383-.439.874-.658 1.474-.658.599 0 1.092.219 1.473.658.381.44.571 1.049.571 1.825 0 .777-.19 1.385-.571 1.824zm3.241-6.01c-.535-.549-1.198-.989-1.989-1.319-.792-.329-1.701-.495-2.725-.495-1.041 0-1.952.166-2.736.495-.784.33-1.443.77-1.977 1.319a5.42 5.42 0 0 0-1.208 1.912 6.425 6.425 0 0 0-.408 2.274c0 .792.136 1.549.408 2.275a5.43 5.43 0 0 0 1.208 1.912c.534.548 1.193.988 1.977 1.318.784.329 1.695.496 2.736.496 1.024 0 1.933-.167 2.725-.496.791-.33 1.454-.77 1.989-1.318a5.458 5.458 0 0 0 1.208-1.912 6.446 6.446 0 0 0 .405-2.275c0-.79-.134-1.549-.405-2.274a5.449 5.449 0 0 0-1.208-1.912zm-16.463 6.01c-.382.439-.872.659-1.471.659-.602 0-1.093-.22-1.474-.659-.381-.439-.571-1.047-.571-1.824 0-.776.19-1.385.571-1.825.381-.439.872-.658 1.474-.658.599 0 1.089.219 1.471.658.381.44.573 1.049.573 1.825 0 .777-.192 1.385-.573 1.824zm3.242-6.01c-.535-.549-1.197-.989-1.989-1.319-.791-.329-1.699-.495-2.724-.495-1.043 0-1.954.166-2.738.495-.782.33-1.443.77-1.979 1.319a5.444 5.444 0 0 0-1.206 1.912 6.38 6.38 0 0 0-.407 2.274c0 .792.133 1.549.407 2.275.27.725.673 1.362 1.206 1.912.536.548 1.197.988 1.979 1.318.784.329 1.695.496 2.738.496 1.025 0 1.933-.167 2.724-.496.792-.33 1.454-.77 1.989-1.318a5.441 5.441 0 0 0 1.207-1.912 6.425 6.425 0 0 0 .407-2.275c0-.79-.135-1.549-.407-2.274a5.432 5.432 0 0 0-1.207-1.912zm-12.67-.156C9.657 5.212 7.962 4.626 6.557 4.626c-5.178 0-6.557 3.697-6.557 6 0 .792.14 1.549.419 2.275a5.544 5.544 0 0 0 1.219 1.912c.536.548 1.198.988 1.988 1.318.791.329 1.699.496 2.727.496 2.911 0 5.229-2.131 5.229-4.658-1.326.994-3.504 1.401-5.251 1.14-.811-.119-2.045-.822-2.045-2.483 0-.79.579-2.325 2.349-2.325 1.032 0 2.217.828 1.882 2.68 2.401.846 4.634-2.081 2.156-4.697z" fill="#8E8E8E" fill-rule="evenodd"/></svg>