<svg width="46" height="44" viewBox="0 0 46 44" xmlns="http://www.w3.org/2000/svg"><title>Page 1</title><path d="M16.274 27.687v7.973a5.394 5.394 0 0 0 5.394 5.394h9.45A11.917 11.917 0 0 0 42.993 30.14l.788-9.33a4.365 4.365 0 0 0-4.35-4.732h-8.464a1.414 1.414 0 0 1-1.408-1.55l.58-5.984a6.39 6.39 0 0 0-6.36-7.006L22.24 15.603a5.884 5.884 0 0 1-5.85 5.246v-3.715H2.205V37.42a5.041 5.041 0 0 0 5.042 5.042h3.87l5.158-14.774z" stroke="#FFF" stroke-width="3" fill="none" stroke-linecap="round" stroke-linejoin="round"/></svg>