<svg width="120" height="121" viewBox="0 0 120 121" xmlns="http://www.w3.org/2000/svg"><title>Group 7</title><g fill="none" fill-rule="evenodd"><ellipse fill="#E21776" cx="60" cy="60.432" rx="60" ry="60.12"/><path d="M52.343 64.96v10.789c0 4.03 3.108 7.299 6.943 7.299h12.163c7.97 0 14.612-6.417 15.284-14.767l1.014-12.625c.277-3.446-2.309-6.404-5.598-6.404H71.255c-1.075 0-1.915-.973-1.812-2.098l.746-8.097c.467-5.08-3.331-9.48-8.187-9.48l-1.98 19.032c-.419 4.039-3.664 7.098-7.528 7.098V50.68H34.232v27.45c0 3.769 2.905 6.823 6.49 6.823h4.98" stroke="#FFF" stroke-width="3" stroke-linecap="round" stroke-linejoin="round"/></g></svg>