<svg width="208" height="129" viewBox="0 0 208 129" xmlns="http://www.w3.org/2000/svg"><title>Group 4</title><g fill="none" fill-rule="evenodd"><path d="M207.094 112.484c-68.535 20.637-137.232 20.642-205.785 0V16.48c68.553-20.643 137.25-20.637 205.785 0v96.004z" stroke="#C1C1C1"/><path d="M61.007 104.507c.113-.506.828-4.85 1.059-4.736A16.351 16.351 0 0 1 55.47 93.8c-2.164.64-4.3 1.376-6.4 2.202-.69-.549-6.031-7.92-5.074-8.34a75.571 75.571 0 0 1 7.29-2.755 17.362 17.362 0 0 1 1.31-8.601c-1.837-1.028-3.799-1.442-5.63-2.442.623-2.53 1.4-4.89 2.315-7.346a14.434 14.434 0 0 0 4.771 2.743c.633.212 2.565-2.242 2.964-2.644l4.711-4.748a18.215 18.215 0 0 1-2.435-5.18 37.176 37.176 0 0 1 7.473-2.684l2.863 4.442c.099.153 2.612.239 3.007.282 1.755.195 3.585.12 5.35.179a51.99 51.99 0 0 1 1.45-5.33c2.498.707 4.958.978 7.454 1.723.002 0-1.528 4.764-1.633 5.063 1.727.788 3.433 1.587 4.943 2.754 1.501 1.159 2.534 2.844 3.88 4.193.515.292.75.172.958.062a10.77 10.77 0 0 1 5.367-1.253c.642.59 3.649 6.03 3.428 6.131-1.162.537-2.343 1.238-3.535 1.679-.2.074-2.458.428-2.457.4-.2 3.153-1.06 6.566-1.942 9.64a21.446 21.446 0 0 0 4.313 1.954 53.405 53.405 0 0 0-3.038 9.48l-4.815-1.456c-.216-.066-.44-.132-.664-.103-.291.038-.535.23-.764.413-2.287 1.842-4.44 3.629-6.98 5.047.58 2.065.764 3.572 1.914 5.422.057.368-.078.432-.196.475l-7.331 2.686a19.383 19.383 0 0 0-1.574-4.988c-.362-.423-.58-.413-.779-.397-.729.06-10.177.53-9.975-.195a148.745 148.745 0 0 1 1.557-5.157c-.33 1.026-7.216-4.463-7.697-5-2.056-2.297-3.482-5.18-3.85-8.256-.368-3.069.192-6.19 1.171-9.121.513-1.536 1.152-3.053 2.148-4.33 2.961-3.802 8.321-4.674 13.14-4.678 2.965-.002 6.077.262 8.57 1.869 3.306 2.13 4.835 6.169 5.524 10.04.737 4.141.719 8.573-1.11 12.36-1.83 3.786-5.784 6.741-9.98 6.448a33.43 33.43 0 0 1-1.453-14.912c1.095.565 1.037 2.335.089 3.123-.947.787-2.365.738-3.507.277-.654-.264-1.298-.692-1.55-1.352-.844-2.201 3.193-3.978 4.559-4.964 2.382-1.72 4.8-3.39 7.253-5.008 3.729-2.462 7.44-4.95 11.204-7.357.92-.588 1.849-1.161 2.768-1.75 1.252-.8 1.025-.696.965-2.021-.072-1.604-.282-3.489-.142-5.1.119-1.365.666-2.736.76-4.146a21.33 21.33 0 0 1-7.863-4.78 25.191 25.191 0 0 1 3.024-7.624l8.04 2.035a70.89 70.89 0 0 1 9.856-9.82c-1.49-2.304-2.06-5.031-3.731-7.243 3.152-1.12 6.291-2.147 9.431-3.318-.558.208 3.269 4.799 3.495 5.13 3.587-1.22 7.691-.724 11.298.437 1.609-2.052 3.4-3.87 4.969-5.958.366-.25.49-.2.6-.15 2.878 1.267 5.748 1.927 8.726 2.928a77.309 77.309 0 0 0-1.442 7.879c2.807 2.022 5.327 5.096 6.97 8.14 2.786-.523 5.564-.405 8.35-.929.51.049.607.221.688.38.783 1.523 1.502 3.077 2.234 4.625.106.222 1.027 3.297 1.451 3.124-.675.275-6.045 3.765-6.454 3.176.309.445.298 1.03.268 1.572-.204 3.775-.59 7.95-1.363 11.65 2.814 1.464 4.98 3.838 7.418 5.852l-3.19 7.159c.003-.007-7.615-.75-8.333-.75a29.509 29.509 0 0 1-7.133 8.851c.364 2.415.77 4.828 1.004 7.255-2.788 1.755-5.41 2.991-8.568 3.93a15.39 15.39 0 0 1-5.37-6.579c-3.832 1.232-7.636.936-11.52.24-.955 2.548-2.219 4.696-3.912 6.81L107 94.062c.49-2.754.282-5.28.772-8.034-1.792-.989-2.884-2.364-4.238-3.823-1.262-1.36-2.766-2.368-3.842-3.96 2.862-1.392 5.55-3.52 8.246-5.225-3.76-2.518-5.624-7.255-5.536-11.78.089-4.525 1.885-8.86 4.182-12.759 1.938-3.291 4.377-6.47 7.79-8.185 3.804-1.91 8.297-1.756 12.517-1.199 3.56.47 7.163 1.223 10.258 3.045 5.192 3.057 8.386 8.984 8.741 14.999.356 6.015-1.93 12.02-5.674 16.74-1.534 1.933-3.317 3.682-5.37 5.049-8.017 5.333-19.97 3.507-26.028-3.976a422.736 422.736 0 0 0 12.06-7.086c3.316-2.024 7.936-4.16 10.2-7.442 1.79-2.592 4.196-5.272-1.695-7.49-5.892-2.218-9.408 1.556-8.405 5.463.231.9 1.534 4.057 2.295 5.771 1.724 3.884 4.207 7.327 6.303 11.007" stroke="#E01976" stroke-width="2" stroke-linecap="round" stroke-linejoin="round"/></g></svg>