<?xml version="1.0" encoding="UTF-8"?>
<svg width="120px" height="121px" viewBox="0 0 120 121" version="1.1" xmlns="http://www.w3.org/2000/svg" xmlns:xlink="http://www.w3.org/1999/xlink">
    <!-- Generator: Sketch 46.1 (44463) - http://www.bohemiancoding.com/sketch -->
    <title>Group 8</title>
    <desc>Created with Sketch.</desc>
    <defs></defs>
    <g id="Page-1" stroke="none" stroke-width="1" fill="none" fill-rule="evenodd">
        <g id="Главная" transform="translate(-1045.000000, -2462.000000)">
            <g id="Преимущества" transform="translate(0.000000, 2305.000000)">
                <g id="Group-8" transform="translate(1045.000000, 157.000000)">
                    <ellipse id="Oval-3" fill="#E21776" cx="60" cy="60.4322709" rx="60" ry="60.1195219"></ellipse>
                    <path d="M59.1147577,67.1813354 C52.2088017,67.1813354 46.6104288,61.5718104 46.6104288,54.6520975 C46.6104288,47.7323846 52.2088017,42.1228596 59.1147577,42.1228596 C66.0207138,42.1228596 71.6199909,47.7323846 71.6199909,54.6520975 C71.6199909,58.1115009 70.2201716,61.2438104 67.9567687,63.5117221 L75.3881091,70.9968273 L79.6300679,65.1462857 L83.453347,62.5893353 L81.8609169,58.2682523 L81.8609169,51.0359427 L83.453347,46.7148597 L79.6300679,44.1579094 L75.3881091,38.3064617 L74.1420167,33.8730251 L69.5482945,34.0560528 L62.6839352,31.8207599 L59.0749696,28.9675222 L55.466004,31.8207599 L48.6016447,34.0560528 L44.0079224,33.8730251 L42.7627344,38.3064617 L38.5198712,44.1579094 L34.6965922,46.7148597 L36.2890223,51.0359427 L36.2890223,58.2682523 L34.6965922,62.5893353 L38.5198712,65.1462857 L42.7627344,70.9968273 L44.0079224,75.4302638 L48.6016447,75.2481423 L45.8164745,94.0655572 L59.1147577,89.5351703 L72.413041,94.0655572 L69.5482945,75.2481423" id="10years" stroke="#FFFFFF" stroke-width="3" stroke-linecap="round" stroke-linejoin="round"></path>
                </g>
            </g>
        </g>
    </g>
</svg>