<?xml version="1.0" encoding="UTF-8"?>
<svg width="52px" height="69px" viewBox="0 0 52 69" version="1.1" xmlns="http://www.w3.org/2000/svg" xmlns:xlink="http://www.w3.org/1999/xlink">
    <!-- Generator: Sketch 46.1 (44463) - http://www.bohemiancoding.com/sketch -->
    <title>10years</title>
    <desc>Created with Sketch.</desc>
    <defs></defs>
    <g id="Page-1" stroke="none" stroke-width="1" fill="none" fill-rule="evenodd" stroke-linecap="round" stroke-linejoin="round">
        <g id="Шнековые-пары" transform="translate(-1078.000000, -2287.000000)" stroke="#FFFFFF" stroke-width="3">
            <g id="Преимущества" transform="translate(0.000000, 2103.000000)">
                <path d="M1104.11476,224.181335 C1097.2088,224.181335 1091.61043,218.57181 1091.61043,211.652098 C1091.61043,204.732385 1097.2088,199.12286 1104.11476,199.12286 C1111.02071,199.12286 1116.61999,204.732385 1116.61999,211.652098 C1116.61999,215.111501 1115.22017,218.24381 1112.95677,220.511722 L1120.38811,227.996827 L1124.63007,222.146286 L1128.45335,219.589335 L1126.86092,215.268252 L1126.86092,208.035943 L1128.45335,203.71486 L1124.63007,201.157909 L1120.38811,195.306462 L1119.14202,190.873025 L1114.54829,191.056053 L1107.68394,188.82076 L1104.07497,185.967522 L1100.466,188.82076 L1093.60164,191.056053 L1089.00792,190.873025 L1087.76273,195.306462 L1083.51987,201.157909 L1079.69659,203.71486 L1081.28902,208.035943 L1081.28902,215.268252 L1079.69659,219.589335 L1083.51987,222.146286 L1087.76273,227.996827 L1089.00792,232.430264 L1093.60164,232.248142 L1090.81647,251.065557 L1104.11476,246.53517 L1117.41304,251.065557 L1114.54829,232.248142" id="10years"></path>
            </g>
        </g>
    </g>
</svg>