<svg width="1366px" viewBox="0 0 1366 168" version="1.1" xmlns="http://www.w3.org/2000/svg" xmlns:xlink="http://www.w3.org/1999/xlink">
    <g id="Page-1" stroke="none" stroke-width="1" fill="none" fill-rule="evenodd" stroke-linecap="round" stroke-linejoin="round">
        <g id="404" transform="translate(0.000000, -331.000000)" stroke-width="2" stroke="#E01976">
            <polyline points="450.157556 497.946 5.68434189e-14 497.946 565.399351 497.946 565.399351 353.794848 507.778142 423.712502 586.10817 423.712502 586.10817 332.215632 552.012574 332.215632 477.186559 423.712502 477.186559 451.765794 586.10817 451.765794 586.10817 497.946 611.14031 497.946 610.708538 353.794848 700.950593 353.794848 701.382987 497.946 632.720148 497.946 632.288377 374.403357 678.899731 374.403357 679.331502 472.913861 654.926771 472.913861 654.926771 332.215632 835.998412 332.215632 835.998412 478.092623 811.35817 478.092623 811.35817 451.765794 719.900552 451.765794 719.900552 423.712502 788.092367 347.321395 811.35817 347.321395 811.35817 423.712502 753.996148 423.712502 789.818206 381.848762 789.818206 497.946 1366 497.946"></polyline>
        </g>
    </g>
</svg>