<?xml version="1.0" encoding="UTF-8"?>
<svg width="715px" height="349px" viewBox="0 0 715 349" version="1.1" xmlns="http://www.w3.org/2000/svg" xmlns:xlink="http://www.w3.org/1999/xlink">
    <!-- Generator: Sketch 46.1 (44463) - http://www.bohemiancoding.com/sketch -->
    <title>Stroke 1</title>
    <desc>Created with Sketch.</desc>
    <defs></defs>
    <g id="Symbols" stroke="none" stroke-width="1" fill="none" fill-rule="evenodd" stroke-linecap="round" stroke-linejoin="round">
        <g id="Banners/2" transform="translate(91.000000, -96.000000)" stroke="#E01976" stroke-width="2">
            <g id="Page-1" transform="translate(-90.274502, 97.451584)">
                <path d="M0.274501571,344.777318 L451.336629,344.777318 C456.396253,340.114049 463.56723,338.229838 470.437892,338.6079 C477.307029,338.984437 483.915487,341.324456 490.232776,344.045586 C491.667276,344.661461 493.162754,345.313922 494.720734,345.211784 C496.446403,345.102025 497.966272,344.086746 499.359613,343.062321 C514.225974,332.119873 525.351355,314.904346 532.609225,298.20408 C536.96913,288.171724 541.297022,277.701854 541.007378,266.765505 C540.716209,255.83068 534.514778,244.273882 523.99765,241.261584 C516.162016,239.014556 509.486483,238.86821 501.336814,238.642592 C484.930766,238.189833 468.514046,238.046535 452.100375,238.214224 C445.383682,238.282824 438.627353,238.406304 432.031091,239.668542 C429.183433,240.212768 426.302237,241.002429 423.959169,242.711329 C421.617625,244.421753 419.893481,247.21758 420.151112,250.104874 C420.844733,257.89325 431.082888,258.021303 436.788876,258.855173 C445.316606,260.102167 453.923608,260.821704 462.538232,261.012259 C479.772053,261.391846 497.054656,259.658555 513.858584,255.818484 C520.005135,254.412948 526.287362,252.6324 531.185396,248.659703 C538.039289,243.106159 541.847346,227.665083 536.051416,220.143484 C532.874478,216.019867 527.124281,215.100629 521.945751,214.579269 C498.420556,212.21181 474.652975,211.682829 451.097292,213.932906 C440.939932,214.902451 429.527957,215.106726 420.696862,220.616061 C409.870272,227.367816 406.708579,238.485575 408.458639,250.565256 C410.031863,261.42081 412.850557,272.058369 416.31409,282.455066 C419.664815,292.519434 424.367719,300.329152 429.75205,309.399584 C434.180555,316.857156 438.729491,324.462599 445.351668,330.061876 C437.670003,324.447355 431.056972,317.521813 424.491199,310.635907 C412.986233,298.569946 404.985959,283.404793 400.400437,267.443882 C395.226479,249.423449 390.331495,232.977764 390.692788,213.881075 C390.736996,211.534958 390.846756,209.152255 391.584586,206.925044 C393.17458,202.135246 397.540583,198.668664 402.286172,196.949093 C407.031761,195.231047 412.170656,195.008478 417.21656,194.898719 C431.212466,194.592306 446.377618,197.452159 460.025951,193.686787 C468.661917,191.304083 476.857319,185.404491 479.53424,176.858468 C480.188225,174.771506 480.499212,172.547345 480.145541,170.388734 C479.409235,165.9023 475.985338,162.386936 472.590405,159.363967 C462.46201,150.345366 451.447914,145.724781 439.494761,139.733723 C431.267346,135.610106 423.206094,128.661698 422.675588,119.473884 C422.311247,113.217572 425.543064,107.365238 428.83586,102.031214 C436.16233,90.1573327 446.822755,81.1997093 455.348962,70.1901866 C464.038283,58.9718152 471.472988,46.7808497 477.44118,33.9054095 C481.930663,24.2297738 485.567982,12.7964561 480.961118,3.17417587 C479.877239,0.911903408 476.656092,-1.232987 475.235312,0.838730175 C474.806944,1.46527599 474.771882,2.27627932 474.819139,3.03392718 C475.210921,9.43201177 479.964132,14.5632848 484.014576,19.5314424 C489.53763,26.3060643 494.229864,33.8855917 496.7955,42.2410603 C499.358088,50.5965289 499.687368,59.7934897 496.700985,68.0087096 C494.153642,75.0150467 489.386711,80.9542741 485.720427,87.4453497 C482.055667,93.9379497 479.450395,101.708032 481.755352,108.798214 C484.537459,117.356433 493.322821,122.129462 500.824602,127.102193 C509.055066,132.556648 523.735446,141.97008 524.137899,153.174731 C524.235463,155.859274 523.503731,158.501133 522.666812,161.05 C520.058491,168.999967 513.817424,172.535149 507.221162,177.062743 C498.361103,183.143743 489.319635,188.823816 480.706536,195.191411 C499.115702,196.516152 517.578223,197.112209 536.034647,196.978058 C541.237569,196.938422 547.551809,197.481124 549.853717,202.147442 C551.085466,204.638381 550.821738,207.858003 552.712046,209.894658 C554.19228,211.489225 556.646632,211.85814 558.768656,211.367269 C563.256614,210.330649 567.746097,206.746685 571.724891,204.472217 C576.644267,201.65962 581.772491,199.603148 587.419026,198.819584 C593.96803,197.911017 601.424078,198.991846 605.663552,204.06519 C608.863356,207.89459 609.582893,213.211845 609.508195,218.204393 C609.210929,238.337704 598.039816,257.301767 583.653653,270.780886 C576.970498,277.043295 570.477898,281.563267 564.948745,288.955288 C557.975946,298.277253 555.4347,311.059702 545.659976,318.034026 C543.975467,319.236811 541.865639,320.30697 539.908255,319.631642 C537.682569,318.860274 536.761806,316.239757 536.376122,313.916507 C534.010187,299.650775 541.196409,291.374578 552.088549,283.44138 C561.677292,276.459434 571.26451,269.475963 580.853252,262.492493 C593.670764,253.158332 604.459242,235.301014 595.619001,219.378214 C593.140258,214.913122 587.877883,211.627949 582.93869,212.928298 C578.661104,214.054861 575.886619,218.06262 573.49172,221.780735 C569.214135,228.431877 565.299367,237.290412 559.489717,242.720475 C557.244213,244.819633 554.276124,246.312062 551.204373,246.188582 C548.530501,245.190072 548.297261,243.612274 548.367386,242.270765 C548.603674,237.749269 550.783627,233.488452 553.75324,230.070653 C560.061383,222.806685 570.497715,215.865899 578.572687,225.221402 C583.078938,230.444141 583.985981,239.875866 581.932558,246.266328 C578.558967,256.765163 575.26922,265.416373 568.451914,274.448694 C561.468443,283.702059 552.765402,291.510253 545.26667,300.34897 C540.010393,306.545828 535.27395,313.410392 532.493367,321.096631 C530.415552,326.833107 528.749337,333.138201 531.629008,338.888397 C534.903511,345.419109 542.757438,345.603566 549.318638,345.595944 C569.76141,345.571553 692.831729,345.547162 713.274502,345.521246" id="Stroke-1"></path>
            </g>
        </g>
    </g>
</svg>