<?xml version="1.0" encoding="UTF-8"?>
<svg width="122px" height="121px" viewBox="0 0 122 121" version="1.1" xmlns="http://www.w3.org/2000/svg" xmlns:xlink="http://www.w3.org/1999/xlink">
    <!-- Generator: Sketch 46.1 (44463) - http://www.bohemiancoding.com/sketch -->
    <title>Group 6</title>
    <desc>Created with Sketch.</desc>
    <defs></defs>
    <g id="Page-1" stroke="none" stroke-width="1" fill="none" fill-rule="evenodd">
        <g id="Главная" transform="translate(-199.000000, -2462.000000)">
            <g id="Преимущества" transform="translate(0.000000, 2305.000000)">
                <g id="Group-6" transform="translate(201.000000, 157.000000)">
                    <ellipse id="Oval-3" fill="#E21776" cx="60" cy="60.4322709" rx="60" ry="60.1195219"></ellipse>
                    <g id="importers" transform="translate(0.000000, 30.372510)" stroke="#FFFFFF" stroke-width="3" stroke-linecap="round" stroke-linejoin="round">
                        <polyline id="Stroke-1" points="44 62.5618775 44 0.151034684 44 9.38986418 82 9.38986418 73.4501069 24.3709401 82 39.6021999 52.7878652 39.6021999"></polyline>
                        <path d="M0.249023438,27.5538024 C18.75,27.8052789 1.93536893,37.7972498 27.7509766,41.5826693 C30.6427,42.0066913 37.865199,47.1715046 34.75,51.1015936 C26.0704899,62.0515354 24.7035244,43.4476411 22,56.6125498 C21.7392482,57.8822903 22.0859763,59.4535379 23.0009766,60.3700199 C29.1880984,66.5671612 63.0970109,59.0877665 65.0009766,65.6304781 C65.7632344,68.2498704 60.0679078,75.6587196 66.0019531,76.4018924 C69.1438473,76.7953795 72.5299108,77.4988264 75.5009766,76.4018924 C82.6571184,73.759805 87.3174302,63.0388565 95.5009766,62.374004 C96.8708496,62.2627119 98.5292338,62.4021521 99.5009766,63.375996 C100.693947,64.5715464 100.337742,66.7132548 101.25,68.1354582 C101.890369,69.1337888 103.21875,69.7010707 104.25,70.6404382" id="Path-2"></path>
                    </g>
                </g>
            </g>
        </g>
    </g>
</svg>