<?xml version="1.0" encoding="UTF-8"?>
<svg width="300px" height="200px" viewBox="0 0 300 200" version="1.1" xmlns="http://www.w3.org/2000/svg" xmlns:xlink="http://www.w3.org/1999/xlink">
    <!-- Generator: Sketch 46.2 (44496) - http://www.bohemiancoding.com/sketch -->
    <title>icon-pnevmotransport-noact</title>
    <desc>Created with Sketch.</desc>
    <defs></defs>
    <g id="Symbols" stroke="none" stroke-width="1" fill="none" fill-rule="evenodd" stroke-linecap="round" stroke-linejoin="round">
        <g id="category/icon-pnevmotransport-noact" stroke="#C1C1C1" stroke-width="2">
            <path d="M0,200 L49.9349374,200 C49.9349374,200 61.4833435,108.490253 62.4480372,99.4652558 C63.2984796,91.5084654 64.1557942,83.5160252 66.2071643,75.7812948 C67.4811098,70.9780134 70.3026027,68.5422262 75.3657414,68.0418397 C77.957443,67.7854184 80.5671844,68.1221592 83.1498662,68.458041 C83.5600543,71.8718369 83.1417054,75.3242894 82.7233564,78.7372263 C82.421836,81.1944893 82.120745,83.6517523 81.8192245,86.1094449 C81.5271534,86.7150629 81.1843994,86.6755474 80.9073613,86.6149856 C77.3943471,85.837561 73.8813329,85.0601364 70.3678892,84.2831414 C68.1056265,83.7823253 65.7037711,83.287952 63.5128082,84.0421827 C59.1029639,85.560523 60.2012372,90.8379904 61.6530024,94.1585813 C62.4016494,90.6537279 66.9777166,88.9515546 70.2583625,90.3938705 C73.5394379,91.8361864 75.3962371,95.5102692 75.6526583,99.0847043 C75.7935397,101.054466 75.5100589,103.10283 74.5105743,104.806292 C71.9485093,109.170607 64.859342,109.494033 61.5202819,105.691525 C58.1812218,101.888157 59.0187787,95.3964474 62.8779831,92.1226738 C65.6247401,89.7921181 69.4229532,89.0112573 73.018005,89.2393305 C76.6134864,89.4674037 80.0801128,90.6069106 83.500781,91.7365386 C79.1884369,93.9914994 78.5415853,100.975006 82.3655693,103.984197 C83.6408034,104.987547 85.2059609,105.537328 86.7517903,106.029984 C89.8224027,107.008851 92.9840725,107.940472 96.162064,108.50185 C97.7680256,108.785331 101.463155,109.941589 103.061815,109.463537 C107.130623,108.246718 106.063704,99.0864223 104.599054,95.9754354 C104.109835,94.9364354 103.365053,93.9360918 102.285679,93.5430843 C100.682724,92.9598011 98.8199111,93.9794729 98.013709,95.4823507 C95.7557415,99.6946175 97.2543241,106.834468 100.272106,110.253418 C94.9950681,108.891422 89.7352108,107.462421 84.4946819,105.966845 C82.9510001,105.52659 81.0211832,104.420156 81.5048186,102.88936 C85.7540238,102.407872 90.1170509,102.967103 94.1072578,104.503483 C94.5449349,103.33391 94.6853868,102.05438 94.5101441,100.817803 C92.5399526,99.5009056 89.9418082,99.8625584 87.6146886,99.4154319 C85.2871395,98.9687349 82.8195681,96.660514 83.9118282,94.5580315 C88.8190525,95.1670857 93.8336559,94.9055102 98.6515407,93.7900562 C99.0969492,93.0074774 97.9780591,92.28589 97.1035638,92.0702728 C92.590206,90.9573959 88.0759892,89.8440895 83.5622019,88.7307832 C83.1232362,86.7971006 83.2310448,84.7418648 83.8701651,82.8648784 C92.8681031,91.025689 111.092911,86.8460654 115.878582,84.0606519 C116.40431,83.7548363 116.372097,71.3362301 115.819739,65.8787953 C105.502327,69.9471742 93.6906269,70.0897736 83.2782916,66.2713733 C83.776101,63.4666315 84.27434,60.6618898 84.772579,57.857148 C84.772579,57.857148 54.3340438,32.8403978 44.5943311,23.8811162 C42.2045021,21.6828516 39.6153776,18.3236042 41.3205575,15.5605255 C51.5469123,12.6660148 82.6048099,3.75440963 88.2602517,3.24371469 C94.0256497,2.72357039 145.783658,7.88549788 156.293923,9.90680182 C139.049701,13.9489802 101.586855,22.8240765 99.9744511,22.9525019 C97.674391,23.1354759 59.7214674,18.97561 42.9643166,18.3738576 C45.6015469,20.5734108 48.1855173,21.4019479 51.6018903,21.7567284 C66.8522978,23.3394961 98.6270583,26.6652412 99.0058917,27.1394273 C99.4955404,27.7519176 99.0303742,30.1743898 99.0028851,30.8805147 C98.9010897,33.5490997 98.7017942,36.2163963 98.4359235,38.8733844 C97.8264398,44.9561949 95.2175575,52.0148666 97.3883332,57.976124 C98.2473659,60.3358868 101.867759,60.6902378 103.913116,59.8831766 C110.870422,57.1368491 106.877208,47.3773786 105.636336,42.4692953 C104.590463,38.3330528 103.383522,34.2333193 102.639171,30.0266362 C102.536087,29.4446415 102.40852,28.8123934 102.681263,28.2883835 C102.962167,27.7484814 103.58067,27.4912011 104.150639,27.278161 C120.638483,21.1137424 137.792507,16.7326756 155.217555,14.2367561 C145.440045,27.6926443 116.180532,54.9536175 115.604981,58.0873688 C113.803159,67.892368 113.537289,78.1857273 115.291863,87.9988873 C117.56787,87.8885016 119.957699,88.2686236 121.799895,89.6100031 C123.64209,90.9518122 124.77902,93.4129409 124.092224,95.5854346 C123.463412,97.5771019 121.549057,98.8643624 119.654461,99.7444414 C115.873858,101.501163 111.639686,102.272145 107.482397,101.961175 C106.528012,105.182548 105.976513,108.522897 105.845081,111.880426 C111.54691,111.467661 120.663395,109.756897 123.563489,109.17662 C119.059581,128.715319 112.556274,158.698137 110.222711,161.088396 C103.888204,167.577099 92.5322213,165.728461 86.7320325,162.24852 C86.2170424,161.939697 74.9710159,123.225241 71.9055577,110.596172 C72.8745466,112.730439 75.1548489,113.915045 77.3312082,114.785674 C91.9832994,120.649432 105.977801,118.616531 120.335244,114.372909 C119.906157,119.518086 119.213347,166.888585 119.213347,166.888585 C112.281383,169.930419 104.680662,173.783611 97.3995006,175.744782 C96.2526919,176.053605 83.91913,178.662487 83.9268613,179.7788 C83.7572023,177.581824 83.5879729,175.384418 83.4178844,173.187871 C79.1317407,174.652093 68.9526328,178.613092 69.2442744,169.813591 C69.3804311,165.713857 74.607645,163.750538 77.208796,166.930248 C78.9784034,169.093292 78.7666518,175.296797 75.4293098,175.963836 C74.1965979,176.209948 72.990516,175.441973 72.0881021,174.567478 C70.4864357,173.014776 69.3065543,170.647282 70.1286485,168.573577 C70.8549607,166.740831 72.8406148,165.797184 74.6540328,165.024054 C77.5790391,163.776309 90.2484829,155.959971 90.2304432,155.950951 C94.7747262,158.169403 100.006235,158.952411 105.000651,158.160812 C106.768541,157.880768 108.520967,157.4083 110.310762,157.411306 C112.483685,157.414743 133.133543,159.928272 139.642004,161.621855 C139.642004,161.621855 131.28877,88.2411345 128.783401,73.7952112 C128.783401,73.7952112 123.645527,75.6056226 122.195479,81.6957349 C118.611165,96.7524305 111.483771,179.057212 110.739849,182.124818 C110.385498,183.587321 109.983041,185.241818 110.796545,186.507603 C111.615633,187.781119 113.417883,188.104974 114.865783,187.657418 C119.359383,186.266644 145.748867,167.721417 147.081657,164.567478 C147.499576,163.578732 147.527495,162.475304 147.547682,161.401943 C147.928663,141.285545 147.790788,121.159268 147.135346,101.050171 C163.353454,99.8844637 244.778586,94.9798165 246.798602,94.9939906 C246.903404,95.7761398 249.027792,96.5716041 249.133023,97.3537534 C230.44176,97.9761226 151.061985,104.873296 151.061985,104.873296 C152.923079,106.919082 160.747578,114.163735 162.134916,114.686886 C163.121515,115.058847 272.347952,104.128944 272.347952,104.128944 C272.417104,104.611291 275.526803,104.954904 275.595955,105.437251 C264.376129,108.574438 165.073667,117.837388 164.740362,116.940128 L165.421575,189.122928 C160.97737,183.050855 155.39108,173.252299 151.025905,167.122671 C150.038447,167.11494 149.049271,167.361482 148.17993,167.831373 C148.50808,173.333907 162.091535,197.413453 162.908475,198.008762 L168.710811,197.3181 C167.722494,176.277383 168.980118,131.216393 169.105537,130.060135 C183.917408,127.143719 198.922562,125.211325 213.989566,124.280133 C213.46212,129.047765 213.276139,133.852764 213.433342,138.646596 C199.301825,140.020619 185.198656,141.68929 171.13672,143.650891 L170.774208,149.786532 C175.111464,153.12774 177.754708,158.563699 177.704454,164.038314 C177.654201,169.513359 174.91088,174.899924 170.513062,178.160382 C180.888889,177.52255 212.016368,172.688773 212.016368,172.688773 C217.23671,167.662144 218.188518,153.682675 209.294952,144.402545 C208.624907,143.703292 187.77919,146.877418 180.179328,148.556827 L179.876089,154.75303 C188.290314,153.022938 196.770685,151.614983 205.292719,150.533461 C205.164723,153.421529 205.352851,156.323341 205.851949,159.170176 C197.703595,160.616787 189.482222,161.648056 181.229065,162.260546 C181.565806,165.511126 181.902118,168.762135 182.238858,172.013574 C195.414272,169.073964 206.381543,168.475218 219.556957,165.535608 L218.645953,146.856372 C215.626023,148.445153 214.205183,143.837731 214.825834,140.482349 C215.838204,135.003009 221.718283,131.775194 227.225112,130.923892 C232.731512,130.072591 238.447515,130.788165 243.844388,129.402116 C244.333607,132.659138 241.122973,135.394728 237.917063,136.1481 C234.711153,136.901901 231.326134,136.410964 228.091876,137.033762 C224.858477,137.65742 221.485485,140.053262 221.576113,143.345505 C222.654629,143.645737 223.733144,143.945539 224.81166,144.245771 C226.31282,146.905766 223.125808,150.681644 220.251485,149.648228 C222.888286,157.548752 223.106909,166.238726 220.871277,174.262092 C222.206643,177.037626 225.475263,178.456319 228.555324,178.482519 C231.635386,178.509579 234.598619,177.400997 237.478527,176.308308 C237.442447,164.792115 237.405938,153.275923 237.369429,141.759301 C234.250282,141.939268 231.130704,142.119236 228.011557,142.298774 C227.516754,153.616529 227.022381,164.933426 226.528007,176.251182 C227.810973,176.548407 229.194445,176.391634 230.378192,175.813934 C231.162059,166.317328 231.44554,156.779058 231.228634,147.251956 C231.693371,146.179883 233.394685,146.263639 234.168244,147.139423 C234.941803,148.014777 235.039303,149.279703 235.088698,150.447128 C235.403533,157.831803 235.320636,165.233229 234.841296,172.608883 C241.286618,171.773904 247.662789,170.407612 253.883903,168.527619 C255.102871,168.159094 256.356629,167.748047 257.299417,166.89245 C258.583671,165.726743 259.084058,163.905164 259.120567,162.170777 C259.178981,159.407698 258.054078,156.480544 255.708918,155.018471 C253.363759,153.556397 249.779445,154.110044 248.473286,156.545401 C247.166697,158.980759 249.356372,162.630789 252.078217,162.151878 C251.9601,163.035393 251.841983,163.919338 251.724295,164.803283 C247.431279,165.000001 243.167041,165.817371 239.105534,167.222319 C238.983122,157.668587 238.86114,148.114855 238.738298,138.561122 C238.723694,137.415602 238.740875,136.171723 239.447,135.269309 C240.239028,134.257369 241.637963,133.997511 242.909331,133.809383 C248.723265,132.946914 254.537627,132.084875 260.351561,131.222836 C260.351561,144.664979 260.35199,158.107123 260.35242,171.549267 C260.842927,171.597372 264.307836,170.707415 264.798343,170.75552 C266.389272,152.779832 266.960099,113.86608 267.966027,112.23177 C268.972383,110.59746 271.05339,109.452799 272.841896,110.149045 C272.841896,110.149045 271.326562,174.095869 270.598532,175.009021 C269.822396,175.982305 170.641487,192.216305 170.641487,192.216305 C170.60412,193.54351 170.6213,200 170.6213,200 L300,200" id="Stroke-1"></path>
            <path d="M0.5,200 L50.0101,200" id="Line"></path>
            <path d="M173.996016,200 L299.5,200" id="Line"></path>
        </g>
    </g>
</svg>