<?xml version="1.0" encoding="UTF-8"?>
<svg width="300px" height="200px" viewBox="0 0 300 200" version="1.1" xmlns="http://www.w3.org/2000/svg" xmlns:xlink="http://www.w3.org/1999/xlink">
    <!-- Generator: Sketch 46.1 (44463) - http://www.bohemiancoding.com/sketch -->
    <title>icon-torket</title>
    <desc>Created with Sketch.</desc>
    <defs>
        <linearGradient x1="3.061617e-15%" y1="50%" x2="100%" y2="50%" id="linearGradient-1">
            <stop stop-color="#C1C1C1" offset="0%"></stop>
            <stop stop-color="#E01976" offset="99.4917889%"></stop>
        </linearGradient>
        <linearGradient x1="99.4917889%" y1="50%" x2="8.58688121e-15%" y2="50%" id="linearGradient-2">
            <stop stop-color="#C1C1C1" offset="0%"></stop>
            <stop stop-color="#E01976" offset="100%"></stop>
        </linearGradient>
    </defs>
    <g id="Symbols" stroke="none" stroke-width="1" fill="none" fill-rule="evenodd" stroke-linecap="round">
        <g id="category/icon-torket" stroke-width="2">
            <g id="Group" transform="translate(0.000000, 19.000000)" stroke="#E01976" stroke-linejoin="round">
                <path d="M0,181 L12.5,181 C25.6754592,181 58.6651793,149.644427 69.5691095,138.727196 C64.3654312,140.079965 59.2361405,134.703373 59.2159426,129.32678 C59.2001783,125.258127 61.307168,121.55353 64.0112284,118.646013 C67.2586626,115.15374 71.8317711,112.876299 75.516663,109.862866 C79.3936817,106.690804 83.0529567,103.261096 86.9856428,100.15554 C88.9433648,98.6086738 90.9897607,96.9957946 93.039605,95.611497 C93.738158,95.1395549 99.4334836,91.7640363 100.100016,92.6882151 C103.398684,97.2662499 107.498372,101.265441 112.155721,104.451297 C105.054422,110.785074 97.95263,117.118851 90.8513309,123.453122 C86.3742858,127.445909 81.8868953,131.447071 77.0142662,134.944763 C75.0516178,136.353199 72.888468,137.725181 70.4740756,137.797598 C68.0601758,137.870015 65.4364145,136.107868 65.4526714,133.69249 C65.4664651,131.612596 67.2754121,130.04898 68.9277019,128.784392 C77.6344906,122.119565 86.341772,115.454246 95.049546,108.788927 C99.5566418,105.338528 104.301186,101.780735 109.892567,100.800396 C115.483454,99.8190721 122.133502,102.349233 123.839488,107.762773 C127.170178,106.928746 130.848173,105.459223 132.027535,102.234942 C133.01083,99.5481242 131.798954,96.4189218 129.683096,94.4922357 C127.567239,92.5660422 124.719823,91.6517161 121.90492,91.1383929 C116.814055,90.2097804 111.025622,89.9757799 106.062841,91.6054086 C104.182955,92.2231699 102.359721,93.0906959 100.395102,93.3301154 L108.581179,90.1817003 C107.326936,88.9476557 106.870758,87.0529906 107.105744,85.3090712 C107.340237,83.5656444 108.193969,81.9571989 109.243277,80.5448212 C109.893059,79.6703983 110.63053,78.8481945 111.522688,78.2230437 C113.406515,76.9042662 115.564246,76.9495884 117.652023,76.3150776" id="Stroke-1"></path>
                <path d="M82.583133,27.5978506 C89.1839173,36.6588422 94.7452469,46.4814438 101.383964,55.5468691 C107.049239,63.2836642 113.848554,69.8243474 118.734977,78.1444196 C122.99083,85.3915379 129.907885,90.514917 133.664701,98.1290467 C136.967803,96.4742937 140.52264,94.6067235 143.040485,91.7849239 C147.511126,86.7743576 149.929459,79.5917742 153.578882,73.9196023 C157.978583,67.0823543 162.377793,60.2455989 166.776509,53.4088436 C170.003253,48.3938436 173.229011,43.3793362 176.456247,38.3648289 C179.216961,34.0749841 180.814568,29.1176222 184.049194,25.1652307 C173.883227,23.80655 163.577353,25.0573442 153.356704,25.909106 C129.194553,27.9224954 104.90875,27.6944065 80.664329,27.4653324 C80.017995,27.4589282 79.3021998,27.4259218 78.8391251,26.9741777 C78.4726065,26.6160338 78.3583157,26.0790642 78.2652081,25.5755937 C77.3232946,20.440884 76.9025863,15.2110962 77.0119508,9.99214632 C77.0262371,9.32167334 77.0681109,8.5975034 77.4942381,8.07876126 C78.0681551,7.38020822 79.0987425,7.3225702 80.0027234,7.32158494 C115.361922,7.27626274 150.72112,7.23094054 186.080318,7.18561834 C186.773452,12.6021139 187.655757,19.1378707 186.487233,24.4893388 C184.150184,24.6371286 185.475365,11.8971566 185.380287,9.25171951 C185.356148,8.57829073 185.322649,7.88811244 185.059583,7.26739535 C184.744791,6.52746117 184.134912,5.9599484 183.541782,5.41657463 C182.06487,4.06183495 180.587957,2.70758791 179.111537,1.35284823 C178.615456,0.897655696 178.10164,0.431625246 177.468607,0.201565817 C176.848876,-0.0235672857 176.170028,-0.00238408346 175.510885,0.0217549145 C165.710945,0.380884088 156.075544,0.173485759 146.358365,0.209447939 C132.190252,0.261666996 118.022138,0.37004617 103.854516,0.482366405 C99.7582763,0.514880158 95.5679433,0.564143419 91.7219605,1.97208742 C87.0202749,3.69334576 82.9841359,7.38956824 77.9982013,7.8467313" id="Stroke-3"></path>
                <path d="M101.427316,72.5284571 C96.2852164,68.4469959 91.5943687,63.8329989 86.9143589,59.2283618 C85.4458211,57.7834704 83.9285126,56.2627135 83.2718334,54.3099179 C82.0303992,50.619607 84.3704041,46.4864194 87.6666089,44.413914 C90.9633063,42.3419012 94.9802326,41.8497612 98.8518323,41.4413688 C128.516198,38.3126591 158.386976,37.147583 188.20455,37.9559931 C188.555797,37.9653531 188.943006,37.9899847 189.192278,38.2372863 C189.479976,38.5225206 189.46766,38.9831321 189.435146,39.3875835 L189.023798,44.5237711 C188.970594,45.1952293 188.906059,45.8987087 188.535106,46.4603098 C187.762166,47.6317902 186.090171,47.6721861 184.689616,47.5913943 C155.334132,45.8957529 125.828887,46.7982558 96.6320298,50.2856021 C84.7684512,51.7024135 96.5408927,61.559992 100.803643,64.8187567 C104.579179,67.7045985 107.727101,69.7352302 110.616392,73.5753014 C113.003197,76.7473627 115.254528,80.0218917 117.715228,83.1387782 C119.26505,85.1009339 122.741065,90.6460066 125.267286,91.2509594 C121.951375,90.4573283 120.912413,90.2991932 118.790645,87.8562281 C117.050174,85.851706 115.482124,83.8353607 113.50716,82.0308475 C109.722756,78.5730592 105.448183,75.6950995 101.427316,72.5284571 Z" id="Stroke-5"></path>
                <path d="M267.176021,47.1148215 C267.821862,47.1660553 268.496276,47.2276344 269.043098,47.575433 C269.597802,47.9266801 269.94166,48.520795 270.282069,49.0828888 C273.884691,55.0299497 279.284438,59.6345867 284.590091,64.1298593 C287.803041,66.8526397 291.900266,68.4054177 293.831879,63.318986 C290.92239,60.7907954 288.19961,58.0478171 285.69211,55.1201015 C284.962028,56.5482434 283.457528,57.5492729 281.85795,57.6704605 C283.250623,56.9911201 284.412743,55.850183 285.117208,54.4708117 C284.67236,55.3427714 277.97305,47.3108893 277.459726,46.8586526 C277.217844,48.1892533 275.971483,49.2666408 274.619207,49.3129482 C275.742902,48.7222817 276.661661,47.7513029 277.189271,46.5970647 C277.265136,46.4305548 277.334105,46.2556703 277.334598,46.0729036 C277.334598,45.7659934 277.143949,45.4965234 276.961182,45.2502071 C275.946852,43.8821663 274.863552,42.4579655 273.308804,41.7628608 C272.641287,41.4638329 271.916624,41.3160431 271.196888,41.1825396 C268.038128,40.5972921 264.884786,40.3618137 261.68563,40.1504743 C258.069214,39.9115475 254.530141,40.1943186 250.886631,39.6356732 C251.430497,38.3099989 251.742826,36.8902317 251.804898,35.4581487 C251.81278,35.2778452 251.820169,35.0857184 251.921652,34.9364508 C252.019686,34.7921094 252.188166,34.7147661 252.34975,34.6487533 C256.409042,33.0004046 261.47971,33.7723599 265.732607,33.9659645 C266.099618,33.982714 266.493724,33.9925667 266.802112,33.7925578 C267.1105,33.592549 267.24696,33.0959753 266.966652,32.8585264 C262.102397,32.8486738 257.23765,32.8388211 252.372903,32.8284758 C251.506855,32.8269979 250.486613,32.9058191 250.028957,33.6413196 C249.781163,34.0398594 249.771803,34.5369257 249.76934,35.0064046 C249.760965,36.6414522 249.753576,38.2769925 249.745201,39.9120401 C243.181857,39.8002125 236.776647,39.4011801 230.195568,39.4529065 C222.960273,39.5095593 215.725471,39.5667047 208.490176,39.6228648 C208.205434,36.4946477 208.89709,33.3619969 208.943398,30.2209714 C208.989705,27.0794533 208.212823,23.6448187 205.725029,21.7269999 C203.433794,19.960912 200.292769,19.9091856 197.403971,20.0407185 C196.231998,20.0944155 195.016674,20.1776704 193.989535,20.7432126 C192.011122,21.8319307 191.335723,24.3172622 191.028813,26.5543069 C190.355384,31.456494 190.532239,36.4310981 190.710572,41.3761443 C194.192007,41.2101271 197.673441,41.0441099 201.154876,40.8785853 C201.234682,39.0479625 201.314489,37.2173398 201.393803,35.386717 C199.625252,36.0591605 197.524666,35.9754129 195.945779,34.9325097 C194.367384,33.8891138 193.452073,31.8259685 193.975741,30.0076615 C194.539805,28.0494469 196.545313,26.8040716 198.550327,26.4395235 C200.536622,26.0789164 202.751006,26.4720373 204.197868,27.878996 C205.64473,29.2859547 206.032924,31.8106969 204.733852,33.3551001 C203.319504,35.0369478 200.759292,34.9753687 198.571018,34.7709262 C198.566584,36.9695455 198.767086,39.1686575 199.169074,41.3303294 C196.065489,41.3574242 192.833326,41.1638196 189.772107,41.5229488 C187.611913,47.3158156 200.703625,44.937878 203.522961,44.9088127 C210.738058,44.8349178 217.953648,44.87088 225.16776,45.0171919 C239.187099,45.3009483 253.198063,45.9999939 267.176021,47.1148215 Z" id="Stroke-7"></path>
                <path d="M194.681585,45.3562216 C191.528244,47.4735566 188.748318,50.0726863 185.842278,52.5033356 C183.019493,54.8635384 179.931672,56.5572093 176.978339,58.7297191 C176.682267,58.9474627 176.37585,59.1775222 176.209833,59.5061081 C175.953664,60.0135197 176.095049,60.6224136 176.240376,61.1721916 C177.590682,66.2605938 178.940003,71.3485034 180.289816,76.436413 C191.328235,63.3146508 210.193108,58.905589 221.342369,45.8774269 C223.663161,46.773033 226.250961,46.9641745 228.678161,46.4193228 C219.555591,56.5527756 209.802943,66.1187156 199.495098,75.0437406 C197.163468,77.0625491 194.62641,79.378415 194.370241,82.4519498 C203.886918,78.650304 210.884764,70.568666 218.237306,63.4309121 C222.873471,58.9307132 227.783541,54.7132854 232.932044,50.8101573 C234.452801,49.657397 236.023806,48.5164598 237.823393,47.8824417 C240.013638,47.1114716 242.393546,47.1415222 244.714831,47.1809328 C246.511955,47.2109834 248.309078,47.2415266 250.106695,47.2715772 C250.734801,47.2824151 251.384091,47.2971941 251.95653,47.5563189 C252.646216,47.8691406 253.134907,48.4933061 253.595519,49.0943179 C259.650959,57.0010713 265.706399,64.9078247 271.761839,72.8145781 C251.540256,86.2471915 231.348723,99.7270976 211.097089,113.114389 C207.616147,104.339617 198.217702,99.2034291 192.280001,92.2366188 C188.830587,88.1891492 186.251163,83.3204611 182.286948,79.735081" id="Stroke-9"></path>
                <path d="M200.220352,40.9152864 C205.481668,40.7404019 209.61929,36.5574584 213.161811,32.6631976 C215.521028,30.0694869 217.446236,27.1067944 219.867033,24.5909196 C222.862239,21.4779742 225.871239,18.3788224 228.874328,15.2732664 C230.068469,14.0382365 231.381828,12.738179 233.074513,12.4460479 C235.6431,12.0031712 238.948172,13.5116122 241.198518,14.6579683 C244.378461,16.2777443 247.474657,18.0625523 250.470356,20.0030321 C251.141322,20.4380267 251.836426,20.9124319 252.195556,21.6267492 C253.055199,23.3386475 251.605874,25.2628705 250.26148,26.6274628 C248.605249,28.3098032 246.948526,29.9916509 245.292295,31.6734987 C242.997612,34.0036509 239.994524,35.491894 237.704275,37.9703287 C237.522986,38.1663965 237.3348,38.3713316 237.085035,38.4649318 C236.923452,38.5255256 236.748075,38.5353783 236.576146,38.5442457 L228.936892,38.9329328 C234.319396,35.4923867 239.210745,31.1572197 244.129189,27.0816701 C250.483657,21.8154275 239.255575,19.0483101 235.795816,17.5994776 C235.302198,17.3925719 234.791831,17.1827104 234.256832,17.1851736 C233.443495,17.1891147 232.723266,17.6773136 232.059198,18.1462998 C226.056962,22.3854034 220.436516,28.3679339 215.827938,34.0662153 C214.429354,35.7948631 213.123385,37.5988837 211.917913,39.4674392" id="Stroke-11"></path>
                <path d="M160.460467,64.637665 C164.765583,65.2022219 167.058788,70.5246247 166.033619,74.744023 C165.007466,78.9634213 161.751657,82.2231713 158.612109,85.2228112 C147.5998,95.7439659 136.019485,106.158712 122.020837,112.158977 C119.225147,113.357552 115.105753,113.884669 113.931317,111.079126 C113.167243,109.252445 114.431339,107.084369 116.185603,106.166594 C117.939868,105.249312 120.016807,105.263106 121.99522,105.328626 C120.500572,108.532216 118.138399,111.325935 115.227926,113.332428 C114.286997,117.079884 117.143281,121.321451 120.969066,121.859406 C122.976051,122.141684 124.992889,121.534761 126.909723,120.877589 C145.857851,114.381735 162.773377,102.084148 174.797061,86.0632425 C176.482357,83.8173304 178.141544,81.2935735 178.098192,78.485075 C178.02479,73.7784631 172.014179,70.3359464 167.917446,72.6542754 L179.028775,84.5424856 C179.72585,85.2883314 180.470218,86.1583206 180.407161,87.1770848 C180.363317,87.8864758 179.9298,88.504237 179.50318,89.0732277 C172.468879,98.4608347 163.274384,105.96757 154.176938,113.373316 C143.033095,122.446131 131.889253,131.518453 120.745411,140.590776 C120.442934,140.837092 120.132576,141.087842 119.766057,141.221345 C118.423633,141.708559 116.997462,140.311453 116.904354,138.886267 C116.811247,137.461573 117.604385,136.143288 118.403435,134.959985 C120.908472,131.249969 123.773131,127.782328 126.944207,124.622582 C131.302528,130.602157 136.364328,136.069393 141.99167,140.874039 C134.058807,145.39148 126.126437,149.909414 118.194066,154.427348 C116.028946,151.300609 119.574916,147.431965 122.720375,145.294432 C156.528766,122.315584 189.639589,98.3095965 221.991758,73.3217926 C230.81333,66.5086836 239.579727,59.6211871 248.56239,53.0218806 C251.109793,60.0231753 254.424718,66.7446546 258.429821,73.0267057 C246.858374,87.9682528 226.663393,93.3763736 212.901701,106.329655 C208.658656,103.313759 205.432898,98.8918883 203.856473,93.9305852 C208.637473,91.1683942 213.418472,88.4062032 218.199964,85.6440121 C217.322093,83.2409502 217.166914,80.2220976 219,78.436797 C220.832593,76.6519891 224.856909,77.8747032 224.504184,80.4088054 C222.82874,80.7024144 221.152312,80.9965161 219.476375,81.2906177 C219.420708,85.9849139 221.368577,90.66985 224.736214,93.9404379 C219.043844,99.1263814 212.772138,103.675844 206.076276,107.476997 C204.05796,105.322222 201.742587,103.445784 199.216367,101.91813 C192.877663,104.963093 188.163169,110.618022 182.093442,114.169411 C176.427675,117.484336 169.859897,118.814936 163.632528,120.892368 C156.25634,123.353068 149.662945,129.27796 145.508574,135.768888 C139.366923,145.365371 139.799948,162.932157 148.430378,170.853197 C150.360513,172.624211 152.675886,173.91885 155.024758,175.078999 C158.85547,176.971201 162.913777,178.569301 167.172093,178.925967 C176.270525,179.68807 186.585759,175.581977 193.353546,169.576786 C197.835025,165.598777 201.143545,157.309248 202.840172,151.629194 C204.834349,144.953037 204.868341,137.645818 200.957823,131.633729 C196.364517,124.570856 187.654279,121.092377 179.24307,120.6027 C164.892682,119.767688 156.802177,129.152832 154.015847,142.488396 C151.66993,153.716479 154.422761,166.013081 167.515951,167.946664 C173.366456,168.811235 179.452439,167.18604 184.495519,164.097726 C195.575812,157.313682 196.561077,139.578908 183.474292,136.555622 C149.580675,128.727197 152.159114,181 174.797061,181 L300,180.999951" id="Stroke-13"></path>
                <path d="M268.851169,74.2728691 C269.273847,76.2961113 270.308868,78.1878205 271.784796,79.6356677 C269.723621,84.7703774 267.662446,89.9045945 265.600779,95.0393042 C264.99484,96.5502084 264.370182,98.0911632 263.31053,99.3266858 C262.375513,100.416882 261.150828,101.211991 259.935504,101.976557 C241.917958,113.320408 221.802784,121.686295 205.993711,135.947516 C205.577436,136.323887 205.135052,136.718486 204.585274,136.830314 C203.262555,137.099784 202.270886,135.700215 201.585634,134.537602 C195.014408,123.383414 181.116749,117.068849 168.393527,119.455162" id="Stroke-15"></path>
                <path d="M262.90061,61.4723526 C265.966263,61.2240658 269.28168,61.1073119 271.855193,62.7921154 C274.70458,64.6572225 275.876553,68.2490068 276.310562,71.6269886 C277.322922,79.5169925 275.292783,87.7587361 270.731498,94.2752803 C268.388045,97.6237041 265.019915,100.69921 260.93944,100.929269" id="Stroke-17"></path>
                <path d="M259.873136,56.3656245 C261.521978,56.7636716 263.149143,55.8064865 264.692068,55.1030071 C266.235486,54.4000204 268.286809,54.019708 269.440554,55.2626201 C270.878549,56.8119496 269.666673,59.3504855 270.154871,61.406734" id="Stroke-19"></path>
            </g>
            <path d="M0.5,200 L10.0524866,200" id="Line" stroke="url(#linearGradient-1)"></path>
            <path d="M251.5,200 L299.5,200" id="Line" stroke="url(#linearGradient-2)"></path>
        </g>
    </g>
</svg>