<?xml version="1.0" encoding="UTF-8"?>
<svg width="300px" height="200px" viewBox="0 0 300 200" version="1.1" xmlns="http://www.w3.org/2000/svg" xmlns:xlink="http://www.w3.org/1999/xlink">
    <!-- Generator: Sketch 46.2 (44496) - http://www.bohemiancoding.com/sketch -->
    <title>icon-products-noact</title>
    <desc>Created with Sketch.</desc>
    <defs></defs>
    <g id="Symbols" stroke="none" stroke-width="1" fill="none" fill-rule="evenodd" stroke-linecap="round" stroke-linejoin="round">
        <g id="category/icon-products-noact" stroke="#C1C1C1" stroke-width="2">
            <g id="Page-1" transform="translate(5.250977, 33.507921)">
                <path d="M11.622279,166.408632 L66.0019886,166.408632 C65.6711238,166.078134 66.557959,162.683556 66.6798759,162.232243 C67.1289854,160.56727 68.3279573,157.681659 67.9295241,156.003465 C66.5451063,155.112223 62.7884502,158.206783 65.2326636,160.072625 C66.5414341,161.07183 68.3272229,160.938529 69.9352774,160.585631 L87.5379473,156.71991 C87.4769889,153.942262 85.8711377,151.552764 83.1078105,151.841766 C80.3444832,152.130768 75.7634191,152.576205 73.0507682,154.015338 C75.7634191,154.779522 78.1709106,155.858413 78.1962488,158.413894 C78.9868725,155.753756 78.5392318,152.752837 77.0064574,150.440089 C78.9912791,147.933448 80.9764681,145.426807 82.9620243,142.920166 C83.6626792,142.035534 84.4309026,141.103164 85.5105281,140.774502 C86.4873321,140.477055 87.542354,140.732272 88.5077742,141.064606 C92.9103696,142.580121 96.7213743,145.751062 99.0124571,149.804432 C96.4790094,151.892075 93.9455616,153.978984 91.4121138,156.066627 C90.9343611,152.915149 88.365293,150.188176 85.2479661,149.524243 C86.4517118,149.78093 91.2472322,138.066258 92.0143539,136.798249 C96.3857356,129.574673 113.888155,100.205554 118.299196,92.6815918 C120.140068,89.5418645 122.446941,86.2607577 126.304583,88.7020334 C126.565676,88.8669149 126.828238,89.0721907 126.921511,89.3663336 C127.076111,89.8517978 115.863796,108.397488 110.943054,117.411626 C105.996606,126.472402 99.3425875,134.428214 93.2930124,142.757488 C94.033327,145.39082 95.9663708,147.663542 98.4465718,148.816978 C102.599458,142.150474 106.752711,135.484705 110.90523,128.818568 C111.405383,128.015459 111.918389,127.176729 112.017905,126.23628 C112.331511,123.272083 108.759566,121.607477 105.872853,120.862756 C102.598723,120.018151 99.3245938,119.173179 96.0504641,118.328206 C89.7842294,128.136274 82.8683833,140.328698 76.9873619,150.372887" id="Stroke-1"></path>
                <path d="M99.2367549,119.234541 C101.713651,115.119846 114.99892,93.5798476 116.091766,91.2894991 C113.900199,84.6387856 93.3931899,42.0574734 89.8822036,33.2577909 C103.779261,31.6390871 117.584146,29.809232 131.319627,27.148359 C139.552689,30.3417004 148.096787,34.7479679 154.88227,40.3987426 C155.136386,42.0302992 139.626501,71.9109554 132.325441,85.0254678 C131.58072,81.8251492 131.335784,34.0866055 131.825655,30.4144098 C130.801847,31.0023284 119.34019,34.0866055 118.875657,34.3513708 C119.34019,35.0659801 127.203095,68.3485583 125.998982,69.9298058 C125.590634,70.4666808 119.969604,73.3948896 117.381441,74.7256933 C117.254016,72.0934635 115.9816,69.8460797 115.132221,67.3508228 C110.948121,68.1561353 106.877492,69.7586815 102.692658,70.563994 C103.764205,73.2821532 104.722281,75.203446 105.79346,77.9216052 C109.227698,76.9168925 114.68201,75.2409024 118.11588,74.2361897 C119.68354,71.679607 117.065265,65.6674883 115.423059,65.6674883 C114.933555,65.6674883 105.754902,68.0672682 102.937594,69.0951157 C106.364854,63.7091063 108.568171,60.0369107 108.969175,59.6498612 C112.486771,59.1251045 116.225434,58.6264203 119.481937,60.0563733 C122.892305,61.5535275 125.159519,64.9855615 126.089318,68.5923921 C127.018751,72.1992227 126.786668,75.9970075 126.384563,79.7000496 L120.545772,78.3402355 C120.711021,81.1024611 129.306896,85.1095611 132.070224,85.2527767 C139.241287,85.6240357 140.277581,77.9935803 143.976216,71.8389803 C147.674852,65.6840132 149.309713,58.5504059 151.755028,51.7987069 C153.260629,52.2037501 154.766596,52.608426 156.272564,53.013102 C154.338051,55.6545123 152.826208,58.6051216 151.811213,61.7176746 C150.794749,61.0269346 150.494731,59.4765336 151.18033,58.4563976 C149.748908,60.4617837 147.802644,66.4037635 149.941698,67.6262375 C153.368958,69.5846194 156.212707,68.0489072 158.341479,69.2893749 C160.47025,70.5298426 162.579192,72.1907767 163.259283,74.5589757 C163.939007,76.9268074 162.43157,79.9916219 159.968629,80.0489082 C156.861217,80.1212504 157.144343,83.5521829 158.714207,86.235089" id="Stroke-3"></path>
                <path d="M151.899786,47.399747 C157.671009,47.3417263 163.441865,47.2837056 169.21272,47.2249505 C163.114305,53.6127348 156.231141,58.8008129 156.551724,67.6262007 C156.661155,70.642175 157.963316,75.8724833 157.546155,78.8612834 C157.23512,81.0910406 143.546276,107.870895 136.591504,118.554414 C136.281571,119.03033 135.93969,119.53085 135.416402,119.752284 C134.908904,119.967475 134.330166,119.87824 133.787049,119.784966 C126.488927,118.533849 119.191172,117.283099 111.893418,116.031615" id="Stroke-5"></path>
                <path d="M140.883567,78.6428245 C142.352445,78.8873927 146.024641,79.1323282 147.738454,79.1323282 C145.086395,85.0394221 137.802962,98.5982702 137.19962,98.9225251 C136.684778,99.1990414 124.684777,98.4767205 124.236402,98.7172493 C123.797207,98.9537387 116.220366,112.894128 112.485376,119.281545 C125.508451,120.737938 136.301768,121.731634 149.324843,123.18766 C145.697448,128.648215 145.546153,135.626121 145.516776,142.18099 C145.509799,143.857715 145.861595,146.010723 147.50123,146.358113 C148.411935,146.550903 149.321171,146.037897 150.039452,145.446306 C154.557722,141.723802 154.968273,134.987526 154.273861,129.174073 C153.999548,126.876747 152.5505,123.878767 150.349385,124.592642 C149.214677,124.960963 148.646956,126.206572 148.276798,127.34128 C147.526201,129.643012 147.04294,132.032143 146.84097,134.444775 C148.939262,133.711071 151.140744,133.272978 153.360219,133.146654 C151.663297,135.226953 149.589608,136.998788 147.269882,138.349421 C149.179057,137.944378 151.088231,137.539335 152.997773,137.133924 C150.39235,139.879992 148.024886,142.852267 145.932101,146.006316 C133.489233,146.629488 123.677127,145.772765 111.261433,144.742347 C110.15904,139.521953 108.611209,132.98471 112.24044,129.074189 C115.115402,125.976325 117.896723,126.540742 122.059892,127.266367 C118.476196,132.072904 117.525097,138.724352 119.617882,144.342077 C125.087984,144.905392 130.617576,144.894008 136.085476,144.30866 C135.941526,143.580097 135.797208,142.851533 135.653626,142.122602 C131.280775,142.153816 127.043796,142.230198 122.767524,141.314719 C122.759812,139.547659 122.775235,138.430577 122.767524,136.663516 C126.864225,137.979631 131.052732,137.323042 135.344059,137.003561 C135.783621,135.760156 135.894522,134.402545 135.661704,133.104424 C133.419462,131.909124 123.746898,132.256881 123.746898,132.50145 C123.746898,132.847738 123.746898,129.319125 123.668313,128.305232 C131.364501,128.181479 139.061423,128.114277 146.758712,128.103261" id="Stroke-7"></path>
                <path d="M154.421887,143.791652 C154.382595,145.624445 154.396916,147.618447 155.52428,149.063823 C157.58071,151.70046 162.151492,150.638461 164.074988,147.903409 C165.998851,145.168725 166.041816,141.579521 166.011704,138.23562 C165.988202,135.644886 165.189867,132.204773 162.600234,132.137204 C160.532788,132.083223 159.276163,134.390831 158.785557,136.399522 C158.164222,138.943252 157.971431,141.590905 158.217469,144.197429 C158.433761,146.490716 159.953683,149.38257 162.166181,148.742139 C163.433455,146.001946 163.955274,142.921341 163.661131,139.916384 C163.59393,141.156117 162.407444,142.223992 161.167343,142.161931 C159.989303,141.612938 159.911452,139.638766 161.043223,138.999804 C162.174994,138.360842 163.825646,139.44671 163.686837,140.738956 C161.64583,141.008128 159.178849,141.108378 157.962618,139.447077 C157.320351,138.569055 157.224874,137.418556 157.159142,136.332688 C156.156632,119.706822 156.796696,102.982174 159.066847,86.4818973 C161.632611,86.4374637 164.198374,86.3930302 166.764137,86.3489638 C167.878648,99.2299246 166.865857,112.292659 163.779376,124.847896 C161.943646,125.002495 160.108282,125.157095 158.272919,125.311694 C157.083495,118.392543 156.899885,111.347436 157.225976,104.346762 C157.362949,101.406802 160.191274,88.1523791 156.749692,87.9316801 C154.028595,106.031565 154.816281,125.497875 154.421887,143.791652 Z" id="Stroke-9"></path>
                <path d="M101.386275,134.36586 C102.057185,141.195777 102.227942,148.074534 101.89671,154.929054 C99.8608445,154.285318 96.6245385,154.504548 96.7901545,156.63332 C99.510517,156.248474 103.379175,157.885906 105.630598,156.003539 C100.73446,155.269099 103.092377,151.66741 101.958403,150.617896 C108.323787,150.372961 124.785873,152.594272 129.86709,152.331343 C129.622522,148.904083 129.540632,125.967181 129.622522,115.119882 C131.496076,115.117679 132.644371,115.367021 134.51866,115.364818 C133.918623,129.075695 133.049782,157.717352 133.049782,159.92067 C135.091523,159.856039 137.243796,161.686629 139.17023,162.368923 C144.800808,164.327304 138.680359,166.285686 130.601529,165.796183 C124.236512,165.061744 128.194037,162.227176 131.580904,162.123987 C139.246979,161.890068 138.31314,166.408705 138.31314,166.408705 L169.212463,166.408705" id="Stroke-11"></path>
                <path d="M149.044875,166.408632 L179.423848,166.408632 C179.423848,166.408632 189.19556,107.662314 191.183687,90.7529546 C190.884403,93.2996223 214.135645,125.040613 215.625454,126.22306 L222.227328,126.316334 C225.003508,122.644138 245.980925,89.5789537 245.980925,89.5789537 C240.613277,87.1046282 232.822714,84.1984526 218.943283,84.1984526 C203.713953,84.1984526 195.424706,87.8611005 191.12383,89.2943585 C190.864573,80.5438834 189.844437,6.61083354 190.798107,5.932579 C201.579673,-1.73570001 233.135952,-1.80143231 245.435972,4.7596797 C247.087358,18.7022722 245.791807,80.426006 245.980925,89.5789537 L259.425568,166.408632 L289.483224,166.408632" id="Stroke-13"></path>
                <path d="M179.617336,166.126754 C181.007629,166.115003 182.397922,166.103619 183.787848,166.091501 C186.818144,145.439439 194.075137,101.35473 194.075137,101.35473 C197.092948,106.902316 205.103108,120.308401 208.794399,126.100188 C203.65663,126.071912 198.51776,126.2849 193.400188,126.738049 C192.076728,133.430258 190.498786,140.071791 188.670767,146.643552 C190.730134,146.778689 192.788767,146.913826 194.848135,147.048963 C195.222698,147.073199 195.622601,147.092662 195.949059,146.906114 C196.547627,146.5646 196.606749,145.742028 196.606382,145.053492 C196.603444,139.551808 197.389294,134.049757 198.932351,128.76914 C201.904626,128.721401 204.876901,128.673663 207.849176,128.625924 C206.975561,132.108268 205.414143,143.71057 204.862212,145.90691 C204.418244,147.675439 203.659201,149.346288 202.904197,151.005754 C201.627742,153.812413 200.35092,156.619072 199.07373,159.426098 C198.970909,155.298918 198.313953,151.185691 197.12563,147.232205 C195.707061,151.470654 194.278944,155.73187 192.176612,159.676542 C191.857866,155.496115 190.924026,151.363426 189.414754,147.45217 C189.278148,151.646919 189.141175,155.842035 189.004202,160.037152 C192.417508,160.208643 195.831181,160.380135 199.244854,160.551626 L195.434217,160.548689 C195.654916,162.404983 195.705225,164.281843 195.583308,166.147318 C194.406369,166.06653 193.229798,165.986109 192.052859,165.90532 C192.141359,164.372546 192.229859,162.839771 192.317992,161.306997 C194.610543,161.0874 196.922558,161.073078 199.217313,161.2644 C200.519106,157.893324 201.8209,154.522248 203.122693,151.151907 C209.226984,150.811862 215.338252,150.60071 221.451723,150.518086 C222.015773,145.458168 222.211868,140.357121 222.038907,135.268926 C217.977092,135.32915 213.919683,135.679478 209.907442,136.315869 C209.896425,135.32915 209.885409,134.341697 209.874392,133.354611 C213.792625,133.363057 217.710858,133.37187 221.629458,133.379949 C221.631661,132.727767 221.633864,132.075218 221.636435,131.422669 C217.588941,131.568822 214.677624,131.734438 210.647756,132.136911 C210.803825,130.018421 210.321298,129.86272 211.039212,127.863209 L231.859093,127.863209 C231.325523,129.521206 232.102927,130.18367 231.569357,131.842033 C235.333725,131.43699 239.137018,131.394393 242.909464,131.714241 C238.211257,138.827651 228.180655,154.005938 227.699964,154.294939 C227.264075,154.5564 214.704064,155.908135 208.907503,156.034458 C208.784117,157.419978 208.485568,158.790074 208.022137,160.101415 C223.252935,159.13269 253.715634,158.994248 253.715634,158.994248 C253.715634,158.994248 245.204219,107.213351 244.388992,97.6924497 L245.980889,89.5791006" id="Stroke-15"></path>
                <path d="M9.05064034,145.695869 C13.314794,145.695869 11.6263184,143.371002 10.9388834,141.389118 C10.137243,139.079674 9.28896584,136.692012 7.59498198,134.930093 C5.96562876,133.23464 0.307876885,131.022142 0.0460493337,133.52915 C-0.507717774,138.828129 4.04139823,147.392791 9.05064034,145.695869 C11.2833353,144.939764 5.17867723,141.944354 4.53053469,135.533435 C4.36859086,133.927583 4.51731478,132.228458 5.34649657,130.843674 C6.53518631,128.858485 8.98307194,127.8725 11.2954536,127.945944 C13.6082024,128.019388 15.8005032,129.001333 17.7750428,130.206548 C19.2336389,131.097422 21.1989981,132.100666 22.4743516,130.962285 C23.5598527,129.992459 23.0876083,128.037014 21.8820265,127.220685 C20.6768118,126.404723 19.084915,126.459072 17.6586342,126.749543 C16.2374945,127.039279 14.7502552,127.617282 13.9934157,128.854445 C12.8895537,130.658595 13.7727168,132.95335 14.3459465,134.989215 C14.979033,137.236599 16.8390001,140.025999 14.9834397,141.925626 C13.0015557,144.011066 9.31136623,142.830087 6.5256386,138.697398 C8.32942111,136.773168 45.7281635,109.856708 45.7281635,109.856708 C44.7576022,109.653268 44.180333,108.399948 44.6555151,107.530005 C45.7432195,107.11468 47.1140501,107.301227 47.8602403,108.195774 C48.6060632,109.089954 48.4092336,110.687726 47.3523756,111.17723 C46.2958849,111.666733 44.8552826,110.455276 45.3289958,109.391441 C47.118824,108.227355 49.0140442,107.224845 50.9838099,106.401172 C51.3201831,107.758783 50.7609077,109.294495 49.6298714,110.117067 C47.8811718,108.507543 45.9767711,106.487101 46.3248953,104.136529 C47.6971948,104.25 49.1054819,104.592616 50.1671136,105.469903 C51.2283782,106.347191 51.8504481,107.858299 51.3734299,109.150178 C52.6065532,108.527006 53.8635458,107.886942 54.8326382,106.901692 C55.8020979,105.917177 56.449506,104.508522 56.1759274,103.153849 C55.8997783,101.787792 54.6310347,100.686868 53.2392725,100.606447 C50.801669,100.465435 48.6868516,103.517764 46.3248953,104.136529 C48.1062774,103.440281 50.0786137,101.799911 51.3444196,100.365918 C50.8093807,99.1842057 51.6987864,97.8699269 52.5852545,96.9228676 C55.8406559,93.4438295 60.2873177,90.6970271 64.0329573,87.6917022 C65.4372049,86.5650725 66.9865042,85.6624468 68.5291936,84.7341158 C75.0668036,80.8011942 78.6831819,83.9012618 79.5718533,85.7149592 C82.2569627,91.1971801 77.3916707,96.336418 77.3916707,96.336418 C77.3916707,96.336418 78.2483939,95.1264295 79.1205404,94.5807412 C79.5288886,94.324422 80.0529109,94.4176958 80.5336013,94.4536833 C83.5106503,94.6754839 86.0227994,92.4038636 88.1324758,90.2916167 C88.5371518,89.8862063 89.7805572,88.5579731 90.0115383,88.0339508 C90.9710831,85.856706 88.2033492,71.6133606 86.5060603,70.8381601 C86.2592888,70.7257909 79.1018122,74.9220089 77.7240044,76.2994495 C76.3957712,77.6280499 74.6981152,80.0774044 74.9933597,82.3883172 C76.6201424,82.1316307 79.0904284,83.4609655 79.86416,84.3437614 C80.4300454,83.1036609 80.3712903,81.4394218 80.419396,80.0770372 C80.5365391,76.7665528 83.1526113,73.7105516 86.405075,73.084075 C84.3721474,73.6525309 83.0688852,75.7563318 82.8015493,77.8502178 C82.5338463,79.9444709 83.0971611,82.046803 83.6799386,84.0756911 C84.0640502,85.4138392 84.5065498,86.8239623 85.5549617,87.7394407 C86.6033735,88.6552863 88.4607701,88.7834459 89.2491905,87.636252 C88.1570795,88.7819771 86.3338344,89.1569082 84.878176,88.5355727 C84.2296662,89.3853188 83.4107666,90.737054 82.531643,91.3451696 C82.3524398,90.4513572 82.0344277,88.8612965 82.0344277,88.8612965 C82.2815664,90.0955214 82.528338,91.3293792 82.7754768,92.5639714 C82.821012,92.7916475 82.8621406,93.045029 82.7380204,93.2414915 C82.5481678,93.5422443 80.474479,91.9356587 80.2192614,92.1827975 C78.9413373,93.4210618 75.3624154,95.8935512 75.3624154,95.8935512 C75.3624154,95.8935512 75.5096704,93.3843399 73.5913154,93.0890954 C71.9447028,92.8360811 69.7865534,93.8011341 68.8310481,95.192529 C67.0213901,97.8273294 67.41762,100.938046 69.384448,103.457907 C70.9535772,103.4087 72.1000367,102.954082 73.0291022,101.688276 C71.8789705,102.063942 70.8162371,100.623706 71.0270211,99.4328134 C71.2653466,98.0862192 72.5113226,97.099133 73.8329459,96.7473367 C75.1542019,96.3955403 76.5507379,96.5545464 77.9087158,96.7157558 C81.6554571,97.1611931 85.4018311,97.6066305 89.1482051,98.0520678 C89.5605927,98.100908 89.9821608,98.1523188 90.3545214,98.3348269 C91.292033,98.7934841 91.6761446,99.9950265 91.4833544,101.020304 C91.2901969,102.045948 90.6457265,102.92397 89.9689409,103.718266 C89.2664498,104.542306 88.2375006,105.391318 87.2192007,105.02263 C86.3591725,104.711227 86.0117828,103.680075 85.9383389,102.768269 C85.7951233,100.994598 86.9390122,98.722978 88.6792657,99.0931353 C89.8664866,99.3454151 90.4687267,100.863868 90.0324698,101.99674 C89.5965802,103.129613 88.4100938,103.834674 87.2133252,104.035543 C86.0161894,104.236413 84.7929811,104.019019 83.598783,103.801992 C80.4976138,103.239044 77.3957101,102.676097 74.2945409,102.112782 C73.8839894,102.038603 73.4547097,101.964792 73.0562765,102.088178 C72.6299346,102.219643 72.3031091,102.556016 71.9961136,102.879903 C69.7700286,105.22864 67.4407549,107.639803 64.4365316,108.842448 C61.4326755,110.044724 57.5482269,109.688521 55.5487164,107.144792 C56.5831739,105.462191 58.3961369,103.937863 58.1288011,101.981317 C57.8181333,99.7082281 55.0268974,98.8599509 52.7589493,98.5118267 C54.6336052,97.6969665 56.922852,97.923541 58.6014126,99.0901975 C60.2796061,100.256487 61.2898271,102.323199 61.1789268,104.363838 C62.9746305,105.290333 64.0336917,107.461335 63.6587605,109.446157 C63.1108689,109.703577 62.5629773,109.960631 62.0147185,110.218419 C62.8490414,111.495609 63.4777213,112.906834 63.8688101,114.381588 C64.6447451,114.180351 65.4203128,113.978748 66.1962477,113.777511 C65.5822566,112.392726 64.9686327,111.007207 64.355376,109.622422 C66.5557557,107.75254 68.7557681,105.883025 70.9561478,104.013143 C73.4829856,107.111007 75.5438218,110.588209 77.0479532,114.291986 C77.7225355,115.953654 78.2792404,117.865032 77.5297452,119.494018 C76.5397213,121.646659 73.8270703,122.261385 71.4842095,122.61208 C70.8977599,121.948514 70.2918476,121.248226 70.0847357,120.387464 C69.8779911,119.526334 70.220607,118.4636 71.0545626,118.166152 C70.2830343,118.916749 68.7836768,118.614527 68.3632104,117.623402 C67.9423768,116.632276 68.7667847,115.34407 69.842738,115.310653 C69.0928757,115.571379 68.3426461,115.832105 67.5927838,116.092463 C64.3660254,111.244064 70.693953,107.738953 72.4841484,107.553874 C73.1366976,111.100848 75.25482,116.808174 77.1551813,119.873723 C77.8925582,119.506504 78.835578,119.155442 79.4785795,119.670284 C80.4300454,120.431163 79.4503036,122.057945 78.265286,122.340337 C77.0806357,122.623096 75.8071183,122.241555 74.6301795,122.555161 C93.1483279,128.660553 70.7141501,142.537781 76.9873619,150.372777" id="Stroke-17"></path>
            </g>
            <path d="M1.5,200 L49.5,200" id="Line"></path>
            <path d="M252.5,200 L300.5,200" id="Line"></path>
        </g>
    </g>
</svg>