<?xml version="1.0" encoding="UTF-8"?>
<svg width="223px" height="148px" viewBox="0 0 223 148" version="1.1" xmlns="http://www.w3.org/2000/svg" xmlns:xlink="http://www.w3.org/1999/xlink">
    <!-- Generator: Sketch 46.1 (44463) - http://www.bohemiancoding.com/sketch -->
    <title>Group</title>
    <desc>Created with Sketch.</desc>
    <defs></defs>
    <g id="Page-1" stroke="none" stroke-width="1" fill="none" fill-rule="evenodd" stroke-linecap="round" stroke-linejoin="round">
        <g id="попап-меню" transform="translate(-707.000000, -609.000000)" stroke="#E01976" stroke-width="2">
            <g id="Group" transform="translate(708.000000, 610.000000)">
                <path d="M0,145.121128 L54.4730432,145.121127 C54.4730432,145.121127 58.245416,144.977762 58.7422513,143.224353 C59.0290542,142.212214 58.63977,141.100853 57.966942,140.292591 C57.2455894,139.426026 56.6285287,139.281176 55.6058881,139.011393 C54.7074564,138.774201 53.6725037,138.558737 52.9116794,139.092871 C50.2352148,140.973023 53.1112102,143.462269 55.3205338,143.410485 C60.3218398,143.293157 64.644886,138.655424 68.5580069,136.036175 C66.5181577,134.356278 61.2861782,132.234951 61.123222,132.262473 C60.899791,132.300134 57.3969575,135.741044 55.8148342,137.298905 C56.3228953,135.197132 57.4813326,133.257954 59.0913396,131.814886 C58.204858,131.342313 57.3187386,130.869741 56.432257,130.397168 C60.6636856,124.91677 72.8165949,107.97476 72.8165949,107.97476 L87.1064028,114.067873 C87.1064028,114.067873 77.9685448,128.546348 74.0843939,136.170162 C74.7463581,134.871582 68.6666444,132.383784 67.9405841,132.144058 C67.815651,132.102776 105.541816,73.6829875 108.966068,69.8517068 C109.362595,69.4077418 109.786643,68.9605176 109.98219,68.3981377 C110.339245,67.371876 109.816337,66.1985915 108.982002,65.5029497 C107.727963,64.4578575 104.60862,63.2635698 102.967832,63.3479449 C100.456135,63.4768613 100.597001,65.173054 99.3798996,67.3769457 C97.3766251,71.0054365 63.1518453,129.094605 63.1518453,129.094605 C63.1518453,129.094605 65.190246,130.256663 66.1314084,130.955202 C69.9098189,124.971451 87.3171594,96.5019215 87.3171594,96.5019215 C87.3171594,96.5019215 78.8561128,95.4293077 75.3724719,93.506787 C70.478717,90.8067843 68.8857299,84.2389263 70.2411631,79.1163084 C72.81406,69.3965159 86.1847951,63.5554424 95.3910946,63.4989509 C95.8879299,65.4091594 96.1787161,67.3729623 96.2576593,69.3454563 C96.9699589,67.2335443 97.6822584,65.1212702 98.3941958,63.0093582 C101.3705,54.1840139 67.2040222,15.8907618 62.2266164,11.8961628 C63.0729021,12.5751468 70.3034486,10.1521696 71.5994933,9.89216396 C82.4958295,7.70529212 93.3744215,5.54304476 104.283794,3.4025249 C106.060016,3.05416081 107.851086,2.7039861 109.661348,2.71629834 C111.517238,2.72824846 113.347054,3.12042965 115.161662,3.51080022 C120.689497,4.70038028 126.221316,5.69368869 131.739374,6.78947842 C137.915413,8.01563309 144.110283,9.24685751 150.085705,11.229491 C143.344027,18.7051959 136.335825,25.94045 129.078843,32.917147 C128.499444,35.4523829 129.514842,38.9103129 128.90611,41.4386685 C128.590337,42.7488361 117.004515,58.8159526 111.614287,65.4366809 C112.271544,60.2181 109.146406,27.6080349 108.08357,21.5558426 C106.728861,13.8400488 109.10947,7.25770583 111.583868,0 C118.328081,1.34131037 133.806021,4.41502592 134.794259,4.25569099 C135.448257,4.14995054 141.875248,2.84992241 144.400707,2.73838796 C145.830738,2.67501611 150.40872,4.50048738 151.142385,5.30078325 C152.558655,6.84488352 153.806899,8.60191319 154.402595,10.6106196 C154.998652,12.619326 154.871184,14.913749 153.708039,16.6562936 C152.545256,18.3992004 150.23997,19.4193061 148.249732,18.7642223 C146.560781,22.3901782 145.129302,26.1356353 143.97014,29.9636569 C142.175088,28.9627438 140.152258,28.2663778 138.254362,27.4783942 C139.23898,25.5410263 140.223597,23.6032964 141.208214,21.6655664 C145.399085,22.8996878 149.666364,23.8741657 153.977822,24.5821198 C153.504525,27.1561031 151.976358,35.3589547 150.996811,36.5148572 C150.016901,37.6707596 148.129144,38.2048937 146.966723,37.2329507 C145.882884,36.3265522 145.929598,34.6412233 146.328659,33.2861522 C146.580698,32.4318997 146.960929,31.5722154 147.657658,31.0181644 C148.354748,30.4644755 149.436053,30.3152801 150.122279,30.8823676 C147.862982,36.4927675 148.90554,56.1373153 148.243576,59.8139687 C151.0189,58.8123314 154.462707,58.2825428 157.385779,57.8798599 C157.692137,52.8952117 159.426352,48.0065265 162.329145,43.9431238 C164.152444,43.998891 165.97538,44.0542961 167.798678,44.1100633 C168.131833,43.3829167 166.988967,42.9208454 166.189034,42.9324334 C153.922417,43.1102367 141.655439,43.28804 129.388822,43.4654811 C128.980345,44.0680568 128.572231,44.6709947 128.164116,45.2739325 C134.352467,45.0859897 140.540818,44.8984091 146.72917,44.7104663" id="Stroke-1"></path>
                <path d="M141.038052,114.248283 C143.24303,113.684093 145.399121,112.927976 147.473372,111.990797 C148.171549,111.675024 148.881314,111.323763 149.382856,110.744363 C149.854705,110.199003 150.100588,109.500465 150.346471,108.822567 C151.901073,104.53682 153.854736,100.395922 156.171249,96.4694027 C156.786137,95.4268453 158.400127,95.994657 158.217254,97.1907553 C158.214719,97.2113964 158.211098,97.2309512 158.207476,97.2501438 C157.982235,98.4781091 157.542977,99.4920586 157.704485,100.772532 C159.309784,101.122707 160.509142,102.104065 161.380776,103.538079 C161.52454,103.774547 161.697273,103.995805 161.922153,104.156226 C164.097437,105.706483 165.136373,101.758236 164.780404,100.404975 C164.378808,98.8764464 162.465702,98.1514725 160.995113,98.3173257 C162.056139,91.5024985 160.811516,84.5721535 160.35198,77.6903333 C160.12529,74.2950509 160.090888,70.8899911 160.06228,67.4871041 C159.996735,59.5768493 160.184316,50.991956 165.08821,44.7854985 C165.529278,44.8608205 165.210971,45.4282701 165.051636,45.8461622 C164.304934,47.8117757 163.557871,49.7773893 162.810445,51.7430029 L165.673766,51.940723 C165.482926,60.3887332 165.375375,68.8389161 165.352199,77.2887368 L156.045229,77.4556764 C156.604712,81.0309348 157.01174,84.6297314 157.265952,88.2393917 C157.298905,88.7094297 157.328962,89.1863481 157.235533,89.6476951 C157.11567,90.2404935 156.800621,90.772817 156.484124,91.2877585 C154.481212,94.543985 152.169045,97.7027998 151.129022,101.381264 C150.456919,103.758613 150.188222,106.542629 148.211745,108.024806 C147.173895,108.803374 145.84888,109.055413 144.595566,109.390379 C142.754524,109.882506 140.973232,110.598065 139.303112,111.516051 C139.98101,112.178378 140.45829,113.498685 141.038052,114.248283 Z" id="Stroke-3"></path>
                <path d="M80.7806976,124.37065 C81.5451431,126.839255 87.0675468,127.592112 90.1130166,126.430054 C93.1581243,125.267995 95.1603125,120.881577 95.4145241,117.632231 C95.3573084,118.36481 116.798357,123.068449 119.209022,123.33099 C124.561952,123.817685 129.960871,124.850465 135.321042,125.032976 C133.86349,123.498653 131.097581,122.998197 132.829261,120.330423 C133.873992,118.720054 136.535971,118.298903 137.97759,119.573582 C139.67668,121.074952 139.490186,123.737294 139.097642,125.970517 C138.721032,128.114296 137.973607,130.61332 135.901166,131.277819 C133.719002,131.97672 131.426752,129.962219 130.949471,127.721753 C130.471829,125.480925 131.262347,123.18614 132.04164,121.031497 C130.31865,121.211111 128.515268,121.38131 126.906348,120.739262 C125.297065,120.097577 123.980741,118.362999 124.424706,116.688172 C124.661174,115.797707 125.329294,115.096995 125.97279,114.437566 C127.467279,112.907226 128.992187,111.353349 130.870528,110.329984 C132.749232,109.306257 135.069004,108.874242 137.042584,109.699887 C138.972347,110.507425 140.263684,112.362229 141.125903,114.268092 C144.486784,121.69491 142.34047,131.228932 136.1217,136.499297 C133.319216,138.874474 129.127621,140.374757 126.012262,138.427612 C125.046112,137.823587 124.282753,136.941813 123.640706,136.000289 C120.378323,131.215534 119.586356,124.459008 122.598149,119.512383 C113.513523,116.841351 104.24349,114.801139 94.8771309,113.412028 C94.7022246,109.801644 94.7775465,106.179309 95.1027346,102.579064 C96.9984581,101.754144 102.144976,99.5183851 102.872847,99.4883287 C103.793006,99.4503056 104.669348,99.8381413 105.520704,100.18904 C113.592828,103.518416 122.48589,104.134028 131.198975,104.709082 C129.641477,106.828961 127.583521,108.467214 126.493888,108.673987 C123.909765,109.163942 104.417309,104.936859 98.3600475,103.734967 C101.818702,101.854814 104.706285,99.8377792 108.427842,98.5540467 C108.269231,94.4276342 109.22343,90.7111471 109.832162,86.6267412 C107.756825,86.2932242 105.643102,86.1987096 103.546037,86.3457323 C110.891015,85.8304287 118.1929,87.3719941 125.473782,87.2249714 C128.701401,78.0603162 131.929019,68.8960232 135.157,59.731368 C135.640074,58.3589149 136.177468,56.9100534 137.324679,56.0156051 C138.471891,55.1211568 140.429899,55.1121037 141.157046,56.3722981 C137.091833,65.4105717 120.597409,105.892868 119.540729,110.226054 C119.540729,110.226054 121.700803,110.570073 122.926958,110.998104 C122.05134,112.700091 121.17536,114.402802 120.29938,116.104789 C117.733364,115.689431 111.783291,114.701555 111.587381,114.365503 C111.382781,114.013518 112.685344,110.415808 113.208252,109.17046 L117.424109,109.893261 C119.119578,105.276532 123.279305,93.4948007 124.64343,91.2702679 C124.64343,91.2702679 121.802198,90.4764902 119.53928,90.4630916 C119.106179,92.2215698 118.169,96.3208229 117.355305,99.1258418 C116.77156,99.6215907 115.07066,99.0508819 115.07066,99.0508819 C114.713967,98.3729843 116.110682,92.0966367 117.057277,90.4214473 C115.815551,90.0488208 114.387692,89.9865353 113.304215,90.1169003 C113.068834,91.8076611 112.589018,98.4598942 112.276867,98.740541 C111.839782,99.1334464 110.778032,98.6322656 110.165679,98.5540467 C110.39925,95.3496041 110.69583,91.1435242 112.151934,88.2791168 C117.755091,88.2287814 138.855019,90.9758604 143.837494,91.6247881 C144.514668,91.7131465 145.216103,91.8098339 145.791882,92.1770284 C146.572623,92.6742258 146.981824,93.5733818 147.350829,94.4222024 C148.293078,96.5931407 149.241483,99.0773171 148.294889,101.246807 C147.773067,102.443992 146.742097,103.339164 145.677813,104.095281 C144.734115,104.765212 143.628186,105.385169 142.483872,105.212074 C141.120834,102.510623 141.260252,99.3011102 141.782798,96.321185 C141.921492,95.5306665 142.092415,94.725663 142.516463,94.0445062 C142.940873,93.3637115 143.671641,92.8216106 144.473747,92.8324744 C145.276216,92.8433381 146.0642,93.5559998 145.974031,94.3533987 C144.440794,94.470365 142.894159,94.4117008 141.373959,94.1788545 C140.930718,94.110775 140.429175,94.0419713 140.075017,94.3182725 C139.880918,94.4696407 139.76866,94.7017627 139.678853,94.9313499 C139.151961,96.274833 139.075191,103.423539 139.612946,105.628155 C138.753262,105.102712 134.569633,104.610947 134.02717,104.31835 C133.397435,103.978314 135.728071,96.1194814 137.420642,93.2148782 C135.037861,93.1181909 132.726418,93.06351 130.343275,92.9668227 C130.010482,93.6327702 129.562895,94.6090588 129.230103,95.2753685 C131.295301,95.4495505 132.45917,95.5476863 134.524368,95.7218684 C134.293694,96.6032802 133.616159,97.7551993 133.447409,98.4921233 C131.341653,98.6431294 130.065525,98.0007199 127.990549,97.6089009 C127.990549,97.6089009 127.345967,99.0244468 127.301064,99.6715639 C128.975529,100.011599 131.226135,100.126031 132.929932,100.254585 C132.934278,101.167864 132.206045,102.589928 131.895342,103.396742 C131.895342,103.396742 124.978395,102.628313 124.3827,102.606948 C125.481024,100.342943 141.924751,66.1304758 142.300274,64.0949722 C146.750788,63.105285 151.255621,62.3622049 155.787976,61.8700772 L155.344373,84.0494988 C155.337854,84.3790324 155.304177,84.7610741 155.031135,84.9450335 C154.87361,85.051136 154.672993,85.062724 154.48324,85.0696044 C151.256346,85.187295 147.859977,84.9613291 145.111449,83.2662228 C142.357852,81.5674952 140.635586,78.6339219 139.186363,75.7412688 C138.529106,76.2554861 137.997869,76.9634401 137.785664,77.7706164 C135.930861,84.833499 143.765069,86.9993676 144.964064,87.23837 C149.988909,88.2396452 155.124563,88.6843345 160.246819,88.5615741 C161.132938,88.5405709 162.086775,88.4775612 162.77445,87.9188026 C163.462125,87.3596818 163.636669,86.1175937 162.885622,85.6468314 C162.630324,85.4871343 162.321432,85.4440415 162.022317,85.4125366 C160.935942,85.2988294 159.83798,85.2930354 158.750519,85.396241 C158.634277,84.064708 158.603858,82.7255704 158.66035,81.390054 C162.053822,80.2182181 166.095497,81.2314433 168.534407,83.8655394 C173.471255,89.196379 170.623506,96.4102677 164.112139,98.2245131 C166.55105,98.4783626 168.397524,100.539577 169.227152,102.734054 C170.019119,104.828584 169.919535,107.161754 169.491503,109.359489 C169.192388,110.894174 168.728144,112.422341 167.869546,113.72925 C166.806348,115.34831 165.116311,116.576999 163.214432,116.944918 C161.312552,117.312837 159.22454,116.767839 157.841223,115.412044 C156.122217,113.727439 155.685494,111.137522 155.637332,108.731203 C155.580478,105.867882 156.086729,102.716309 158.252597,100.842313 C159.348749,101.539042 160.267098,101.985179 161.199207,102.889767 C161.595009,103.27362 161.991536,103.707445 162.092207,104.249546 C162.184911,104.746743 162.012539,105.249735 161.876743,105.736793 C161.376286,107.529311 161.445814,109.691558 162.811387,110.958271 C163.424464,111.526807 163.968738,111.12521 164.518805,110.495837 C166.490575,108.240886 167.773221,102.305298 163.518616,101.364135 C162.68066,101.17909 161.503754,101.126219 161.391495,100.275226 C161.355283,99.9992869 161.466817,99.7280554 161.572196,99.4702225 C162.821526,96.4030252 163.426637,93.075098 163.337192,89.7645528 C169.701536,90.4645401 174.741227,85.7322928 175.061708,79.4233541 C175.130149,78.0860271 174.93605,76.6748266 174.149515,75.590987 C173.273897,74.3843871 171.805481,73.7647915 170.368932,73.3650057 C168.895446,72.9550804 167.37416,72.7157159 165.845631,72.6537925" id="Stroke-5"></path>
                <path d="M135.321151,125.032831 C139.303076,128.446582 137.513455,135.174499 130.29341,135.15929 C127.710736,135.153858 126.033736,132.275328 124.225646,130.431388 C122.990076,133.873385 123.374291,139.105364 126.501963,141.000002 C129.629997,142.895001 135.834522,145.110543 139.671579,145.121127 C139.671862,145.121128 166.780216,145.121128 220.996641,145.121127" id="Stroke-7"></path>
            </g>
        </g>
    </g>
</svg>