<?xml version="1.0" encoding="UTF-8"?>
<svg width="300px" height="200px" viewBox="0 0 300 200" version="1.1" xmlns="http://www.w3.org/2000/svg" xmlns:xlink="http://www.w3.org/1999/xlink">
    <!-- Generator: Sketch 46.1 (44463) - http://www.bohemiancoding.com/sketch -->
    <title>icon-snekpair-noact</title>
    <desc>Created with Sketch.</desc>
    <defs></defs>
    <g id="Symbols" stroke="none" stroke-width="1" fill="none" fill-rule="evenodd" stroke-linecap="round">
        <g id="category/icon-snekpair-noact" stroke="#C1C1C1" stroke-width="2">
            <path d="M0,200 L93.7587009,200 C109.604836,200 127.470261,199.760507 142.159776,193.013863 C153.30393,187.895399 166.196938,172.50164 161.834702,159.452063 C161.088995,157.219272 159.819126,155.20122 158.474995,153.269187 C157.984251,152.563704 157.462565,151.847701 156.734185,151.39285 C155.195119,150.433022 153.090428,150.913245 151.676368,152.048825 C150.262308,153.185024 149.385405,154.84229 148.559867,156.457474 C142.749535,167.824412 139.426958,183.818451 123.788755,183.679211 C122.672978,183.669928 121.516976,183.538733 120.554673,182.974347 C118.373245,181.695195 117.938816,178.56446 118.893075,176.223371 C119.847333,173.882282 121.81464,172.134046 123.669936,170.416752 C128.767359,165.700537 133.53432,160.517714 136.928063,154.457987 C140.32057,148.39888 142.277356,141.37685 141.493899,134.476732 C141.287824,132.662899 140.862059,130.79832 139.719671,129.374977 C138.577284,127.951635 136.555519,127.10258 134.865454,127.789498 C133.806611,128.220213 133.047289,129.152193 132.352945,130.058801 C125.059243,139.586532 123.981834,152.363817 111.994814,158.113502 C109.909308,159.113555 107.522424,159.702695 105.273543,159.161825 C103.025899,158.621574 101.006609,156.731622 100.852517,154.423951 C100.750407,152.893548 101.436706,151.429362 102.165705,150.079662 C108.661098,138.051179 119.518108,129.991966 125.335866,117.223963 C127.024074,113.520178 127.368771,110.167897 126.911444,106.178206 C126.808716,105.280881 126.580363,104.289492 125.822897,103.79813 C124.325293,102.825925 122.576438,104.586538 121.653741,106.116322 C115.576687,116.185542 110.241008,127.779596 99.9818023,134.003935 C98.3554787,134.990992 96.6282833,135.898837 94.745758,136.168035 C92.8632327,136.437232 90.7820583,135.96691 89.5109515,134.55285 C87.5424067,132.365235 88.1810544,128.839058 89.7151702,126.326549 C92.5463843,121.68769 96.2557389,118.014228 100.043687,114.200908 C105.618239,108.590462 109.469928,101.758418 113.022715,94.7314372 C113.861868,93.0704582 114.663272,91.346976 114.881105,89.499106 C115.09832,87.6518548 114.645325,85.6350402 113.289437,84.3608392 C107.523043,78.940998 99.9985111,98.4370787 97.9631312,101.695296 C95.1381055,106.217812 91.6670061,110.480414 87.1036459,113.239842 C85.6660699,114.109319 84.0935857,114.83151 82.419611,114.975082 C80.7456364,115.119892 78.950987,114.611202 77.8420174,113.348758 C75.8945134,111.132676 76.700868,107.662195 78.0307651,105.028393 C81.6924686,97.7792469 87.7757112,90.9874273 93.0792095,84.8781932 C97.2174234,80.111852 100.282561,74.4203381 101.985002,68.3420464 C102.493693,66.5257374 102.44666,63.9204016 100.606835,63.5026815 C99.4044203,63.229771 98.2954507,64.189599 97.4884774,65.1221978 C93.5000238,69.7350656 90.974519,75.344892 86.8653907,79.8686461 C82.196827,85.0075318 76.6074224,89.2224824 70.2914943,92.1310521 C69.0686574,92.6948196 67.5834303,93.1967025 66.4379489,92.4887443 C65.800539,92.095778 65.4137611,91.3964836 65.179219,90.6854311 C62.718074,83.2203085 70.886204,79.0226855 75.541772,75.1901808 C81.5773635,70.2214774 87.7918011,65.2020288 90.7152231,57.6904929 C93.0297019,51.7433962 92.9158345,44.5449956 89.1080836,39.4228188 C85.7100078,48.482085 79.050621,56.1229595 70.8818721,61.226571 C64.0912902,65.4687508 50.5676788,72.1479407 42.5728253,69.2536045 C38.9395886,67.9385597 48.6894854,55.9131712 49.8931382,54.8778441 C58.2147417,47.717812 84.558338,27.1022414 92.3607309,44.9274416 C94.4963637,49.8057937 95.024857,55.5418644 98.5330871,59.5482644 C103.13791,64.8084436 112.553012,67.021432 112.65574,74.0119007 C112.695346,76.6698383 111.17732,79.3816154 112.090116,81.8780346 C112.675543,83.4820798 114.129828,84.5693898 115.376181,85.7359119 C118.677098,88.8251842 120.877709,93.0661263 121.505218,97.5428482 C121.64322,98.5261923 121.724908,99.5701832 122.295483,100.383345 C122.935368,101.295522 124.046813,101.720049 125.048103,102.210174 C131.54164,105.39413 135.005932,113.694693 132.702592,120.550253 C141.460481,123.665517 147.5889,132.976034 146.988001,142.252515 C158.541211,145.588087 163.136133,161.067248 158.170524,172.01956 C153.204914,182.971253 141.637471,189.548952 130.008762,192.610376 C125.801237,193.717489 119.772453,193.377744 118.999516,189.096577 C118.703708,187.45602 119.381343,185.647137 118.636254,184.155721 C118.016172,182.914319 116.618202,182.317134 115.402791,181.648163 C109.09924,178.180158 105.801417,170.041113 107.912915,163.163893 C102.576618,162.259142 98.1815833,157.387598 97.8276042,151.986322 C97.7013599,150.058002 98.0336795,148.091314 97.6153405,146.203838 C96.1666253,139.665126 86.6778808,137.020803 86.0212867,130.355227 C85.8653378,128.774698 86.2521157,127.097629 85.6215131,125.64025 C84.3708281,122.75334 80.2635564,122.690837 77.816026,120.714866 C71.9685632,115.994319 78.3890761,103.909522 71.9543298,100.027509 C69.1280665,98.3225925 64.6080254,99.0237434 63.2391411,96.0204905 C62.4525896,94.2963894 63.2824602,92.3043286 63.3090706,90.4094264 C63.4111799,83.1250065 52.861117,80.8266176 49.5484418,74.3380318 C46.6553432,68.6743659 50.1938967,61.8689317 54.310451,57.020903 C61.8690191,48.1206798 72.9500508,40.9303242 84.5403915,42.3518103 C94.4326227,43.5653646 127.295128,50.7223025 133.681605,58.3743162 C137.504827,62.9556228 141.045237,68.0041572 142.422166,73.8107762 C142.68765,74.9333603 142.958704,76.2087991 143.942048,76.8134103 C144.915491,77.4130707 146.172983,77.0906526 147.25101,76.7113009 C154.050875,74.3188476 160.265931,70.2833619 165.217307,65.0448423 C166.014998,64.2007382 166.825684,63.209968 166.81207,62.0490155 C166.800931,61.1863461 166.331846,60.4053642 165.876995,59.6726522 C162.447978,54.1457509 159.019578,48.6188497 155.59056,43.0925673 C154.5837,41.4693379 153.54466,39.8102155 152.038392,38.6350296 C148.661976,36.0012269 143.643146,36.474643 139.937505,38.6201773 C136.231244,40.7663304 133.53927,44.2640402 130.947549,47.6726363 C129.953066,48.9790173 128.937542,50.7959451 129.895513,52.1289364 C130.602853,53.114137 132.021244,53.2162463 133.226135,53.0776251 C139.212219,52.3907076 144.546041,47.7462788 146.049214,41.911193 C144.718079,39.9624513 141.287205,41.3703228 140.708585,43.6581913 C140.130584,45.9466787 141.339188,48.267346 142.506329,50.3188159 C145.51577,55.6086996 148.525211,60.8985834 151.534653,66.1884671 C152.618869,68.0945085 153.789104,70.0890447 155.689575,71.1825431 C160.284497,73.8281038 165.77798,69.9163871 169.613579,66.25654 C172.523387,67.2992932 174.190554,70.581645 174.129288,73.672155 C174.068023,76.762665 172.600123,79.6576201 170.838892,82.1979772 C166.014998,89.1550284 158.67055,94.3242374 150.493137,96.5186604 C151.194288,99.9495349 156.847434,98.9080195 159.113024,100.535581 C162.856415,103.223842 162.095855,108.19007 161.172539,112.005866 C171.180494,115.197866 182.028221,107.655388 184.717101,98.09362 C185.793272,94.2691602 185.694257,89.9186826 183.50169,86.6060074 C181.309124,83.2933322 176.685736,81.4794986 173.130473,83.2518696 C170.811044,88.6246785 168.577633,93.613185 165.711764,98.7533083 C163.337876,103.009103 160.88787,107.597217 161.30064,112.45329 C161.759203,117.837238 169.997263,113.640853 172.33959,118.795829 C174.157136,122.79604 168.652514,128.48446 172.220772,131.87511 C173.264762,132.867118 174.831677,133.067623 176.268634,132.981604 C182.356209,132.618342 187.423927,128.166374 191.141946,123.332579 C194.325282,119.194365 197.004261,114.200289 196.45287,109.00942 C195.902098,103.817933 190.879556,98.9185398 185.820501,100.20388 C186.02472,109.492119 182.289992,118.803255 175.724051,125.376622 C173.807489,127.296278 171.489916,130.105214 173.058068,132.318821 C174.866332,134.873412 179.187105,132.766865 181.912497,134.305931 C187.162775,137.270197 180.382094,148.140203 185.877435,150.618056 C187.174533,151.202246 188.682657,150.939237 190.060205,150.588352 C197.707887,148.641467 205.232419,143.58365 207.213959,135.945251 C209.196118,128.306852 202.907419,118.873803 195.096982,120.004432 C195.967077,128.455993 192.638312,137.238636 186.384887,142.989559 C184.853247,144.398049 182.977529,146.152474 183.527063,148.159387 C184.570435,151.970851 191.408668,149.419973 193.858674,152.521004 C196.563024,155.945071 190.645632,160.898303 192.314656,164.928838 C193.489842,167.76686 197.456017,167.930853 200.435754,167.183908 C207.628585,165.381214 214.467437,160.499767 216.664335,153.417709 C218.860615,146.334414 214.875255,137.372925 207.618065,135.847473 C208.827906,142.060054 207.317306,148.753478 203.55535,153.843475 C200.233392,158.338762 195.089555,161.99799 194.280726,167.528604 C197.191152,167.697549 200.102197,167.866493 203.012623,168.035438 C205.44592,170.159313 202.413581,173.976965 202.447618,177.206715 C202.496507,181.921073 209.139185,183.582671 213.509465,181.813395 C218.775214,179.681475 222.749434,174.639129 223.590444,169.021258 C224.432073,163.403386 222.109549,157.417302 217.700281,153.836667 C214.483527,163.087775 211.266772,172.338884 208.049399,181.59061 C209.756173,182.523209 211.660358,183.093165 213.598579,183.252208 C209.982051,187.927579 215.224903,195.462012 221.133012,195.260269 C227.041122,195.058526 231.626141,189.531625 232.948612,183.770181 C234.378762,177.540891 231.495565,169.450736 225.149932,168.685225 C225.843657,173.931171 224.139359,179.445695 220.608851,183.386498 C218.566664,185.665083 215.71379,188.251235 216.678569,191.154854 C217.674908,194.15625 222.003726,194.406882 224.812662,192.953835 C227.622217,191.500788 229.877286,188.975283 232.913338,188.090335 C235.149843,187.438692 238.56834,200 254.24615,200 L300,200" id="Stroke-1" stroke-linejoin="round"></path>
            <path d="M0.5,200 L48.5,200" id="Line"></path>
            <path d="M251.5,200 L299.5,200" id="Line"></path>
        </g>
    </g>
</svg>