<?xml version="1.0" encoding="UTF-8"?>
<svg width="300px" height="200px" viewBox="0 0 300 200" version="1.1" xmlns="http://www.w3.org/2000/svg" xmlns:xlink="http://www.w3.org/1999/xlink">
    <!-- Generator: Sketch 46.1 (44463) - http://www.bohemiancoding.com/sketch -->
    <title>icon-spaklevochnie-noact</title>
    <desc>Created with Sketch.</desc>
    <defs></defs>
    <g id="Symbols" stroke="none" stroke-width="1" fill="none" fill-rule="evenodd" stroke-linecap="round">
        <g id="category/icon-spaklevochnie-noact" stroke="#C1C1C1" stroke-width="2">
            <g id="Page-1" transform="translate(0.000000, 14.500977)" stroke-linejoin="round">
                <path d="M0.749023438,185.389583 L82.4890205,185.389583 C82.0180708,184.950141 83.2817858,180.431069 83.4549907,179.830318 C84.094959,177.614042 85.8039832,173.772953 85.2357039,171.539569 C83.2634711,170.352732 77.9098194,174.472444 81.3932775,176.9561 C83.2582384,178.28567 85.8029367,178.108231 88.0943687,177.638483 L113.177674,172.492753 C113.09081,168.795375 110.802518,165.615161 106.864855,165.999367 C102.927192,166.384063 96.3993054,166.976993 92.5333315,168.892649 C96.3993054,169.909868 99.8299125,171.345999 99.8660186,174.747645 C100.992635,171.206687 100.35476,167.212111 98.1705996,164.134059 C100.998914,160.796936 103.827752,157.460301 106.65659,154.124156 C107.655527,152.946118 108.7497,151.705511 110.288659,151.267535 C111.680577,150.872086 113.183953,151.211322 114.55965,151.653697 C120.833223,153.671027 126.263274,157.891923 129.528525,163.287436 C125.917911,166.066335 122.308343,168.844745 118.697728,171.623156 C118.017467,167.428166 114.356095,163.798245 109.913993,162.914472 C111.629819,163.256152 118.4633,147.662543 119.556426,145.974673 C125.784998,136.359242 150.725972,97.2659708 157.011581,87.250202 C159.634771,83.0708548 162.922,78.7033148 168.41903,81.9529406 C168.79108,82.1729062 169.165223,82.4456636 169.298136,82.8372024 C169.518436,83.4834126 153.541205,108.170401 146.528764,120.168793 C139.480216,132.229754 129.998952,142.820366 121.378479,153.907123 C122.432883,157.412886 125.187939,160.438147 128.722155,161.973019 C134.639899,153.099605 140.557644,144.226191 146.475389,135.352777 C147.188093,134.284233 147.918588,133.167296 148.06092,131.915447 C148.507799,127.969752 143.417879,125.754454 139.304395,124.763142 C134.638853,123.638385 129.973311,122.513627 125.307769,121.388869 C116.378562,134.444563 106.523678,150.674606 98.1433892,164.044117" id="Stroke-1"></path>
                <path d="M129.848195,122.595307 C133.377179,117.118163 152.308311,88.4458863 153.866108,85.3971625 C150.742665,76.5447676 121.520758,19.8635327 116.517702,8.150118 C136.320614,5.99592117 155.992707,3.55967951 175.565378,0.0177438949 C187.297259,4.26894649 199.471832,10.1337193 209.140953,17.6555665 C209.503585,19.8273606 187.402437,59.6025252 176.998635,77.0589984 C175.937428,72.799486 175.588402,9.2538567 176.285931,4.36573137 C174.827033,5.14783143 158.494497,9.2538567 157.833074,9.60580172 C158.494497,10.5570309 169.698914,54.8605548 167.983611,56.9653816 C167.401726,57.6795367 159.391395,61.5778166 155.703858,63.3487844 C155.521758,59.8449762 153.708601,56.8534435 152.498784,53.5319624 C146.53656,54.6039282 140.735506,56.7371061 134.77276,57.809072 C136.299683,61.4272624 137.664914,63.9847296 139.191315,67.6029199 C144.085005,66.2655288 151.856722,64.0345884 156.750413,62.6971973 C158.984285,59.2940845 155.253316,51.2917345 152.91322,51.2917345 C152.215167,51.2917345 139.13637,54.4861244 135.121786,55.8538219 C140.005534,48.6844085 143.145199,43.7962831 143.716618,43.2810747 C148.72857,42.5825616 154.056581,41.9187542 158.696482,43.8221902 C163.55616,45.8150789 166.786875,50.3835208 168.111814,55.1846375 C169.436752,59.9857542 169.106041,65.0410534 168.533052,69.970239 C165.759681,69.3665555 162.985788,68.7633609 160.212417,68.1601662 C160.447892,71.8370141 172.697294,77.1709364 176.634957,77.3615733 C186.853519,77.8557628 188.329685,67.6987272 193.600136,59.5062291 C198.87111,51.3132423 201.200741,41.81757 204.684722,32.8302628 C206.830683,33.369423 208.976644,33.9080944 211.122082,34.4467658 C208.365979,37.9627944 206.211646,41.8904031 204.765307,46.0335781 C203.316352,45.1141217 202.889357,43.050844 203.865793,41.692434 C201.826581,44.3618392 199.052687,52.2713148 202.101301,53.8985718 C206.98505,56.505409 211.036788,54.4616838 214.07075,56.1128925 C217.10419,57.7636124 220.109372,59.9745115 221.078482,63.1268636 C222.047069,66.2792156 219.899015,70.358845 216.389393,70.4350997 C211.960896,70.530907 212.364342,75.0978825 214.601354,78.6691468" id="Stroke-3"></path>
                <path d="M204.891469,26.9751685 C213.114775,26.8974473 221.338603,26.8202149 229.561909,26.7424937 C220.87184,35.2448989 211.063527,42.1508424 211.520348,53.898474 C211.676285,57.9130913 213.531827,64.8752482 212.937384,68.8541822 C212.493644,71.8222519 192.987953,107.468906 183.077601,121.689929 C182.635955,122.323919 182.148784,122.989681 181.403114,123.284924 C180.679421,123.57088 179.855259,123.452098 179.081331,123.32794 C168.681715,121.662555 158.282622,119.99766 147.883006,118.332276" id="Stroke-5"></path>
                <path d="M189.193669,68.5628989 C191.286778,68.8889368 196.519553,69.214486 198.961689,69.214486 C195.182579,77.0775244 184.803371,95.1259495 183.944149,95.557571 C183.210514,95.9256468 166.110853,94.9641526 165.471931,95.2848136 C164.845568,95.59912 154.049307,114.155421 148.727052,122.658315 C167.284564,124.596457 182.664212,125.919184 201.222248,127.857326 C196.053313,135.125968 195.837723,144.414384 195.79586,153.139687 C195.785395,155.371605 196.286695,158.238002 198.623652,158.69993 C199.92138,158.956556 201.216492,158.273685 202.240022,157.486208 C208.678952,152.531605 209.263976,143.564339 208.274458,135.825947 C207.883047,132.767936 205.818717,128.777271 202.682192,129.727522 C201.065264,130.217801 200.256277,131.876342 199.728814,133.386284 C198.659235,136.45065 197.970601,139.630375 197.682276,142.841874 C200.672806,141.865226 203.809855,141.282073 206.97202,141.113921 C204.554479,143.883533 201.599007,146.241565 198.293464,148.039417 C201.014507,147.500257 203.735026,146.961097 206.455546,146.421448 C202.742892,150.076788 199.369845,154.033237 196.387164,158.231647 C178.65643,159.061651 164.67498,157.920763 146.982445,156.549155 C145.411566,149.600196 143.206475,140.898844 148.378026,135.69299 C152.474765,131.569368 156.437546,132.320673 162.370466,133.287055 C157.263277,139.684634 155.908512,148.538495 158.89067,156.016838 C166.685412,156.766188 174.5644,156.751523 182.356525,155.972356 C182.1514,155.002552 181.945752,154.032748 181.741151,153.062455 C175.509439,153.103515 169.472387,153.205677 163.378821,151.987067 C163.367832,149.634413 163.389287,148.147445 163.378821,145.795279 C169.215981,147.547183 175.185007,146.673675 181.299505,146.247919 C181.925868,144.5928 182.083898,142.78566 181.752663,141.057708 C178.557531,139.466623 164.773879,139.929529 164.773879,140.255567 C164.773879,140.716028 164.773879,136.019028 164.662421,134.669906 C175.62927,134.504687 186.597166,134.415723 197.565585,134.40057" id="Stroke-7"></path>
                <path d="M208.48492,155.283717 C208.42893,157.72338 208.449337,160.377632 210.056323,162.301598 C212.986676,165.811761 219.499388,164.397627 222.240838,160.756951 C224.982289,157.116764 225.042989,152.33911 225.000604,147.887983 C224.967114,144.439411 223.828985,139.860215 220.138833,139.770274 C217.193304,139.698418 215.402648,142.770116 214.70355,145.444409 C213.818164,148.829925 213.543444,152.354263 213.893516,155.823855 C214.20225,158.876978 216.367572,162.726376 219.520842,161.873399 C221.326673,158.226368 222.07025,154.125231 221.651105,150.125278 C221.555345,151.775998 219.864635,153.197465 218.097527,153.114367 C216.41833,152.384081 216.307918,149.755736 217.92066,148.905202 C219.533401,148.054668 221.885533,149.500087 221.687211,151.220218 C218.778835,151.578518 215.263457,151.711964 213.530885,149.500576 C212.615149,148.332314 212.47962,146.800864 212.385954,145.354957 C210.957406,123.223969 211.868956,100.96198 215.103857,78.9976778 C218.76052,78.9385314 222.41666,78.8798739 226.072276,78.8207276 C227.660946,95.9668048 226.217747,113.354844 221.8196,130.067345 C219.203736,130.273135 216.588395,130.478925 213.972531,130.684715 C212.278159,121.474998 212.015997,112.096641 212.48119,102.777919 C212.676373,98.8644855 216.706656,81.2217748 211.801976,80.9275096 C207.925013,105.020591 209.047444,130.932543 208.48492,155.283717 Z" id="Stroke-9"></path>
                <path d="M132.9112,142.736877 C133.867228,151.828301 134.110552,160.984737 133.638032,170.108912 C130.736982,169.252024 126.125861,169.543845 126.361859,172.377491 C130.237775,171.865216 135.751027,174.044831 138.959241,171.539666 C131.982382,170.562041 135.342347,165.767279 133.726466,164.370253 C142.796435,164.044215 166.254964,167.001042 173.495554,166.651541 C173.146528,162.088965 173.03036,131.557734 173.146528,117.118212 C175.816813,117.115279 177.453101,117.447183 180.123909,117.44425 C179.268874,135.695043 178.0308,173.820466 178.0308,176.753341 C180.940222,176.66731 184.007152,179.10404 186.751742,180.012254 C194.775679,182.619091 186.054213,185.226417 174.542109,184.574341 C165.47214,183.596716 171.111502,179.824061 175.93769,179.686216 C186.86163,179.374843 185.530936,185.389681 185.530936,185.389681 L300.749023,185.389681" id="Stroke-11"></path>
            </g>
            <path d="M0.5,200 L79.0573039,200" id="Line"></path>
            <path d="M194.880451,200 L299.5,200" id="Line"></path>
        </g>
    </g>
</svg>