<?xml version="1.0" encoding="UTF-8"?>
<svg width="300px" height="200px" viewBox="0 0 300 200" version="1.1" xmlns="http://www.w3.org/2000/svg" xmlns:xlink="http://www.w3.org/1999/xlink">
    <!-- Generator: Sketch 46.1 (44463) - http://www.bohemiancoding.com/sketch -->
    <title>icon-rastvorosmesitel-noact</title>
    <desc>Created with Sketch.</desc>
    <defs></defs>
    <g id="Symbols" stroke="none" stroke-width="1" fill="none" fill-rule="evenodd" stroke-linecap="round">
        <g id="category/icon-rastvorosmesitel-noact" stroke="#C1C1C1" stroke-width="2">
            <g id="Group" transform="translate(0.000000, 18.687500)" stroke-linejoin="round">
                <path d="M0.560546875,181.3125 L83.7102661,181.299371 C83.7102661,181.299371 92.8178853,175.841316 96.5096108,170.967778 C100.736665,165.388347 96.4693653,158.355607 94.2443644,152.666938 C90.0198652,141.864536 84.6333571,131.511223 80.5180957,120.581697 C79.3714185,117.536455 78.2106873,114.421581 78.1186976,111.168723 C78.0273468,107.915865 79.2002154,104.441976 81.8794155,102.596433 C84.0424511,101.105433 86.805975,100.880569 89.4270427,100.704256 C119.085417,98.7015633 148.695879,95.9846731 178.317202,93.4543175 C191.964896,92.2884758 206.793763,91.3998808 218.157047,99.1493743 C218.521173,99.3985131 218.845692,99.7166441 219.050114,100.1076 C219.863967,101.665676 218.38766,102.964392 217.104915,103.812102 C183.549116,125.985453 148.812783,146.370115 113.091393,164.852379 C111.970908,165.431787 110.745017,165.809328 109.483992,165.859156 C105.616591,166.012472 104.602149,163.178678 103.806183,160.62277 C100.800547,150.968323 98.0523548,141.232746 95.5673552,131.431371 C95.0416085,129.359686 94.5784659,126.982647 95.8062729,125.232926 C96.9280362,123.633966 99.0508263,123.166352 100.974305,122.820752 C107.695942,121.613387 114.418217,120.406661 121.140492,119.198657 C160.470561,112.134615 201.962388,106.705306 241.498156,100.90165 C247.93488,99.9568395 254.752339,100.123571 258.54372,105.410423 C261.188424,109.099594 259.530692,112.303263 257.132572,116.103587 C255.343245,118.939298 252.964928,121.345723 250.166907,123.193182 C239.747796,130.073245 228.606821,135.734445 217.48565,141.385423 C202.375703,149.062092 187.266394,156.739399 172.156447,164.416067 C165.138399,167.981946 158.09416,171.558684 150.85636,174.640339 C143.710548,177.683026 135.421254,174.714442 131.74486,167.873986 L122.310805,150.32695 C117.934268,142.1865 113.421023,133.44684 114.699935,124.165462 C114.899885,122.710236 115.490152,121.347 116.417715,120.20735 C118.177657,118.045592 120.962262,115.789289 123.636352,115.275041 C150.085307,110.191971 206.94708,102.307687 207.576954,100.918898 C207.884225,100.241752 206.56315,86.2171555 205.959468,78.8362597 C191.648043,78.8132622 177.334062,79.9478019 163.204699,82.2226305 C163.761748,91.7557021 164.038356,98.8663782 164.594766,108.39945" id="Stroke-1"></path>
                <path d="M216.676715,149.316724 C216.818533,151.886687 218.648106,155.430845 220.868635,154.129574 C221.457625,146.735263 221.628828,139.307095 221.380328,131.893619 C226.286445,130.702864 230.049718,136.562736 230.473254,141.592783 C231.05905,148.538006 228.47695,155.688289 223.589358,160.657649 C220.870551,163.422451 217.113666,165.603373 213.276929,165.034826 C211.357922,164.750552 209.585204,163.794881 208.086538,162.562602 C202.882732,158.286359 201.055075,150.564335 203.272411,144.204269 C205.488468,137.843564 211.367504,133.054351 217.942213,131.590181 C223.304446,130.394954 229.526527,131.533965 233.041939,135.75527 C235.30463,138.472799 236.188114,142.111503 236.302463,145.645441 C236.588653,154.50456 232.030691,163.517634 224.384047,168.002771 C216.738681,172.487269 206.256965,171.902112 199.536607,166.12337 C188.715679,156.817718 192.006227,142.087867 201.232667,133.436363 C203.481304,131.328266 212.988823,123.652875 216.387331,127.116543 C217.607472,128.359682 216.343891,135.924557 216.347724,137.789265 C216.35539,141.634307 216.465267,145.478071 216.676715,149.316724 Z" id="Stroke-4"></path>
                <path d="M57.8669733,96.0371839 C59.3579731,106.981403 55.2804018,115.042639 44.7003086,118.214368 C44.3323498,107.207544 44.2748562,96.1898612 44.5284667,85.1798439 C47.7870741,84.2094803 51.1549193,83.608992 54.5483171,83.3949882 C54.464632,86.2562511 54.3803081,89.1187918 54.2959843,91.9806936 C48.7095264,98.9974635 37.9403432,101.246101 30.0119808,97.0522647 C30.1978767,102.435579 30.3837726,107.818254 30.5696684,113.200929 C34.299723,114.078025 38.0310553,114.955121 41.7623875,115.832218 C41.2379184,104.62225 41.2692205,93.3867306 41.8543772,82.1799575 C38.0176401,80.9055169 34.4095996,78.9443476 31.2538418,76.4171861 C36.3464939,73.993513 41.4391459,71.5698399 46.5324368,69.1461668 C48.109038,68.3961952 49.8223462,67.6264203 51.536932,67.9554112 C54.5368184,68.5309857 55.8891948,72.002958 56.5235404,74.9919845 C57.9883486,81.8918509 58.441909,89.0063599 57.8669733,96.0371839 C77.3164069,94.9741918 96.69046,92.517939 115.79046,88.6933394 C117.073845,88.4365348 118.434526,88.1324578 119.360172,87.2074502 C120.449994,86.1176278 120.662721,84.4509533 120.788568,82.9152363 C121.038345,79.8814926 121.184634,76.8388055 121.228713,73.7961184 C121.295789,69.0637593 120.300511,63.1828067 115.780878,61.7812414 C114.421475,61.3596219 112.963055,61.4541669 111.544241,61.5589329 C93.4050223,62.9023658 75.3411836,65.2621572 57.4664348,68.6248918 C60.9537389,73.0333705 63.1851279,78.424989 63.8348052,84.0088917 C84.2245779,80.4525954 104.743392,77.6366884 125.336947,75.5688366 C127.981651,70.5100419 127.721652,64.0541535 124.678965,59.2234166 C121.636278,54.3933185 115.92589,51.3704347 110.220612,51.5703846 C106.966476,66.3206776 106.855961,81.7570604 109.895454,96.5533483 C116.91414,99.7097449 123.931549,102.865503 130.949597,106.021899 C130.567584,94.8074604 130.184932,83.5936604 129.802281,72.3792215 C129.617662,66.9633278 129.249704,61.0664047 125.645496,57.0207743 C134.381962,56.1666755 143.119706,55.3132155 151.856811,54.4597555 C153.116559,54.3364638 154.491933,54.2406411 155.539594,54.9510061 C156.370695,55.5138042 156.824255,56.4777796 157.203713,57.4078977 C160.314115,65.0334606 160.982956,73.6325812 159.088224,81.646545 C158.76626,83.0085037 158.3127,84.4458427 157.212017,85.3101626 C156.13561,86.1540404 154.676551,86.2683887 153.31076,86.3482408 C146.431336,86.7513346 139.551272,87.1544284 132.672487,87.5581609 C132.63863,84.2599469 132.605411,80.9630104 132.572193,77.6654352 C139.804244,77.7369827 147.042045,77.2642579 154.203188,76.2542876 C155.360086,76.0907504 156.55723,75.8984664 157.52951,75.2487891 C158.827587,74.3819139 159.501539,72.8564181 160.037507,71.3903322 C163.423877,62.1377014 163.931098,51.8533806 161.472929,42.3113656 L122.806592,30.4817456 C125.008595,39.6858262 128.790394,48.5104494 133.937984,56.4515881" id="Stroke-6"></path>
                <path d="M160.739631,42.9317851 C183.877596,40.4474243 203.34811,37.9637024 226.486075,35.4793416 C222.733023,38.6037974 216.543522,46.8196276 215.822936,48.14709 C214.984808,49.6904728 217.99747,94.2856744 214.796356,98.5414757" id="Stroke-8"></path>
                <path d="M128.712075,32.2328079 C127.580091,23.166073 125.066983,14.2724576 121.287101,5.95250023 C135.372385,4.18042085 190.393086,0.00638817367 190.393086,0.00638817367 C195.181022,1.19394966 222.611201,10.374394 230.643052,11.4789093 C213.547021,13.2675979 167.782784,18.0459518 162.059619,17.2244327 C159.166415,16.8085626 136.242454,10.5302655 126.155528,7.76738037 C140.204399,8.62275682 151.300018,9.58864868 165.124026,12.2378243 C164.299313,20.3456943 163.100253,28.4139577 161.531317,36.4106735 C185.199501,34.1460659 212.556216,31.4093723 236.314472,30.4818095 C231.31381,36.0350489 223.479354,43.439581 220.227135,50.1682443 C230.059811,49.9676557 239.893766,49.7664282 249.727082,49.5664784 C250.664227,49.5473138 251.653755,49.539648 252.47208,49.9976801 C253.407309,50.5202327 253.933694,51.5423405 254.359146,52.5254804 C256.151029,56.6675722 257.082425,61.4452873 255.542875,65.6883123 C254.003325,69.931976 249.399368,73.2467993 245.017081,72.1652815 C245.422091,68.0455483 247.994609,64.4873356 249.255634,60.5451936 C250.517938,56.6024128 249.76605,51.2529562 245.868625,49.8603343 C245.47128,52.4584046 245.625235,55.1395211 246.314519,57.675626 C237.277809,58.2237313 228.292843,59.6163532 219.514853,61.8317718 C220.598287,66.5283571 217.530048,72.7491606 221.430666,75.5797604 C223.189969,76.8567563 225.584257,76.6293373 227.738988,76.3450636 C236.114522,75.2411872 244.489418,74.1373108 252.864953,73.0327955 C254.664501,72.7957943 256.506212,72.5453779 258.115393,71.7072495 C261.090365,70.1581174 262.822199,66.53219 262.157829,63.2454746 C261.49282,59.9581205 258.488462,57.2904191 255.146169,57.0176441" id="Stroke-10"></path>
                <path d="M208.906716,127.051064 C209.605582,123.354867 206.594836,119.769824 203.055149,118.4973 C199.514823,117.224776 195.61612,117.688557 191.887982,118.18939 C178.042255,120.050904 169.259155,132.537228 176.693072,145.744138 C179.742148,151.160032 185.946342,154.021934 192.017662,154.000853 C192.231027,152.058209 192.44567,150.114927 192.659674,148.172283 C188.913649,148.422061 185.150376,145.936422 183.910431,142.392902 C183.591661,141.482587 183.426207,140.507752 183.526502,139.548249 C183.81397,136.771309 186.300247,134.623605 188.98328,133.846165 C191.665035,133.068085 194.526298,133.375356 197.301321,133.690293 C197.79321,134.286949 198.208441,134.945569 198.534877,135.646352" id="Stroke-12"></path>
                <path d="M214.796484,98.5413479 C216.242128,97.5505422 218.361724,98.4844932 219.245208,99.9972127 C220.129332,101.510571 220.120388,103.36378 220.086531,105.115417 C219.669383,126.878009 218.834449,181.299499 218.834449,181.299499 L300.560547,181.299499" id="Stroke-14"></path>
            </g>
            <path d="M0.5,200 L73,200" id="Line"></path>
            <path d="M224.892695,200 L299.5,200" id="Line"></path>
        </g>
    </g>
</svg>