<?xml version="1.0" encoding="UTF-8"?>
<svg width="300px" height="200px" viewBox="0 0 300 200" version="1.1" xmlns="http://www.w3.org/2000/svg" xmlns:xlink="http://www.w3.org/1999/xlink">
    <!-- Generator: Sketch 46.1 (44463) - http://www.bohemiancoding.com/sketch -->
    <title>icon-production-noact</title>
    <desc>Created with Sketch.</desc>
    <defs></defs>
    <g id="Symbols" stroke="none" stroke-width="1" fill="none" fill-rule="evenodd" stroke-linecap="round">
        <g id="category/icon-production-noact" stroke="#C1C1C1" stroke-width="2">
            <g id="Page-1" transform="translate(4.000000, 3.832308)" stroke-linejoin="round">
                <path d="M112.029675,67.3953348 C110.546486,65.4608001 109.909942,63.9952689 108.461994,62.0373258 C105.435398,57.9458769 105.980497,56.4786736 104.712761,51.6440089 C105.876116,50.7866773 109.557546,51.4333335 109.557546,51.4333335 C109.557546,51.4333335 110.776659,55.309091 111.092478,56.6642685 C111.712964,59.3269708 111.554608,61.4588046 112.175094,64.1210888 L116.677295,64.0889023 C116.086696,60.8016982 115.495651,57.514494 114.90416,54.2272899 C116.028707,54.1244602 117.153254,54.0220486 118.2778,53.919637 C118.819777,57.3050727 119.361308,60.6900904 119.902839,64.0759441 C122.519942,64.2080342 125.158901,63.942182 127.685451,63.2917637 C127.700618,61.1427916 127.715784,55.6618886 127.730505,53.5129165 C129.045524,53.4297332 130.360989,53.3469679 131.675562,53.2642026 C130.976122,56.2358117 130.671455,60.4188041 130.763346,63.4606384 C132.312106,63.121635 134.019223,63.3435965 135.567091,63.6859439 C135.540327,61.5298657 135.788343,61.3505409 136.452097,59.2860061 C139.359592,57.3736258 142.721188,61.9181939 145.840121,60.3255886 C144.304297,56.6642685 143.953238,52.1339126 140.257981,46.7257428 C143.032546,46.0226557 144.265488,46.0126235 146.258536,46.2028165 C148.492463,49.3370303 151.532441,56.6513103 152.055684,60.3795115 C154.320835,60.4083539 156.407558,60.3385468 158.624088,60.472727 C156.896007,55.8629498 156.249203,52.0177068 156.001633,47.1370614 C157.18863,46.7194727 158.468409,46.5355498 159.734807,46.6003408 C160.771923,50.518317 161.190339,56.0105062 162.167236,61.0654604 C163.766849,61.2991261 166.298751,61.3079042 167.876507,60.9676468 C167.253791,56.1852329 168.737425,51.3810827 168.114263,46.5990868 C170.221059,46.5777685 171.364341,46.6162251 173.470691,46.5949068 C173.384599,51.3906968 172.15478,56.1480303 172.068688,60.9438204 C172.994287,61.0023414 173.920331,61.0604443 174.846376,61.1185472 C177.029451,56.3256832 178.829796,51.3798287 180.226892,46.3353246 C181.611499,46.5698264 182.960865,46.988251 184.221018,47.5747143 C182.271685,51.8459061 181.355007,56.2153294 179.405674,60.4869392 C180.43833,60.5851707 182.671365,60.5851707 183.704467,60.6829843 C185.790298,56.3499275 185.643986,52.0164528 187.730263,47.683396 C189.80182,48.2560651 191.977312,48.4960009 194.134068,48.3889912 C191.471466,55.3763901 191.883636,63.4644004 188.549697,71.4658834 C194.680952,71.2267836 194.463269,71.4771696 200.598538,71.4909638 C200.595416,73.9287785 200.592739,76.3665932 200.589617,78.8044078 L182.625866,78.4227678" id="Stroke-1"></path>
                <path d="M141.126259,66.3364404 C128.942704,66.9371159 119.81251,67.1645115 107.613342,67.3103959 C110.306277,74.3604957 115.678318,80.2079905 118.750413,87.1209842 C119.755859,89.3836541 120.383928,91.7905363 121.5339,93.9921772 C123.079092,96.9483201 125.508399,99.4245914 127.189643,102.315525 C128.869995,105.206459 130.407603,107.392634 128.615734,110.224211" id="Stroke-3"></path>
                <path d="M125.737456,166.363129 C121.630029,158.7947 122.944156,148.935178 125.737456,140.858036 C125.968075,140.190479 126.218322,139.49408 126.758514,139.008775 C127.292462,138.529739 128.036064,138.32408 128.756023,138.167745 C134.2659,136.972664 140.017994,137.757681 145.610394,138.546877 C151.142575,139.327714 156.673863,140.10855 162.205598,140.889386 C163.061609,141.01019 163.95286,141.143952 164.657208,141.615046 C165.320962,142.058969 165.739377,142.75077 166.103818,143.434211 C169.251745,149.347333 169.817364,156.424603 167.643211,162.710587 C167.431327,163.322966 167.181081,163.94914 166.696201,164.406022 C166.105156,164.962388 165.254944,165.186858 164.44577,165.390009 C159.559055,166.615187 154.67234,167.840782 149.786071,169.066377 C149.348921,164.515539 149.38193,159.979749 149.844952,155.401323 C149.906956,154.786435 149.791424,148.737879 150.226344,148.601609 C152.036056,148.055274 153.845769,147.508939 155.655928,146.963023 C156.179616,146.805016 156.712225,146.645338 157.261786,146.634052 C157.814915,146.622765 158.356892,146.761962 158.891285,146.895724 C164.449338,148.286432 170.06315,148.67894 175.643952,149.626143 C181.300141,150.586304 186.504905,153.062994 192.300713,152.766627 C191.897465,153.550389 191.49377,154.334152 191.090075,155.117914 C190.253245,156.742288 189.394557,158.522996 189.804497,160.285312 C189.991847,161.090811 190.532485,161.902162 191.384928,162.106985 C191.801559,162.207307 192.240494,162.151294 192.6656,162.089429 C193.856165,161.916374 195.112749,161.669332 195.983481,160.888496 C196.769013,160.184573 197.109812,159.162128 197.421616,158.186501 C197.935491,156.576339 198.410557,154.702416 197.384146,153.324248 C197.236496,153.126113 197.051823,152.9401 196.810498,152.85399 C196.607089,152.782093 196.382715,152.787527 196.166816,152.80801 C193.779441,153.031643 191.951439,154.824055 190.354057,156.501516 C189.847766,157.033221 189.332553,157.577883 189.037253,158.234572 C188.528732,159.364444 188.938225,160.758496 189.107733,161.929332 C189.098365,161.382162 164.027354,159.241132 161.795212,158.911324 C161.577975,158.879138 160.729101,160.803222 160.795565,161.121743 C161.004773,162.123287 161.903161,162.077307 162.789506,162.217339 C165.245576,162.604831 167.778371,162.711005 170.250054,163.032452 C173.071457,163.399044 175.871895,163.998047 178.693744,164.329108 C179.301294,164.400587 185.577076,165.423032 185.518194,165.534639 C185.122529,166.286215 185.073907,167.1912 185.387495,167.975798 C181.128403,167.423611 176.869311,166.871425 172.610219,166.31882 C168.95823,165.845636 165.202307,165.082356 161.548088,164.859977 C158.037504,164.646375 154.61435,165.776247 151.152388,166.363129 C145.590767,167.30657 139.762841,166.83046 134.459941,164.999173 C134.084795,164.869591 133.689576,164.716182 133.467878,164.405186 C133.252425,164.102967 133.24618,163.715475 133.247519,163.352227 C133.259116,160.54573 133.269822,157.739234 133.28142,154.932737 C133.284543,154.021065 133.291234,153.091 133.600807,152.22698 C134.044649,150.988427 135.062138,150.013217 136.093456,149.134567 C138.233707,147.31164 140.605916,145.856141 142.967866,144.314533 C144.244969,143.481446 148.902849,139.767039 150.531903,140.267811 C149.04247,139.809675 147.772057,138.891733 146.534209,137.990092 C145.54839,137.272375 144.523764,136.508259 144.027732,135.434818 C143.001767,133.211859 143.700316,129.528802 143.822539,127.125682 C143.969743,124.23642 144.441687,121.333782 144.240508,118.436578 C142.278239,118.442848 140.315524,118.449118 138.353255,118.455388 C139.099979,125.596196 139.445684,132.662598 139.586197,139.778325 C138.02227,139.769965 136.439161,139.759096 134.924748,139.392087 C133.410335,139.025077 131.94722,138.258453 131.095669,137.028677 C130.623279,136.346072 130.360543,135.55813 130.10316,134.780637 C128.941589,131.274398 127.450818,127.760634 127.080132,124.136517 C126.701863,120.441338 126.093422,116.790468 125.885106,113.071045 C128.167209,112.690659 130.487227,112.51008 132.805016,112.53307 C131.465016,119.229955 134.418457,126.11745 133.582518,132.885813 C133.478138,133.730187 133.351007,134.692856 133.948743,135.332406 C134.385001,135.799738 135.084888,135.945622 135.734814,136.06559 C141.495383,137.129835 149.738341,139.521669 154.852999,135.552696 C157.357245,133.609383 158.418449,130.43295 158.574575,127.389444 C158.909574,120.857673 159.577344,113.356962 158.11066,106.909627 C157.479915,104.136153 156.382578,101.477631 155.289703,98.8333211 C153.267214,93.9397174 151.245171,89.0456957 149.223129,84.1520921 C147.57757,80.1705789 145.935134,76.1840497 144.057173,72.2919899 C143.771687,71.7013465 138.893447,62.7351043 140.386449,62.7325962 C156.272845,62.7058438 172.159687,63.0736896 188.025117,63.8357157 C186.915291,71.1286774 183.141078,77.8339218 178.790542,83.9698412 C174.464093,90.071484 169.741086,95.8470817 165.445416,101.988853 C165.040829,102.567792 164.629997,103.158436 164.427927,103.823902 C164.241915,104.437536 164.241915,105.085028 164.243253,105.722906 C164.258419,112.415611 164.763373,119.100373 164.6978,125.793913 C164.67505,128.075393 164.848126,130.928288 164.039844,133.118643 C163.725364,133.971377 159.278476,140.58884 158.693676,140.479322 C156.870135,140.136138 155.074696,139.662119 153.32788,139.063115 C153.611581,132.318578 154.536288,125.84491 154.071927,119.105807 C152.710963,119.41764 151.722914,120.562978 150.387822,120.960502 C149.052729,121.358444 147.159155,120.031691 148.042377,119.013009 C148.322956,118.689472 148.780179,118.55989 149.211085,118.45497 C150.584093,118.121401 152.001263,117.936642 153.357321,117.613941 C153.612474,113.700563 154.687952,109.971526 154.52246,105.979144 C154.485882,105.105511 154.417187,104.229787 154.238312,103.371619 C154.083079,102.628403 153.846661,101.902326 153.610243,101.17792 C150.906603,92.8921928 146.502538,85.1373337 144.429197,76.6910917 C140.323999,76.6049823 136.196498,76.4620241 132.079257,76.6643393 C130.874864,90.1300049 130.80483,103.684288 131.869603,117.159986 C136.303109,117.26825 140.751336,116.850661 145.074216,115.920178" id="Stroke-5"></path>
                <path d="M94.787935,56.7563554 C94.6661575,61.6315667 93.9979421,72.5624402 93.8757185,77.4376516 C93.8431553,78.7363982 93.8195135,80.0807075 94.3588141,81.2774605 C94.9239869,82.5310624 96.039166,83.4770114 97.0035729,84.4944395 C100.327699,88.0015152 102.05355,93.0155047 100.709536,97.5341564 C98.2793378,98.5327743 95.8491395,99.5322281 93.4189411,100.530846 C93.4171568,101.28702 93.4153726,102.043194 93.4135883,102.79895 C95.8973152,102.726635 98.3859489,102.800204 100.860308,103.020075 L100.949523,98.1745426 C102.567871,97.6106517 104.29729,97.3280792 106.024034,97.3456354 C106.207369,99.6948327 104.59259,102.069528 102.24313,102.906378 C107.764605,103.133355 113.28608,103.360333 118.807555,103.58731 C117.800771,109.007602 121.117314,114.394036 125.378636,118.179086 C127.290499,119.877865 129.966929,121.454168 132.409618,120.528283 C131.679844,119.025967 132.588046,117.288732 132.510876,115.639696 C132.306129,111.26233 125.797052,109.551429 124.235801,105.421106 C122.491661,105.22088 121.058879,103.641233 121.128912,101.996377 C121.198945,100.351521 122.76198,98.8838999 124.516826,98.8145108 C124.91383,98.7990445 125.349196,98.8621635 125.618623,99.1355398 C125.88582,99.4055721 125.921952,99.8047685 125.944701,100.172196 C126.024994,101.494769 126.09592,102.873773 125.532085,104.0885 C124.96825,105.303228 123.560002,106.283871 122.187886,105.967022 C120.921935,105.674418 120.151123,104.383195 120.11856,103.16178 C120.085996,101.939946 120.623959,100.774962 121.175303,99.6676623 C116.385386,99.6618102 111.595469,99.6555401 106.805105,99.649688 C107.162855,96.4908119 105.220213,93.350328 105.807243,90.2215484 C106.456723,86.7604535 109.945003,84.4288125 111.520529,81.2394219 C112.584409,79.0854337 112.72403,76.646365 112.845807,74.2758494 C113.034496,70.6245614 113.222738,66.9736915 113.411426,63.3224036 C107.649073,63.4461335 101.873337,63.0151687 96.2046586,62.0374512 C96.0918024,63.5050725 95.9793924,64.9726938 95.8669823,66.4403151 C97.5250306,66.5828553 99.2027061,66.5172283 100.842019,66.245106 C100.742099,70.4280983 100.641287,74.6110907 100.540921,78.7940831 C98.5964947,78.5487132 96.562408,78.9926362 94.9329083,80.0175885 C100.706414,80.6684248 106.540139,80.8460776 112.345761,80.5476209" id="Stroke-7"></path>
                <path d="M165.599222,165.541369 C162.601174,172.676325 158.036969,179.229833 152.272831,184.673115 C151.352139,185.542987 150.366321,186.435013 149.967533,187.602087 C149.097693,190.148584 151.323591,192.942958 150.497912,195.502413 C147.415557,196.391095 143.593615,197.11968 141.35612,194.943956 C141.621978,193.228875 141.887391,191.513375 142.152358,189.797876 C142.264322,189.072635 142.376286,188.329419 142.2157,187.612538 C142.04084,186.831701 141.557744,186.147006 141.084016,185.48363 C136.007275,178.368739 129.427272,172.709347 124.350084,165.594456 C131.806172,166.644489 140.257891,168.209506 147.974931,168.501274 C148.772061,174.757998 148.38264,181.146393 146.830311,187.277296 C152.904023,182.665847 156.830791,176.102725 161.11754,169.976838 C161.544876,169.366548 161.997193,168.740374 162.659609,168.356226 C163.827425,167.679055 165.32578,167.914811 166.671132,168.172721 C170.562215,168.920117 164.688761,167.910454 178.344381,170.414073 C184.780264,171.594026 176.215253,177.834343 165.599222,178.417692 C156.5,178.917692 158.25,196.167692 158.25,196.167692 L285.710134,196.167692" id="Stroke-9"></path>
                <path d="M120.160892,46.5954084 C120.533362,51.2139636 120.906277,55.8325189 121.278747,60.4510742 C127.157079,60.6558975 133.035412,60.8607207 138.913744,61.065544 C139.448584,56.4411366 139.544935,51.7724205 139.201906,47.1321289 C133.967255,46.6823537 129.475314,45.3079479 124.383852,44.5893945 C118.480986,43.7567253 112.501842,43.5631882 106.547677,43.2868859 C90.9980657,42.5662424 75.4752185,41.3268528 60.0197281,39.5712249 C55.536262,39.0620928 51.0153259,38.4998739 46.7731845,37.0477189 C45.4514742,36.5954357 44.1150436,36.0256926 43.2037192,35.0208047 C42.2915027,34.0159168 41.9234936,32.4705462 42.6827075,31.3599026 C43.2050574,30.5953685 44.1337786,30.1769438 45.0210151,29.81077 C51.3735214,27.1894504 58.0708411,25.3029865 64.912688,24.2078091 C65.6500444,24.0895132 66.5105166,24.013854 67.048033,24.5012498 C67.4682324,24.8820538 67.5391578,25.4802213 67.5851032,26.026974 C67.7010818,27.4059779 67.8175065,28.7849817 67.9339312,30.1639856 C67.9923666,30.8616387 68.0392042,31.6102886 67.658259,32.2118001 C67.2505495,32.8542763 66.4560959,33.1711253 65.7129405,33.4424117 C61.7197071,34.9000008 57.672053,36.2259178 53.5793457,37.4172367 C52.3459576,37.7763044 51.0371834,38.126176 49.7792613,37.8494556 C48.5213393,37.5727352 47.3843027,36.429487 47.6572985,35.2456923 C51.0956188,33.8131835 54.9679667,33.6610291 58.7310271,33.6459809 C81.8580577,33.5561095 104.81915,37.8051469 127.94618,37.7077513 C115.337965,31.4807065 101.126569,27.0924729 87.5030944,22.9278728 C97.1489476,22.9604773 106.794801,22.9939179 116.440654,23.0269404 C119.565832,23.0373905 123.296329,22.7347537 124.814311,20.1748811 C125.880868,18.3753626 125.376807,16.135683 124.682274,14.182756 C124.341921,13.2276109 123.922614,12.2323371 123.066156,11.6249735 C122.139219,10.968285 120.896018,10.900568 119.734447,10.8671274 C111.737721,10.6380598 103.728058,10.8123686 95.7514052,11.3900537 C94.741499,11.4632049 93.7173185,11.5455522 92.7667398,11.8732694 C89.063453,13.1481896 87.8581674,17.4026611 87.1738935,21.0434989 C94.5015124,21.9380331 101.894704,22.3593838 109.283881,22.3033709 C115.465095,22.2561362 121.672182,21.8770041 127.810574,22.558773 C140.309502,23.946555 152.241026,29.4395801 164.005274,33.3738586 C165.61024,33.9101611 167.229926,34.4535697 168.668507,35.3079753 C170.054897,36.1306123 171.272673,37.2404199 172.812958,37.7691983 C175.258323,38.6085556 177.959287,37.8243752 180.431416,37.057751 C194.025896,32.8409001 207.806387,29.1269112 221.79564,26.2614757 C224.828481,25.6403179 227.886748,25.0571986 230.988284,24.9376487 C234.047444,24.8197708 237.103481,25.1545941 240.144797,25.4885814 C247.383648,26.2844661 254.622944,27.0803507 261.861795,27.8762353 C262.76509,27.9753029 263.692027,28.0735345 264.576141,27.8741453 C266.279689,27.4899972 267.524675,26.0424402 268.06799,24.4816035 C268.611305,22.9203487 268.573835,21.2416341 268.530566,19.600122 C259.193394,18.1149444 249.647015,17.7863912 240.218399,18.6265846 C238.760637,18.7561666 237.260498,18.9271313 235.985179,19.601376 C234.710306,20.2760387 233.704415,21.5810554 233.877936,22.9433391 C234.144241,25.0421504 236.763128,26.0106717 238.973413,26.4332764 C246.559753,27.8841775 254.414629,28.0091614 261.889898,29.9010595 C250.367421,33.022733 238.695064,35.6565928 226.919219,37.7930247 C215.196902,39.9198424 203.695837,43.3065322 192.154179,46.2501349 C195.526481,45.3898772 200.348069,46.1573374 203.865344,46.0946364 C207.998198,46.0210672 212.130159,45.9291058 216.261675,45.8208421 C224.447982,45.6072407 232.879182,44.6913881 241.053891,45.0048931 C256.793083,45.6089127 255.817524,45.3664689 271.609799,43.8955035 C271.390332,46.638045 271.171756,49.3801685 270.952735,52.1227101 C271.018754,51.2921309 220.968177,49.3346058 220.968177,49.7350562 C230.248251,51.553803 239.595683,53.0711671 248.988167,54.2842224 C247.963095,56.8257027 245.014115,58.3175684 242.12937,58.5913627 C239.244624,58.8651571 236.370585,58.1524557 233.558549,57.4899152 C222.937137,54.9873095 212.160046,53.1154758 201.391877,51.2448961 C203.803786,52.5419707 208.614223,57.1325196 211.610486,56.5230659 C208.80871,57.098661 206.001581,57.6767642 203.282328,58.5324238 C202.565937,58.7577293 201.840179,59.0051893 201.084979,59.0156394 C200.512669,59.0239996 199.949281,58.8952535 199.39526,58.7602374 C194.957739,57.6771822 190.560811,55.8856058 186.621106,53.6981771 C187.1158,52.1670188 187.508789,50.5618733 188.66233,49.3392039 C178.799686,47.9171453 169.157401,48.0020007 159.336688,48.1424509 C147.965876,48.3050555 136.370243,47.0435115 125.00523,46.5465016 C113.484537,46.0432216 101.961169,45.5834143 90.4346772,45.2059543 C67.4129196,44.4518703 44.3751033,44.0229955 21.3381792,44.2324169 C20.8769412,44.2361789 20.3809095,44.2528992 20.0120082,44.5124813 C19.5637062,44.8276583 19.4405905,45.3990734 19.3647583,45.9194916 C19.0520621,48.0713898 18.9985335,50.2563104 19.2059568,52.4194948 C41.1674021,49.9611978 63.6819763,49.2133839 85.7906253,48.906567 C85.7955321,49.4495576 85.7999928,49.9925483 85.8040075,50.5359569 C74.8502721,51.551295 63.8960907,52.5666331 52.9423554,53.5819712 C52.8054114,54.7783062 52.8388667,55.9913615 53.0413833,57.1789183 C53.1123087,57.5939989 53.2282873,58.044192 53.587375,58.295832 C53.9576144,58.5558321 54.4679204,58.5228096 54.9282663,58.4776649 C71.4583433,56.8624873 87.9540728,54.8029686 104.505561,53.3065048 C101.954477,53.4281448 99.4190062,53.8486595 96.9776561,54.5550907 C96.0632092,54.8196889 95.034568,55.2481457 94.8017186,56.1184355 C94.4265724,57.5225197 96.3451265,58.4371183 97.8724758,58.6532277 C100.631875,59.0440639 103.457293,59.0219095 106.209109,58.5876006" id="Stroke-11"></path>
                <path d="M154.320657,117.215455 C154.324225,122.292982 154.094945,127.370926 153.63326,132.430061 C153.570364,133.117682 153.498101,133.822859 153.170684,134.440673 C152.247316,136.181252 149.805966,136.529034 147.736193,136.65778 C148.252298,131.405945 148.207691,126.106038 147.60371,120.862145" id="Stroke-13"></path>
                <path d="M143.506007,116.829719 C147.327949,116.297596 151.092347,115.404316 154.72337,114.167435 C155.103423,114.038271 155.501765,113.892386 155.752012,113.595183 C156.051772,113.239878 156.074521,112.752064 156.083889,112.299363 C156.120467,110.591388 156.157045,108.883413 156.193176,107.175438 C155.129742,107.941226 153.720601,108.102158 152.386847,108.23592 C147.810152,108.69531 143.233457,109.154699 138.656316,109.61367 C138.729025,98.7103853 139.364231,87.7448173 140.666761,76.9105034" id="Stroke-15"></path>
                <path d="M124.179016,145.793022 C123.856952,147.423248 123.535334,149.053474 123.213271,150.683282 C123.090601,151.305694 122.969716,151.959874 123.185614,152.559296 C123.684768,153.94457 125.577897,154.276467 127.134241,154.378878 C136.312611,154.982062 145.490535,155.585664 154.669351,156.188847 C154.546681,153.435855 154.680503,150.672832 155.068585,147.941994 C157.968943,146.995627 160.837184,145.962733 163.666616,144.844565 C164.30316,144.593343 164.961562,144.321639 165.406296,143.826719 C165.851029,143.331799 165.094938,142.1154 164.657341,141.615046" id="Stroke-17"></path>
                <path d="M127.058007,22.3353066 C129.200935,17.8676517 131.343417,13.3999968 133.486345,8.93234194 C134.739361,6.32021849 136.065978,3.61446155 138.410976,1.77857642 C140.755975,-0.057726716 144.436066,-0.736151481 146.848422,1.02198442 C142.724935,8.48758288 139.154132,16.2215416 136.169912,24.1490374 C138.888273,24.7455329 141.605741,25.3420283 144.323656,25.9385238 C148.179499,19.9535048 152.03445,13.9684858 155.890294,7.98388489 C156.951944,6.33568473 159.192562,4.48433336 160.694039,5.79896422 C159.259027,13.6951095 157.159814,21.4850811 154.423164,29.0731555 C159.780485,29.9346672 163.775056,24.6360151 165.955454,19.9698071 C168.136299,15.303181 171.021936,9.7428568 176.4368,9.29099163 C176.312792,13.8924086 172.790164,17.6879089 170.572296,21.794824 C168.285287,26.0292312 167.33337,30.8868863 167.865087,35.6065992 C173.894192,31.0628671 179.057025,25.513829 183.03866,19.2976524 C185.720889,15.110898 188.584669,10.1140467 193.720738,9.28890159 C195.346669,17.88479 185.566994,25.4214496 186.385536,34.1176596 C195.672301,27.9299074 202.924088,19.0974272 206.926243,9.09912658 C209.963991,12.1317647 207.797421,17.1031176 205.090212,20.3990999 C202.382111,23.6950822 199.016947,27.4441837 200.127219,31.4712596 C205.470711,26.2507747 211.148311,21.3304187 217.11898,16.7453039 C218.686476,20.8221226 210.55682,23.811706 211.734895,28.0018045 C216.802269,24.6071727 221.870089,21.2121228 226.937909,17.8174909 C227.440186,20.2072348 226.811225,22.7859178 225.251312,24.7342467" id="Stroke-19"></path>
                <path d="M1.49902344,196.167692 L143.285928,196.167692" id="Line"></path>
            </g>
            <path d="M0.5,200 L48.5,200" id="Line"></path>
            <path d="M251.5,200 L299.5,200" id="Line"></path>
        </g>
    </g>
</svg>