<?xml version="1.0" encoding="UTF-8"?>
<svg width="300px" height="200px" viewBox="0 0 300 200" version="1.1" xmlns="http://www.w3.org/2000/svg" xmlns:xlink="http://www.w3.org/1999/xlink">
    <!-- Generator: Sketch 46.1 (44463) - http://www.bohemiancoding.com/sketch -->
    <title>icon-betonosmesitel-noact</title>
    <desc>Created with Sketch.</desc>
    <defs></defs>
    <g id="Symbols" stroke="none" stroke-width="1" fill="none" fill-rule="evenodd" stroke-linecap="round">
        <g id="category/icon-betonosmesitel-noact" stroke="#C1C1C1" stroke-width="2">
            <g id="Page-1" transform="translate(0.000000, 13.750000)" stroke-linejoin="round">
                <path d="M0.5,186.13919 L101.731412,186.13919 C110.428317,179.221783 115.469154,165.946882 111.726739,155.483351 C107.983787,145.01982 95.1701182,138.253117 84.892689,142.481435 C75.1901908,146.472701 70.6138038,159.267062 74.8324678,168.87356 C79.0511318,178.479521 90.7390729,183.796561 100.983251,181.533842 C98.9532934,178.975077 98.2287301,175.432172 99.0895177,172.281314 C94.0486808,173.41455 87.4525267,172.392331 85.8237341,167.489328 C84.6958609,164.093909 86.6668233,160.316633 89.487847,158.116664 C92.5829284,155.703241 96.9152914,154.702474 100.565996,156.143556 C104.217238,157.585174 106.786193,161.727682 105.8766,165.546254 C104.966472,169.364289 100.208274,171.918764 96.7302623,170.099579 C92.6510405,167.96504 92.5142799,162.276333 92.9385061,157.692438 C94.4310743,141.580423 96.1279791,130.742544 97.6194747,114.630529 C121.1289,114.268516 144.637788,113.906502 168.146677,113.545562 C171.810254,125.945731 173.356453,133.634361 173.115111,146.561729 C153.475208,147.517981 133.835842,148.474233 114.195939,149.431021 C113.337296,134.285449 113.548069,119.079809 114.827183,103.963735 C100.122463,104.26139 85.1056065,103.54648 69.6071381,103.09383 C69.579786,104.940367 69.5529702,106.786367 69.5261544,108.632904 C115.419813,109.691056 161.345114,109.393401 207.221074,107.74101 C208.974828,115.628614 205.223832,124.434391 198.320905,128.634821 C198.879746,123.15635 199.438588,117.678951 199.996893,112.201017 C192.049222,112.159184 184.101551,112.117351 176.153879,112.076055 C174.457511,112.067474 172.030143,113.376086 173.090441,114.700787 C180.019111,115.38459 186.993368,115.614134 193.952072,115.386199 C193.980497,116.43148 194.008921,117.477296 194.037346,118.522577 C188.135722,118.551002 182.234633,118.579426 176.333009,118.607851 C176.3314,120.741854 176.330327,122.876393 176.328718,125.010395 C182.019571,124.836092 187.710423,124.661253 193.401811,124.48695 C193.627601,125.821305 193.852853,127.15566 194.078106,128.490552 C187.078642,128.812341 178.99421,129.105706 171.988847,128.93194" id="Stroke-1"></path>
                <path d="M300.5,186.13919 L179.139552,186.13919 C179.139552,186.13919 174.951994,157.444123 173.115111,146.561729 C171.144685,146.852949 169.980342,146.518824 168.009916,146.81058 C168.009916,146.81058 167.812016,166.386661 169.843582,174.340232 C172.643153,173.122258 182.41859,174.485574 185.218161,173.267599 C180.592433,150.608236 176.383959,125.333794 167.263364,104.081188 C187.101168,103.029472 221.968699,108.060118 221.968699,108.060118 C224.821365,104.554219 226.335386,95.5929098 226.335386,95.5929098 C222.682,92.9327809 185.05083,87.611987 172.34657,83.8813708 C171.631124,77.8032982 170.399205,41.2275992 171.828488,40.2611573 C172.924183,39.5205045 190.511603,35.1795603 195.447322,34.82291 C197.210193,30.9759132 195.754631,26.2445308 192.913764,23.1081531 C190.07236,19.9712391 186.096111,18.1295289 182.152041,16.5940553 C156.43782,6.58371162 128.062397,6.32198926 100.489303,7.40213029 C88.1824531,7.88427864 75.2019898,8.82765901 65.0114438,15.7445303 C62.5106009,17.4419714 59.9936685,20.1991735 60.8324672,23.1038626 C61.3961356,25.0539086 63.2904048,26.2708103 65.0806286,27.2281349 C88.6313499,39.829959 116.971912,37.9045835 143.587145,35.6477645 C158.731108,34.3643596 174.726205,32.7747181 186.989077,23.7962469 C189.022789,22.3068965 191.110668,20.1568045 190.714867,17.6672242 C190.452608,16.016979 189.148287,14.7475183 187.847184,13.69902 C178.736242,6.35202298 166.744746,3.75357051 155.138325,2.24223118 C130.387864,-0.979957141 105.12683,-0.25271224 80.6026949,4.38803269 C72.4544414,5.92940573 66.1559428,7.36726973 59.4069385,15.7756367 C56.1761691,19.8012268 56.7848881,25.6915887 56.7623628,30.8530968 C56.7006864,45.2226193 56.63901,59.5916056 56.57787,73.9605919 C55.5599417,73.9632735 54.5425496,73.9654187 53.5246213,73.9681003 C53.4886881,60.0163681 53.4527549,46.0640996 53.4168217,32.1129037 C78.0337398,41.5279364 104.552436,45.9402106 130.891465,45.0021933 C149.715095,44.331798 169.263824,40.5904555 184.092969,28.976526 C183.722375,45.749282 182.895911,82.4365347 182.178857,83.7982418 C181.429086,85.2210889 165.195328,98.8982271 131.586531,100.328583 C113.058948,101.116968 87.6085947,99.9708597 72.948925,95.3231427 C65.6324981,93.0035747 60.0773338,87.4569915 55.7868035,81.7361056 C53.932758,79.2642238 53.9134506,75.6821672 52.0481425,73.2177938 C50.2214492,82.5926027 48.3952922,91.9668753 46.5691352,101.341684 C45.1409249,101.334712 43.7137873,101.32774 42.2866496,101.321304 C43.5309034,92.0784291 45.3227361,71.7112813 45.6498891,70.8268958 C49.3751421,68.6601779 54.2330951,69.7907327 57.8687833,72.1038649 C61.5044715,74.4180697 64.3603558,77.7561023 67.7375395,80.432857 C77.2464275,87.9697099 89.9780401,89.6869947 102.038185,91.0175954 C125.609822,93.6165842 150.792018,94.1276937 172.34657,84.2390937" id="Stroke-3"></path>
            </g>
            <path d="M0.5,200 L73,200" id="Line"></path>
            <path d="M224.892695,200 L299.5,200" id="Line"></path>
        </g>
    </g>
</svg>