<?xml version="1.0" encoding="UTF-8"?>
<svg width="300px" height="200px" viewBox="0 0 300 200" version="1.1" xmlns="http://www.w3.org/2000/svg" xmlns:xlink="http://www.w3.org/1999/xlink">
    <!-- Generator: Sketch 46.2 (44496) - http://www.bohemiancoding.com/sketch -->
    <title>icon-tools-noact</title>
    <desc>Created with Sketch.</desc>
    <defs></defs>
    <g id="Symbols" stroke="none" stroke-width="1" fill="none" fill-rule="evenodd" stroke-linecap="round" stroke-linejoin="round">
        <g id="category/icon-tools-noact" stroke="#C1C1C1" stroke-width="2">
            <path d="M0,200 L59.0792455,199.949097 C69.817479,199.949097 68.5845707,190.159797 66.8528494,185.169808 C64.8345521,179.353544 62.6991713,173.341397 58.4324983,168.903373 C54.3293706,164.63447 40.081976,159.06278 39.4222195,165.375999 C38.0276244,178.719806 49.4839703,200.28771 62.0985141,196.01509 C67.7207544,194.110902 52.347871,186.56812 50.7161353,170.423229 C50.3076438,166.379201 50.6823111,162.100262 52.7708585,158.613031 C55.7644803,153.614864 61.9286501,151.130835 67.7519766,151.31631 C73.5753032,151.501413 79.096071,153.97392 84.0689622,157.009544 C87.7427836,159.252344 92.6915147,161.778375 95.9022057,158.911501 C98.6363852,156.469844 97.4462217,151.545645 94.4113419,149.490178 C91.3760904,147.43434 87.3681163,147.571495 83.7764392,148.303732 C80.1973997,149.033738 76.4514697,150.487433 74.545424,153.603342 C71.7658979,158.146555 73.9904852,163.925278 75.4337722,169.052051 C77.0272234,174.712204 81.7116802,181.736101 77.0391176,186.520544 C72.0476417,191.771833 62.755297,188.798283 55.7403202,178.390857 C60.28279,173.545085 154.461447,105.762634 154.461447,105.762634 C152.018304,105.249697 150.563866,102.09476 151.760348,99.9039967 C154.499731,98.8569353 157.952023,99.3274996 159.830564,101.579964 C161.708732,103.831685 161.213265,107.85527 158.551937,109.088179 C155.890981,110.320343 152.26325,107.269853 153.456387,104.591055 C157.963917,101.659506 162.736466,99.135334 167.697091,97.0609109 C168.544553,100.47975 167.135462,104.346481 164.287172,106.41793 C159.883716,102.365353 155.087379,97.276865 155.964577,91.3576414 C159.420585,91.6427306 162.966544,92.5065469 165.639766,94.7155231 C168.312988,96.9244993 169.878934,100.730272 168.678363,103.983336 C171.783492,102.414417 174.948837,100.802009 177.389378,98.3216963 C179.82992,95.8413836 181.460912,92.2943098 180.772163,88.8836476 C180.077096,85.4425065 176.881644,82.6704142 173.376572,82.4674694 C167.238793,82.1128736 161.912049,89.7987577 155.964577,91.3576414 C160.451292,89.6039902 165.41675,85.4733571 168.604767,81.8623519 C167.257749,78.8858281 169.497204,75.57701 171.729225,73.1914793 C179.927303,64.430285 191.125694,57.5134353 200.557795,49.9453781 C204.093718,47.1078677 207.99576,44.8353319 211.880703,42.4981213 C228.34488,32.5939687 237.451377,40.3995382 239.688602,44.9676549 C246.450456,58.7734772 234.199057,71.7147398 234.199057,71.7147398 C234.199057,71.7147398 236.355624,68.6679659 238.551591,67.2930705 C239.580811,66.6489252 240.900324,66.883464 242.110931,66.9737856 C249.607623,67.5316979 255.934594,61.8113305 261.246842,56.4927641 C262.266398,55.4717213 265.397175,52.1272206 265.978876,50.8069643 C268.394885,45.3244809 261.425627,9.45603035 257.151148,7.50463797 C256.529676,7.22066391 238.504758,17.7879183 235.035368,21.2573081 C231.690124,24.6025522 227.414902,30.7708106 228.159033,36.5896769 C232.255098,35.9444165 238.476881,39.2922624 240.424928,41.5146196 C241.850373,38.3916484 241.701696,34.2000575 241.82324,30.7693238 C242.118736,22.4326039 248.706265,14.7370557 256.897281,13.1599589 C251.777571,14.5917234 248.496258,19.8887316 247.822006,25.1623231 C247.148125,30.4355428 248.566137,35.7303208 250.033955,40.8399953 C251.002218,44.2090278 252.115812,47.7601903 254.756325,50.0658068 C257.396838,52.3714234 262.073861,52.694797 264.058706,49.8052495 C261.308915,52.6907084 256.71701,53.635554 253.051737,52.0699798 C251.418143,54.210936 249.356358,57.6141643 247.142178,59.1462861 C246.691313,56.8945651 245.890313,52.8910513 245.890313,52.8910513 C246.512157,55.9991548 247.134372,59.1065149 247.756216,62.2138749 C247.871069,62.7873984 247.974772,63.4267118 247.662921,63.9210645 C247.184551,64.6782047 241.962253,60.6330612 241.319223,61.2556483 C238.101842,64.3737875 229.088267,70.5996585 229.088267,70.5996585 C229.088267,70.5996585 229.459961,64.2808641 224.627942,63.5374765 C220.482813,62.89965 215.047163,65.3297839 212.640817,68.834113 C208.084223,75.4699622 209.082221,83.3034088 214.034669,89.6489651 C217.986145,89.5248194 220.872719,88.3800025 223.211788,85.1931 C220.315922,86.1379456 217.64047,82.511701 218.171249,79.5125038 C218.770791,76.1211697 221.909002,73.6352816 225.236776,72.7495353 C228.564179,71.8634174 232.081889,72.2641033 235.5011,72.6703646 C244.935803,73.7921364 254.370507,74.9131649 263.804839,76.0349367 C264.842979,76.1583391 265.904165,76.2884319 266.843064,76.7478454 C269.203691,77.902698 270.170838,80.9279138 269.685034,83.5100705 C269.198859,86.0925989 267.576416,88.3049204 265.871456,90.3046329 C264.102565,92.3794277 261.510373,94.5181537 258.947173,93.5896626 C256.781685,92.8046454 255.906346,90.2083643 255.721242,87.91204 C255.361071,83.4457675 258.240954,77.7246567 262.623596,78.6568647 C265.613501,79.2928328 267.130011,83.1164468 266.032028,85.9691966 C264.933673,88.8215747 261.946741,90.5975277 258.932305,91.1030312 C255.917868,91.6085348 252.83727,91.0617732 249.829896,90.5153833 L226.399063,86.2620913 C225.365382,86.0743859 224.284497,85.8892824 223.280923,86.1992751 C222.2071,86.5308259 221.384913,87.3782878 220.61179,88.1937839 C215.005533,94.1074321 209.140205,100.179794 201.57475,103.207983 C194.009294,106.2358 184.228544,105.338903 179.192465,98.9327608 C181.798038,94.6961951 186.363553,90.8577133 185.690044,85.9301688 C184.907628,80.2057127 177.878899,78.0695885 172.167824,77.1927629 C176.887963,75.1410132 182.652934,75.7119348 186.879092,78.6490591 C191.105622,81.5869268 193.649495,86.791755 193.371468,91.9307933 C197.892751,94.2635435 200.559654,99.730044 199.615552,104.729325 C198.235453,105.377188 196.855725,106.025422 195.475626,106.673284 C197.576811,109.88955 199.159483,113.443686 200.144472,117.157279 C202.098466,116.650289 204.052089,116.142927 206.00534,115.635936 C204.460208,112.147962 202.915077,108.660359 201.369946,105.172756 C206.910786,100.464139 212.451625,95.7555223 217.992464,91.0472771 C224.355862,98.8480147 229.545079,107.60512 233.33301,116.932033 C235.031651,121.115818 236.434051,125.929624 234.54659,130.032008 C232.053269,135.452419 225.222652,137.000152 219.322013,137.883668 C217.845273,136.212904 216.318727,134.449217 215.797612,132.281499 C215.276869,130.113409 216.140314,127.437214 218.240012,126.687879 C216.297169,128.577571 212.521503,127.816713 211.462176,125.321533 C210.40322,122.825981 212.478759,119.581094 215.188406,119.49672 C213.29983,120.153131 211.411254,120.809542 209.522678,121.466325 C201.39708,109.255812 217.331964,100.429572 221.840238,99.9634677 C223.483497,108.895269 228.818046,123.268297 233.60286,130.987261 C235.460585,130.062859 237.834594,129.179343 239.454807,130.475439 C241.84963,132.392264 239.38307,136.488329 236.399112,137.199751 C233.415155,137.911545 230.208924,136.950717 227.244666,137.741309 C273.877369,153.115679 214.406363,187.901014 243.753074,199.949097 L300,200" id="Page-1"></path>
            <path d="M0.5,200 L57.75,200" id="Line"></path>
            <path d="M247,200 L299.5,200" id="Line"></path>
        </g>
    </g>
</svg>