<?xml version="1.0" encoding="UTF-8"?>
<svg width="300px" height="200px" viewBox="0 0 300 200" version="1.1" xmlns="http://www.w3.org/2000/svg" xmlns:xlink="http://www.w3.org/1999/xlink">
    <!-- Generator: Sketch 46.1 (44463) - http://www.bohemiancoding.com/sketch -->
    <title>icon-penobeton-noact</title>
    <desc>Created with Sketch.</desc>
    <defs></defs>
    <g id="Symbols" stroke="none" stroke-width="1" fill="none" fill-rule="evenodd" stroke-linecap="round">
        <g id="category/icon-penobeton-noact" stroke="#C1C1C1" stroke-width="2">
            <g id="Group" transform="translate(0.000000, 4.000000)" stroke-linejoin="round">
                <path d="M-4.73316543e-30,196 L65.625,196 C70.625,195.583333 75.191792,194.737176 77.2788995,193.760804 C79.3655999,192.784432 81.026817,190.484379 80.4848856,188.244993 C80.3199854,187.562998 79.8985737,186.878154 79.2255365,186.68068 C78.1990835,186.379381 77.1897312,187.390769 76.9885937,188.441245 C76.7031738,189.931861 77.6184718,191.562134 79.0402782,192.094294 C80.1074473,192.494126 81.2939147,192.308461 82.417272,192.117909 C92.9737366,190.326808 103.59494,189.393595 114.132268,187.446143 C113.981211,185.186807 114.466954,183.124536 114.383486,180.947446 C108.855461,181.631476 103.221166,183.490574 97.7819015,184.750737 C95.0600299,185.381022 92.3381582,186.010901 89.6166937,186.642 C87.3500282,187.167645 85.2535559,187.104128 82.9473957,187.324402 C82.4453661,187.372447 81.9132066,187.411535 81.4608507,187.189632 C81.0076804,186.967322 80.6937593,186.382639 80.940906,185.942905 C85.5055886,185.317505 90.0706783,184.692106 94.635768,184.067114 C94.9272954,184.026805 95.2542457,183.966545 95.4195531,183.722655 C95.5343725,183.553276 95.5412942,183.335445 95.5437372,183.130643 C95.5966681,178.921005 95.5783459,174.710553 95.487549,170.501322 C95.472484,169.793676 95.4134457,168.995233 94.8715143,168.540841 C94.4928545,168.223256 93.9688382,168.158517 93.4769877,168.106808 C90.5242557,167.796144 88.8027788,166.988743 88.181451,170.229745 C87.7531176,172.463838 87.3732363,178.920191 89.8088738,180.33304 C92.5926339,181.947433 91.9265184,174.389303 91.8764376,173.207314 C91.849565,172.576622 90.8178188,168.893443 89.9041494,168.919094 C93.0836701,168.83074 96.1931591,168.863313 99.355579,168.371462 C99.5253651,171.677203 99.1638061,174.712588 99.3331851,178.017922 C99.368201,178.699102 99.4186889,179.425071 99.8266643,179.971888 C100.235047,180.518298 101.140573,180.743865 101.595372,180.235321 C101.233406,169.219986 100.871847,158.204651 100.509881,147.189316 L111.664058,147.524002 C112.543525,157.310932 112.674224,167.165044 112.054932,176.971925 C113.032119,177.132754 114.008491,177.293582 114.985677,177.454411 C115.580947,166.88451 115.518244,156.277557 114.798791,145.715393 C109.896164,145.986562 104.993538,146.257731 100.090505,146.528493 C99.4056598,146.566766 98.6691054,146.591603 98.0925654,146.220272 C97.6251445,145.919787 97.3442034,145.407579 97.0860633,144.914914 C94.5808013,140.13525 92.0865327,134.998099 90.613424,129.788474 C89.377283,125.415971 86.9668896,121.888735 85.4526577,117.637974 C84.1367131,113.942987 84.5051939,109.89377 84.7503048,105.978917 C85.327252,96.7404325 85.1155283,87.4526817 84.1183909,78.2500276 L100.333987,76.1038817 C101.219155,90.4811456 102.103102,104.93007 100.722011,119.268246 C109.467831,118.671348 118.210393,118.251972 126.722502,117.78048 C127.332429,103.787576 127.548225,89.7771642 127.370702,75.7724526 C122.453418,75.9320597 117.535727,76.0696801 112.617222,76.1853139 C108.597728,76.2797753 104.627093,76.1356402 100.584798,76.0489149 C100.469979,74.2028467 100.163794,72.1731489 100.338873,70.3299308 C100.440256,69.2562471 101.100264,68.2017 100.890576,67.122316 C99.9484055,67.2236991 91.027914,68.067744 91.0063344,67.6426678 C90.8418414,64.0625007 90.7380153,60.5381146 90.6598404,56.9530615 C94.2587369,56.9371823 97.8568191,56.5678872 101.457344,56.4481818 C101.817682,56.4363742 108.708883,56.6065675 108.708068,56.7971189 C108.711733,55.7674086 108.715804,54.7372911 108.719876,53.707988 C104.953636,53.5626315 101.348225,54.0837976 97.5701778,54.2149035 C95.2534314,54.2955214 92.9195842,54.2324114 90.600802,54.2356687 C90.3235253,47.6628678 90.638668,41.4060239 90.853649,35.1613948 C90.9664326,31.8857841 91.083695,28.6105806 91.2038075,25.3353771 C91.2950116,22.8679811 90.8569063,19.5711981 92.024237,17.3041254 C92.5946697,16.195833 93.8568689,15.6502372 95.0465935,15.2768705 C99.7529682,13.799283 104.886048,13.7088933 109.641689,15.0207662 C111.67953,15.5830556 113.762973,16.4869531 114.953105,18.233674 C116.203903,20.0691561 116.221818,22.4481981 116.190467,24.6692616 C116.057325,34.1096978 115.849266,43.5493197 115.565068,52.9864986 C115.423783,57.7046808 115.262547,62.4228631 115.083396,67.1402311 C115.032908,68.4643188 115.546745,73.0868183 114.647327,73.9463353 C113.887564,74.6718963 111.136784,74.0334677 110.309433,73.842102 C110.160005,66.4562005 110.169369,59.0613415 110.100559,51.6734042 C110.077351,49.2190373 110.054143,46.7630419 110.161226,44.311118 C110.298847,41.1653917 110.649819,38.0335089 110.888009,34.89389 C111.42709,27.7913726 111.525623,20.5805503 110.931982,13.5114201 C110.595667,9.50739835 110.626611,3.55551807 104.925542,4.17603152 C101.757422,4.52089693 99.269668,6.23423064 98.2517654,9.28753138 C98.3333333,16.5397904 94.7212719,14.4018814 93.3935197,14.8717452 C93.4619227,12.5484843 93.2620067,10.0688734 94.1333313,7.86938943 C95.763197,3.75665563 101.215491,1.2155635 105.309088,0.628437261 C106.733337,0.424042412 108.209296,0.408977453 109.587943,0.821838761 C115.026394,2.4512973 114.421759,8.31563794 114.486498,12.9035287 C114.540243,16.7055986 114.58951,20.5080757 114.634705,24.3101456 C114.695779,29.430603 114.862308,34.567754 114.759296,39.6882114 C114.457182,54.7417699 113.76623,69.7871851 112.688068,84.8045062 C104.180845,84.9596346 95.6728072,85.1147629 87.165177,85.2698913 C86.1240662,85.2890279 85.054047,85.3134575 84.0923326,85.7132897 C82.0964291,86.5418624 81.072419,88.7323889 80.3790238,90.7787804 C76.9910366,100.774991 77.1848453,111.579824 77.4148913,122.13181 C77.4450212,123.520636 77.4877731,124.962394 78.1062508,126.206271 C79.9339967,129.881306 86.1810688,130.284396 89.7600144,130.777061 C89.3894979,130.726166 88.0992045,125.708313 87.8927738,125.117522 C87.1720988,123.060544 86.4082646,121.018632 85.6090075,118.99097 C86.6716978,120.802022 88.6505006,120.061803 90.2091131,119.748696 C92.8458881,119.218573 95.9272829,119.650978 98.5978523,119.803663 C98.5840088,119.802849 98.8388916,139.540795 98.855178,140.928807 C99.0489867,137.482596 99.3543575,134.042492 99.7712904,130.616232 C100.13855,127.600797 100.851489,124.881369 101.018832,121.821961 C109.164903,120.640379 117.209998,120.72059 125.272194,119.419303 C121.948131,127.54298 115.637135,135.485878 115.157499,144.513453 C115.040644,146.699094 115.594383,148.68604 114.61964,150.756861 C117.836212,150.554502 121.063371,148.944587 123.362202,151.773542 C126.255488,155.334572 126.740417,164.722078 127.871103,169.209807 C127.972894,169.614525 128.075091,170.038787 127.976965,170.444319 C127.794964,171.193496 126.979421,171.627936 126.211515,171.697968 C123.675309,171.929643 121.84797,169.408909 120.581699,167.199653 C119.25924,164.893493 117.937188,162.586925 116.614729,160.280358 C115.730782,158.738439 122.050329,156.40052 122.852436,156.174546 C125.962739,155.297521 129.401622,154.691665 132.417464,156.229105 C133.264766,156.66151 134.028193,157.243344 134.73421,157.881365 C136.035497,159.057246 137.159261,160.438743 137.976841,161.990434 C139.777714,165.406515 140.669804,170.674772 138.415353,173.935318 C135.114091,178.710096 130.136547,183.172174 123.822294,181.33832 C120.407027,180.346476 117.786946,177.372572 117.156253,173.883609 C116.804466,171.939822 117.179868,169.752553 118.602489,168.382456 C121.159868,165.919131 125.297031,167.188252 128.79373,167.803065 C132.653617,168.48221 136.690212,168.12798 140.372983,166.786791 C141.002454,166.55756 141.681192,166.29657 142.323285,166.488342 C142.836715,166.641842 143.223518,167.058368 143.556576,167.478151 C146.159556,170.759462 146.98365,175.061118 148.599673,178.925891 C150.216102,182.789849 153.312969,186.659915 157.500213,186.788985 C158.659808,186.824815 159.902056,186.512523 160.664262,185.637534 C162.148771,183.932343 161.103588,181.327734 160.195619,179.25732 C158.555982,175.519582 157.562102,171.499681 157.270574,167.428477 C156.654947,158.833307 148.123701,166.180936 146.032522,169.708986 C144.87537,171.661324 144.20559,173.862029 143.675467,176.068842 C143.041924,178.707246 142.59079,181.447847 143.008537,184.129409 C143.805351,189.246202 147.73011,192.461338 152.625,194 C157.670947,195.585485 165.384786,194.379007 169.289868,191.013007 C173.153419,187.683244 173.5,181.625 172.625,176.875 C172.112791,173.180421 170.02408,169.132446 166.922734,167.060811 C162.875553,164.356447 157.918368,166.105611 153.41028,164.829568 C153.383408,163.649616 153.357349,162.469256 153.330884,161.289303 C149.014977,161.653712 144.670976,161.691985 140.349368,161.403308 C140.251649,157.666791 140.638045,153.918059 141.495526,150.280075 C145.457611,150.092374 149.379793,149.756873 153.322334,149.33139 C153.568666,149.304517 153.835357,149.269094 154.012879,149.096051 C154.179408,148.934408 154.228674,148.690111 154.266133,148.46088 C154.605298,146.390466 154.640721,144.283407 154.668815,142.185306 C154.814172,131.05678 154.924512,119.971821 154.863845,108.847366 C154.847966,105.95693 154.926548,67.7363149 153.500263,67.7603374 C141.898616,67.9765399 130.248924,68.5205071 118.647684,68.3368774 C118.855336,66.8405606 119.062174,65.3442437 119.269826,63.8475197 C119.734397,60.5393361 145.523571,61.899254 148.16686,61.9114688 C176.670984,62.0454248 205.446277,61.8666811 233.922714,61.0279294 C234.782638,72.3323488 232.817679,82.8721199 231.90686,94.0043102 C227.973277,97.6675382 224.734718,101.019288 220.800321,104.682109 C221.715211,103.830328 221.138671,96.7799271 221.196488,95.336134 C221.577184,85.7955362 222.586129,75.7150429 221.512038,66.2167898 C202.120586,67.2289922 182.665616,66.25262 163.210647,67.3039098 C162.339322,75.4047861 162.538831,83.5781371 162.738747,91.723394 C162.971236,101.186224 163.203725,110.649054 163.436621,120.111477 C163.659338,129.18669 162.902833,138.959369 164.191091,147.920984 C167.385676,148.665274 171.480088,147.035816 174.719054,146.714159 C177.573253,146.430775 180.427452,146.142505 183.280837,145.848534 C189.155764,145.244307 195.028655,144.618501 200.898695,143.971115 C212.471841,142.694665 224.035215,141.331082 235.588817,139.891361 C235.022049,139.961393 235.322941,149.167711 235.319277,149.826091 C230.168689,150.549616 225.018916,151.273141 219.868329,151.996666 C219.720937,152.900971 219.579652,154.165206 219.432259,155.069511 C220.581268,155.168858 221.731091,155.268612 222.880099,155.368367 L233.417834,170.450834 C233.777358,170.965485 234.195919,171.520853 234.811547,171.647887 C236.003307,171.893405 236.802157,170.439026 236.995559,169.237494 C237.750435,164.534376 235.78059,159.868311 233.855125,155.512095 C233.653988,155.056074 233.42272,154.567481 232.982579,154.333771 C232.580304,154.120011 232.092525,154.169278 231.645462,154.258853 C229.397119,154.708359 227.397958,156.014939 225.726562,157.584137 C222.225384,160.871556 219.922481,165.642262 220.363437,170.424368 C221.048282,177.85465 227.610089,181.495077 234.522055,180.857056 C240.878654,180.270744 244.932756,172.667419 243.989771,166.714317 C243.790669,165.461482 243.411195,164.243663 242.976347,163.051903 C241.555762,159.157408 241.162038,157.497819 236.851424,157.078443 C232.848216,156.689197 228.820579,156.554834 224.800271,156.676575 C224.777877,154.461619 224.755483,152.24707 224.733904,150.032114 C224.740418,150.722659 206.921015,151.604977 205.004915,151.764177 C205.451163,156.100035 205.598148,159.372389 203.791982,163.421198 C203.3893,164.325096 202.976438,165.243651 202.325795,165.989163 C201.283056,167.183773 199.732179,167.812837 198.188632,168.177246 C191.492054,169.757846 183.950617,166.641435 180.323626,160.793788 C179.553277,159.55154 178.935614,158.036493 179.410771,156.653774 C186.023474,156.554427 192.632512,156.20834 199.219156,155.615514 C199.988691,157.128524 200.486649,158.93184 199.868171,160.512847 C198.474459,164.077542 194.70089,162.042144 193.175257,159.900069 C191.345883,157.33129 189.404539,154.569924 186.023066,154.228316 C181.681915,153.789803 176.701114,154.931076 172.368513,155.355338 C162.55471,156.315423 152.796689,157.632997 143.01668,158.862623 C144.374969,158.692023 142.065959,121.704291 141.198706,118.397329 C139.826166,118.211256 138.263889,118.757259 136.859184,118.799197 C134.587225,118.8676 132.31038,118.860678 130.037607,118.891215 C129.382078,111.687315 129.386557,104.423969 130.051858,97.2208825 C130.173192,95.9012736 130.303891,94.5014539 129.717986,93.3121364 C136.885242,93.2258183 144.052498,93.1395001 151.220161,93.053182 C151.290193,93.6671809 151.360224,94.2811797 151.430256,94.8951786 C146.160778,95.242487 140.891707,95.5897954 135.621821,95.9375109 L135.625486,98.612559 C140.761415,98.6634541 145.898159,98.7143493 151.034088,98.7656516 C151.038567,100.52133 151.043453,102.277416 151.048339,104.033501 C145.960862,104.066481 140.872163,103.91176 135.796086,103.569745 C135.9504,107.447954 135.939407,111.332677 135.764328,115.209665 C134.763526,115.204372 133.763131,115.198672 132.762736,115.192971 C132.960616,115.194193 133.543671,98.9810398 133.591309,97.4993807 C133.777789,91.6765705 134.452862,85.885926 134.952041,80.0855096 C135.379967,75.1108159 139.157201,71.3388759 141.754481,67.0282618 C142.221087,66.2530272 150.095989,66.9456081 151.236448,66.9452009 C154.430219,66.9447938 157.61829,66.8894199 160.811247,66.856847 C167.898292,66.7843723 174.98493,66.7123048 182.071976,66.6398302 C176.496312,78.3086588 170.921056,89.9770802 165.344985,101.645909 C164.953703,102.465117 164.55835,103.296947 164.395893,104.190258 C164.284738,104.80385 164.286366,105.431692 164.287995,106.055056 L164.414622,145.947882 C182.205524,143.944242 200.002941,142.747596 217.856139,141.327825 C218.125,136 218.93593,101.997289 218.806046,90.7453931 C222.832869,88.6688718 226.408557,84.7723405 229.948008,81.9185487 C230.476503,81.4926582 231.016399,81.059846 231.650348,80.817178 C232.394639,80.5321653 233.212218,80.5297223 234.009032,80.5309438 C238.133167,80.5370512 242.257708,80.5427515 246.381842,80.5488589 C248.219767,83.2283858 250.106959,86.0284323 250.600845,89.2405259 C251.094732,92.4518051 249.751507,96.1948367 246.730779,97.3927045 C243.984071,98.4814532 241.376204,97.4415638 238.638454,97.3507669 C234.959753,97.2290258 231.610842,98.9102458 228.004617,99.5059224 C228.130022,108.018439 229.06854,118.617603 221.52466,124.354095 C220.702602,124.979494 219.797076,125.542598 219.216871,126.396822 C218.327632,127.706659 218.510586,130.291958 218.5,131.875" id="Stroke-1"></path>
                <path d="M181.88199,66.2867689 C182.053328,92.4827088 182.22509,118.67906 182.396428,144.875" id="Stroke-4"></path>
                <path d="M243.912859,168.969215 C244.550066,171.761526 242.775658,174.744388 240.219908,176.037124 C237.663751,177.329453 234.551004,177.142159 231.875956,176.118556 C231.12108,175.829879 230.360096,175.472392 229.551881,175.489085 C228.744073,175.506186 227.872749,176.052596 227.825111,176.859589 C227.779102,177.641339 228.339763,179.810693 228.873144,180.384383 C231.369041,183.06961 236.20621,196 251,196 L300,196" id="Stroke-6"></path>
            </g>
            <path d="M0.5,200 L48.5,200" id="Line"></path>
            <path d="M251.5,200 L299.5,200" id="Line"></path>
        </g>
    </g>
</svg>