<?xml version="1.0" encoding="UTF-8"?>
<svg width="300px" height="200px" viewBox="0 0 300 200" version="1.1" xmlns="http://www.w3.org/2000/svg" xmlns:xlink="http://www.w3.org/1999/xlink">
    <!-- Generator: Sketch 46.1 (44463) - http://www.bohemiancoding.com/sketch -->
    <title>icon-service-noact</title>
    <desc>Created with Sketch.</desc>
    <defs></defs>
    <g id="Symbols" stroke="none" stroke-width="1" fill="none" fill-rule="evenodd" stroke-linecap="round">
        <g id="category/icon-service-noact" stroke="#C1C1C1" stroke-width="2">
            <g id="Page-1" transform="translate(-0.500000, 27.500000)" stroke-linejoin="round">
                <path d="M0.413546587,172.399517 L100.672217,172.399517 C100.672217,172.399517 83.2093386,157.552661 78.4975141,148.249798 C76.2557978,143.823989 74.8606212,138.563829 76.1184317,133.697154 C77.437064,128.595831 81.3594468,124.882087 85.1006056,121.498653 C107.826842,100.944453 130.989175,80.9633335 154.561537,61.5751497 C152.989274,51.673034 151.459214,32.4161624 152.572211,30.0150889 C153.122916,28.8269614 182.977298,0.977937715 185.396514,0.0271649365 C186.342355,-0.344660773 199.962291,3.17414612 204.892164,4.83833692 C196.770183,12.0650223 184.415505,25.8893578 174.549553,36.8514475 C180.913909,43.2036205 192.311162,54.989232 193.640552,55.0506012 C193.640552,55.0506012 215.730436,32.172039 223.31826,22.8326255 C225.010512,28.9384188 227.694531,46.0979046 226.329972,48.0021576 C222.252018,53.6910007 199.175746,82.0530897 196.207478,81.6934476 C190.072756,80.9502474 176.814026,78.0013627 171.170015,80.7268812 C168.567506,81.9840492 166.725889,84.5426072 164.969506,86.9856465 C150.427726,107.209084 134.245001,126.028248 116.672064,143.152086 C112.107122,147.600006 107.198764,152.077257 101.237404,153.596147 C95.2760446,155.115488 88.0097062,152.666582 85.6645516,146.49942 C83.9243045,141.922444 85.4125758,136.321142 88.7275685,132.93455 C92.042975,129.547055 96.8723055,128.253337 101.383046,128.839955 C102.757535,129.019099 104.153539,129.376485 105.287637,130.242875 C108.638626,132.802787 107.840082,139.268222 104.224291,141.358388 C100.301908,143.626344 95.0459977,140.879166 93.2238274,136.463736 C91.4020709,132.048305 92.4430746,126.729483 94.7948493,122.622704 C97.1474515,118.515925 100.647806,115.374359 104.084856,112.309504 C114.524269,103.001678 124.963269,93.6934003 135.403097,84.3851227 C138.521143,81.6050036 140.030929,80.7598221 143.158492,77.9918865 C135.958768,71.6658858 128.759044,65.339885 121.559733,59.0143355 C115.034014,53.2803679 109.258015,45.0582366 102.981375,39.0097514 C106.856177,34.7179621 109.080929,33.3033097 111.885764,28.0991035 C103.09102,22.1038652 85.7212358,9.15494461 79.6969854,4.45207138 C78.4060746,5.89605471 68.8136143,13.8681965 64.4725129,15.992657 C69.5600255,25.3410953 80.5869691,43.9305758 85.5007052,52.7979872 C85.5271855,52.8453679 94.9959335,46.2589989 97.3055053,44.7207054 C100.183574,48.2255238 112.49605,58.7724683 116.768055,63.1378104 C131.164606,77.8483907 160.813766,108.505511 160.813766,108.505511 C161.128632,110.856045 150.944918,121.543326 147.175624,127.134701 C153.13988,135.820712 160.681365,145.323927 168.068519,152.593481 C175.635242,160.03902 185.237633,166.012598 195.417209,165.46569 C205.595958,164.91833 215.751123,155.861395 215.407708,144.752651 C215.137113,136.006173 208.983358,128.956376 202.98476,123.143892 C193.43864,113.895178 183.264856,105.417643 172.573053,97.8037892 C170.433948,97.5195049 168.843066,100.328504 169.223719,102.642036 C169.604786,104.955117 171.232078,106.749717 172.779102,108.38548 L191.165065,127.827813 C196.053148,132.996371 201.378569,139.913953 199.223327,146.957433 C195.689045,151.026759 188.019711,146.666832 189.054922,141.176085 C190.090133,135.685338 200.267227,143.663346 203.863159,148.577853 C207.458676,153.492812 210.077736,159.403216 214.660055,163.218491 C218.9413,166.783024 226.694764,169.843366 237.920448,172.399517 L300.521761,172.399517" id="Stroke-1"></path>
            </g>
            <path d="M0.5,200 L73,200" id="Line"></path>
            <path d="M240.957281,200 L299.5,200" id="Line"></path>
        </g>
    </g>
</svg>