<?xml version="1.0" encoding="UTF-8"?>
<svg width="300px" height="200px" viewBox="0 0 300 200" version="1.1" xmlns="http://www.w3.org/2000/svg" xmlns:xlink="http://www.w3.org/1999/xlink">
    <!-- Generator: Sketch 46.2 (44496) - http://www.bohemiancoding.com/sketch -->
    <title>icon-zavod-noact</title>
    <desc>Created with Sketch.</desc>
    <defs></defs>
    <g id="Symbols" stroke="none" stroke-width="1" fill="none" fill-rule="evenodd" stroke-linecap="round" stroke-linejoin="round">
        <g id="category/icon-zavod-noact" stroke="#C1C1C1" stroke-width="2">
            <g id="icon-shtukatur" transform="translate(0.000000, 16.000000)">
                <g id="Page-1" transform="translate(0.573204, 0.500000)">
                    <path d="M0.42679558,183.5 L32.8185061,183.355126 C32.6887976,175.36481 32.615296,155.104993 32.670206,154.973073 C32.7497606,154.781061 40.1487707,151.431419 44.681221,155.845341 C42.4216974,155.904964 40.1617415,155.964116 37.902218,156.023269 C40.108561,156.045803 42.3157688,156.068338 44.5225441,156.090872 C45.5965312,156.102139 44.4641753,170.464991 44.3954297,171.678561 C45.2666391,171.770107 46.1378484,171.861653 47.008193,171.953199 C46.7548289,166.671703 47.3000373,155.180108 47.3813214,155.069783 C47.446608,154.981054 49.8345431,153.918182 51.6063623,153.778751 C53.3781816,153.639319 56.4393042,154.450557 57.6784536,155.832666 C57.6784536,155.85567 53.2934387,155.926559 52.8269201,155.942521 L57.8176741,156.159884 C57.5271269,156.148617 57.0956297,171.22177 57.1319481,172.563975 C58.077956,172.466795 59.1234072,172.180421 60.0689828,172.083241 C60.1455109,166.923807 61.0318529,153.703636 61.0318529,153.703636 C61.1710734,153.511155 64.9767233,152.21355 66.7338423,152.189607 C68.4952849,152.165665 70.6138584,152.82949 71.0535705,154.681534 C69.2631597,154.762752 67.4727489,154.84397 65.682338,154.925187 C67.4662634,154.839745 69.2540801,154.858523 71.0358437,154.981523 C71.0652443,160.66676 71.0946449,166.352466 71.1240455,172.037703 C72.5849966,171.639126 74.1004252,171.476691 75.6054772,171.557908 C75.795284,165.834175 75.9907117,153.769831 76.2042985,153.602701 C79.2775272,151.196686 84.7823596,151.165701 86.9117422,154.346335 C84.8191103,154.635527 82.7070222,154.759466 80.5979606,154.716744 C82.6603271,154.721439 84.723126,154.726134 86.7859248,154.730359 C87.1024138,160.199172 87.2334195,165.68066 87.1793742,171.159331 C88.5828211,170.777186 89.8569918,171.003938 91.2755713,170.946194 L91.2755713,153.191918 C91.1765604,151.493389 94.6069202,150.836606 95.5477398,150.819705 C96.7302497,150.798579 97.9387014,150.781678 99.0637072,151.178846 C100.188713,151.576484 101.235029,152.471287 101.542871,153.711617 C99.9699378,154.204557 98.3113974,154.373095 96.6822575,154.205026 L101.361279,154.018648 C101.500067,155.671169 101.366035,157.172523 101.219896,158.825513 L101.219896,170.995957 C103.088997,170.995957 104.843089,170.495976 106.73597,170.639632 C106.442396,165.119178 106.51633,152.839818 106.51633,152.839818 C106.97939,151.707466 114.623117,149.084088 117.749094,153.625235 C116.004945,153.810674 114.26123,153.995644 112.517082,154.181083 C114.226641,154.212068 115.935768,154.242583 117.645327,154.273568 C118.117466,159.838152 117.959654,165.439824 118.361318,170.987507 C118.715855,171.042904 121.865179,170.28988 121.865179,170.744323 L122.162644,152.21355 C122.837994,150.257754 130.188147,148.027789 133.040871,153.710678 C131.812098,153.78814 130.579867,153.810205 129.349797,153.777812 C130.477829,153.734151 131.608888,153.77922 132.7313,153.912079 C132.59035,159.448495 133.022712,165.024346 133.246243,170.560762 C134.92986,170.526021 136.474257,170.286124 138.157875,170.251384 C138.199381,164.602296 138.298825,152.157684 138.298825,152.157684 C139.483929,149.905654 146.077449,149.084088 148.543209,152.666116 C147.004433,153.630869 144.300873,153.566083 142.536404,153.61256 C144.60958,153.213513 146.732477,153.118212 148.828568,153.329941 C149.109171,158.95133 149.230664,164.581639 149.193481,170.21054 C151.000754,170.128853 152.717663,170.021815 154.525369,169.940127 C154.336859,163.852558 154.353289,157.757947 154.57509,151.672256 C155.913683,149.788287 162.615293,148.849355 165.167958,152.70602 C163.274213,153.107883 161.326422,153.206002 159.40587,152.997089 C161.211846,152.82902 163.03382,152.869395 164.831581,153.117742 C165.21033,158.708616 164.951777,164.245032 165.010146,169.833089 C166.263563,169.961253 167.534707,169.888017 168.768669,169.616196 C168.752239,165.183965 168.45218,151.548786 168.45218,151.548786 C169.629501,149.201455 176.126604,148.731988 178.348945,151.40419 C176.957604,151.886332 175.389427,152.032806 173.933664,152.126699 C175.370835,152.052993 176.807574,151.978817 178.244313,151.904641 C178.194159,157.932588 178.061856,163.960066 177.846972,169.983788 C179.191618,169.915246 180.654299,170.080967 181.998512,170.012425 C181.735636,163.993398 181.757686,151.302786 181.937116,151.077442 C183.152486,149.553554 188.05547,147.206223 192.523066,151.839855 C190.452917,151.872248 188.383201,151.905111 186.313052,151.937973 C188.345153,151.998065 190.377254,152.058157 192.409355,152.118249 C193.10589,157.599737 193.282294,163.158687 192.934243,168.678672 C194.480369,168.634072 196.080541,168.687122 197.627532,168.642523 C197.205114,168.220003 197.149772,167.529418 197.125127,166.906906 C196.919323,161.652639 197.16404,150.808907 197.237109,150.669476 C197.373303,150.409861 204.662493,147.440956 205.913748,152.815875 C204.605854,152.870803 203.298823,152.9262 201.990928,152.981128 C203.172574,152.953898 204.353354,152.926669 205.534999,152.89944 C206.074587,157.974371 206.100961,163.112679 205.613689,168.193713 C207.037889,168.286667 208.472899,168.184324 209.874184,167.889499 C209.983571,162.095346 209.934282,150.304231 210.068747,150.210338 C212.012646,148.849355 218.389985,148.497255 218.878122,151.79995 C217.707718,151.766618 216.533423,151.887741 215.390258,152.160031 C216.512237,152.089142 217.635081,152.018722 218.757925,151.948302 C219.085655,153.239334 219.47089,165.581603 219.47089,167.104551 C219.47089,167.104551 243.125412,166.007878 245.26128,165.880183 C254.154101,165.348747 263.053407,164.922941 271.957901,164.737033 C274.530887,164.683514 277.103873,164.649712 279.676859,164.639384 C279.634055,164.010299 279.683777,163.389664 279.821268,162.776542 L279.821268,137.72629 C278.880016,137.720657 277.937899,137.889664 276.996647,137.884031 C276.409932,138.138482 276.399988,138.345986 276.397394,138.532364 C276.306165,146.353203 276.214937,154.173572 276.123276,161.993941 C275.499378,162.052624 275.691779,162.150743 275.065286,162.150743 L237.773203,162.150743 C237.773203,153.309284 238.27604,144.859361 238.023973,136.178929 C243.360185,135.266287 257.182364,132.353249 259.223545,132.508172 C262.044706,132.722719 291.351064,140.433702 292.177308,140.341217 C293.003984,140.248733 293.846657,139.606503 293.90935,138.707005 C285.710902,135.987857 277.320919,133.951312 268.83668,132.621314 C268.694865,132.000679 268.536189,131.145781 268.724266,130.54017 L268.724266,117.391358 C265.144742,116.467449 255.283862,114.071762 254.111297,114.090071 C253.322236,114.102747 240.401964,116.672605 234.720728,117.802611 C238.447256,122.699144 241.772552,128.03322 244.911932,133.393116 C247.481459,127.859517 249.777301,122.176159 251.786054,116.375433 C253.150156,121.588856 255.135995,126.609798 257.678283,131.273476 C260.905,127.213532 264.04611,123.072839 267.098153,118.856562 C266.615205,129.171206 266.800255,139.615892 266.572401,149.940864 C254.75076,150.345544 242.92912,150.750224 231.107479,151.154904 C230.99593,150.506101 230.751645,149.852604 231.108776,149.318821 L231.108776,44.4710386 C228.288912,43.47577 225.180229,42.9626434 222.23325,43.315682 C221.371553,43.4189646 220.447595,43.6184878 219.861745,44.312359 C219.861745,44.520802 219.867366,45.0451958 219.867366,45.2536388 L219.867366,84.0709889 C220.084411,71.3334297 219.780893,58.2545686 218.882877,45.5522194 C218.859098,45.2170205 218.824509,44.855062 218.615245,44.6076532 C218.433221,44.3912293 218.155645,44.3090727 217.893633,44.2367749 C215.865423,43.6757627 213.790951,43.1518383 211.688375,43.1217925 C209.799385,43.094094 208.222129,43.6954803 206.54197,44.569157 C206.579153,46.6887973 206.608122,48.7957619 206.608122,50.9266694 L206.608122,70.9907193 L206.608122,83.6052783 C206.103555,83.5935417 206.010597,74.4427049 206.031783,69.8226872 C206.040863,67.7575051 206.20516,66.2246976 206.176192,63.7402821 C206.107014,57.8480108 205.562238,51.9637204 205.932772,46.0850636 C205.951796,45.7892999 205.968226,45.474288 205.834626,45.2156121 C205.707512,44.9686728 205.466686,44.819852 205.233643,44.6926266 C202.05535,42.961235 198.024872,43.2452621 195.07919,45.4080933 C195.07919,45.4775743 195.078902,58.1566066 195.078326,83.4451903 C194.535711,83.0747814 194.456589,82.2255169 194.463939,81.5297679 C194.574192,71.6221515 194.847444,61.5290959 194.714709,51.5294641 C194.690065,49.664744 194.569436,47.8033102 194.496799,45.9399986 C194.445348,44.6236151 194.112861,43.2682659 192.760433,43.0368191 C191.507016,42.8227424 190.113513,42.8617081 188.842802,42.9034906 C187.97116,42.9325976 187.04677,42.9579487 186.225282,43.3147431 C185.821024,43.489854 185.378285,43.7086253 185.213555,44.1771527 C185.114977,44.4569546 185.099844,44.7621077 185.085576,45.0611577 C185.015101,46.559694 184.936411,48.0770091 185.110653,49.5708508 C185.217879,50.4905352 185.422386,51.2543569 185.422386,52.1895337 L185.422386,57.0348952 L185.422386,68.8072317 L185.422386,83.7667747 C184.799353,79.2260968 185.408118,74.2619604 185.472108,69.6719886 C185.516209,66.5387706 185.416333,63.4050832 185.31689,60.2728041 C185.195828,56.4644937 185.074767,52.6561832 184.953706,48.8474032 C184.90874,47.4385349 184.832212,45.9287314 184.041854,44.8104627 C182.927658,43.2339949 180.8467,43.0175709 179.016944,43.0081816 C175.976142,42.9926892 171.790014,43.1631055 169.448341,45.5761622 C169.800284,53.8049672 169.56897,61.7732184 169.56897,69.6743359 L169.56897,84.2226265 C169.674899,72.5568589 169.266317,61.2023474 168.84952,49.5445607 C168.820552,48.7267504 168.786828,47.8925088 168.522655,47.1258704 C168.047489,45.7470479 166.791477,44.7268977 165.438617,44.6226762 C164.086189,44.5184547 162.70998,45.334387 162.059708,46.6268277 C162.108565,47.2005155 162.170393,47.966215 162.218817,48.5399028 L162.218817,84.8939633 C162.839257,73.1793711 162.262054,61.2192482 161.921785,49.4910415 C161.903625,48.8732239 161.882007,48.2375665 161.651991,47.6718597 C161.166881,46.4780069 159.84515,45.9015023 158.645346,45.9808421 C157.445541,46.0601819 156.334371,46.6587514 155.260384,47.2451148 C155.310106,47.9234936 155.10776,48.9577278 155.15705,49.6356371 L155.15705,86.4103394 C158.106623,86.4103394 160.633346,84.7395089 163.579893,84.598669 C166.770292,84.4451535 169.961123,84.292577 173.151954,84.1395309 C173.143307,84.5963216 173.134227,85.0531123 173.12558,85.509903 C169.64031,86.4192592 166.192656,87.2445809 162.676689,87.9422078 C159.142562,88.643121 155.595465,89.4562366 151.986539,89.4562366 L151.986539,77.0210137 L151.986539,59.3470166 L151.986539,46.0005597 C159.521311,46.0005597 166.629342,44.0663586 173.732616,41.3368817 C174.946688,40.8707016 175.958415,40.9237513 177.063533,40.87211 L233.127907,40.87211 C232.801041,39.8716774 232.982201,2.78665795 232.982201,2.78665795 C232.405862,2.78665795 171.87346,2.37587496 171.87346,2.37587496 C172.008789,2.47681021 172.163142,39.006451 172.163142,39.006451 C172.509032,39.4965738 173.114338,38.8055195 173.146766,38.1891102 C173.8139,25.5294825 174.1105,12.8468509 174.035702,0.167036103 C161.744516,4.31946536 149.56488,8.56015428 137.565539,13.6186535 L138.006548,132.261233" id="Stroke-1"></path>
                    <path d="M215.923749,169.143913 C216.956662,169.344844 218.001248,169.477703 219.048861,169.54249 C218.760908,172.240512 215.635796,176.073704 215.399294,176.1568 C215.1001,176.26196 211.071783,172.368677 210.8716,169.048611 C210.838308,168.494641 201.973158,169.122787 201.439624,169.082882 L205.011798,169.489909 C204.808156,170.165941 201.939002,176.567114 201.721524,176.339422 C200.464648,175.024917 197.461029,169.86736 197.330023,168.295118 C194.415471,169.013401 191.381155,169.248134 188.451903,169.937311 C189.646952,169.949517 190.841135,170.046696 192.02451,170.228849 C191.580042,170.160307 187.440176,177.486798 187.440176,177.486798 C186.893238,176.659598 183.179249,170.864976 182.48012,170.274857 C182.325334,170.143876 182.113045,170.137773 181.916752,170.136834 C179.683603,170.1312 177.243784,170.523205 175.040035,170.928354 C176.101052,171.049476 177.169418,171.083278 178.234758,171.030698 C178.439697,171.346179 174.150667,178.228085 173.784024,178.114474 C173.609782,178.060486 170.500667,173.522625 168.944164,170.150918 C166.145053,170.539166 163.233528,171.214259 160.389883,171.014736 C161.770415,171.111446 163.151379,171.208156 164.532343,171.305335 C164.668105,171.314725 164.839752,171.355568 164.865262,171.501103 C164.8778,171.570584 164.849264,171.640065 164.821593,171.703912 C164.326971,172.832979 160.539048,177.867535 160.417554,177.799463 C159.543751,177.312626 156.536241,173.804774 155.219266,171.108629 C154.687461,170.086601 151.353951,171.175293 150.426967,171.246183 C148.131125,171.422702 145.840039,171.665886 143.556303,171.974794 C145.251594,172.060707 146.948182,171.879962 148.636988,171.699218 C148.059785,172.645662 143.699415,178.034196 143.699415,178.034196 C143.084596,177.545951 137.917006,170.686579 137.983157,170.635407 C134.951868,171.340545 131.483028,171.786538 128.380398,171.852733 C129.53394,171.827851 130.688346,171.844752 131.840591,171.902966 C130.545667,174.014156 126.962684,178.396624 126.650086,178.306017 C126.414881,178.238413 122.944744,171.804378 122.44061,171.483263 C122.083911,171.256511 116.549678,171.794989 113.981016,172.213283 C115.157905,172.165867 116.335227,172.117982 117.512548,172.070565 C115.841037,174.42353 112.453914,179.238846 112.267998,179.238846 C112.030631,179.238846 108.139806,174.183164 107.138023,171.400168 C106.140132,171.367305 97.0237802,172.130188 97.0237802,172.49778 C98.5936865,172.032069 100.284222,172.058359 101.841157,172.571955 C100.980324,175.618322 99.1133855,177.996638 97.3445928,180.432699 C96.4128528,179.873095 91.6534124,172.302951 90.8531105,171.988409 C89.8314392,171.587015 88.1227448,172.235348 87.0829143,172.401539 C85.6271516,172.634394 84.172686,172.878517 82.7203822,173.134376 C83.8280935,173.119823 84.9362372,173.17522 86.0374631,173.300567 C85.744754,173.873785 81.2231127,180.432699 81.2231127,180.432699 C80.2386246,179.467946 75.8553391,172.417501 74.3528813,172.356001 C73.3433162,172.315157 72.0488245,172.85833 70.998185,172.964429 C69.6695367,173.098697 68.3387266,173.203857 67.0061871,173.281319 C68.138543,173.274277 69.2717637,173.267704 70.4041196,173.261132 C70.0599595,174.196309 65.7186132,180.140221 65.6373291,180.155244 C65.4501164,180.189985 60.7256974,173.215594 60.7256974,173.215594 C59.2824732,172.203424 54.8287127,173.498212 53.2748039,174.07237 C54.4884439,173.62356 55.8006624,173.492579 57.0696447,173.692571 C55.9139412,175.746017 53.3349022,178.341696 51.7502956,179.990462 C49.7406773,177.794768 47.1495321,173.303384 47.1495321,173.303384 C46.1317521,172.523131 44.9980991,172.824059 43.7373316,172.851288 C43.3849566,172.859269 39.5226673,172.929689 39.5226673,172.943303 C40.8089441,173.110433 42.5375272,173.329205 43.823804,173.496335 C43.823804,173.496335 40.2927039,178.816796 39.2117991,179.834129 L35.392746,172.792135 C35.1173314,171.93489 35.7256647,154.854298 35.9522223,147.171952 C54.7699115,142.277766 74.5063698,139.746873 93.6535188,136.760598 C119.703326,138.873196 129.107199,139.929495 147.310069,142.215796 C147.310934,144.688945 147.312231,147.161624 147.313096,149.634302 C147.715625,149.642283 148.182143,149.639467 148.585105,149.647447 C148.681954,149.649795 148.790044,149.646509 148.857925,149.572333 C148.917591,149.506608 148.927103,149.406142 148.933156,149.314126 C149.094427,146.781825 149.151066,144.242013 149.103939,141.704547 C148.88084,141.815811 148.625747,141.850082 148.384056,141.802196 C141.45978,140.424313 134.852857,139.047838 127.814869,138.883525 C128.240745,134.427351 128.393802,129.940192 128.272308,125.461484 C128.271443,125.421579 105.592762,127.135131 103.943733,127.651544 C104.030206,130.650494 103.777706,133.662121 104.030206,136.64417 C104.041879,136.781255 111.5105,137.540851 112.159475,137.457286 C112.470343,137.417381 111.812721,124.669024 111.812721,124.669024 C111.884925,124.669024 111.956697,124.670902 112.028902,124.671841 C114.520604,124.671841 126.240207,124.068108 129.162109,124.96338 C129.194968,125.557724 129.340242,131.932137 129.078231,131.948099 C133.814756,131.652805 170.813265,144.362666 173.895141,144.397876 C173.560925,145.171086 173.226277,145.943828 172.892061,146.717039 C164.487377,143.414813 135.631108,135.43905 129.84697,134.425942 C130.12152,136.202403 131.447574,137.280297 132.531505,138.543162 C133.548421,137.790607 136.00294,135.978467 136.249386,135.971895 C136.65105,135.960628 139.276784,139.577865 139.499883,139.647346 C139.763191,139.729033 142.543279,138.224394 143.67477,137.607046 C144.736651,138.660998 145.658447,139.880671 146.404271,141.216303 C147.276777,140.387225 148.21457,139.639365 149.205112,138.98446 C150.308499,140.397553 151.21473,141.99233 151.882297,143.697432 C153.326386,142.786667 154.731562,141.803135 156.090908,140.750592 C156.379726,140.527126 158.356485,145.613793 158.437769,145.623183 C158.489652,145.629286 162.490297,143.230782 162.490297,143.763157 C163.036803,144.169245 162.627788,146.25837 163.364533,146.869615 C163.457923,146.947547 168.025827,146.317523 168.025827,145.536331 C167.753007,145.707217 168.734901,148.239518 168.787217,148.507114 C169.140889,148.293507 171.834071,147.003883 171.834071,146.492634 C172.838016,147.254578 173.904221,147.919342 175.016688,148.47519 C175.07203,143.112007 174.613294,85.9394647 174.613294,85.9394647 C175.244975,85.9394647 233.891415,85.4028647 234.135267,86.0972053 L234.135267,133.828781 C233.558496,133.828781 232.982157,133.826434 232.405819,133.826434 L180.056299,133.826434 C180.653823,134.650817 181.697112,134.942825 182.662577,134.912309 C199.778489,134.366789 216.916884,134.650817 234.009449,135.763921 C234.15775,135.926826 233.926868,136.587834 233.846881,136.799564 L233.846881,168.684305 C230.835048,168.519523 217.080317,169.368787 215.923749,169.143913 Z" id="Stroke-3"></path>
                    <path d="M239.897052,150.853741 C240.070861,154.599613 239.683897,183.354892 239.070376,183.354892 L300.426796,183.5" id="Stroke-5"></path>
                    <path d="M155.278241,47.8763122 C155.960075,47.5336018 156.675202,47.2303266 157.42535,47.1805632 C158.175066,47.1312692 158.972341,47.3688192 159.481664,47.9687971 C160.142313,48.7467027 160.182522,49.911918 160.185981,50.970095 C160.19679,54.4770081 160.208032,57.9839213 160.219273,61.4908344 C160.227056,64.0146851 160.23527,66.5380664 160.243053,69.0619171 C160.249538,70.9580914 160.255591,72.8533268 160.261212,74.7490317 C160.26813,76.8442597 160.275048,78.9413655 160.14188,81.0318989 C160.107291,81.5746019 160.058867,82.1332668 159.826256,82.6149392 C159.586727,83.1097567 159.175551,83.4759404 158.762646,83.8097309 C157.713303,84.6566481 156.581812,85.3833819 155.392817,85.9739704" id="Stroke-7"></path>
                    <path d="M162.116218,47.2227682 C162.943759,46.8091684 163.824048,46.5195077 164.723793,46.3650533 C165.001801,46.3176372 165.294078,46.2843051 165.557819,46.3894656 C165.860905,46.5105879 166.081409,46.7969623 166.259542,47.0894398 C167.553169,49.2133053 167.310182,51.9775227 167.16707,54.5192132 C166.98764,57.7031335 167.043415,60.8969126 167.099622,64.0864665 C167.177447,68.5266786 167.255704,72.9664212 167.333529,77.4066333 C167.351256,78.4253752 167.366821,79.4647735 167.086651,80.4370382 C166.886035,81.1332567 166.536686,81.775956 166.088759,82.3205369 C165.248248,83.3430345 164.053632,84.0139018 162.79935,84.1664783" id="Stroke-9"></path>
                    <path d="M169.629371,45.8056373 C170.852956,45.280774 172.100752,44.7681168 173.409512,44.6239907 C174.718704,44.480334 176.116098,44.745113 177.142957,45.6380378 C178.767341,47.0497229 179.064806,49.5646538 179.207053,51.8190309 C179.566346,57.4930004 179.721564,63.1801149 179.87635,68.8653516 C179.931692,70.9014268 179.987034,72.9417273 179.846949,74.9731079 C179.775177,76.0172009 179.646333,77.0767863 179.236022,78.0236998 C178.243751,80.3142258 175.884352,81.439067 173.717786,82.3742438 C172.413782,82.9366644 171.109779,83.4995545 169.805343,84.0624446" id="Stroke-11"></path>
                    <path d="M185.384814,44.779384 C186.200249,43.9620432 187.560027,44.0841044 188.455016,44.7962848 C189.349573,45.5084651 189.851545,46.6671079 190.152469,47.8262202 C190.82263,50.4049985 190.667412,53.1372922 190.6432,55.8165363 C190.599964,60.6787986 191.006384,65.5574922 190.552404,70.3948727 C190.376865,72.2647569 190.072915,74.1214961 189.975633,75.9988917 C189.919426,77.0908703 189.932397,78.1964634 189.704542,79.2621519 C189.203867,81.6043191 187.470096,83.5864058 185.341578,84.2502311" id="Stroke-13"></path>
                    <path d="M195.276347,46.1474088 C196.149286,45.7859197 197.053355,45.5136293 197.973421,45.336171 C198.317149,45.2699763 198.67255,45.2173961 199.012819,45.3028389 C199.779397,45.4953201 200.255428,46.3182945 200.563269,47.1046505 C201.381298,49.1965923 201.605262,51.5002633 201.731944,53.7687244 C202.161279,61.4520095 201.585373,69.1536039 201.391242,76.8486257 C201.351465,78.4265019 201.302608,80.0996797 200.50663,81.4212273 C199.86414,82.4869157 198.800097,83.1873594 197.683306,83.576547 C196.566083,83.9652651 195.385735,84.0732423 194.216628,84.1788722" id="Stroke-15"></path>
                    <path d="M206.974635,45.3512878 C208.253129,44.8724322 209.662629,44.8156268 210.970092,45.1902609 C211.657547,45.3869673 212.342841,45.7221662 212.785147,46.3258998 C213.127146,46.7925493 213.295334,47.3793822 213.425908,47.9587036 C214.051103,50.7337188 213.97371,53.6322036 213.848758,56.4856196 C213.703484,59.8056852 213.499842,63.1224645 213.272419,66.4373659 C212.947715,71.1813226 212.571993,75.9492222 211.46947,80.553278 C211.259342,81.43118 210.986954,82.3607232 210.328899,82.9193881 C209.965283,83.2282969 209.516923,83.3916712 209.076346,83.5428393 C208.441639,83.7606717 207.802608,83.96442 207.159686,84.1531455" id="Stroke-17"></path>
                    <path d="M220.195874,44.6205166 C221.119399,44.07218 222.319204,44.3233445 223.164039,45.00454 C224.009307,45.6862051 224.550191,46.7256034 224.933264,47.790353 C225.857654,50.3606808 225.98693,53.1812343 225.948882,55.9398181 C225.860248,62.3132924 224.93802,68.6384116 224.632773,75.0039049 C224.542841,76.8780143 224.49874,78.796723 223.878733,80.5483017 C223.258294,82.2998804 221.921431,83.8866764 220.208845,84.1392493" id="Stroke-19"></path>
                </g>
                <path d="M1.5,184 L49.5,184" id="Line"></path>
                <path d="M252.5,184 L300.5,184" id="Line"></path>
            </g>
        </g>
    </g>
</svg>