<?xml version="1.0" encoding="UTF-8"?>
<svg width="300px" height="200px" viewBox="0 0 300 200" version="1.1" xmlns="http://www.w3.org/2000/svg" xmlns:xlink="http://www.w3.org/1999/xlink">
    <!-- Generator: Sketch 46.1 (44463) - http://www.bohemiancoding.com/sketch -->
    <title>icon-arenda-noact</title>
    <desc>Created with Sketch.</desc>
    <defs></defs>
    <g id="Symbols" stroke="none" stroke-width="1" fill="none" fill-rule="evenodd" stroke-linecap="round">
        <g id="category/icon-arenda-noact" stroke="#C1C1C1" stroke-width="2">
            <g id="Page-1" transform="translate(0.000000, 6.000000)" stroke-linejoin="round">
                <path d="M0.25,193.979436 L84.2407159,193.979436 C84.2407159,193.979436 80.7070876,184.06912 79.2063919,179.322841 C77.3396391,173.418843 77.5344388,166.88567 79.7487843,161.103537 C75.7521607,161.919203 71.6886036,162.402047 67.612583,162.545147 C66.9764837,162.567766 66.2115951,162.512834 65.9009313,161.957516 C65.4167019,161.09015 66.5310296,160.223246 67.4500961,159.846572 C72.3593236,157.83672 77.2680895,155.827329 82.1768554,153.817477 C82.8235717,152.741925 81.0182131,151.914719 79.7635558,151.935953 L71.7439968,152.070281 C70.5525801,152.090592 69.2646869,152.080899 68.3077684,151.370942 C65.3119163,149.146902 67.2829931,141.475398 67.305612,138.423229 C67.3508498,132.413522 66.5670352,126.397353 64.9712478,120.602756 C63.8061429,116.373943 62.1978919,112.140974 62.4226963,107.760752 C62.8349144,99.7564266 69.110509,93.453597 74.9752702,87.9908985 C78.4673536,84.738391 81.9691307,81.4775745 85.8083451,78.6428245 C88.0706981,76.9727178 90.443376,75.4554041 92.6674154,73.7354434 C100.456169,67.7105034 106.533271,57.9695989 104.440329,48.3477899 C104.002261,46.3328601 103.217523,44.3737852 103.13628,42.313156 C103.021339,39.4350146 104.392322,36.5374856 106.69068,34.8004453 C112.6353,30.3066672 112.025513,21.9621345 116.125999,16.2686307 C121.191251,9.23599494 130.749819,6.15659139 139.116971,8.03165318 C146.092828,9.5951279 150.845108,16.5026672 152.110383,23.5385343 C153.780951,32.8279837 150.626305,42.0518845 149.449198,51.1936185 C149.236857,52.8401831 149.083603,54.5116747 148.538902,56.0797655 C147.848795,58.0679219 146.566902,59.7864978 145.304398,61.4699912 C141.65906,66.3312112 137.845234,71.3401466 132.503016,74.234906 C130.399457,75.3746223 127.901682,76.1598217 125.626404,75.4193985 C124.135402,74.9342459 122.921367,73.8517693 121.807962,72.7466738 C116.886271,67.8609884 111.714387,61.8489734 110.559438,54.772023 C109.261389,46.8207824 113.201235,37.9186242 115.589146,30.46223 C113.938888,30.2078826 113.130147,32.3206738 112.184307,33.6967346 C111.143375,35.210817 109.368483,36.0924931 107.564047,36.4405474 C105.759612,36.7886017 103.902091,36.6630436 102.068575,36.5365624 C100.919164,36.4571654 99.7323639,36.3680745 98.7112815,35.8339912 C97.6901991,35.2999079 96.8736101,34.1957356 97.0457908,33.0564809 C97.2756728,31.5354743 98.9596279,30.796436 100.226287,29.9235305 C104.506801,26.9729163 107.21784,20.0875343 109.640833,15.6182215 C112.723929,9.93256517 117.235249,4.26121873 123.4296,1.88346311 C126.959997,0.52863633 130.831524,0.335683146 134.608421,0.520788951 C141.471646,0.856379775 149.097913,2.50155955 153.088997,8.59620281 C157.149323,14.7970165 157.279035,21.7677964 157.132243,28.8359762 C157.091621,30.7747403 157.057924,32.7573573 157.663557,34.5996448 C158.267343,36.4377777 159.640634,38.1420436 161.521697,38.605039 C163.491389,39.08973 160.168255,40.2391401 159.787888,40.3346934 C157.877744,40.81523 156.029917,39.6127346 153.864964,40.6679762 C153.444899,40.8729313 153.02391,41.1217393 152.55676,41.143435 C151.549064,41.1905193 150.794793,40.1505109 150.652617,39.1520474 C150.510441,38.1535839 150.773559,37.1431185 150.763403,36.1344996 C150.743554,34.1246476 149.624149,32.2440464 148.122068,30.9086073 C146.619526,29.5736298 144.760159,28.7131878 142.893406,27.9690717 C133.299294,24.1450904 122.386822,21.7530249 112.052286,21.7234818 C111.189536,21.7216354 110.268623,21.7521017 109.560051,22.2446401 C108.79147,22.7782618 108.449416,23.7314875 108.20984,24.6357824 C106.127516,32.4850071 109.865637,39.9935633 109.63991,47.9208002 C109.378177,57.1230052 107.166601,66.1659547 104.383551,74.8996251 C103.54619,77.5275736 103.025493,79.0107281 100.788067,80.6235951 C99.703744,81.4046401 98.3419931,82.2027646 98.2422852,83.5358957 C98.161965,84.6123713 98.9720914,85.5263601 99.7272861,86.2977112 C105.009957,91.6971691 110.292627,97.096627 115.576221,102.495623 C126.735654,113.901095 121.957062,132.463838 117.01506,147.63559 C115.626075,146.856391 115.120611,145.141046 114.739321,143.595113 C113.301866,137.768204 111.864411,131.941756 110.426494,126.115309 C109.549434,122.560908 108.546354,118.787242 105.839932,116.322242 C105.412019,115.932643 104.911634,115.568894 104.33462,115.528734 C102.68067,115.413793 102.107811,117.688609 102.21352,119.343021 C102.84408,129.266723 106.51573,138.709889 110.14445,147.967026 C111.164609,150.570047 113.310636,150.303698 116.102457,150.45049 C126.367289,150.990575 136.631198,151.530659 146.895107,152.070743 C151.026521,152.288162 155.20225,152.50281 159.270884,151.75731 C167.744207,150.204452 170.790836,144.606501 175.075966,137.873913 C175.863473,136.636335 176.678216,135.120406 176.077199,133.782197 C175.528344,132.558929 174.006414,132.08624 172.666821,132.138864 C171.326766,132.191487 170.017177,132.624016 168.67666,132.608783 C167.763133,133.383827 169.038562,134.728037 170.139042,135.201188 C171.378004,135.733886 172.658973,136.275817 174.007799,136.282741 C175.356625,136.290127 176.803312,135.623561 177.295851,134.367981 C177.589897,133.61971 177.529887,132.728802 178.0035,132.079316 C178.574512,131.296886 179.673606,131.175021 180.641142,131.121474 C184.892113,130.885591 189.143546,130.649708 193.394516,130.413825 C194.434987,130.356124 195.961071,131.168559 195.270963,131.949142 C193.572698,132.384441 191.873972,132.819739 190.174783,133.2555 C191.491296,133.009461 192.925982,132.779579 194.109551,133.406908 C195.292659,134.034237 195.840129,135.912068 194.764576,136.709731 C193.735185,137.473235 191.910439,136.843598 191.244335,137.937615 C193.092623,138.168882 194.959838,138.248279 196.821513,138.174421 C197.144178,138.895918 197.467306,139.616954 197.789972,140.337989 C196.645639,140.815756 195.500384,141.293523 194.35559,141.770828 C196.054778,142.065797 197.481154,143.537873 197.7235,145.244447 C194.365283,145.432784 191.007067,145.621121 187.649312,145.808997 C190.087077,146.044418 192.524842,146.27984 194.963069,146.514799 C193.928138,147.609739 192.629166,148.412018 191.345428,149.201372 C177.376633,157.793328 163.956231,167.780271 147.968813,172.123564 C139.901247,174.314829 131.744128,176.12942 123.523307,177.640271 C116.134308,178.999252 109.157988,179.565649 101.599117,180.26822 C99.687126,180.44594 97.6611176,180.589962 95.9393105,179.739214 C92.9411504,178.258829 91.1168657,173.504241 89.2708854,170.861983 C86.4564463,166.832585 85.6430886,161.81811 86.0723863,156.915807 C86.1527066,155.995817 86.294421,155.045361 86.8021925,154.27401 C87.403671,153.35956 88.4302927,152.827784 89.4342955,152.390639 C97.0379434,149.079046 105.903634,148.936408 112.975969,144.604655 C114.116147,143.906238 115.236014,143.056875 115.812565,141.850225 C116.246017,140.944084 116.333262,139.916077 116.39881,138.912998 C116.63654,135.27643 116.675777,131.626476 116.51606,127.985293 C116.045217,117.246848 115.135383,107.260828 107.493421,99.7019566 C103.030571,95.2875755 97.2008919,92.5797684 91.4976944,89.9573592 C87.3653573,88.0573704 83.1947066,86.3891101 79.0420586,84.5994463 C78.4604294,84.3487918 77.7887861,83.9753489 77.7583199,83.3429425 C77.7444715,83.0585904 77.871876,82.7885483 78.0062047,82.5378938 C80.3216429,78.2158348 85.1560895,75.9899491 89.6618695,74.0567243 C90.5477,73.6763573 91.4736906,73.2886045 92.4366101,73.3416897 C93.2790493,73.3883124 94.0619406,73.7682178 94.8189818,74.1411991 C100.849,77.1112009 105.971491,80.2423049 109.474192,85.9561195 C114.067216,93.4485193 122.450062,97.6288639 126.431914,105.282366 C127.146487,106.655195 127.894296,108.167431 129.296669,108.821533 C130.159881,109.223596 131.145881,109.233751 132.097722,109.236521 C136.831537,109.250369 141.565353,109.264218 146.299168,109.278066 C148.725393,109.28499 140.809696,90.4628227 140.324082,89.3475717 C139.214832,86.7999434 137.753373,84.6123713 136.43963,82.2069191 C135.963248,81.3344753 134.300527,80.6517534 135.360846,79.5932805 C136.096653,78.8583966 138.014183,80.2404584 138.579656,80.6845277 C139.760456,81.6123648 140.666597,82.8370174 141.557967,84.0464369 C150.149923,95.7044097 155.40582,109.429013 158.805119,123.415349 C159.477224,126.180857 160.508462,140.365224 164.501393,139.49832 C167.495399,138.847911 167.172733,131.38967 167.292751,129.079771 C167.668041,121.832025 165.913459,114.608282 163.780819,107.736287 C162.709883,104.284364 160.817741,97.8047375 156.18825,98.3609781 C157.418903,103.448849 158.650018,108.53672 159.881134,113.62459 C162.498927,124.44474 165.136107,135.501696 164.138105,146.589119 C163.586019,152.722537 161.931607,158.695777 160.284119,164.629318 C159.14348,168.739498 158.003764,172.850139 156.861278,176.959857 C155.996681,180.071574 153.936514,183.532729 154.475675,186.867403 C155.304266,191.99128 160.580473,190.992354 164.318595,189.64676 C179.330168,184.242686 189.727483,167.001534 207.285299,170.645026 C207.710904,169.741654 207.857235,168.709031 207.698441,167.723493 C209.163592,168.422833 211.051118,168.106168 212.207452,166.966913 C213.363786,165.827659 213.708609,163.945211 213.030965,162.469904 C214.553356,162.304186 215.626601,160.761945 215.789088,159.239554 C215.952036,157.716701 215.424877,156.214159 214.906488,154.773472 C217.391799,154.225079 218.181153,150.75423 216.961578,148.520497 C215.741542,146.286764 213.312086,145.0418 211.023883,143.927934 C210.125589,146.710984 210.333775,149.83424 211.59351,152.472806 C210.288537,153.347096 208.691365,151.988115 207.583038,150.876095 C206.475173,149.763614 204.32453,148.933638 203.59934,150.326317 C203.153424,151.183989 203.717512,152.199532 204.263135,152.997657 C205.460553,154.749007 206.657047,156.499896 207.854465,158.251246 C205.200205,155.561903 201.490241,153.943497 197.713806,153.827171 C198.611638,157.269862 200.608104,160.416661 203.340376,162.69517 C201.017552,161.00706 198.693805,159.319874 196.370519,157.633611 C197.313128,160.941512 198.255737,164.249874 199.197884,167.558237 C198.056321,164.537919 194.131708,163.360351 191.031071,164.260953 C187.930433,165.162016 185.524519,167.573008 183.405266,170.008927 C181.286012,172.444845 179.230922,175.060792 176.408174,176.627959 C173.054112,178.489634 169.049641,178.636427 165.215043,178.738904 C163.739274,178.778141 162.1818,178.798913 160.890676,178.082032 C159.600013,177.36469 158.750649,175.630419 159.507229,174.361913 C159.707106,174.025861 159.997459,173.754434 160.285504,173.48947 C171.827151,162.890893 186.32726,156.016128 198.271893,145.873622 C207.065111,138.406611 214.287007,129.479064 224.627544,123.989131 C226.145319,123.18362 227.760494,122.426118 229.47907,122.398421 C229.718646,123.10607 229.107012,123.793869 228.55031,124.29287 C224.540761,127.886508 220.531674,131.479684 216.521663,135.073322 C215.036663,136.404606 213.528119,137.752047 211.74538,138.64711 C211.513651,137.229043 212.776618,136.053782 213.914026,135.175338 L223.234403,127.973752 C224.986215,126.620772 226.839581,125.222092 229.026692,124.881424 C231.933453,124.429046 234.7502,125.927433 237.311215,127.374582 C227.892053,142.554643 210.273304,150.666986 196.211725,161.048144 C184.430964,169.745347 167.392459,193.979436 167.392459,193.979436 L300.25,193.979436" id="Stroke-1"></path>
            </g>
            <path d="M0.5,200 L73,200" id="Line"></path>
            <path d="M204.994709,200 L299.5,200" id="Line"></path>
        </g>
    </g>
</svg>