<?xml version="1.0" encoding="UTF-8"?>
<svg width="300px" height="200px" viewBox="0 0 300 200" version="1.1" xmlns="http://www.w3.org/2000/svg" xmlns:xlink="http://www.w3.org/1999/xlink">
    <!-- Generator: Sketch 46.1 (44463) - http://www.bohemiancoding.com/sketch -->
    <title>icon-rashod-noact</title>
    <desc>Created with Sketch.</desc>
    <defs></defs>
    <g id="Symbols" stroke="none" stroke-width="1" fill="none" fill-rule="evenodd" stroke-linecap="round">
        <g id="category/icon-rashod-noact" stroke="#C1C1C1" stroke-width="2">
            <g id="Page-1" transform="translate(0.000000, 35.000000)" stroke-linejoin="round">
                <path d="M0.99609375,164.693122 L73.5527438,164.693122 C73.5527438,164.693122 74.1459996,160.882129 73.9342458,157.320293 C73.8853353,156.50435 73.0826273,149.618324 73.4813919,149.690826 C68.8268365,148.846688 64.4185599,146.681966 60.9056335,143.51314 C57.9077062,145.421801 54.9932145,147.462233 52.1730913,149.625804 C50.8899094,149.094118 39.6025116,140.252822 40.8695819,139.202684 C44.0205703,136.590287 47.306782,134.140157 50.710379,131.866106 C48.9858515,127.58327 48.3764839,122.856212 48.9588068,118.275886 C45.7318632,117.517485 42.582601,117.743049 39.3763724,117.022625 C39.221585,112.922197 39.3729199,109.011082 39.6928522,104.897419 C42.3288417,106.121909 45.2024787,106.83255 48.1060375,106.97813 C49.1561752,107.025315 51.0159259,102.470882 51.4457631,101.688889 C53.1357655,98.6109785 54.8274941,95.534219 56.5169211,92.4563086 C54.1968361,90.5257815 52.1851751,88.2264115 50.5803345,85.6698297 C53.6893175,82.8813545 57.0980932,80.4271971 60.7289802,78.3631731 C62.8165964,80.190125 64.9042126,82.0170768 66.9918287,83.8446041 C67.2081859,84.0339166 71.0508267,83.0723933 71.6676747,82.9670918 C74.4083902,82.4998524 77.1462286,81.591843 79.8437878,80.9151515 C79.6504474,78.020224 79.6107435,75.114939 79.7241009,72.2159835 C83.8141714,72.2021735 87.6562368,71.5450463 91.7589665,71.588778 C91.762419,71.588778 91.5138384,79.4639475 91.4844921,79.9634103 C94.4404139,80.4070575 97.3710173,80.8760231 100.16352,81.9860042 C102.938761,83.0890804 105.234103,85.1928083 107.856858,86.6503418 C108.764292,86.8690006 109.068688,86.5841688 109.333956,86.3281078 C111.437108,84.2934301 114.078852,82.8209356 116.915662,82.1010878 C118.144755,82.7162096 125.05725,89.6459675 124.767815,89.8956989 C123.241807,91.212255 121.757804,92.7865984 120.143757,93.9713839 C119.872735,94.1710539 116.608389,95.6872801 116.598607,95.6441238 C117.663705,100.503528 117.843811,106.043652 117.843811,111.081435 C120.252511,111.71382 122.730836,112.078635 125.220093,112.166674 C124.572173,117.360396 124.409905,122.614537 124.737893,127.83818 C122.0973,127.799627 119.456708,127.76165 116.815539,127.723097 C116.460507,127.717918 116.092239,127.715041 115.765977,127.856018 C115.341319,128.039577 115.054185,128.435464 114.787767,128.813514 C112.125883,132.594585 109.64238,136.234103 106.411408,139.484639 C108.185997,142.358851 109.119325,144.55925 111.663247,146.862072 C111.910102,147.394334 111.732298,147.549121 111.572331,147.665931 C108.261377,150.082111 104.950422,152.498866 101.639467,154.915046 C100.443174,152.433844 98.9091094,150.11606 97.0925151,148.046282 C96.3600081,147.563506 96.0337461,147.673987 95.7408584,147.783892 C94.6625252,148.189561 80.5630602,153.005234 80.5544289,151.818722 C80.5423451,148.990543 80.5814735,146.162364 80.6718142,143.335336 C80.6177249,145.032818 67.8106484,139.710778 66.8497005,139.106589 C62.738915,136.522388 59.328413,132.775266 57.4364389,128.278951 C55.5479173,123.792993 55.0403987,118.82541 55.2498509,113.962553 C55.3597557,111.415178 55.6687551,108.840183 56.6216472,106.47464 C59.455005,99.4338261 67.1903479,95.7856766 74.4843454,93.6888537 C78.9731805,92.3987668 83.7980597,91.447601 88.2702077,92.796956 C94.1993138,94.5859302 98.2675184,100.038015 100.991547,105.60058 C103.904888,111.54925 105.801465,118.265528 104.675948,124.792493 C103.55043,131.319459 98.8463889,137.51038 92.3677586,138.887931 C87.8656889,132.354636 84.8740912,124.787315 83.6933336,116.942067 C85.5956652,117.322418 86.27696,120.028033 85.183666,121.631723 C84.0915228,123.235413 81.9239235,123.776305 79.9945473,123.573758 C78.8897449,123.457524 77.729127,123.089256 77.0610668,122.200811 C74.8284453,119.233381 80.1677481,114.79173 81.8082645,112.705265 C84.668667,109.068048 87.6044491,105.4901 90.6144602,101.974872 C95.1913343,96.6298147 99.7308062,91.2519589 104.383635,85.973075 C105.51951,84.6835634 106.677827,83.4130407 107.814277,82.1235291 C109.362151,80.3679291 109.062934,80.6234146 108.397175,78.6434016 C107.592166,76.2462106 106.456866,73.4842046 105.968912,70.9857401 C105.556337,68.8659005 105.789381,66.5527205 105.31984,64.3782162 C100.455257,64.141144 95.6470653,62.8257387 91.3400622,60.5545642 C91.0569566,56.2383544 91.4873692,51.8766867 92.6088587,47.6991526 C96.9607444,47.5627786 101.313781,47.42698 105.665667,47.2906059 C108.513985,40.7095513 112.219101,34.0266476 116.322406,28.1453012 C113.065541,25.3033121 111.020506,21.4221183 107.530021,18.7999389 C111.816309,15.7358385 116.122161,12.8173189 120.367594,9.68129126 C119.612646,10.2382958 127.399776,15.5281127 127.884854,15.9309052 C132.786263,12.5267328 139.215408,11.4961594 145.18019,11.6877735 C146.724612,7.88368571 148.648234,4.35292141 150.115549,0.510856021 C150.561498,-0.0260088896 150.769799,-0.00414300896 150.960263,0.0223262149 C155.866276,0.691537245 160.497815,0.444682961 165.440079,0.667945111 C165.635146,4.87022211 166.048871,9.06214159 166.677803,13.2218377 C171.805352,15.0649012 176.955342,18.6250118 180.763458,22.5205911 C184.754557,20.5181368 189.012074,19.4910158 193.003172,17.4885615 C193.794372,17.3412545 194.017059,17.5604887 194.209248,17.7653375 C196.055189,19.7315405 197.818845,21.771397 199.598037,23.796868 C199.854673,24.0880295 202.583881,28.3432449 203.151243,27.8967206 C202.248412,28.6073618 195.633983,36.2207161 194.758772,35.5066225 C195.419928,36.0469399 195.657,36.9382623 195.847463,37.7703166 C197.177254,43.5739816 198.406347,50.0635448 198.841363,56.0007068 C203.736443,56.995029 208.045172,59.648281 212.612264,61.6380761 L210.890614,73.8611034 C210.89234,73.8507458 199.035854,76.0310043 197.948889,76.3434562 C196.728428,82.2242273 194.351377,87.862172 190.992662,92.8406877 C192.591749,96.3392286 194.253556,99.8147528 195.662754,103.387523 C192.202766,107.255482 188.771549,110.264917 184.396071,113.056845 C180.116113,111.611971 176.260237,108.934551 173.410768,105.429105 C168.143968,108.956417 162.257443,110.160191 156.073426,110.793151 C155.734505,115.065629 154.753993,118.864538 153.108873,122.802123 C148.415765,122.380917 143.723232,121.960287 139.030699,121.539081 C138.576119,117.157273 137.164618,113.422811 136.711189,109.041004 C133.569407,108.321731 131.318948,106.714014 128.635774,105.092486 C126.134432,103.581438 123.420186,102.707954 121.100101,100.767069 C124.828809,97.4152601 127.974619,93.0276985 131.315495,89.2759738 C124.529016,87.0962907 119.651774,80.7333195 117.820794,73.8449916 C115.99039,66.9560884 116.828774,59.6137559 118.61257,52.7133443 C120.118438,46.8889642 122.431043,41.0185507 126.853129,36.9405639 C131.782159,32.3959133 138.652074,30.6794417 145.28319,29.6908737 C150.876827,28.8565177 156.657476,28.4335856 162.134303,29.8485382 C171.322001,32.2221371 178.730507,39.8090222 181.879193,48.7602233 C185.028456,57.7119997 184.175686,67.7961986 180.555732,76.5678692 C179.07288,80.1590524 177.133146,83.5816381 174.616844,86.5415878 C164.796186,98.0959795 145.908669,100.520791 133.487698,91.8216226 C138.633085,86.5824425 143.700215,81.265581 148.669524,75.8589543 C152.810807,71.3540075 158.877438,66.1159783 160.881618,60.16328 C162.464593,55.4626911 164.944644,50.3610359 155.062417,49.5606296 C145.18019,48.7602233 141.496094,56.0007068 144.710073,61.4792607 C145.450777,62.7418657 148.793814,66.9549376 150.690392,69.2209333 C154.985886,74.3519348 160.239452,78.4868879 165.010817,83.1483484 C170.014651,88.0365236 174.752643,93.1876647 179.487181,98.3342025 C189.054655,108.73373 209.167237,130.588678 209.816884,130.868331 C210.456748,131.143956 277.522857,128.640313 282.24301,127.957867 C281.682553,106.284176 284.898564,84.5299268 282.648104,62.9661406 C273.78149,63.0449729 221.86671,61.7842322 221.368398,61.6380761 C220.846494,61.4844395 207.237861,40.9316626 205.270507,37.147139 C214.752243,36.2172636 263.46885,37.2599209 264.018949,37.4797305 C264.481585,37.6644397 284.483687,62.4344545 284.123476,66.1896318 C263.204733,65.3512479 242.287141,67.0285911 221.368398,66.1896318 C219.233598,99.5207142 219.341201,164.693122 219.341201,164.693122 L300.996094,164.693122" id="Stroke-1"></path>
            </g>
            <path d="M0.5,200 L73,200" id="Line"></path>
            <path d="M224.892695,200 L299.5,200" id="Line"></path>
        </g>
    </g>
</svg>