<?xml version="1.0" encoding="UTF-8"?>
<svg width="300px" height="200px" viewBox="0 0 300 200" version="1.1" xmlns="http://www.w3.org/2000/svg" xmlns:xlink="http://www.w3.org/1999/xlink">
    <!-- Generator: Sketch 46.1 (44463) - http://www.bohemiancoding.com/sketch -->
    <title>icon-smesi-noact</title>
    <desc>Created with Sketch.</desc>
    <defs></defs>
    <g id="Symbols" stroke="none" stroke-width="1" fill="none" fill-rule="evenodd" stroke-linecap="round">
        <g id="category/icon-smesi-noact" stroke="#C1C1C1" stroke-width="2">
            <g id="Page-1" transform="translate(0.000000, 29.812500)" stroke-linejoin="round">
                <path d="M0.6875,170.229406 L89.0226956,170.229406 C89.0226956,170.229406 94.6743796,169.758547 97.2888206,168.795576 C98.4906872,168.352904 99.6971746,167.593709 100.110735,166.381215 C100.842205,164.236246 98.8035145,162.228052 96.9880074,160.870927 C89.0430271,154.932754 81.0985088,148.994581 73.1535285,143.056408 C70.0155524,140.710897 66.7560496,138.219831 65.1050426,134.667371 C62.9947294,130.128834 63.3847237,124.257663 65.0477448,119.641959 C66.0421381,116.880115 71.3740636,110.021944 75.1672673,111.573142 C70.6606142,109.72991 66.035669,106.769372 64.7866704,102.063101 C64.1905889,99.8164744 64.4502771,97.4423143 64.714124,95.1323831 C65.0389653,92.2855166 67.2647982,77.6103607 72.7085468,79.0081486 C67.6108951,77.6990798 64.1536226,72.6790573 63.1074765,67.5217975 C62.0617926,62.3640756 62.9674667,57.0339983 63.8736029,51.8504 C64.1790369,50.1009702 64.5639485,48.2073719 65.9072111,47.0470924 C66.6617855,46.3955615 67.6307645,46.0605545 68.5780257,45.7509618 C78.7211142,42.4360096 89.4963263,41.851018 100.082086,40.9282469 C106.662548,40.3543452 113.253638,39.895039 119.849811,39.5512525 C123.523336,39.359952 133.793034,39.2462806 135.502725,40.5280868 C137.065937,41.6999183 136.763738,44.1974534 136.81087,46.1506598 C136.983687,53.2449534 136.405165,60.345716 136.834898,67.4363129 C137.208257,73.6009042 138.203113,79.8971879 136.516988,85.9712118 C126.790232,87.5334997 116.876335,86.1458775 107.137565,87.8259955 C103.766239,88.4077525 99.6745327,87.6078944 96.3337041,87.0584829 C91.8912799,86.3283986 87.5084639,85.1482497 83.3626942,83.381261 C79.6434232,81.7958691 75.8104808,81.0135699 72.4400791,78.5908916 C70.3417799,77.0822048 67.5535973,74.7768944 66.4422982,72.3884098 C65.8203403,71.0534646 65.5934597,69.5743508 65.3730482,68.1188031 C65.1706577,66.7843199 64.9853642,65.3430966 65.6151774,64.1495475 C66.9552055,65.3939253 68.2943094,66.637841 69.6334133,67.8822188 C71.029815,69.1788115 72.4326858,70.4814112 74.0116086,71.5478888 C78.4300046,74.5315306 83.8774499,75.4589225 89.1391395,76.3151542 C89.4750706,76.3696795 89.8207055,76.4246669 90.1534021,76.3525826 C91.2891914,76.1076809 91.6144948,74.6710784 91.7263178,73.5140334 C92.0821184,69.8275699 92.6088881,66.1577413 93.3052406,62.5202581 C93.4651198,61.685282 93.6420959,60.8295124 94.1018642,60.1137525 C95.1138164,58.5371402 96.9746072,58.3532329 97.0563951,60.5097539 C97.279117,66.3994084 96.6710215,72.3200222 95.2570608,78.0419421 C94.4876999,81.1540419 93.718801,85.0516753 96.2195706,87.0580208 C97.1243206,87.7844084 98.2947659,88.0778284 99.3108768,88.6383298 C104.548538,91.5290938 103.953843,100.88249 103.844793,106.000473 C103.720955,111.790781 103.432618,117.624986 102.009878,123.238779 C101.803329,124.0525 101.449839,124.989133 100.637505,125.201689 C100.157867,125.327837 99.6565117,125.152247 99.1916605,124.979429 C92.9161704,122.64547 86.8754162,119.31758 81.1095987,115.891267 C77.7844808,113.914956 74.5198951,111.758435 71.846308,108.962859 C69.173183,106.167283 67.1086156,102.665189 66.5910875,98.8317848 C66.4963614,98.1303494 66.7860847,97.1091556 67.475506,97.2722694 C69.7969892,99.5868213 71.2479162,101.876421 73.3494499,103.479372 C74.8549021,104.627637 76.6242013,105.367425 78.3727069,106.095199 C83.1048544,108.065503 87.955756,110.063531 93.0755875,110.321833 C94.0260833,110.369427 95.08794,110.313515 95.7584162,109.637956 C96.2958136,109.095476 96.4418305,108.288687 96.5619709,107.534574 C96.9833867,104.892871 97.4048024,102.251167 97.8262181,99.6090011 C98.0919133,97.945518 99.5631718,95.2206402 100.977132,97.7523691 C102.882745,101.164358 101.996478,105.928389 101.746031,109.700337 C101.207248,117.803348 100.926766,125.921608 100.321443,134.019998 C100.072845,137.343268 99.8542813,140.673007 99.3843473,143.974097 C99.1523838,145.601076 98.9227308,147.286276 98.4661971,148.868434 C98.0983824,150.142385 98.1159414,151.724542 97.3761535,152.8534 C95.7362364,155.358328 93.2710468,154.123192 91.1408642,153.279437 C88.4973122,152.232828 85.9392448,150.969043 83.5017799,149.505178 C80.6604583,147.798722 77.9896437,145.825646 75.3239119,143.855342 C71.9336409,141.349952 69.1311338,138.409746 67.2481633,134.550003 C65.9506465,131.889816 65.3527167,128.767088 66.2371353,125.942401 C66.3854625,125.466922 66.6303642,124.950319 67.1058431,124.801067 C67.7070074,124.613001 68.2929232,125.115743 68.6843038,125.609705 C70.4143263,127.795337 71.1832251,130.573816 72.5315706,133.014053 C74.5462336,136.661702 77.7793979,139.411532 81.1544204,141.761202 C84.301176,143.951917 87.644315,147.372685 91.6163431,147.794101 C91.9970959,147.834302 92.3894007,147.845392 92.7558291,147.733106 C94.1217336,147.316312 94.4396437,145.573351 94.6309442,144.158466 C95.1373824,140.41147 96.4385959,136.773525 98.42461,133.556071 C98.7439063,133.038543 99.1288178,132.494677 99.7133473,132.32648 C100.624566,132.063557 101.548724,132.896685 101.775604,133.817146 C102.554669,136.978226 101.618498,140.983986 101.442446,144.201901 C101.227117,148.136039 101.062155,152.073411 100.946635,156.011708 C100.908745,157.291665 100.887027,158.624762 101.424425,159.78689 C101.513144,159.978191 101.623118,160.170878 101.800557,160.285473 C109.788972,160.702268 117.121236,160.497567 124.419769,159.910727 C131.495579,159.341908 138.459566,157.845698 145.454513,157.131324 C140.076842,123.319181 138.505312,89.0329449 136.942562,54.8317315 C136.38622,42.6522624 135.829877,30.4723312 135.273534,18.2928621 C135.100255,14.5070517 134.989356,10.4657118 136.958273,7.22746461 C138.926728,3.98967949 143.827072,2.27398146 146.595847,4.86115983 C150.163095,57.0483228 153.72988,109.235486 157.297589,161.422649 C157.364128,162.393014 157.412184,163.439622 156.889111,164.259812 C156.29534,165.192286 155.109646,165.575349 154.004354,165.610467 C150.020312,165.738463 146.497425,161.575135 147.282034,157.667335 C150.676926,160.85614 154.997823,163.047779 159.576561,163.903549 C163.712165,164.676144 167.964213,164.374869 172.159887,164.06158 C192.714993,162.527017 213.253927,160.780359 233.77253,158.82207 C237.970514,158.421448 242.671241,157.74173 245.200659,154.36717 C246.661752,152.418584 247.102113,149.908111 247.416326,147.492826 C249.451321,131.842222 247.981448,115.970744 246.46583,100.260994 C243.600481,70.5581163 240.577562,40.8709492 237.397999,11.1999548 C237.069923,8.14238034 236.491863,4.66570056 233.89267,3.0220868 C232.499965,2.14182697 230.785191,1.98379607 229.142964,1.8576486 C202.688961,-0.174573315 176.064451,0.0134926966 149.64187,2.41861208 C147.179453,2.64272022 143.867273,4.07239157 144.637558,6.42206152 C169.171162,3.7212118 193.931646,3.07753624 218.573377,4.50073848 C223.766217,4.80062753 229.268649,5.30429326 233.438909,8.41269635 C240.15476,13.4179323 240.9195,23.0120713 241.089545,31.3858607 C241.829795,67.8683565 242.570045,104.35039 243.310757,140.832424 C243.350958,142.823521 243.361586,144.933372 242.343627,146.645373 C240.943529,149.000588 238.042137,149.915966 235.387957,150.597532 C221.3306,154.206366 206.946092,156.540326 192.468243,157.560595 C185.174794,158.074427 171.973207,170.229406 171.973207,170.229406 L300.6875,170.229406" id="Stroke-1"></path>
                <path d="M102.869899,117.176307 C102.754379,118.931282 102.639322,120.686257 102.523802,122.440769 C102.446173,123.627387 102.436931,124.99283 103.323198,125.784833 C104.073152,126.455771 105.189996,126.454847 106.195479,126.410025 C117.791805,125.895731 129.352089,124.569104 140.762659,122.442156" id="Stroke-4"></path>
            </g>
            <path d="M0.5,200 L73,200" id="Line"></path>
            <path d="M204.994709,200 L299.5,200" id="Line"></path>
        </g>
    </g>
</svg>