<?xml version="1.0" encoding="UTF-8"?>
<svg width="300px" height="200px" viewBox="0 0 300 200" version="1.1" xmlns="http://www.w3.org/2000/svg" xmlns:xlink="http://www.w3.org/1999/xlink">
    <!-- Generator: Sketch 46.1 (44463) - http://www.bohemiancoding.com/sketch -->
    <title>icon-rastvoronasos-noact</title>
    <desc>Created with Sketch.</desc>
    <defs></defs>
    <g id="Symbols" stroke="none" stroke-width="1" fill="none" fill-rule="evenodd" stroke-linecap="round">
        <g id="category/icon-rastvoronasos-noact" stroke="#C1C1C1" stroke-width="2">
            <path d="M0,200 C13.8261177,200 39.9011615,200.222714 53.7720941,199.876482 C63.7708753,199.627109 74.8885832,198.403374 81.438786,190.844836 C86.8086223,184.649538 87.9622444,174.616784 88.6373591,166.7337 C89.4093318,157.711449 84.6958169,147.692429 75.539122,144.810542 C70.2509644,143.145163 64.3932241,143.912076 59.3219128,146.152098 C57.2445256,147.07008 55.2343607,148.259844 53.7655887,149.991722 C45.6526472,159.552474 46.000324,175.7892 52.0604542,186.147946 C55.7439494,192.442993 63.0805813,194.052715 69.925695,193.274237 C70.9043945,193.162922 71.8874309,192.997396 72.7967396,192.617915 C81.6151543,188.943817 77.9453927,174.942053 76.6739508,167.997913 C76.1614708,165.197705 75.5738174,162.239922 73.6605105,160.132177 C71.7472037,158.024431 68.0297359,157.289322 66.1178747,159.399236 C64.9823231,160.652608 64.7994494,162.474116 64.6722329,164.160457 C64.4286423,167.391467 64.1843288,170.621753 63.9400154,173.85204 C63.9168851,174.161407 63.9017059,174.502578 64.0896393,174.749783 C64.3332299,175.06927 64.7980037,175.090232 65.1998922,175.083004 C87.8603267,174.649311 170.02193,187.146161 181.978833,189.81843 C190.74665,191.77872 196.07384,190.902661 196.07384,190.902661 C199.100291,188.14004 225.742746,108.754069 225.709496,107.77826 C204.428204,105.357533 178.863475,102.201697 157.786741,98.3924313 C156.682271,98.1929328 155.371074,96.7545192 156.411936,96.3345603 C155.891505,75.1595227 155.284335,55.2971278 157.319076,34.2131656 C157.319076,35.1831913 101.738487,34.7552813 96.5681498,34.7480531 C97.8648904,30.6033982 98.2544909,26.1775659 97.7037014,21.8695535 C92.4661413,21.5789795 87.2285812,21.2898512 81.9902983,21 C81.9946352,25.8074817 81.9989722,30.6149633 82.0025863,35.4231678 C85.7648689,35.4535263 89.5271516,35.4846076 93.2894343,35.514966 C86.0800188,35.2352344 78.5222037,34.349056 71.3843476,34.9012911 C70.4157676,41.8165184 69.5310348,84.4969228 69.7789624,85.5963333 C70.1374816,87.1865393 71.2744788,88.4767745 72.4418345,89.6144946 C81.6830994,98.6165058 95.0451662,102.365778 107.94535,102.474924 C120.844812,102.584792 135.494222,100.440906 148.006252,97.2973577 C138.741857,102.093274 126.894822,104.753978 116.563544,105.248387 C107.145188,105.699428 96.3426296,104.902879 87.1873804,101.846069 C76.8083954,98.381589 68.3607878,91.9723363 67.4659356,91.7634411 C66.5768659,91.5559915 33.313372,97.5525135 29.5778337,100.649801 C27.4484034,102.415652 27.2315571,151.52844 28.42638,156.706728 C29.3602646,160.750188 39.8722486,164.543552 44.5705843,166.115688 C47.4134388,146.305336 49.2479582,126.349697 50.064023,106.352858 C44.5691387,105.805682 43.8108996,105.258507 38.3167381,104.712054 C37.9625559,115.633878 37.6090965,126.554978 37.2563599,137.476079 C57.3442749,143.044691 77.8203447,147.211753 98.4872392,149.937511 C98.4894077,136.409195 98.4922989,122.880157 98.4937446,109.351119 C85.5574193,109.495683 71.4855425,106.366591 58.7378735,104.164156 C56.2846195,103.740583 54.2065094,104.034048 55.27773,101.787521 C77.5312163,105.609798 141.753851,113.854293 168.968057,117.536342 C168.968057,117.536342 200.215604,113.310009 218.844866,108.870443 C204.01475,113.724908 186.41623,119.336889 170.84956,120.427626 C173.288358,127.924001 188.459645,172.662999 194.286304,183.7583 C185.304532,171.691528 168.509066,132.155394 166.799595,130.908528 C164.743169,129.409398 119.743956,124.675644 101.267208,122.596088 C108.072567,135.648788 123.620444,172.603728 125.324856,173.676394 C127.249005,174.885673 130.896359,174.944945 133.063376,175.386588 C139.544188,176.704291 146.039456,177.959831 152.532556,179.216093 C170.192516,182.635036 188.168348,187.334095 206.095752,188.75516 C205.017303,185.417174 203.924398,181.954862 204.319781,178.470142 C205.11127,171.488415 211.137427,169.5115 217.023358,172.069563 C223.262747,174.781587 229.404556,175.768961 236.142693,177.263754 C236.957312,177.444459 237.794338,177.639621 238.47379,178.124634 C239.179986,178.62844 239.648374,179.39969 240.014844,180.186119 C241.844304,184.10164 241.502409,188.950322 239.142399,192.570932 C232.466426,202.816918 215.544466,194.375816 207.298526,189.979619 C211.829167,190.660516 216.326558,191.56332 220.769015,192.683692 C220.390257,190.747978 220.012222,188.759497 220.360622,186.818001 C220.990921,183.313042 225.227375,179.780616 228.503922,178.854683 C230.882002,178.183905 233.401756,178.222215 235.863684,178.439061 C244.630778,179.211756 253.131875,182.428309 261.65827,184.476784 C266.646457,185.675944 271.807398,186.350335 276.760166,187.642739 C281.845211,188.968393 280.735681,191.583559 280.621475,196.464768 C271.227695,194.870948 261.934387,192.683692 252.815279,189.921071 C251.552511,185.362962 250.313596,180.371884 252.203773,176.036404 C254.093949,171.700925 260.641261,169.3373 263.637353,172.996943 C265.288999,175.014336 265.202983,177.893331 265.03312,180.494763 C264.50763,188.546988 263.456648,199.676984 263.456648,199.676984 L300,200" id="Stroke-1" stroke-linejoin="round"></path>
            <path d="M0.5,200 L45.0112345,200" id="Line"></path>
            <path d="M263.943707,200 L299.5,200" id="Line"></path>
        </g>
    </g>
</svg>