<?xml version="1.0" encoding="UTF-8"?>
<svg width="300px" height="200px" viewBox="0 0 300 200" version="1.1" xmlns="http://www.w3.org/2000/svg" xmlns:xlink="http://www.w3.org/1999/xlink">
    <!-- Generator: Sketch 46.2 (44496) - http://www.bohemiancoding.com/sketch -->
    <title>icon-delivery-noact</title>
    <desc>Created with Sketch.</desc>
    <defs></defs>
    <g id="Symbols" stroke="none" stroke-width="1" fill="none" fill-rule="evenodd" stroke-linecap="round" stroke-linejoin="round">
        <g id="category/icon-delivery-noact" stroke="#C1C1C1" stroke-width="2">
            <path d="M0,200 L23.1080614,199.935697 C26.1772397,199.935697 28.829376,199.619127 31.6004318,198.034631 C33.6237111,196.877719 35.3669858,195.114679 36.156269,192.921091 C36.5963701,191.697966 36.7294546,190.383592 36.7314311,189.083713 C36.7334076,187.979507 36.6332648,186.839065 36.1177272,185.862673 C35.602519,184.886281 34.5875852,184.10688 33.4843677,184.155634 C32.4305627,184.201753 31.5447603,184.961388 30.883291,185.782954 C28.898883,188.248311 28.1688949,191.586952 28.5582658,194.727614 C28.849141,197.072075 31.2413673,197.601448 33.2709054,197.116876 C35.7922632,196.514701 36.6316177,193.828635 37.1652733,191.485163 C37.9486269,188.044402 39.3166957,183.721792 43.6198701,183.723439 C44.6275567,183.991914 44.8113714,184.231071 44.9757505,184.470227 C46.2667357,186.347575 46.8718748,188.685777 46.6541301,190.953813 C46.4218911,193.369428 45.1032349,196.741999 42.6072422,197.62319 C40.0400955,198.529416 38.7263805,196.251168 38.368963,194.019697 C37.8794493,190.96106 38.0257105,187.403686 40.0822609,185.087225 C43.3313008,181.427732 50.7645955,180.170347 54.2817809,182.53655 C55.8330055,183.580472 56.3564492,185.598151 56.6140533,187.450463 C56.7705263,188.574763 56.8723162,189.722782 56.6789484,190.841811 C56.4839335,191.97237 55.9954081,193.028152 55.5121534,194.06878 C55.1415592,194.86564 54.7426353,195.698406 54.0297769,196.211638 C53.0734793,196.89979 51.7913883,196.855977 50.6166873,196.769341 C44.6703809,196.330557 46.6429299,184.827315 48.8042349,181.690607 C50.6130637,179.065812 53.7728316,178.767031 56.7349493,178.063726 C60.1743923,177.246771 63.6546829,176.618244 67.1316794,175.988398 C78.5140252,173.926577 89.892418,171.818967 101.177915,169.273562 C106.486141,168.076131 111.676764,166.779546 117.027155,165.945462 C122.711246,165.05933 128.409172,164.259506 134.076462,163.269278 C140.080746,162.220744 146.08503,161.17188 152.089313,160.123346 C151.783944,158.825443 151.461774,76.3361307 151.461774,76.3361307 C148.369536,78.7276982 126.190878,88.4639472 118.819513,91.0890713 C84.5914395,103.278489 50.9457749,117.102803 18.0356984,132.499424 C18.1727359,139.157601 18.0478868,185.76813 18.0478868,185.771754 C18.0478868,187.626701 60.874074,180.60979 64.6538047,179.815565 C72.4771291,178.172433 80.273112,176.39984 88.107966,174.811391 C91.8998852,174.042862 95.7082752,173.354051 99.5222653,172.703781 C101.181868,172.420812 102.664245,172.177044 104.312977,172.285092 C105.940297,172.391165 107.530063,171.79492 109.148489,171.944475 C110.992565,172.115113 112.477577,173.660079 113.138058,175.390507 C113.798539,177.120934 113.794586,179.023317 113.782069,180.8753 C113.743197,186.70631 111.773943,195.354495 104.053396,194.555658 C100.505904,194.188688 98.9764213,191.402479 98.5919916,188.162333 C98.1541964,184.46891 98.8693608,180.102158 101.021771,177.007285 C102.093365,175.466602 103.575412,174.262253 105.456054,173.914059 C109.073711,173.244684 108.243251,175.062407 108.430689,177.788003 C108.677093,181.377331 107.75802,185.037484 105.844436,188.084261 C105.710034,188.298382 105.553232,188.523374 105.313416,188.603752 C104.676324,188.815567 104.273776,187.9212 104.22634,187.251166 C104.05142,184.784162 104.336695,182.285204 105.063059,179.920979 C105.213932,179.431794 115.171879,178.668865 116.283332,178.476156 C119.788329,177.869369 123.086122,177.056039 126.639544,176.634715 C134.544234,175.696864 142.464407,174.894734 150.396439,174.228982 C150.128953,177.059004 149.861795,179.889355 149.594309,182.719376 C140.210207,185.325723 130.523041,186.840712 120.791404,187.224154 C120.490975,181.636582 120.190876,176.049011 119.890778,170.46144 C136.213061,168.981369 169.250292,162.821271 169.250292,162.711575 L169.250292,84.9517031 C179.132802,82.6981614 189.045619,81.3584224 198.983142,79.7581146 C201.381297,79.3717084 203.797242,78.9843141 206.225374,79.056127 C208.841934,79.13354 211.410398,79.7423026 213.947568,80.3866422 C224.443123,83.0519552 234.771005,86.3770905 244.850177,90.3366829 C246.12008,90.8357496 247.425559,91.3707229 248.377574,92.3477737 C249.571382,93.5738638 250.038495,95.313515 250.461466,96.9718002 C251.680639,101.750323 252.899811,106.529176 254.118983,111.308358 C249.224506,110.659077 224.528113,102.939189 216.650434,100.081826 C217.180466,105.557725 221.301144,129.819946 223.109972,131.41696 C224.167072,132.350198 246.424461,134.83005 255.883341,137.282559 C254.898713,131.41696 253.251628,124.82862 251.843371,116.666984 C251.760028,116.184388 254.604215,116.849152 254.734005,117.08732 C255.385921,118.284751 258.515383,132.899336 259.316854,137.352725 C260.993257,146.665014 262.804722,153.487899 263.216493,165.429266 C256.695354,164.592876 249.710396,164.193952 242.463222,164.193952 C230.542938,164.193952 219.818767,163.65832 207.039693,163.951172 C205.152793,163.994325 203.36867,164.218658 201.533159,163.782181 C199.371524,163.267961 197.767593,162.550161 196.403477,160.796674 C190.33298,152.993774 171.391503,151.18198 171.226794,161.393907 C171.138181,166.883312 171.226794,171.935252 171.389856,176.4453 C175.516792,171.618023 182.131815,168.644046 188.342972,169.967644 C194.554459,171.291571 199.245358,178.932728 198.370097,185.223275 C197.241514,193.339451 190.161354,199.169144 179.379865,197.053298 C170.888483,195.386778 170.123577,179.857072 177.979843,173.911754 C184.074057,169.299916 190.327051,169.695545 196.862026,169.493942 C203.396671,169.292339 209.882233,170.515794 216.305535,171.734637 C215.492204,169.690275 215.182882,167.447604 215.412156,165.258957 C220.08263,165.039565 224.758046,164.933164 229.433461,164.939423 C230.467172,164.94107 231.604978,164.986859 232.364284,165.688187 C232.989847,166.266314 233.202651,167.153434 233.384489,167.985871 C233.808449,169.920867 234.0733,172.324622 232.496051,173.522383 C231.642532,174.171005 230.495172,174.233923 229.423908,174.270818 C227.638139,174.33209 225.852698,174.393691 224.067258,174.455292 C222.435326,174.511293 220.68744,174.536987 219.317724,173.647891 C217.948667,172.758794 217.317504,170.578383 218.5291,169.484389 C230.195403,169.062735 240.896185,168.781743 252.51044,169.95875 C248.191783,170.426851 244.867307,171.555763 240.54865,172.024194 C239.665812,172.119725 238.488147,172.983127 239.150934,173.573772 C247.165979,173.22459 263.006654,174.328796 261.239991,174.323525 C256.288194,174.30903 255.296979,171.555763 256.086262,169.974891 C257.551838,169.956114 261.770023,170.253907 262.096146,170.525017 C262.496058,170.857729 263.11075,178.986423 259.67526,181.653053 C257.978762,182.970062 255.325638,183.787017 253.266782,184.398744 C247.078024,186.238538 240.598062,186.878595 234.150713,187.221848 C226.587298,187.624395 219.002801,187.630325 211.439057,187.239307 C209.284341,187.127964 207.061435,186.96622 205.140934,185.98324 C201.804598,184.274883 201.867187,181.268294 201.835234,177.985324 C201.795704,173.920977 201.755845,169.856301 201.716315,165.791954 C201.706103,164.774055 201.719938,163.678414 202.316512,162.853884 C203.123255,161.739136 204.670197,161.52831 206.041889,161.418943 C222.761449,160.08711 241.270732,160.841804 258.028175,161.558616 C257.983704,156.282344 257.122278,149.864312 256.187393,144.666771 C246.558534,143.441998 236.929675,142.216896 227.300816,140.992124 C227.22472,146.607037 227.149284,152.22195 227.073188,157.836863 C223.652852,158.483838 220.034535,158.038795 216.872461,156.583101 C217.461789,141.823902 214.808664,127.149363 212.165751,112.616802 C211.418963,108.507325 210.671516,104.397848 209.924398,100.288371 C209.924398,100.857274 178.544134,106.636566 176.018823,106.897464 C176.196709,106.879346 172.018054,127.26367 171.832263,129.724086 C177.279173,128.178461 190.646915,127.019572 191.542929,127.494592 C192.686994,128.101048 201.394804,134.236769 205.519763,133.864858 C209.644723,133.492946 213.746624,132.318245 217.863677,132.769876 C219.463985,141.949739 219.327277,153.179894 220.165973,160.538411 C232.171575,161.501956 260.558756,163.386551 261.157966,164.052632 C261.631009,164.578711 262.914417,165.94118 262.96943,166.582225 C263.147974,168.667105 263.469485,177.74452 263.298847,180.088322 C263.140068,182.275981 259.694366,187.711691 252.035421,188.452879 C246.957787,188.94404 243.498909,189.129172 238.427863,188.57081 C237.531849,191.45288 236.286653,198.700383 225.5806,198.123903 C218.830187,197.760227 217.756946,191.617918 217.152795,189.160467 C216.027507,191.947335 218.184529,197.361633 221.70995,198.782737 C223.430825,199.47616 238.05101,199.975623 239.905957,200 C253.446973,200.177226 290.813548,199.89261 300,200" id="Page-1"></path>
            <path d="M0.5,200 L77.1632246,200" id="Line"></path>
            <path d="M184.646833,200 L299.5,200" id="Line"></path>
        </g>
    </g>
</svg>