<?xml version="1.0" encoding="UTF-8"?>
<svg width="300px" height="200px" viewBox="0 0 300 200" version="1.1" xmlns="http://www.w3.org/2000/svg" xmlns:xlink="http://www.w3.org/1999/xlink">
    <!-- Generator: Sketch 46.2 (44496) - http://www.bohemiancoding.com/sketch -->
    <title>icon-silos-noact</title>
    <desc>Created with Sketch.</desc>
    <defs></defs>
    <g id="Symbols" stroke="none" stroke-width="1" fill="none" fill-rule="evenodd" stroke-linecap="round" stroke-linejoin="round">
        <g id="category/icon-silos-noact" stroke="#C1C1C1" stroke-width="2">
            <g id="Page-1" transform="translate(-0.500000, 2.250000)">
                <path d="M0.5,197.75 L103.030823,197.711743 C103.030823,197.711743 114.62111,128.035924 116.97895,107.980046 C116.623645,111.000826 144.200949,148.647395 145.967872,150.049753 L153.798303,150.160529 C157.090706,145.805297 181.970641,106.58832 181.970641,106.58832 C175.604985,103.65328 166.364994,100.206546 149.902979,100.206546 C131.840377,100.206546 122.009125,104.55046 116.907615,106.250506 C116.600324,95.8722345 115.390366,8.18354177 116.521786,7.37896081 C129.308999,-1.71527332 166.736418,-1.7941538 181.325192,5.98792059 C183.283829,22.5243571 181.746689,95.7323073 181.970641,106.58832 L197.917188,197.711743 L300.5,197.75" id="Stroke-1"></path>
                <path d="M103.260433,197.377839 C104.909379,197.363778 106.558324,197.350059 108.207269,197.335998 C111.800789,172.841549 120.408365,120.555105 120.408365,120.555105 C123.987482,127.134766 133.488122,143.034671 137.865646,149.904133 C131.772643,149.870866 125.677239,150.123283 119.607557,150.661042 C118.038178,158.597791 116.166653,166.475208 113.998811,174.269972 C116.440677,174.430134 118.882885,174.590295 121.324751,174.750114 C121.769568,174.779266 122.24388,174.802244 122.630737,174.581035 C123.340319,174.176344 123.410968,173.200627 123.410625,172.383699 C123.406853,165.858568 124.339014,159.333095 126.169384,153.069641 C129.694313,153.013053 133.219585,152.956465 136.7452,152.899876 C135.708436,157.030127 133.857145,170.791343 133.202437,173.396113 C132.675653,175.493305 131.775729,177.475263 130.879921,179.443503 C129.365759,182.772259 127.851254,186.101359 126.337091,189.430458 C126.215341,184.53541 125.435453,179.657166 124.026236,174.96755 C122.344024,179.994637 120.650151,185.049162 118.156499,189.727118 C117.778215,184.769308 116.670802,179.8674 114.880901,175.228541 C114.718338,180.204185 114.556462,185.179829 114.3939,190.15513 C118.442526,190.358504 122.491153,190.561879 126.53978,190.765596 C125.033162,190.764225 123.526888,190.763196 122.019928,190.761824 C122.281948,192.963618 122.34128,195.18942 122.196894,197.401846 C120.801053,197.306503 119.405554,197.210818 118.010055,197.115133 C118.114658,195.297452 118.21926,193.479085 118.324206,191.661061 C121.043182,191.400756 123.785479,191.383951 126.507199,191.610989 C128.051198,187.612435 129.594855,183.614566 131.138855,179.616354 C138.378712,179.213378 145.627485,178.963018 152.878317,178.865275 C153.547086,172.863499 153.780298,166.813708 153.574523,160.778665 C148.756983,160.850001 143.94493,161.265666 139.186379,162.020861 C139.173347,160.850001 139.159972,159.67914 139.146939,158.508279 C143.794029,158.518225 148.441804,158.528514 153.089237,158.538459 C153.09198,157.764745 153.094381,156.990687 153.096782,156.216972 C148.297076,156.389824 144.843825,156.586682 140.064353,157.06408 C140.249208,154.551222 139.677153,154.366711 140.528719,151.995152 L165.221741,151.995152 C164.588983,153.961676 165.510855,154.747395 164.878097,156.714262 C169.343075,156.233777 173.85401,156.183362 178.328248,156.563018 C172.755856,164.9998 160.858964,183.002042 160.288624,183.344657 C159.772128,183.655035 144.875377,185.257681 138.000085,185.407554 C137.853642,187.051011 137.500052,188.675949 136.949603,190.231267 C155.014606,189.082698 191.144956,188.918078 191.144956,188.918078 C191.144956,188.918078 181.049625,127.503447 180.083168,116.210848 L181.970812,106.588114" id="Stroke-4"></path>
            </g>
            <path d="M0.5,200 L79,200" id="Line"></path>
            <path d="M202.979277,200 L299.5,200" id="Line"></path>
        </g>
    </g>
</svg>