<svg width="302px" height="172px" viewBox="0 0 302 172" version="1.1" xmlns="http://www.w3.org/2000/svg" xmlns:xlink="http://www.w3.org/1999/xlink">
    <g id="Symbols" stroke="none" stroke-width="1" fill="none" fill-rule="evenodd" stroke-linecap="round" stroke-linejoin="round">
        <g id="icon-products-noact" transform="translate(1.000000, 1.625000)" stroke="#C1C1C1" stroke-width="2">
            <path d="M0,168.393344 L38.1370237,168.393344 C38.1370237,168.393344 39.2073178,129.710281 38.8161153,112.413628 C38.8348995,113.237843 40.1420386,114.128014 40.5695845,114.713553 C43.2336817,118.360123 49.9572194,139.128254 51.589816,141.619879 C51.6527024,141.715729 51.7196724,141.814426 51.8131853,141.865673 C51.9316078,141.930205 52.0688145,141.909802 52.1978541,141.8875 C55.5247088,141.314772 59.0398143,141.62842 62.434864,141.34609 C62.6451659,141.328533 71.3680016,115.849043 73.7454347,109.948575 C67.7957266,110.096146 61.844385,110.174439 55.8930435,110.183455 C50.1830388,110.191996 44.4611918,110.010735 38.7564957,110.361869 C39.1317724,106.759427 39.2289605,103.118077 39.0468349,99.4957064 C43.1695702,99.3452883 47.172658,99.7201472 51.3056021,99.6238227 C55.8297487,99.5189571 60.4682343,99.2541834 64.9776802,99.6864573 C68.614475,100.035218 72.330082,100.005799 75.9917864,100.283384 C75.371906,106.420631 76.4630262,119.424912 76.6145252,125.579241 C76.7790916,132.273082 76.7341728,138.97404 76.4797686,145.664559 C76.4736433,146.328391 72.0266755,147.41216 71.5644195,147.560206 C68.7610739,148.457495 65.9932549,149.257035 63.2091019,150.274848 C62.6982519,150.461803 62.1800515,150.650182 61.6451086,150.678652 C61.0926065,150.708546 60.5454131,150.567618 60.00557,150.428588 C56.5170074,149.529401 53.0186444,148.681461 49.5112975,147.884767 C46.4478308,147.189143 43.1516027,145.981528 40.0571011,145.859106 C40.0513841,146.623533 40.0215743,147.466254 40.0158574,148.230681 C46.3677936,149.627624 52.7193214,151.024566 59.0716659,152.421983 C60.2693662,152.685333 61.5352616,152.987119 62.4332305,153.945618 C62.4042375,149.807461 62.3752444,145.669304 62.3462513,141.530672 C62.2813231,132.244137 62.2433462,116.179299 61.911355,106.846736 C61.851327,105.151805 60.3828884,77.1887564 61.1889779,77.152694 C63.9955904,77.0283737 66.8026113,76.9035789 69.6096321,76.7787842 C69.348286,81.7985715 69.0865315,94.4109118 68.8255937,99.4311737" id="Stroke-1"></path>
            <path d="M51.0513205,99.5827306 C51.925605,96.3024782 52.9011611,85.3741558 53.1045211,81.9273522 C53.1812915,80.6319538 52.7998895,76.5796819 54.3573491,76.1858428 C58.2375225,75.2135823 62.2001833,74.6845093 66.1689694,74.6095375" id="Stroke-3"></path>
            <path d="M57.5207807,70.3823632 C63.8719002,72.0004249 69.046962,77.14216 74.1076849,81.885311 C87.9651554,94.8725102 102.994192,106.053269 117.988926,117.205083 C123.004322,120.935641 128.020534,124.66525 133.03593,128.395807 C133.149452,124.548047 136.021401,121.075145 139.325796,120.790442 C140.188647,123.282068 139.371532,126.410479 137.462889,127.924624 C135.554245,129.438769 132.749266,129.183485 131.06685,127.342406 C129.021408,125.104641 128.902986,121.437193 128.923812,118.173073 C128.951172,114.100872 128.977715,110.028671 129.004666,105.95647 C131.610777,105.553141 134.273649,105.654685 136.851584,106.256357 C136.383202,110.924062 135.915229,115.591767 135.447256,120.259471 C131.743083,116.379919 126.844068,114.516539 122.417518,111.847449 C117.651626,108.974321 113.383517,105.123714 109.085598,101.384141 C94.4894167,88.6840173 79.2423198,77.0334984 64.0066568,65.3919951 C63.1364558,64.7272137 62.1996933,64.0377581 61.1579839,64.0391816 C58.6596782,64.0415542 57.5420151,67.6245407 57.1140608,70.4848562 C58.9512425,71.5591353 61.2269956,70.6310037 62.8342744,69.1396348 C64.4411447,67.6482659 65.6498706,65.6463297 67.2379567,64.126965 C67.6189504,63.7625453 68.046088,63.4147332 68.5373371,63.3520985 C69.148642,63.2742797 69.727687,63.6477151 70.2585464,64.0069153 C88.9803218,76.6776197 108.452242,87.8512612 128.490549,97.4224995 C132.759066,99.4614471 137.05821,101.430642 141.198505,103.80032 C145.143198,106.058489 148.933942,108.674909 152.931721,110.803063 C157.26925,113.11153 161.818307,114.828288 166.355929,116.539828 L181.914599,122.409453 C180.438402,123.717663 179.271328,125.492786 178.573452,127.491875 C178.382751,128.039454 178.22431,128.637805 178.336607,129.214328 C178.540376,130.258239 179.600053,130.829543 180.511497,130.676752 C181.42335,130.523962 182.19718,129.836878 182.878313,129.117055 C183.773015,128.171366 184.64975,126.913928 184.472116,125.524103 C184.21077,123.485156 181.742683,122.771975 180.205232,123.800702 C178.66819,124.829903 177.88211,126.858886 177.191993,128.758329 C173.521713,126.542391 169.348342,125.793622 165.405282,124.343535 C162.022075,123.098909 158.801392,121.333276 155.592552,119.572863 L91.2291237,84.2682746 C89.8321469,83.5019492 88.385351,82.6910203 87.4163286,81.2931289 C85.111174,77.967324 86.650666,72.6229753 89.6663554,70.1830711 C92.6820448,67.7431669 96.5899863,67.4774442 100.26435,67.5410278 C102.17136,67.5742432 104.454872,67.4480249 105.431653,65.5447857 C105.800396,64.8259108 105.902076,63.9694294 105.989055,63.1380968 C106.598727,57.3339529 106.878449,51.4833074 106.827813,45.636458 C106.833121,46.2599574 131.26041,46.8677982 133.503903,46.9081311 C142.25124,47.0661413 151.021444,47.0049301 159.743463,46.507649 C159.618507,44.8644385 159.544595,43.2160085 159.521727,41.5666295 C159.520911,41.524873 134.448424,40.8045746 132.180838,40.749532 C122.709082,40.5193971 113.23161,40.4762172 103.761079,40.8131157 C103.413979,42.5108942 103.299232,44.2727309 103.422963,46.0117914 C105.679932,46.0530733 107.936084,46.0938807 110.192644,46.1351627 C110.120366,49.3741331 110.048087,52.6126291 109.9754,55.851125 C109.909655,58.8096631 109.232606,62.6873172 109.758156,65.5699344 C110.044412,67.1400712 110.044412,66.7063737 111.482224,66.6812249 C112.912278,66.6565507 114.377449,66.8757719 115.806686,66.9664024 C118.577772,67.1419692 121.349266,67.3042499 124.121985,67.4309427 C135.175293,67.9358159 146.30333,67.8902634 157.262717,65.9514364 C156.514613,66.0847723 154.574527,70.8867619 154.190266,71.6326836 C152.794515,74.3440046 151.399171,77.0553256 150.003828,79.7661721 C148.618693,82.4561404 147.232742,85.1480067 145.717343,87.741176 C143.301116,91.8769607 140.481845,95.7996928 138.68264,100.374869 C137.967205,102.19507 137.245236,102.379178 135.541586,102.315594 C132.809294,102.213101 130.135805,101.818313 127.38677,101.940261 C125.655352,102.017131 121.650222,94.277481 120.730611,92.8164805 C118.264156,88.898019 116.055782,84.741356 114.458712,80.2439986 C114.025857,79.0249955 113.746952,76.9580521 113.06051,75.9421371 C112.322207,74.8488778 111.448739,75.1283612 110.162018,75.058609 C107.386849,74.9077164 104.603921,74.8156625 101.83161,74.6092528 C102.47885,74.6576523 103.36906,152.680968 102.6524,158.626514 C102.608298,158.989985 97.6549718,159.116203 97.264586,159.201614 C97.863232,159.070651 98.4496274,65.1333899 98.0200397,65.1125117 C99.0960507,65.1656563 101.145984,65.3972147 102.221996,65.4503592 C102.234246,66.9739945 102.246497,68.4976297 102.259156,70.0212649 C118.437707,70.6485604 128.771496,70.0336021 141.98091,71.2620953 C141.894747,69.7996712 141.808585,68.337247 141.722014,66.8748229 C143.401571,66.8226274 145.080312,66.7704319 146.759461,66.7187108 C146.591219,68.3680899 146.91831,69.9477167 146.750477,71.5975702 C152.270597,71.045721 157.270067,70.2101179 162.704842,68.9541034 C162.676257,60.6839575 162.676257,50.7193545 162.539867,45.6578107 C163.492964,45.4998006 165.462043,45.4760753 167.168144,45.4998006 C165.999028,53.6963983 167.031754,139.293761 166.781025,154.347429 C164.88994,154.585156 163.478671,154.714696 161.587179,154.952423 C161.587179,148.625375 162.539867,79.9806483 162.539867,74.1281049 C157.776017,75.0771147 152.875777,76.0261245 147.529615,77.0966075 C147.294812,94.0573108 148.062108,149.876169 147.567183,161.911512 C145.816573,162.545925 144.228078,162.210924 142.394163,162.223262 C141.189521,151.598148 143.027928,94.2670419 141.835944,76.3990853 C132.360514,76.223993 122.468562,75.7238649 112.768537,75.2000114" id="Stroke-5"></path>
            <path d="M118.434807,88.5326502 C117.897823,109.566978 116.315862,130.816257 117.463335,151.813098 C120.53946,150.96326 123.559233,150.793387 126.684361,150.497771 C126.479776,142.346726 126.34502,134.193308 126.2805,126.038467 C126.22088,118.505227 125.83907,110.865223 126.179228,103.385603" id="Stroke-7"></path>
            <path d="M155.979385,47.5417375 C156.210104,53.3828929 156.073306,59.2430284 155.57144,65.060933 C163.765049,63.9857049 171.959068,62.9100023 180.152677,61.8342997 C179.910524,54.8135252 180.088974,47.7728214 180.686395,40.7800427 C173.674968,40.3501412 166.673342,41.5449446 159.728068,42.7369009" id="Stroke-9"></path>
            <path d="M166.486888,68.4273555 C171.720344,67.8337499 176.934608,67.0038408 182.112937,65.9390518 C181.725001,57.2252438 181.744602,48.4867615 182.171331,39.775326 C186.608907,39.242457 191.046483,38.7091135 195.484058,38.17577 C196.57967,40.109852 195.22067,43.1761026 193.22954,43.262937 C192.750541,41.8996844 192.587608,40.3893353 192.761158,38.9311818 C194.067889,38.3836031 195.047529,40.5653767 194.762498,42.144529 C194.477059,43.7241558 193.606858,45.2392499 193.881271,46.8212493 C191.269035,46.8615822 188.657207,46.9019151 186.045379,46.942248 C186.755914,60.7147528 187.466449,74.4962732 187.503609,88.2929778 C187.552611,106.715631 186.401055,125.147299 187.148342,143.549548 C185.64356,143.656786 184.139186,143.764973 182.634812,143.872211 C180.397036,133.768104 182.498422,123.141567 182.645429,112.709577 C182.848789,98.3410936 179.330009,83.7586089 182.140705,69.7645103 C179.523568,70.3249006 176.906023,70.8852909 174.288478,71.4456812 C172.540318,71.8200656 170.584305,72.8136788 168.822669,72.7154563 C168.437183,82.1618999 168.942316,91.8460705 169.400081,101.250758 C169.885204,111.222004 169.540962,121.107839 170.512435,131.085728 C170.975508,135.84264 171.830191,141.102052 175.146429,143.942438 C177.24904,145.743659 179.969082,146.207725 182.573968,146.434063 C186.283041,146.755778 190.022741,146.708327 193.706905,146.118992 C207.323855,143.941015 219.932989,134.456611 233.660603,135.258049 C232.539674,135.761499 231.122687,134.800152 230.948321,133.418868 C230.77477,132.037585 231.895292,130.644913 233.092992,130.754049 C234.322953,131.681706 233.940325,134.338459 232.511089,134.717114 C231.081852,135.095294 229.75307,132.825263 230.605304,131.43876 C227.584306,130.942902 224.660088,132.628818 221.863276,134.045689 C211.9946,139.044599 201.249191,141.135742 190.628737,143.184654 C188.207202,143.651567 185.716655,144.117531 183.317579,143.514909 C180.20756,142.732925 177.571639,140.184359 175.839813,137.082046 C174.107986,133.980208 173.1945,130.35499 172.604837,126.721232 C171.861226,122.134667 171.59988,117.442763 171.828558,112.783125 C172.060911,108.04377 172.796764,103.349967 172.977664,98.6077653 C173.319047,89.6334541 171.670933,80.5694615 172.922945,71.7047609" id="Stroke-11"></path>
            <path d="M232.233776,134.70696 C232.766677,134.823213 233.29917,134.939467 233.832479,135.055721 C234.827228,137.199534 235.821977,139.343347 236.817134,141.487635 C238.700051,145.546075 240.856157,149.898708 244.529703,151.641565 C248.970546,153.748367 253.083072,150.945941 256.052618,146.569108 C259.02298,142.192274 260.952858,131.226941 260.952858,131.226941 C261.22523,117.782793 262.392712,64.7459567 262.044795,60.3871547 C253.529403,60.1660354 242.08285,60.4488403 233.518456,60.3871547 C233.167272,84.7340012 233.146446,109.416323 232.795262,133.762695 C242.563482,133.971951 253.244372,133.854274 262.988091,133.635527 C263.167766,133.631257 263.362959,133.633155 263.503433,133.762695 C263.676575,133.922603 263.701484,134.211576 263.716185,134.467809 C263.800306,135.925014 264.007749,137.372728 264.334024,138.783431 C264.460205,139.327214 264.612112,139.883808 264.933486,140.305168 C265.25486,140.727003 265.789395,140.978491 266.237767,140.764489 C266.686955,140.550013 266.907058,139.965423 267.035689,139.421166 C267.31827,138.222566 267.36768,136.950419 267.17943,135.727145 C267.061824,134.965565 266.834371,134.188326 266.344347,133.665421 C265.854323,133.142517 265.045783,132.964103 264.518191,133.435761 C263.903619,133.985712 263.936696,135.055246 264.028167,135.950637 C264.168232,137.311517 264.307889,138.671922 264.447954,140.032803 C262.818624,140.241585 261.17541,140.298525 259.538322,140.202675 C257.768927,132.718309 258.309178,76.9910302 258.176464,70.44049 C258.061308,64.7540233 259.06014,58.7477402 258.429234,53.1186886 C254.653599,53.3383843 250.613351,52.4743109 246.751554,52.3575827 C242.053449,52.2152312 237.352485,52.2043176 232.65438,52.3243674 C232.701341,54.1588033 232.748301,55.9932393 232.795262,57.8276752 C239.687858,58.3823714 246.446106,58.2627962 253.306442,58.1256643 C253.485709,50.015901 253.374637,41.8975966 252.974042,33.7987469 C249.49528,34.1242573 246.740937,33.8879539 243.257683,33.6369408 C243.257683,39.0149793 243.695846,43.4857645 243.523112,48.3432712 C243.51617,48.5335477 243.510862,48.7333142 243.584774,48.903187 C243.681962,49.1285768 243.893489,49.2495756 244.090315,49.3549157 C246.661716,50.7309799 250.304636,49.9233725 252.780483,48.5482573 C253.126766,48.3560829 253.511843,48.0642623 253.524502,47.6182277 C253.539611,47.0573629 252.976084,46.7503583 252.507703,46.6113283 C250.44266,45.998268 244.106649,44.1662046 244.318585,48.465219 L244.849852,59.2350567 C244.849852,59.5714807 237.540736,59.2602055 236.179694,59.4186901 C236.037179,59.4348233 236.013495,66.4816956 235.827285,68.2644105 C232.0443,67.9844526 228.251106,67.8923987 224.461179,67.9882487 C224.631054,70.3674163 224.902609,72.7370937 225.273802,75.0854185 C225.330971,75.4460422 235.581457,74.9013106 236.340177,74.846268 C241.039099,74.5055735 245.756805,73.8009337 250.464711,74.3817277 C250.465119,72.3081413 250.465119,70.2340804 250.465119,68.1600195 C250.465119,68.5419959 236.288316,69.2803255 236.307917,68.213164 C236.236864,72.0718379 235.2707,126.597196 236.091082,138.783431 C236.024928,137.815441 231.488531,138.075944 230.876818,138.210229 C230.733078,145.98689 231.062619,153.776363 231.040976,161.564886 L233.518456,160.73213 C233.189731,153.773041 233.150121,146.795446 233.400033,139.832087 C235.24579,139.844424 236.753022,141.568775 237.717553,143.397042 C238.682084,145.22531 239.349333,147.302218 240.630337,148.845308 C243.587632,152.405043 248.527074,151.884986 252.731072,151.101578 C253.016102,155.639269 253.301133,160.176959 253.586164,164.71465 C254.425738,164.740273 255.264904,164.765422 256.104479,164.791045 C256.098353,160.747789 256.166548,156.70643 255.952571,152.671715 C255.917045,151.999816 255.882743,151.312259 256.043634,150.665508 C256.40421,149.217794 258.093568,147.811836 258.899657,146.607068 C260.039371,144.903121 261.090065,143.119457 262.044795,141.268413 C262.104006,147.920023 262.163217,154.571633 262.222428,161.223717 C263.167766,161.367017 264.133522,161.327159 265.067834,161.106514 C265.275686,155.529658 265.188707,149.960869 265.166656,144.379267 L264.316464,144.379267 C264.349949,153.231156 264.316464,168.393486 264.316464,168.393486 L300,168.393486" id="Stroke-13"></path>
            <path d="M112.321839,40.2883607 C109.253472,28.4205186 110.086513,15.250635 114.615968,4.0314411 C114.92305,3.27033524 115.273009,2.48313161 115.87533,2.0176423 C116.451517,1.5730312 117.172669,1.48904383 117.861561,1.4178681 C127.70451,0.402902113 137.612795,-0.612538379 147.451252,0.454148642 C147.938418,0.506818686 148.447226,0.573723878 148.852721,0.891167657 C149.317835,1.25511292 149.565706,1.8824084 149.799284,2.47459052 C151.545811,6.90314477 153.853416,11.0887525 154.833464,15.8708129 C156.483619,23.9217376 153.77297,32.28631 150.477559,39.6235793 C150.338718,39.932482 150.190895,40.2513493 149.950783,40.4601315 C149.602457,40.7628656 149.133259,40.7742537 148.698363,40.7733047 C137.495598,40.751952 126.292424,40.6722352 115.087617,40.5673696 C115.721789,37.4517704 115.239116,34.1990393 114.930401,31.0179584 C114.055299,21.9905026 114.626994,12.777041 116.606283,3.98873566 C116.710821,3.52561888 116.843536,3.02264368 117.187778,2.76024247 C117.60634,2.44090067 118.160067,2.60223234 118.641107,2.76593653 C128.341132,6.07133768 138.901558,5.87726517 148.507254,2.21883237 C147.642361,2.54813878 148.934391,21.1330723 149.014429,23.2683444 C149.157352,27.0501484 149.296192,30.831478 149.439933,34.6132821 C149.466067,35.2937221 149.171236,39.3630761 149.655543,39.8152793 C158.456783,39.0821692 167.032611,39.4522831 175.77709,37.8622171 C180.206498,27.2295113 181.229423,13.8309163 175.574138,4.01483343 C175.061246,3.12466223 174.471584,2.24493014 173.653244,1.75097054 C173.023971,1.37089211 172.306086,1.24846985 171.602493,1.14218075 C165.228098,0.182731838 158.752022,0.140975407 152.368643,1.01738596 C151.188502,1.17966664 149.833177,1.51134556 149.288842,2.73936425 C149.599599,2.03852051 157.583315,3.93369309 158.457191,3.97402601 C162.871899,4.17711411 167.261697,3.21386915 171.580034,2.26723187 C172.855321,1.98774849 174.012595,13.6781258 174.035054,15.2952385 C174.108966,20.6220305 173.591991,25.9132347 173.48051,31.2329091 C173.264491,41.5287165 172.709539,51.8150338 171.816471,62.0614927" id="Stroke-15"></path>
            <path d="M97.4620248,139.160805 L143.63617,142.750909 C144.762817,142.838218 145.90539,142.925052 147.013661,142.671667 C147.895704,142.470477 148.730786,142.059081 149.565052,141.668563 C161.29296,136.181389 174.158949,134.407689 185.694522,128.394289 C185.834179,129.451011 185.973427,130.507733 186.112676,131.564456 C186.112676,132.620229 170.834136,136.610816 169.245233,137.390902 C164.461782,139.738752 159.736725,141.603556 154.683353,143.327432 C151.719933,144.338602 148.736912,145.354043 145.665686,145.727478 C143.404634,146.002691 141.12398,145.926296 138.851494,145.84041 C125.06426,145.319404 111.238233,144.405982 97.4946931,143.561363 C97.9259142,142.476645 98.9949833,141.983635 99.9660475,141.59027 C104.87813,139.599722 109.79062,137.609648 114.703111,135.6191 C120.76185,133.164486 126.792003,131.584385 132.265571,127.476596 C131.745738,127.942085 131.104623,127.169591 130.565596,126.733996 C129.310727,125.718081 127.614019,126.599711 126.255019,127.415385 C121.750473,130.119588 117.072785,131.667423 112.338745,133.476711 C107.379702,135.371409 102.421068,137.266107 97.4620248,139.160805 Z" id="Stroke-17"></path>
        </g>
    </g>
</svg>