<?xml version="1.0" encoding="UTF-8"?>
<svg width="207px" height="129px" viewBox="0 0 207 129" version="1.1" xmlns="http://www.w3.org/2000/svg" xmlns:xlink="http://www.w3.org/1999/xlink">
    <!-- Generator: Sketch 46.1 (44463) - http://www.bohemiancoding.com/sketch -->
    <title>Group 3</title>
    <desc>Created with Sketch.</desc>
    <defs></defs>
    <g id="Symbols" stroke="none" stroke-width="1" fill="none" fill-rule="evenodd">
        <g id="Banners/1" transform="translate(-419.000000, -281.000000)">
            <g id="Group-3" transform="translate(419.000000, 282.000000)">
                <path d="M206.439875,111.483981 C137.904914,132.12083 69.2078774,132.126268 0.654424567,111.483981 L0.654424567,15.479676 C69.2078774,-5.1626113 137.904914,-5.15717254 206.439875,15.479676 L206.439875,111.483981 Z" id="Fill-1" stroke="#C1C1C1"></path>
                <path d="M30.5075971,97.714563 C32.3592766,97.714563 33.9593487,97.5197938 35.6311666,96.5449346 C36.8518402,95.8331454 37.903583,94.7484371 38.3797689,93.3988346 C38.6452882,92.6463081 38.72558,91.837641 38.7267725,91.0378916 C38.7279649,90.3585302 38.6675474,89.6568747 38.3565161,89.0561506 C38.0456835,88.4554265 37.4333593,87.9759011 36.7677723,88.0058968 C36.1319965,88.0342711 35.5975792,88.5016361 35.1985052,89.0071037 C34.0012832,90.5239117 33.5608709,92.5780071 33.795784,94.5102958 C33.9712732,95.9527227 35.4145378,96.278419 36.6389875,95.9802863 C38.160159,95.6097993 38.6665536,93.9572 38.9885157,92.515381 C39.4611243,90.3984569 40.2864999,87.7389759 42.8826671,87.7399893 C43.0372884,87.7401919 43.1968782,87.752555 43.3346065,87.8240987 C43.490619,87.9051681 43.601517,88.052309 43.7006893,88.19945 C44.4795593,89.3544859 44.8446484,90.7930621 44.7132799,92.1884688 C44.5731668,93.6746732 43.7776024,95.7496439 42.2717341,96.2917954 C40.7229374,96.8493501 39.9303542,95.4476605 39.7147191,94.0747506 C39.4193885,92.1929276 39.5076299,90.004257 40.7483764,88.5790573 C42.7085691,86.327558 47.193183,85.5539534 49.3151516,87.0097568 C50.2510279,87.652029 50.566829,88.8934038 50.7222452,90.0330366 C50.8166477,90.7247611 50.878059,91.4310781 50.7613974,92.1195598 C50.6437421,92.8151351 50.3490077,93.4647035 50.0574531,94.1049489 C49.8338683,94.595216 49.5931917,95.1075745 49.163114,95.4233397 C48.5861659,95.8467245 47.8126619,95.819769 47.1039478,95.7664658 C43.5164554,95.4965048 44.7065227,88.419148 46.0104692,86.4892914 C47.1017617,84.8743894 49.0080952,84.6905645 50.7951835,84.2578567 C52.8702491,83.7552266 54.9699586,83.3685256 57.0676808,82.981014 C63.9348142,81.7124809 70.7995626,80.4157762 77.6082659,78.8497184 C80.8107949,78.1130004 83.9423731,77.3152777 87.1703412,76.8021086 C90.5996349,76.256917 94.0372758,75.7648259 97.4564337,75.1555895 C101.078905,74.5104799 104.701376,73.8651676 108.323847,73.220058 C108.139613,72.4215247 107.945243,21.6700664 107.945243,21.6700664 C106.079652,23.1414756 92.698947,29.1316921 88.2516966,30.7467968 C67.6014059,38.2463224 47.3024911,46.7517163 27.4473673,56.2244707 C27.530044,60.3209064 27.4547207,88.9979833 27.4547207,89.0002128 C27.4547207,90.1414669 53.2923772,85.8243198 55.5727432,85.3356741 C60.2926677,84.324739 64.9960966,83.2341531 69.7229771,82.2568618 C72.0106966,81.7840246 74.3083532,81.3602344 76.6093884,80.960157 C77.6106508,80.7860606 78.5049899,80.6360822 79.4996938,80.7025591 C80.4814794,80.7678199 81.4406084,80.400981 82.417028,80.4929947 C83.5295859,80.5979796 84.425515,81.5485181 84.8239928,82.6131617 C85.2224705,83.6778053 85.2200856,84.8482445 85.2125334,85.9876746 C85.1890819,89.5751973 84.001002,94.8959834 79.343085,94.4045003 C77.2028321,94.178722 76.2800729,92.46451 76.0481409,90.471014 C75.7840128,88.1986393 76.2154817,85.512 77.5140621,83.607883 C78.16057,82.6599793 79.0547104,81.9190051 80.1893286,81.7047793 C82.3719136,81.2929468 81.8708849,82.4112989 81.9839691,84.0882191 C82.1326282,86.2965489 81.5781379,88.5484536 80.4236455,90.4229804 C80.3425587,90.5547181 80.2479575,90.6931441 80.1032733,90.7425964 C79.7189062,90.8729154 79.4760435,90.322657 79.4474246,89.9104192 C79.3418926,88.3925978 79.5140032,86.855117 79.9522294,85.4005296 C80.0432532,85.0995596 86.0510261,84.6301679 86.7215817,84.5116039 C88.8361969,84.1382794 90.8258033,83.6378786 92.9696336,83.3786593 C97.7386474,82.801648 102.517002,82.3081382 107.302511,81.8985351 C107.141133,83.6397027 106.979953,85.381073 106.818575,87.1222406 C101.15701,88.7257929 95.3126034,89.6578881 89.4413664,89.8938 C89.2601136,86.456053 89.0790596,83.0183059 88.8980057,79.5805589 C98.7454745,78.6699471 118.677313,74.8799536 118.677313,74.8124633 L118.677313,26.9707877 C124.639574,25.5842987 130.620119,24.7600258 136.61557,23.7754382 C138.062412,23.5377022 139.519986,23.2993582 140.984913,23.343541 C142.563521,23.3911693 144.113113,23.7657098 145.643824,24.1621391 C151.975944,25.80197 158.206904,27.8477558 164.287814,30.2838906 C165.053964,30.5909409 165.841579,30.9200826 166.415943,31.521212 C167.136185,32.2755626 167.418001,33.3458811 167.673186,34.3661392 C168.40873,37.3061203 169.144274,40.246304 169.879818,43.1866904 C166.926909,42.787221 152.027219,38.0375687 147.274502,36.2795792 C147.594278,39.64862 150.080342,54.5759248 151.171635,55.5584857 C151.809398,56.1326596 165.237602,57.6583853 170.944281,59.1672891 C170.350241,55.5584857 169.356531,51.5050167 168.506908,46.4835794 C168.456627,46.1866628 170.172565,46.5956578 170.25087,46.7421907 C170.64418,47.4789087 172.532229,56.4705162 173.015769,59.2104586 C174.027167,64.9398343 175.120049,69.1376068 175.368477,76.4845193 C171.43418,75.9699314 167.220054,75.7244938 162.847729,75.7244938 C155.65605,75.7244938 149.186003,75.3949468 141.476204,75.5751235 C140.337809,75.6016737 139.261422,75.7396944 138.154032,75.471152 C136.849887,75.1547788 135.882212,74.7131533 135.059221,73.6343226 C131.396803,68.8335966 119.969136,67.7188926 119.869765,74.0017695 C119.816303,77.3791199 119.869765,80.4873199 119.968142,83.2621221 C122.457982,80.2921454 126.448921,78.4624095 130.196202,79.2767514 C133.943682,80.091296 136.773768,84.7925093 136.245711,88.6627615 C135.564821,93.6562299 131.293258,97.2429419 124.78863,95.9411704 C119.665657,94.9158454 119.204178,85.361211 123.943977,81.7033606 C127.620704,78.8659323 131.393225,79.1093431 135.33587,78.985307 C139.278315,78.8612708 143.191149,79.614 147.066419,80.3638918 C146.575725,79.1061003 146.389107,77.7262995 146.527431,76.3797371 C149.345196,76.2447566 152.165941,76.1792931 154.986687,76.1831439 C155.610339,76.1841572 156.296794,76.2123288 156.754895,76.6438206 C157.132306,76.9995125 157.260693,77.5453121 157.370399,78.0574679 C157.62618,79.2479718 157.785968,80.7268799 156.834391,81.4638006 C156.319451,81.8628646 155.627232,81.9015752 154.980923,81.9242746 C153.903543,81.9619719 152.826361,81.9998718 151.749179,82.0377718 C150.764611,82.0722263 149.710086,82.0880348 148.883717,81.5410191 C148.057745,80.9940035 147.676955,79.652508 148.407928,78.9794294 C155.446377,78.7200074 161.902313,78.547127 168.909361,79.2712792 C166.303853,79.5592782 164.298148,80.2538401 161.69264,80.5420417 C161.160012,80.600817 160.449509,81.1320241 160.849378,81.4954176 C165.68497,81.2805838 175.241878,81.9599452 174.176025,81.9567024 C171.188535,81.9477848 170.59052,80.2538401 171.066706,79.2812102 C171.950909,79.2696578 174.495801,79.4528746 174.692555,79.6196749 C174.933828,79.824375 175.304681,84.8255451 173.232,86.4661866 C172.208479,87.2764751 170.60781,87.7791052 169.365673,88.1554698 C165.631906,89.287401 161.722452,89.6811955 157.832673,89.8923813 C153.269556,90.1400482 148.693719,90.1436964 144.130403,89.903123 C142.830432,89.8346193 141.489321,89.7351067 140.330654,89.1303291 C138.317795,88.0792646 138.355556,86.229464 138.336278,84.2096204 C138.312429,81.7090354 138.288381,79.2082478 138.264532,76.7076627 C138.258371,76.0814018 138.266718,75.4073099 138.62664,74.9000183 C139.11336,74.2141713 140.046652,74.0844603 140.874214,74.0171727 C150.961366,73.197764 162.128283,73.6620888 172.23829,74.1031063 C172.21146,70.8568856 171.691749,66.9081988 171.12772,63.7104172 C165.31849,62.9568773 159.50926,62.2031347 153.700031,61.4495948 C153.654121,64.9041638 153.60861,68.3587327 153.5627,71.8133016 C151.499162,72.2113523 149.316179,71.9375405 147.408454,71.0419265 C147.764004,61.9613453 146.163336,52.9328512 144.568828,43.9917093 C144.11828,41.463358 143.667334,38.9350068 143.216588,36.4066555 C143.216588,36.7566725 124.284422,40.3123755 122.760865,40.4728929 C122.868186,40.4617459 120.347143,53.0031789 120.235053,54.5169469 C123.521252,53.566003 131.586204,52.8529978 132.126782,53.145253 C132.817013,53.5183748 138.07056,57.2933704 140.559208,57.0645521 C143.047856,56.8357338 145.522591,56.1130003 148.006469,56.3908656 C148.971958,62.0387666 148.88948,68.9481071 149.395477,73.4754266 C156.638631,74.0682464 173.765026,75.2277412 174.126538,75.6375469 C174.411932,75.9612164 175.186231,76.7994738 175.21942,77.1938763 C175.327139,78.4765966 175.521111,84.0614662 175.418163,85.5034877 C175.322369,86.8494421 173.243527,90.1937567 168.622775,90.649772 C165.559365,90.9519581 163.472574,91.0658605 160.413139,90.722329 C159.872561,92.495519 159.121316,96.9545376 152.6622,96.5998591 C148.589578,96.3761076 147.942077,92.5970584 147.577584,91.0851145 C146.898681,92.7997319 148.200044,96.1308727 150.326981,97.005206 C151.36521,97.4318336 160.185778,97.334145 161.304895,97.3491428" id="Page-1" stroke="#E01976" stroke-width="2" stroke-linecap="round" stroke-linejoin="round"></path>
            </g>
        </g>
    </g>
</svg>