<?xml version="1.0" encoding="UTF-8"?>
<svg width="226px" height="55px" viewBox="0 0 226 55" version="1.1" xmlns="http://www.w3.org/2000/svg" xmlns:xlink="http://www.w3.org/1999/xlink">
    <!-- Generator: Sketch 46.1 (44463) - http://www.bohemiancoding.com/sketch -->
    <title>Logo/white-horizontal</title>
    <desc>Created with Sketch.</desc>
    <defs></defs>
    <g id="Symbols" stroke="none" stroke-width="1" fill="none" fill-rule="evenodd">
        <g id="Logo/white-horizontal">
            <path d="M4.9414,52.1899 C7.7054,52.1899 8.0564,51.6899 8.0564,48.7539 C8.0564,45.7979 7.7154,45.3089 4.9414,45.3089 C2.1384,45.3089 1.7984,45.7979 1.7984,48.7539 C1.7984,51.6899 2.1824,52.1899 4.9414,52.1899 M4.9584,44.4959 C8.3534,44.4959 9.1804,45.2079 9.1804,48.7539 C9.1804,52.2919 8.3534,53.0029 4.9294,53.0029 C1.5294,53.0029 0.6804,52.2919 0.6804,48.7539 C0.6804,45.2079 1.5294,44.4959 4.9584,44.4959 Z M17.5614,44.586 L17.5614,45.396 L11.9834,45.396 L11.9834,48.265 L15.3664,48.265 C17.5774,48.265 18.3724,48.81 18.3724,50.533 C18.3724,52.224 17.5334,52.913 15.3944,52.913 L10.8584,52.913 L10.8584,44.586 L17.5614,44.586 Z M11.9834,52.102 L15.3124,52.102 C16.9234,52.102 17.2494,51.645 17.2494,50.533 C17.2494,49.256 16.7754,49.078 15.1644,49.078 L11.9834,49.078 L11.9834,52.102 Z M24.0765,44.4959 C27.4765,44.4959 28.2985,45.2079 28.2985,48.7539 C28.2985,52.2919 27.4765,53.0029 24.0475,53.0029 C20.6495,53.0029 19.7975,52.2919 19.7975,48.7539 C19.7975,45.2079 20.6495,44.4959 24.0765,44.4959 Z M24.0605,52.1899 C26.8235,52.1899 27.1745,51.6899 27.1745,48.7539 C27.1745,45.7979 26.8395,45.3089 24.0605,45.3089 C21.2565,45.3089 20.9225,45.7979 20.9225,48.7539 C20.9225,51.6899 21.3005,52.1899 24.0605,52.1899 Z M31.0635,52.9127 L29.9395,52.9127 L29.9395,44.5867 L34.7705,44.5867 C36.7335,44.5867 37.4535,45.2977 37.4535,46.9547 C37.4535,48.9767 36.6675,49.6547 34.0795,49.6547 L31.0635,49.6547 L31.0635,52.9127 Z M31.0635,48.8437 L33.7555,48.8437 C35.5715,48.8437 36.3285,48.5647 36.3285,47.0757 C36.3285,45.8867 36.0705,45.3967 34.6115,45.3967 L31.0635,45.3967 L31.0635,48.8437 Z M39.498,44.5864 L42.623,50.3554 L45.48,44.5864 L46.644,44.5864 L43.102,51.6104 C42.668,52.4894 42.043,52.9134 41.203,52.9134 L40.144,52.9134 L40.144,52.1024 L40.809,52.1024 C41.516,52.1024 41.773,51.9244 42.016,51.3224 L38.28,44.5864 L39.498,44.5864 Z M47.9993,52.0904 C48.7723,51.1344 49.0293,50.1654 49.0293,48.8774 L49.0293,44.5864 L55.9233,44.5864 L55.9233,52.1024 L56.6533,52.1024 L56.6533,54.8244 L55.6213,54.8244 L55.6213,52.9134 L48.4103,52.9134 L48.4103,54.8244 L47.3793,54.8244 L47.3793,52.1024 L47.9993,52.1024 L47.9993,52.0904 Z M50.1543,45.3964 L50.1543,48.7654 C50.1543,50.4454 49.8953,51.2234 49.2763,52.1024 L54.8003,52.1024 L54.8003,45.3964 L50.1543,45.3964 Z M61.9623,44.4959 C65.3613,44.4959 66.1843,45.2079 66.1843,48.7539 C66.1843,52.2919 65.3613,53.0029 61.9343,53.0029 C58.5343,53.0029 57.6833,52.2919 57.6833,48.7539 C57.6833,45.2079 58.5343,44.4959 61.9623,44.4959 Z M61.9453,52.1899 C64.7103,52.1899 65.0603,51.6899 65.0603,48.7539 C65.0603,45.7979 64.7253,45.3089 61.9453,45.3089 C59.1423,45.3089 58.8073,45.7979 58.8073,48.7539 C58.8073,51.6899 59.1863,52.1899 61.9453,52.1899 Z M67.8242,44.586 L72.7112,44.586 C74.4432,44.586 75.2712,45.131 75.2712,46.63 C75.2712,47.564 75.1632,48.209 74.0102,48.544 C75.3542,48.844 75.5682,49.4 75.5682,50.501 C75.5682,51.989 74.9482,52.913 72.9962,52.913 L67.8242,52.913 L67.8242,44.586 Z M68.9482,48.265 L72.1682,48.265 C73.6702,48.265 74.1482,47.91 74.1482,46.721 C74.1482,45.707 73.8072,45.396 72.5902,45.396 L68.9482,45.396 L68.9482,48.265 Z M68.9482,52.102 L72.0752,52.102 C73.8072,52.102 74.4432,51.936 74.4432,50.566 C74.4432,49.211 74.0272,49.078 72.5522,49.078 L68.9482,49.078 L68.9482,52.102 Z M80.2791,44.5868 L81.9191,44.5868 L85.6981,52.9128 L84.4911,52.9128 L83.7331,51.2018 L78.6171,51.2018 L77.8061,52.9128 L76.5831,52.9128 L80.2791,44.5868 Z M81.1191,45.2748 L78.8871,50.3888 L83.3671,50.3888 L81.1191,45.2748 Z M93.9844,48.2651 L93.9844,44.5861 L95.1084,44.5861 L95.1084,52.9131 L93.9844,52.9131 L93.9844,49.0781 L88.0554,49.0781 L88.0554,52.9131 L86.9314,52.9131 L86.9314,44.5861 L88.0554,44.5861 L88.0554,48.2651 L93.9844,48.2651 Z M98.125,52.2802 L103.895,44.5862 L105.693,44.5862 L105.693,52.9132 L104.57,52.9132 L104.57,45.2982 L98.789,52.9132 L97.001,52.9132 L97.001,44.5862 L98.125,44.5862 L98.125,52.2802 Z M113.8769,48.2651 L113.8769,49.0781 L108.7149,49.0781 L108.7149,52.1021 L114.0889,52.1021 L114.0889,52.9131 L107.5919,52.9131 L107.5919,44.5861 L114.1169,44.5861 L114.1169,45.3961 L108.7149,45.3961 L108.7149,48.2651 L113.8769,48.2651 Z M120.0088,52.2802 L125.7778,44.5862 L127.5778,44.5862 L127.5778,52.9132 L126.4528,52.9132 L126.4528,45.2982 L120.6718,52.9132 L118.8838,52.9132 L118.8838,44.5862 L120.0088,44.5862 L120.0088,52.2802 Z M136.3515,52.913 L135.2285,52.913 L135.2285,45.396 L131.9535,45.396 L131.9535,44.586 L139.6305,44.586 L139.6305,45.396 L136.3515,45.396 L136.3515,52.913 Z M147.1172,48.2651 L147.1172,49.0781 L141.9562,49.0781 L141.9562,52.1021 L147.3322,52.1021 L147.3322,52.9131 L140.8332,52.9131 L140.8332,44.5861 L147.3582,44.5861 L147.3582,45.3961 L141.9562,45.3961 L141.9562,48.2651 L147.1172,48.2651 Z M152.668,48.143 L155.542,44.586 L156.896,44.586 L153.562,48.599 L157.192,52.913 L155.81,52.913 L152.668,49.089 L149.53,52.913 L148.148,52.913 L151.773,48.599 L148.444,44.586 L149.8,44.586 L152.668,48.143 Z M165.248,48.2651 L165.248,44.5861 L166.373,44.5861 L166.373,52.9131 L165.248,52.9131 L165.248,49.0781 L159.315,49.0781 L159.315,52.9131 L158.19,52.9131 L158.19,44.5861 L159.315,44.5861 L159.315,48.2651 L165.248,48.2651 Z M172.2747,44.4959 C175.6747,44.4959 176.4977,45.2079 176.4977,48.7539 C176.4977,52.2919 175.6747,53.0029 172.2467,53.0029 C168.8527,53.0029 167.9967,52.2919 167.9967,48.7539 C167.9967,45.2079 168.8527,44.4959 172.2747,44.4959 Z M172.2637,52.1899 C175.0227,52.1899 175.3777,51.6899 175.3777,48.7539 C175.3777,45.7979 175.0387,45.3089 172.2637,45.3089 C169.4607,45.3089 169.1197,45.7979 169.1197,48.7539 C169.1197,51.6899 169.4987,52.1899 172.2637,52.1899 Z M186.0723,44.5864 L186.0723,52.9134 L184.9493,52.9134 L184.9493,45.3964 L180.0453,45.3964 L180.0453,50.4794 C180.0453,52.0574 179.5733,52.9134 178.1373,52.9134 L177.4193,52.9134 L177.4193,52.1024 L177.6923,52.1024 C178.5583,52.1024 178.9223,51.8904 178.9223,50.5774 L178.9223,44.5864 L186.0723,44.5864 Z M191.9749,44.4959 C195.3749,44.4959 196.2019,45.2079 196.2019,48.7539 C196.2019,52.2919 195.3749,53.0029 191.9509,53.0029 C188.5519,53.0029 187.6949,52.2919 187.6949,48.7539 C187.6949,45.2079 188.5519,44.4959 191.9749,44.4959 Z M191.9629,52.1899 C194.7269,52.1899 195.0779,51.6899 195.0779,48.7539 C195.0779,45.7979 194.7369,45.3089 191.9629,45.3089 C189.1599,45.3089 188.8199,45.7979 188.8199,48.7539 C188.8199,51.6899 189.1989,52.1899 191.9629,52.1899 Z M204.1211,44.5864 L204.1211,45.3964 L198.9771,45.3964 L198.9771,52.9134 L197.8531,52.9134 L197.8531,44.5864 L204.1211,44.5864 Z M206.3428,52.2802 L212.1138,44.5862 L213.9108,44.5862 L213.9108,52.9132 L212.7858,52.9132 L212.7858,45.2982 L207.0068,52.9132 L205.2188,52.9132 L205.2188,44.5862 L206.3428,44.5862 L206.3428,52.2802 Z M216.9336,52.2802 L222.7026,44.5862 L224.5016,44.5862 L224.5016,52.9132 L223.3766,52.9132 L223.3766,45.2982 L217.5956,52.9132 L215.8086,52.9132 L215.8086,44.5862 L216.9336,44.5862 L216.9336,52.2802 Z M61.0019,17.1103 L61.0019,9.8053 C62.7449,9.4073 64.6869,9.0873 66.7939,8.8613 C69.1959,8.6013 71.7779,8.4693 74.4779,8.4693 C76.7639,8.4693 78.9629,8.5573 81.0139,8.7353 C82.7849,8.8953 84.4699,9.1113 86.0159,9.3943 L86.0159,17.5293 C84.4479,17.8153 82.7699,18.0373 81.0139,18.1853 C78.9749,18.3633 76.7809,18.4563 74.4779,18.4563 C71.7999,18.4563 69.2179,18.3173 66.8049,18.0453 C64.6759,17.7963 62.7339,17.4833 61.0019,17.1103 Z M53.6319,33.5113 L53.6319,4.2273 L56.2409,3.4243 C58.7429,2.6783 61.5619,2.0993 64.6329,1.6993 C67.6979,1.2993 71.0109,1.0993 74.4779,1.0993 C77.9429,1.0993 81.2549,1.2993 84.3209,1.6993 C87.3929,2.0993 90.2109,2.6783 92.7009,3.4223 L93.3869,3.6273 L93.3869,23.2993 L92.7009,23.5053 C90.2219,24.2423 87.4029,24.8203 84.3209,25.2243 C81.2549,25.6223 77.9429,25.8243 74.4779,25.8243 C71.7569,25.8243 69.1569,25.7093 66.7439,25.4763 C64.7469,25.2873 62.8219,25.0133 61.0019,24.6563 L61.0019,33.5113 L53.6319,33.5113 Z M112.8779,33.5112 L112.8779,8.5492 C110.6299,8.6362 108.4839,8.8402 106.4939,9.1532 C104.2399,9.5062 102.2169,9.9482 100.4659,10.4632 L99.2389,10.8282 L99.2389,3.1392 L99.9679,2.9612 C102.2929,2.3872 104.8769,1.9292 107.6459,1.6002 C110.4259,1.2662 113.4269,1.0992 116.5649,1.0992 C119.6909,1.0992 122.6849,1.2662 125.4539,1.6002 C128.2079,1.9292 130.7959,2.3872 133.1549,2.9612 L133.8839,3.1392 L133.8839,10.8282 L132.6549,10.4632 C130.9119,9.9482 128.8829,9.5062 126.6279,9.1532 C124.6379,8.8402 122.4989,8.6362 120.2499,8.5492 L120.2499,33.5112 L112.8779,33.5112 Z M174.0566,33.5112 L174.0566,11.3072 L166.3626,17.4832 C164.6286,18.8682 162.8746,20.2932 161.0926,21.7422 L146.4926,33.5112 L139.7366,33.5112 L139.7366,1.0002 L147.1126,1.0002 L147.1126,23.2142 L174.6766,1.0002 L181.4326,1.0002 L181.4326,33.5112 L174.0566,33.5112 Z M208.0762,33.6093 C204.6102,33.6093 201.3082,33.4093 198.2542,33.0093 C195.2042,32.6113 192.3862,32.0133 189.8852,31.2373 L187.2792,30.5003 L187.2792,4.2273 L189.8902,3.4243 C192.3902,2.6783 195.2042,2.0993 198.2542,1.6993 C201.3082,1.2993 204.6102,1.0993 208.0762,1.0993 C211.1962,1.0993 214.1912,1.2583 216.9882,1.5763 C219.7632,1.8913 222.3682,2.3603 224.7262,2.9633 L225.4502,3.1473 L225.4502,10.8363 L224.2162,10.4633 C222.1662,9.8463 219.7352,9.3473 216.9992,8.9853 C214.2232,8.6073 211.2232,8.4183 208.0762,8.4183 C205.4212,8.4183 202.8442,8.5573 200.4202,8.8313 C198.2972,9.0783 196.3402,9.3913 194.6012,9.7663 L194.6012,24.8983 C196.3342,25.2683 198.2922,25.5833 200.4202,25.8303 C202.8542,26.1053 205.4312,26.2413 208.0762,26.2413 C211.2282,26.2413 214.2292,26.0603 217.0052,25.7043 C219.7522,25.3533 222.1712,24.8463 224.2002,24.2043 L225.4502,23.8063 L225.4502,31.5143 L224.7262,31.6983 C222.3792,32.3043 219.7792,32.7763 216.9942,33.1083 C214.2082,33.4423 211.2072,33.6093 208.0762,33.6093 Z M40.1396,2.1708 C41.9156,2.5028 43.6216,2.8758 45.1626,3.3308 L47.7796,4.1338 L47.7796,30.4838 L45.1736,31.2838 C42.6516,32.0328 39.8316,32.6118 36.7726,33.0088 C33.6906,33.4148 30.3716,33.6178 26.9156,33.6178 C23.4286,33.6178 20.0936,33.4148 17.0056,33.0088 C15.2306,32.7788 13.5626,32.4688 11.9606,32.1178 C12.2246,29.6478 12.7886,27.2558 13.6336,24.9588 C15.3186,25.3098 17.1646,25.6108 19.1776,25.8388 C21.6136,26.1158 24.2186,26.2578 26.9156,26.2578 C29.6096,26.2578 32.2096,26.1158 34.6276,25.8388 C36.7506,25.5968 38.7136,25.2788 40.4696,24.8978 L40.4696,9.7068 C38.7086,9.3068 36.7506,8.9908 34.6326,8.7568 C32.3786,8.5138 29.9276,8.3898 27.3616,8.3768 C31.0016,5.9468 35.2746,3.8628 40.1396,2.1708 Z" id="Combined-Shape" fill="#FFFFFF"></path>
            <path d="M3.0826,3.3387 L-0.0004,4.1397 L-0.0004,28.1417 C2.4686,29.1947 5.1386,30.1747 8.0676,31.0517 C8.9676,24.1137 12.9376,10.5977 31.3046,1.2057 C29.1546,1.0827 26.9506,1.0057 24.6746,1.0057 C20.5826,1.0057 16.6606,1.2087 13.0146,1.6147 C9.3996,2.0117 6.0606,2.5907 3.0826,3.3387 Z" id="Path" fill="#E21776"></path>
        </g>
    </g>
</svg>