<?xml version="1.0" encoding="UTF-8"?>
<svg width="170px" height="26px" viewBox="0 0 170 26" version="1.1" xmlns="http://www.w3.org/2000/svg" xmlns:xlink="http://www.w3.org/1999/xlink">
    <!-- Generator: Sketch 46.1 (44463) - http://www.bohemiancoding.com/sketch -->
    <title>Logo/color-horizontal</title>
    <desc>Created with Sketch.</desc>
    <defs></defs>
    <g id="Page-1" stroke="none" stroke-width="1" fill="none" fill-rule="evenodd">
        <g id="Шапка-при-прокрутке" transform="translate(-72.000000, -1504.000000)">
            <g id="Header" transform="translate(0.000000, 1493.000000)">
                <g id="Logo/color-horizontal" transform="translate(72.000000, 11.000000)">
                    <path d="M45.7541557,12.8334909 C47.0532332,13.1132576 48.5098201,13.3480216 50.1066654,13.5347828 C51.9165235,13.738795 53.853139,13.8430512 55.8617589,13.8430512 C57.589112,13.8430512 59.2347102,13.773297 60.7640515,13.639789 C62.0811301,13.5287824 63.3397052,13.3622725 64.5157754,13.1477597 L64.5157754,7.04614552 C63.3562062,6.83388286 62.0923808,6.67187319 60.7640515,6.55186602 C59.2257097,6.41835806 57.5763612,6.35235412 55.8617589,6.35235412 C53.836638,6.35235412 51.9000225,6.45136003 50.0984149,6.64637166 C48.5180706,6.81588178 47.0614837,7.05589611 45.7541557,7.35441392 L45.7541557,12.8334909 Z M40.2263258,25.1349751 L40.2263258,3.17066423 L42.1831926,2.56837828 C44.0598046,2.00884489 46.1741807,1.57456897 48.4775682,1.27455107 C50.7764554,0.974533162 53.2613537,0.824524209 55.8617589,0.824524209 C58.460664,0.824524209 60.9448123,0.974533162 63.2444495,1.27455107 C65.548587,1.57456897 67.6622132,2.00884489 69.5298246,2.56687819 L70.0443553,2.72063737 L70.0443553,17.475518 L69.5298246,17.6300272 C67.6704637,18.1828102 65.5560875,18.616336 63.2444495,18.9193541 C60.9448123,19.2178719 58.460664,19.369381 55.8617589,19.369381 C53.8208871,19.369381 51.8707707,19.2831258 50.0609127,19.1083654 C48.5630733,18.966607 47.1192371,18.7610947 45.7541557,18.4933287 L45.7541557,25.1349751 L40.2263258,25.1349751 Z M84.6634778,25.1349001 L84.6634778,6.41228269 C82.9773772,6.47753659 81.3677811,6.63054572 79.8751921,6.86530973 C78.1845912,7.13007553 76.6672506,7.46159532 75.3539222,7.84786837 L74.4336173,8.12163471 L74.4336173,2.35454052 L74.9803999,2.22103255 C76.724254,1.79050686 78.6623697,1.44698636 80.7392436,1.20022163 C82.8243681,0.94970668 85.0752524,0.824449204 87.4288929,0.824449204 C89.7735328,0.824449204 92.0191668,0.94970668 94.0960408,1.20022163 C96.1616641,1.44698636 98.1027799,1.79050686 99.8721355,2.22103255 L100.418918,2.35454052 L100.418918,8.12163471 L99.4971131,7.84786837 C98.1897851,7.46159532 96.6679443,7.13007553 94.9765933,6.86530973 C93.4840043,6.63054572 91.8796585,6.47753659 90.1928078,6.41228269 L90.1928078,25.1349001 L84.6634778,25.1349001 Z M130.550241,25.1349001 L130.550241,8.48090615 L124.779397,13.1131826 C123.478819,14.1519946 122.163241,15.2208084 120.826661,16.3076233 L109.876008,25.1349001 L104.808705,25.1349001 L104.808705,0.750194773 L110.341035,0.750194773 L110.341035,17.4116892 L131.015269,0.750194773 L136.082572,0.750194773 L136.082572,25.1349001 L130.550241,25.1349001 Z M156.066464,25.2084795 C153.466809,25.2084795 150.990161,25.0584705 148.699525,24.7584526 C146.411888,24.4599348 144.298262,24.011408 142.4224,23.4293733 L140.467783,22.8765903 L140.467783,3.17066423 L142.42615,2.56837828 C144.301262,2.00884489 146.411888,1.57456897 148.699525,1.27455107 C150.990161,0.974533162 153.466809,0.824524209 156.066464,0.824524209 C158.406604,0.824524209 160.652988,0.943781326 162.750863,1.18229556 C164.832237,1.41855966 166.786104,1.77033066 168.55471,2.22260765 L169.097742,2.36061588 L169.097742,8.12771007 L168.172187,7.84794338 C166.634595,7.38516576 164.811236,7.01089342 162.759114,6.73937722 C160.676989,6.45586029 158.426855,6.31410183 156.066464,6.31410183 C154.075095,6.31410183 152.14223,6.41835806 150.324122,6.62387032 C148.731777,6.80913138 147.263939,7.04389539 145.959611,7.32516218 L145.959611,18.6748395 C147.259439,18.9523561 148.728026,19.1886202 150.324122,19.3738813 C152.149731,19.5801436 154.082596,19.6821497 156.066464,19.6821497 C158.430605,19.6821497 160.68149,19.5463916 162.763614,19.2793756 C164.823987,19.0161099 166.638345,18.6358372 168.160186,18.1543085 L169.097742,17.8557907 L169.097742,23.6371357 L168.55471,23.7751439 C166.794355,24.2296711 164.844238,24.5836922 162.755363,24.8327071 C160.665739,25.083222 158.414854,25.2084795 156.066464,25.2084795 Z M30.1064968,1.62819717 C31.4385763,1.87721203 32.7181527,2.15697873 33.8739716,2.4982491 L35.8368388,3.10053504 L35.8368388,22.8642146 L33.8822221,23.4642504 C31.9906092,24.0260339 29.875483,24.4603098 27.5810961,24.7580776 C25.2694581,25.0625958 22.7800595,25.2148549 20.1879048,25.2148549 C17.5724988,25.2148549 15.0710995,25.0625958 12.7549612,24.7580776 C11.4236318,24.5855673 10.1725571,24.3530534 8.9709854,24.0897877 C9.16899722,22.2371771 9.59202247,20.4430701 10.2258103,18.7202172 C11.4896357,18.983483 12.8742184,19.2092464 14.3840585,19.3802566 C16.2111675,19.588019 18.1650341,19.6945254 20.1879048,19.6945254 C22.2085254,19.6945254 24.1586418,19.588019 25.9722501,19.3802566 C27.5645951,19.1987458 29.036933,18.9602316 30.3540116,18.6744645 L30.3540116,7.28053451 C29.0331827,6.98051661 27.5645951,6.74350246 25.9760003,6.56799199 C24.2853994,6.38573111 22.4470397,6.29272556 20.5224248,6.28297498 C23.2525877,4.4603662 26.457529,2.89727291 30.1064968,1.62819717 Z" id="Combined-Shape" fill="#1E1E1E"></path>
                    <path d="M9.76153258,1.21109728 C7.05012076,1.50886505 4.5457213,1.94314097 2.31208799,2.50417445 L-0.000300017905,3.10496031 L-0.000300017905,21.1075347 C1.8515605,21.8973319 3.85418002,22.6323757 6.05106114,23.290165 C6.72610142,18.0863544 9.70377914,7.94874939 23.4798513,0.904328972 C21.8672551,0.812073466 20.2141564,0.754320019 18.5070545,0.754320019 C15.4378714,0.754320019 12.4961958,0.906579106 9.76153258,1.21109728" id="Path" fill="#E21776"></path>
                </g>
            </g>
        </g>
    </g>
</svg>