<?xml version="1.0" encoding="UTF-8"?>
<svg width="208px" height="129px" viewBox="0 0 208 129" version="1.1" xmlns="http://www.w3.org/2000/svg" xmlns:xlink="http://www.w3.org/1999/xlink">
    <!-- Generator: Sketch 46.1 (44463) - http://www.bohemiancoding.com/sketch -->
    <title>Group 2</title>
    <desc>Created with Sketch.</desc>
    <defs></defs>
    <g id="Symbols" stroke="none" stroke-width="1" fill="none" fill-rule="evenodd">
        <g id="Banners/1" transform="translate(-97.000000, -281.000000)">
            <g id="Group-2" transform="translate(98.000000, 282.000000)">
                <path d="M205.78545,111.483981 C137.250489,132.12083 68.5534528,132.126268 0,111.483981 L0,15.479676 C68.5534528,-5.1626113 137.250489,-5.15717254 205.78545,15.479676 L205.78545,111.483981 Z" id="Fill-1" stroke="#C1C1C1"></path>
                <g id="Group" transform="translate(25.750000, 21.067308)" stroke="#E01976" stroke-width="2" stroke-linecap="round" stroke-linejoin="round">
                    <path d="M0,85.6994391 L5.91846955,85.6994391 C12.1567539,85.6994391 27.7766462,70.8532788 32.9394125,65.6842147 C30.4755876,66.3247205 28.0469835,63.7790247 28.0374202,61.2333289 C28.0299562,59.3069131 29.0275686,57.5528694 30.3078805,56.176225 C31.8454677,54.5227123 34.010732,53.4443953 35.7554457,52.0176021 C37.591127,50.5157022 39.3237116,48.8918123 41.1857503,47.4214012 C42.1126877,46.6889947 43.0816102,45.9253326 44.0521655,45.2698987 C44.3829147,45.0464447 47.0795236,43.4482124 47.3951115,43.8857903 C48.9569568,46.0533871 50.8980674,47.9469145 53.1032175,49.4553455 C49.7409117,52.454247 46.3783727,55.4531485 43.0160669,58.4522833 C40.8962864,60.3427785 38.7716077,62.237239 36.4645271,63.8933174 C35.5352572,64.5601806 34.5110543,65.2097832 33.3678937,65.244071 C32.2249663,65.2783588 30.9826742,64.4440218 30.9903714,63.3003947 C30.9969024,62.3156111 31.8533982,61.5752741 32.6357204,60.9765201 C36.7581895,57.8208742 40.8808919,54.6649951 45.0038275,51.509116 C47.1378362,49.8754296 49.3842717,48.1908946 52.0316647,47.7267261 C54.6788245,47.2620911 57.8274729,48.4600656 58.6352193,51.0232552 C60.2122259,50.6283622 61.953674,49.932576 62.5120757,48.4059515 C62.9776437,47.1338033 62.4038475,45.6521962 61.4020366,44.7399536 C60.4002258,43.8279442 59.0520379,43.3950313 57.7192446,43.1519843 C55.3088341,42.7123071 52.5681409,42.6015131 50.2183754,43.3731057 C49.3282916,43.6656018 48.4650315,44.0763559 47.5348286,44.1897157 L51.4107519,42.6990118 C50.8168962,42.1147193 50.6009062,41.217638 50.7121667,40.3919312 C50.823194,39.5664577 51.2274171,38.8048949 51.7242406,38.1361658 C52.031898,37.7221461 52.381074,37.3328511 52.8034906,37.0368562 C53.6954405,36.4124446 54.7170776,36.4339037 55.7055932,36.1334771" id="Stroke-1"></path>
                    <path d="M39.1012606,13.0669631 C42.2265839,17.3571393 44.8597487,22.0079208 48.0030323,26.3001963 C50.6854129,29.9633952 53.9047361,33.0602619 56.2183477,36.9996294 C58.2333987,40.4309774 61.5084688,42.8567824 63.287237,46.461902 C64.8511816,45.6784136 66.5343171,44.794161 67.7264603,43.4581022 C69.8432085,41.0857115 70.9882352,37.6849194 72.7161548,34.9992732 C74.7993149,31.7619897 76.8822418,28.5249394 78.9649354,25.2878891 C80.4927261,22.9133992 82.0200503,20.5391425 83.5480742,18.1648857 C84.8552099,16.1337405 85.6116413,13.7865408 87.143164,11.9151721 C82.3298069,11.2718673 77.4502067,11.8640903 72.6109588,12.2673804 C61.1707221,13.2206751 49.6719395,13.1126802 38.19275,13.0042187 C37.8867253,13.0011864 37.5478124,12.9855586 37.3285569,12.7716679 C37.1550186,12.6020948 37.1009044,12.3478518 37.0568201,12.1094698 C36.6108452,9.67829996 36.4116493,7.20211277 36.4634309,4.7310571 C36.4701951,4.41360318 36.4900214,4.07072497 36.6917831,3.8251122 C36.9635199,3.49436301 37.4514799,3.4670727 37.8794946,3.4666062 C54.6212816,3.44514716 71.3630687,3.42368811 88.1048558,3.40222907 C88.4330392,5.96681819 88.8507908,9.06135242 88.2975207,11.5951525 C87.1909803,11.6651276 87.8184242,5.63303674 87.7734068,4.38048162 C87.7619775,4.0616282 87.7461165,3.73484426 87.6215607,3.44094865 C87.4725137,3.09060641 87.1837496,2.82190185 86.902916,2.56462656 C86.203631,1.92318772 85.5043461,1.28198213 84.8052943,0.640543284 C84.5704111,0.425019832 84.3271308,0.20436487 84.027404,0.0954368922 C83.7339749,-0.011158581 83.4125557,-0.00112881003 83.1004665,0.0103004639 C78.4604146,0.18034007 73.8982683,0.0821416143 69.2974024,0.0991689 C62.5891183,0.123893452 55.8808343,0.175208559 49.1727835,0.228389671 C47.2333057,0.243784203 45.249277,0.267109252 43.4282904,0.933739148 C41.2021478,1.74871635 39.2911265,3.49879477 36.9303983,3.71525122" id="Stroke-3"></path>
                    <path d="M48.0235583,34.3405972 C45.5888897,32.4081169 43.3678786,30.2234928 41.1519989,28.0433005 C40.4566792,27.3591768 39.7382677,26.6391326 39.4273448,25.7145276 C38.8395536,23.9672482 39.9474934,22.0102766 41.5081724,21.0289918 C43.0690847,20.0479402 44.9710092,19.814923 46.8041248,19.6215584 C60.8495362,18.1401845 74.9926795,17.5885471 89.1106319,17.9713112 C89.2769395,17.9757429 89.4602743,17.9874054 89.5782991,18.1044972 C89.7145174,18.2395492 89.7086861,18.4576384 89.6932916,18.6491371 L89.4985274,21.0810067 C89.4733364,21.3989271 89.4427806,21.7320088 89.2671429,21.9979143 C88.9011729,22.552584 88.1095208,22.5717105 87.4463896,22.5334575 C73.5472263,21.7306093 59.5771548,22.1579242 45.7530981,23.8091044 C40.1359598,24.4799328 45.7099467,29.1472751 47.7282632,30.690227 C49.5158949,32.0566084 51.0063656,33.0180669 52.3743797,34.8362545 C53.5044783,36.3381544 54.570433,37.8885704 55.7355192,39.3643462 C56.4693253,40.2933829 58.1151407,42.9188504 59.3112492,43.205282 C57.7412402,42.8295155 57.2493149,42.754642 56.244705,41.5979529 C55.4206311,40.6488566 54.6781948,39.6941624 53.7430935,38.8397659 C51.9512633,37.2025807 49.9273488,35.8399313 48.0235583,34.3405972 Z" id="Stroke-5"></path>
                    <path d="M126.501851,22.3078109 C126.807643,22.332069 127.126963,22.3612253 127.385871,22.5259001 C127.648511,22.6922077 127.81132,22.9735078 127.972496,23.2396466 C129.678257,26.0554465 132.234915,28.2356388 134.747023,30.3640496 C136.268283,31.653225 138.208227,32.3884305 139.122802,29.9801192 C137.745225,28.7830777 136.456049,27.484339 135.268804,26.0981314 C134.923127,26.7743245 134.21078,27.2482895 133.453416,27.3056691 C134.112815,26.9840167 134.663053,26.4438086 134.996601,25.7907072 C134.785976,26.2035606 131.614002,22.4006446 131.370955,22.1865207 C131.256429,22.8165302 130.666306,23.3266491 130.026033,23.3485746 C130.558077,23.0689073 130.99309,22.6091706 131.242901,22.0626647 C131.278821,21.983826 131.311476,21.9010221 131.31171,21.8144861 C131.31171,21.6691711 131.221442,21.5415831 131.134906,21.4249578 C130.654643,20.7772212 130.141725,20.1028941 129.405587,19.7737776 C129.089532,19.6321946 128.746421,19.5622194 128.405642,19.4990085 C126.91004,19.221907 125.417003,19.1104132 123.902275,19.0103488 C122.189983,18.8972223 120.514311,19.0311081 118.789191,18.766602 C119.046699,18.138925 119.19458,17.466697 119.22397,16.7886379 C119.227702,16.7032682 119.2312,16.6123005 119.27925,16.5416256 C119.325667,16.4732832 119.405439,16.4366629 119.481945,16.4054073 C121.403929,15.6249512 123.804776,15.9904547 125.818427,16.0821221 C125.992199,16.0900527 126.178799,16.0947177 126.324814,16.000018 C126.470829,15.9053183 126.535439,15.6702018 126.40272,15.557775 C124.099605,15.55311 121.796256,15.548445 119.492907,15.5435468 C119.082853,15.542847 118.599791,15.5801671 118.383102,15.9284101 C118.265777,16.1171097 118.261345,16.3524595 118.260179,16.5747472 C118.256213,17.3489055 118.252715,18.1232972 118.248749,18.8974555 C115.141153,18.8445077 112.10843,18.6555748 108.992437,18.6800661 C105.566687,18.7068899 102.14117,18.7339469 98.7154205,18.7605375 C98.5806017,17.2793969 98.9080854,15.796157 98.9300109,14.3089519 C98.9519365,12.8215136 98.5841004,11.1952912 97.4061855,10.287247 C96.3213375,9.45104401 94.8341323,9.42655271 93.4663515,9.48883059 C92.9114486,9.51425489 92.3360196,9.55367422 91.8496923,9.82144578 C90.9129584,10.3369294 90.593172,11.5136781 90.4478569,12.5728685 C90.1290035,14.8939442 90.2127404,17.2493076 90.2971771,19.590676 C91.9455583,19.5120706 93.5939395,19.4334652 95.2423207,19.355093 C95.2801073,18.4883342 95.3178939,17.6215754 95.3554472,16.7548166 C94.5180779,17.0732035 93.5234979,17.0335509 92.77593,16.5397596 C92.0285955,16.0457351 91.5952161,15.068882 91.8431613,14.2079545 C92.1102331,13.2807838 93.0597959,12.6911265 94.0091254,12.5185212 C94.9495913,12.3477818 95.9980523,12.5339157 96.683109,13.2000791 C97.3681657,13.8662425 97.551967,15.0616513 96.9368855,15.7928915 C96.2672233,16.5892087 95.0550206,16.5600524 94.0189219,16.4632534 C94.0168226,17.5042504 94.1117556,18.5454806 94.302088,19.5689837 C92.8326099,19.5818125 91.3022534,19.490145 89.8528349,19.6601846 C88.8300315,22.4029771 95.0286633,21.277077 96.3635558,21.2633152 C99.7797425,21.2283277 103.196162,21.245355 106.611883,21.3146304 C113.249725,21.4489826 119.883602,21.7799651 126.501851,22.3078109 Z" id="Stroke-7"></path>
                    <path d="M92.1773626,21.4751533 C90.6843263,22.4776639 89.3680937,23.7082935 87.9921491,24.8591514 C86.6556238,25.9766545 85.1936098,26.7785697 83.7952731,27.8072043 C83.6550895,27.9103011 83.5100077,28.019229 83.4314023,28.1748071 C83.3101121,28.4150551 83.377055,28.7033527 83.4458638,28.9636603 C84.0852034,31.3729046 84.7240765,33.7819156 85.3631829,36.1909267 C90.5896266,29.9780666 99.5217208,27.8904748 104.800646,21.7219324 C105.899489,22.1459817 107.124754,22.2364829 108.273979,21.9785079 C103.954646,26.7764704 99.3369864,31.3057284 94.4564532,35.5315275 C93.3524786,36.487388 92.1512386,37.5838986 92.0299483,39.0391484 C96.5358813,37.2391543 99.8492044,33.4126801 103.330468,30.0331138 C105.525588,27.9023705 107.850396,25.9055131 110.288097,24.0574695 C111.008141,23.5116634 111.751977,22.9714552 112.604041,22.6712618 C113.641073,22.3062248 114.767906,22.3204531 115.866982,22.3391131 C116.71788,22.3533414 117.568778,22.367803 118.419909,22.3820312 C118.717303,22.3871627 119.024727,22.3941603 119.295764,22.51685 C119.622315,22.6649641 119.853699,22.9604924 120.071789,23.245058 C122.938904,26.9887284 125.806019,30.7323987 128.673134,34.4760691 C119.098668,40.8361101 109.53843,47.2185432 99.9497354,53.5571253 C98.3015875,49.4024676 93.8516346,46.970598 91.0402665,43.6719696 C89.4070466,41.7555836 88.185747,39.450369 86.3087803,37.7527719" id="Stroke-9"></path>
                    <path d="M94.7998445,19.3724702 C97.2909597,19.2896662 99.2500306,17.3091363 100.927335,15.4652912 C102.044371,14.2372274 102.955914,12.834459 104.102107,11.6432487 C105.52027,10.1693389 106.944964,8.70196006 108.366859,7.23154899 C108.932258,6.64679001 109.554104,6.03124197 110.355553,5.89292443 C111.571721,5.68323224 113.136598,6.39744524 114.202087,6.94021913 C115.707719,7.70714673 117.173698,8.55221325 118.592094,9.47098693 C118.909781,9.67694711 119.238898,9.90156733 119.408937,10.2397805 C119.815959,11.050326 119.129736,11.9614024 118.493196,12.6075062 C117.709008,13.4040567 116.924586,14.2003738 116.140398,14.996691 C115.053917,16.0999658 113.632022,16.8046155 112.547641,17.9780987 C112.461805,18.0709324 112.372703,18.1679646 112.254445,18.2122822 C112.177939,18.240972 112.094902,18.245637 112.013497,18.2498356 L108.396482,18.4338702 C110.944977,16.8048488 113.260921,14.7522445 115.589694,12.8225632 C118.598392,10.3291155 113.282147,9.01894748 111.644029,8.33295779 C111.410312,8.23499259 111.168664,8.13562788 110.915354,8.13679413 C110.530257,8.13866014 110.189245,8.36981137 109.874824,8.59186583 C107.0329,10.5989863 104.371745,13.4315802 102.189686,16.1295886 C101.527488,16.9480646 100.909141,17.8022279 100.338377,18.686947" id="Stroke-11"></path>
                    <path d="M75.9744309,30.6044842 C78.0128069,30.8717892 79.0985879,33.3918275 78.6131936,35.3896179 C78.1273329,37.3874084 76.5857804,38.9308268 75.099275,40.3510891 C69.8851936,45.3326197 64.4021744,50.2637683 57.7741285,53.1047593 C56.450432,53.6722577 54.4999914,53.9218357 53.9439222,52.5934742 C53.5821507,51.7285814 54.1806715,50.702046 55.0112765,50.2675003 C55.8418814,49.8331879 56.8252655,49.8397189 57.7619995,49.8707412 C57.0543175,51.3875692 55.9358814,52.7103327 54.5578375,53.6603619 C54.1123291,55.4346984 55.4647154,57.4429851 57.2761387,57.6976946 C58.2264012,57.8313472 59.1813287,57.5439826 60.0889063,57.2328264 C69.0604199,54.1571855 77.0695419,48.3345535 82.7624866,40.7490144 C83.5604365,39.6856254 84.3460241,38.4906832 84.3254981,37.1609221 C84.2907438,34.932447 81.4448546,33.3024926 79.5051435,34.4001694 L84.7661083,40.0289701 C85.0961577,40.3821114 85.4485992,40.7940317 85.4187431,41.2763938 C85.3979838,41.6122745 85.1927234,41.9047706 84.9907285,42.1741749 C81.6601448,46.6189962 77.3067576,50.1732671 72.9993209,53.6797217 C67.7229616,57.975496 62.4466023,62.271037 57.170243,66.566578 C57.0270272,66.6832032 56.8800794,66.8019277 56.706541,66.8651386 C56.0709334,67.0958233 55.3956733,66.4343249 55.3515889,65.7595313 C55.3075046,65.0849709 55.6830379,64.4607926 56.0613702,63.9005249 C57.2474489,62.1439155 58.6038005,60.5020653 60.1052339,59.0059966 C62.1688009,61.8371911 64.5654497,64.425805 67.22987,66.700697 C63.4738374,68.839604 59.7180381,70.9787442 55.9622387,73.1178844 C54.9371028,71.6374436 56.6160398,69.8057275 58.1053442,68.7936536 C74.1128587,57.9136846 89.7900905,46.5473883 105.108117,34.7162238 C109.284933,31.4903695 113.435626,28.2292944 117.688715,25.1046709 C118.894853,28.4196268 120.464396,31.6020965 122.360722,34.5765067 C116.881902,41.650994 107.320031,44.2116179 100.804179,50.3447062 C98.7951921,48.9167468 97.2678679,46.8230904 96.5214664,44.4740247 C98.7851624,43.1661892 101.048858,41.8583537 103.312788,40.5505182 C102.897135,39.4127224 102.823661,37.9833634 103.691586,37.1380636 C104.559278,36.2929971 106.464701,36.8719248 106.297694,38.0717653 C105.504409,38.2107826 104.710658,38.3500331 103.91714,38.4892837 C103.890782,40.7119276 104.813055,42.9301397 106.407555,44.4786897 C103.712346,46.9341176 100.742834,49.0881859 97.5724931,50.8879466 C96.6168658,49.867709 95.5205885,48.9792579 94.32448,48.2559481 C91.323246,49.6976694 89.0910388,52.3751517 86.2171596,54.0566545 C83.5345457,55.6261971 80.4248502,56.2562066 77.4763307,57.2398239 C73.9838712,58.4049101 70.8620466,61.2102137 68.8950453,64.2835222 C65.9871114,68.8272417 66.1921386,77.1447209 70.2784539,80.8951555 C71.1923293,81.733691 72.2886066,82.3466733 73.400745,82.8959782 C75.2145008,83.7918933 77.1360183,84.5485579 79.1522355,84.7174312 C83.4601388,85.0782697 88.3441708,83.1341269 91.548566,80.2908035 C93.6704457,78.4073058 95.2369559,74.4823998 96.0402706,71.7930217 C96.9844686,68.632011 97.0005629,65.1722065 95.1490205,62.3256176 C92.974193,58.9815053 88.8500911,57.3345236 84.8675722,57.1026726 C78.0729855,56.7073131 74.2423127,61.1509681 72.923048,67.4650588 C71.8123091,72.781304 73.1157129,78.6034694 79.3150443,79.5189776 C82.0851271,79.9283322 84.9667037,79.1588388 87.3544889,77.6965915 C92.6007589,74.484499 93.0672599,66.0874815 86.8709607,64.6560232 C70.8230938,60.9494397 72.0439269,85.6994391 82.7624866,85.6994391 L142.043269,85.6994158" id="Stroke-13"></path>
                    <path d="M127.294996,35.1665372 C127.495125,36.1244969 127.985185,37.0201788 128.684003,37.705702 C127.708083,40.1368718 126.732163,42.5678084 125.75601,44.9989782 C125.469112,45.7143575 125.17335,46.443965 124.671628,47.0289572 C124.228919,47.5451406 123.649058,47.9216069 123.073629,48.2836116 C114.542726,53.6546706 105.018642,57.6157304 97.5334003,64.3680988 C97.3363036,64.5463022 97.1268447,64.7331358 96.8665372,64.7860837 C96.2402596,64.9136717 95.7707264,64.2510071 95.4462749,63.7005359 C92.3349467,58.4192784 85.7547171,55.4294736 79.7305568,56.559339" id="Stroke-15"></path>
                    <path d="M124.47754,29.1057798 C125.929058,28.9882215 127.498834,28.9329412 128.717335,29.7306579 C130.066455,30.6137442 130.621358,32.3143735 130.826852,33.9137721 C131.306182,37.6495119 130.344956,41.5517926 128.18529,44.6372301 C127.075718,46.2226336 125.480984,47.6788164 123.54897,47.7877444" id="Stroke-17"></path>
                    <path d="M123.0441,26.6878586 C123.824789,26.876325 124.595215,26.4231193 125.325756,26.0900376 C126.05653,25.7571891 127.027785,25.5771198 127.574057,26.1656107 C128.254915,26.8991835 127.681119,28.1011233 127.91227,29.0747108" id="Stroke-19"></path>
                </g>
            </g>
        </g>
    </g>
</svg>