<?xml version="1.0" encoding="UTF-8"?>
<svg width="564px" height="430px" viewBox="0 0 564 430" version="1.1" xmlns="http://www.w3.org/2000/svg" xmlns:xlink="http://www.w3.org/1999/xlink">
    <!-- Generator: Sketch 46.1 (44463) - http://www.bohemiancoding.com/sketch -->
    <title>bubbles</title>
    <desc>Created with Sketch.</desc>
    <defs></defs>
    <g id="Page-1" stroke="none" stroke-width="1" fill="none" fill-rule="evenodd">
        <g id="Главная" transform="translate(0.000000, -2939.000000)" stroke="#E8E8E8" stroke-width="2">
            <g id="Отзывы" transform="translate(-57.000000, 2940.000000)">
                <path d="M0,427.152663 L72.5301582,427.152663 C142.628037,427.152663 209.727524,414.840822 265.006611,322.502017 C243.37717,321.589573 218.656096,314.860468 209.061511,306.77022 C206.397459,340.285787 198.379993,371.170723 175.760856,388.849159 C200.403341,388.849159 222.785377,378.415558 243.283928,369.546928 C263.781147,360.678299 282.585361,345.329538 290.99311,324.181899 C350.922301,324.181899 417.084042,299.883798 454.154331,251.366937 C484.266115,211.960839 505.242863,159.46999 500.775247,107.044804 C496.113156,52.3255122 420.781746,-4.9614827 312.959554,0.342184685 C201.735367,5.81411389 124.527133,93.846511 130.928851,176.312588 C135.927945,240.706251 184.207234,288.625303 243.505044,303.229882 C268.705648,309.436418 298.572339,307.983621 324.292433,306.128637 C356.250405,356.701574 420.853676,386.797185 489.109362,377.341691 C496.779169,392.269114 527.327857,402.459215 564.712505,397.057052 C552.058256,387.481176 542.068059,369.697406 538.271785,357.198152 C606.005317,330.02592 619.562679,260.604922 619.991592,222.639309 C620.553707,173.010279 568.412935,121.490678 500.775247,107.044804 C411.73419,88.0276574 305.689515,92.9511348 277.819451,97.8746122 C249.949387,102.79809 227.748506,108.868325 227.748506,123.91613 C227.748506,131.668486 241.958562,137.806622 249.949387,138.508397 C301.898409,143.067882 332.757435,144.732717 351.22065,144.732717 C359.011672,144.732717 376.529148,145.643793 376.529148,158.868078 C376.529148,168.443954 352.766542,168.603373 329.01977,170.884434 C309.999604,172.711469 287.89248,174.344949 258.121695,177.634946 C248.288678,178.722492 233.577453,183.078629 233.577453,192.136039 C233.577453,199.155157 240.180307,203.07853 247.285335,203.07853 C262.980599,203.07853 320.966339,205.594249 324.678696,207.24814 C328.391053,208.902031 331.517319,212.725541 331.07109,216.85548 C330.65017,220.741917 320.016605,229.707673 329.01977,236.025016" id="bubbles"></path>
            </g>
        </g>
    </g>
</svg>