<?xml version="1.0" encoding="UTF-8"?>
<svg width="208px" height="129px" viewBox="0 0 208 129" version="1.1" xmlns="http://www.w3.org/2000/svg" xmlns:xlink="http://www.w3.org/1999/xlink">
    <!-- Generator: Sketch 46.1 (44463) - http://www.bohemiancoding.com/sketch -->
    <title>Group 5</title>
    <desc>Created with Sketch.</desc>
    <defs></defs>
    <g id="Symbols" stroke="none" stroke-width="1" fill="none" fill-rule="evenodd">
        <g id="Banners/1" transform="translate(-1062.000000, -281.000000)">
            <g id="Group-5" transform="translate(1062.000000, 282.000000)">
                <path d="M206.748724,111.483981 C138.213763,132.12083 69.5167265,132.126268 0.9632737,111.483981 L0.9632737,15.479676 C69.5167265,-5.1626113 138.213763,-5.15717254 206.748724,15.479676 L206.748724,111.483981 Z" id="Fill-1" stroke="#C1C1C1"></path>
                <g id="Page-1" transform="translate(59.355999, 23.500000)" stroke="#E01976" stroke-width="2" stroke-linecap="round" stroke-linejoin="round">
                    <path d="M18.8715889,81.4489334 C18.8715889,81.4489334 9.8738009,74.4346412 7.44602263,70.0395694 C6.29097323,67.9486273 5.57210527,65.4635016 6.22019501,63.1642754 C6.89962329,60.7541917 8.92063997,58.9996593 10.8482806,57.40118 C22.5580256,47.6904934 34.4924702,38.2505547 46.6381835,29.0907443 C45.8280713,24.4125597 45.0397043,15.3147868 45.6131784,14.1804166 C45.8969309,13.6190942 61.2794687,0.462019762 62.5259755,0.0128338823 C63.0133219,-0.162832546 70.0310252,1.4996029 72.5711532,2.28583808 C68.3862843,5.70003451 62.0205081,12.2312441 56.9370542,17.4102059 C60.216303,20.4112451 66.0887635,25.979274 66.7737347,26.0082675 C66.7737347,26.0082675 78.1555975,15.1994525 82.0652415,10.7871126 C82.937178,13.6717514 84.3201247,21.7786292 83.6170326,22.6782801 C81.5158575,25.3659338 69.6257559,38.7654023 68.0963494,38.5954919 C64.9354196,38.2443723 58.103829,36.8511925 55.1957395,38.1388445 C53.8547906,38.7327846 52.9058934,39.9415573 52.0009129,41.0957539 C44.5082281,50.6501742 36.1700419,59.5411553 27.1155461,67.6311912 C24.7634494,69.7325796 22.2344071,71.8478251 19.1628029,72.5654139 C16.0911986,73.2832159 12.3472013,72.1262478 11.138855,69.2126155 C10.2421887,67.0502555 11.0090239,64.4039602 12.7170814,62.8039886 C14.4253522,61.2035907 16.9136757,60.5923824 19.2378448,60.8695261 C19.9460534,60.9541615 20.6653478,61.1230059 21.2496945,61.5323257 C22.9762993,62.7417379 22.5648476,65.7962872 20.7018028,66.7837713 C18.6807861,67.8552512 15.9726664,66.5573662 15.033789,64.4713274 C14.0951249,62.3852886 14.6315044,59.8724485 15.8432617,57.9322299 C17.0554453,55.9920112 18.8590108,54.5078005 20.6299586,53.0598315 C26.0088903,48.6624148 31.3876087,44.2647848 36.7667535,39.8671549 C38.3733339,38.5537072 39.1512547,38.1544072 40.7627384,36.8467156 C37.0530642,33.8580412 33.34339,30.8693669 29.633929,27.8809057 C26.2715372,25.1719333 23.2954409,21.2874454 20.0613878,18.4298813 C22.0578879,16.4022558 23.2041967,15.7339133 24.6493941,13.2752229 C20.1178825,10.4428149 11.1680617,4.32518888 8.06405295,2.10334966 C7.39890822,2.78554938 2.45637123,6.55193141 0.219608888,7.55561775 C2.84096132,11.9722214 8.52261907,20.7546901 11.0544328,24.9440359 C11.0680768,24.9664206 15.9468707,21.8547371 17.1368829,21.1279812 C18.6198145,22.7838079 24.9638456,27.7666373 27.1650056,29.8290123 C34.5828617,36.778922 49.8596585,51.2626617 49.8596585,51.2626617 C50.0218941,52.3731549 44.7747123,57.4222856 42.832575,60.0638908 C45.9056715,64.1675353 49.7914385,68.6572623 53.5976866,72.0917115 C57.496458,75.6093038 62.4441115,78.4314788 67.6891614,78.1730956 C72.933785,77.9144993 78.1662569,73.6356147 77.9893113,68.387367 C77.8498867,64.2551554 74.6791503,60.9245284 71.5883592,58.1784613 C66.6696992,53.8089721 61.4276339,49.8038202 55.918658,46.206709 C54.816479,46.0724009 53.9967734,47.3994925 54.1929059,48.4925044 C54.3892515,49.5853031 55.2277176,50.4331494 56.0248253,51.2059538 L65.4982344,60.3913467 C68.0168305,62.8331953 70.7607657,66.1013584 69.6502724,69.4290007 C67.8292256,71.3515248 63.8775837,69.291708 64.4109786,66.6976436 C67.2647053,65.874527 70.1881443,67.8727326 72.0409561,70.1945567 C73.8935547,72.516594 75.243031,75.3089227 77.6040816,77.1114223 C80.9129635,79.63748 89.5890516,81.4489334 89.5890516,81.4489334 L99.1440013,81.4489334" id="Stroke-1"></path>
                </g>
            </g>
        </g>
    </g>
</svg>