<?xml version="1.0" encoding="UTF-8"?>
<svg width="85px" height="23px" viewBox="0 0 85 23" version="1.1" xmlns="http://www.w3.org/2000/svg" xmlns:xlink="http://www.w3.org/1999/xlink">
    <!-- Generator: Sketch 46.1 (44463) - http://www.bohemiancoding.com/sketch -->
    <title>soobwa</title>
    <desc>Created with Sketch.</desc>
    <defs></defs>
    <g id="Symbols" stroke="none" stroke-width="1" fill="none" fill-rule="evenodd">
        <g id="footer" transform="translate(-1249.000000, -521.000000)" fill="#8E8E8E">
            <g id="bottom" transform="translate(0.000000, 486.000000)">
                <g id="soobwa" transform="translate(1079.000000, 34.000000)">
                    <path d="M241.321,13.779 L239.946,13.779 L239.946,12.584 L239.946,7.848 C239.946,6.387 239.149,5.847 237.926,5.847 L235.771,5.847 L235.771,13.779 L233.146,13.779 L233.146,7.848 C233.146,6.387 232.351,5.847 231.128,5.847 L228.972,5.847 L228.972,13.779 L226.348,13.778 L226.348,7.848 C226.348,6.386 224.425,4.676 221.718,6.041 C221.936,6.324 222.173,6.493 222.173,7.974 C222.173,8.449 222.171,17.406 222.171,17.406 L239.454,17.406 C239.106,18.007 238.456,18.567 237.815,19.265 C235.89,21.371 237.543,24.135 240.057,23.43 C239.38,21.407 246.465,18.686 241.321,13.779 L241.321,13.779 Z M250.291,13.383 C250.291,13.532 250.239,13.675 250.137,13.814 C250.035,13.951 249.903,14.08 249.743,14.197 C249.535,14.33 249.302,14.436 249.039,14.517 C248.774,14.596 248.518,14.637 248.269,14.637 C247.874,14.637 247.548,14.534 247.29,14.33 C247.034,14.124 246.907,13.86 246.907,13.538 C246.907,13.157 247.075,12.842 247.412,12.593 C247.749,12.344 248.175,12.219 248.687,12.219 C248.921,12.219 249.184,12.249 249.478,12.307 C249.77,12.366 250.042,12.439 250.291,12.528 L250.291,13.383 Z M254.468,15.734 L254.468,10.549 C254.468,8.909 253.331,4.827 247.883,5.635 C245.641,5.969 243.692,7.35 243.443,9.707 C245.843,8.392 248.848,8.391 249.807,9.106 C250.502,9.622 250.291,10.396 250.291,10.396 C249.675,10.103 248.9,9.956 247.962,9.956 C247.227,9.956 246.558,10.051 245.951,10.241 C245.342,10.432 244.82,10.703 244.379,11.054 C243.94,11.406 243.595,11.824 243.348,12.307 C243.097,12.791 242.973,13.326 242.973,13.911 C242.973,14.439 243.075,14.931 243.281,15.383 C243.486,15.839 243.768,16.231 244.127,16.56 C244.487,16.888 244.914,17.149 245.412,17.34 C245.91,17.53 246.445,17.627 247.016,17.627 C247.779,17.627 248.497,17.454 249.17,17.109 C249.845,16.765 250.438,16.264 250.95,15.603 L251.037,16.021 C251.156,16.549 251.408,16.948 251.797,17.218 C252.185,17.489 252.753,17.627 253.499,17.627 C253.734,17.627 254.686,17.552 254.974,17.229 C254.733,17.042 254.468,16.413 254.468,15.734 L254.468,15.734 Z M215.084,14.109 C214.483,14.109 213.042,13.643 213.042,11.846 C213.042,10.566 214.483,10.089 215.084,10.089 C215.686,10.089 217.129,10.431 217.129,11.846 C217.129,13.882 215.686,14.109 215.084,14.109 L215.084,14.109 Z M216.316,6.792 C215.455,6.848 213.439,7.283 212.601,8.351 C212.68,5.164 216.125,5.626 218.3,5.53 C221.148,5.404 221.936,2.28 219.659,1 C218.706,2.91 210.958,0.281 209.14,7.155 C208.877,8.155 208.755,9.377 208.755,10.813 C208.755,13.041 209.291,14.732 210.361,15.889 C211.43,17.047 213.006,17.627 215.084,17.627 C219.002,17.627 221.29,15.101 221.415,11.846 C221.442,11.158 221.29,6.467 216.316,6.792 L216.316,6.792 Z M203.323,13.45 C202.942,13.889 202.449,14.109 201.85,14.109 C201.25,14.109 200.759,13.889 200.376,13.45 C199.997,13.011 199.805,12.403 199.805,11.626 C199.805,10.85 199.997,10.241 200.376,9.801 C200.759,9.362 201.25,9.143 201.85,9.143 C202.449,9.143 202.942,9.362 203.323,9.801 C203.704,10.241 203.894,10.85 203.894,11.626 C203.894,12.403 203.704,13.011 203.323,13.45 L203.323,13.45 Z M206.564,7.44 C206.029,6.891 205.366,6.451 204.575,6.121 C203.783,5.792 202.874,5.626 201.85,5.626 C200.809,5.626 199.898,5.792 199.114,6.121 C198.33,6.451 197.671,6.891 197.137,7.44 C196.602,7.989 196.199,8.627 195.929,9.352 C195.657,10.077 195.521,10.836 195.521,11.626 C195.521,12.418 195.657,13.175 195.929,13.901 C196.199,14.626 196.602,15.263 197.137,15.813 C197.671,16.361 198.33,16.801 199.114,17.131 C199.898,17.46 200.809,17.627 201.85,17.627 C202.874,17.627 203.783,17.46 204.575,17.131 C205.366,16.801 206.029,16.361 206.564,15.813 C207.099,15.263 207.5,14.626 207.772,13.901 C208.043,13.175 208.177,12.418 208.177,11.626 C208.177,10.836 208.043,10.077 207.772,9.352 C207.5,8.627 207.099,7.989 206.564,7.44 L206.564,7.44 Z M190.101,13.45 C189.719,13.889 189.229,14.109 188.63,14.109 C188.028,14.109 187.537,13.889 187.156,13.45 C186.775,13.011 186.585,12.403 186.585,11.626 C186.585,10.85 186.775,10.241 187.156,9.801 C187.537,9.362 188.028,9.143 188.63,9.143 C189.229,9.143 189.719,9.362 190.101,9.801 C190.482,10.241 190.674,10.85 190.674,11.626 C190.674,12.403 190.482,13.011 190.101,13.45 L190.101,13.45 Z M193.343,7.44 C192.808,6.891 192.146,6.451 191.354,6.121 C190.563,5.792 189.655,5.626 188.63,5.626 C187.587,5.626 186.676,5.792 185.892,6.121 C185.11,6.451 184.449,6.891 183.913,7.44 C183.38,7.989 182.977,8.627 182.707,9.352 C182.433,10.077 182.3,10.836 182.3,11.626 C182.3,12.418 182.433,13.175 182.707,13.901 C182.977,14.626 183.38,15.263 183.913,15.813 C184.449,16.361 185.11,16.801 185.892,17.131 C186.676,17.46 187.587,17.627 188.63,17.627 C189.655,17.627 190.563,17.46 191.354,17.131 C192.146,16.801 192.808,16.361 193.343,15.813 C193.877,15.263 194.28,14.626 194.55,13.901 C194.822,13.175 194.957,12.418 194.957,11.626 C194.957,10.836 194.822,10.077 194.55,9.352 C194.28,8.627 193.877,7.989 193.343,7.44 L193.343,7.44 Z M180.673,7.284 C179.657,6.212 177.962,5.626 176.557,5.626 C171.379,5.626 170,9.323 170,11.626 C170,12.418 170.14,13.175 170.419,13.901 C170.695,14.626 171.103,15.263 171.638,15.813 C172.174,16.361 172.836,16.801 173.626,17.131 C174.417,17.46 175.325,17.627 176.353,17.627 C179.264,17.627 181.582,15.496 181.582,12.969 C180.256,13.963 178.078,14.37 176.331,14.109 C175.52,13.99 174.286,13.287 174.286,11.626 C174.286,10.836 174.865,9.301 176.635,9.301 C177.667,9.301 178.852,10.129 178.517,11.981 C180.918,12.827 183.151,9.9 180.673,7.284 L180.673,7.284 Z"></path>
                </g>
            </g>
        </g>
    </g>
</svg>