<?xml version="1.0" encoding="UTF-8"?>
<svg width="46px" height="44px" viewBox="0 0 46 44" version="1.1" xmlns="http://www.w3.org/2000/svg" xmlns:xlink="http://www.w3.org/1999/xlink">
    <!-- Generator: Sketch 46.1 (44463) - http://www.bohemiancoding.com/sketch -->
    <title>Page 1</title>
    <desc>Created with Sketch.</desc>
    <defs></defs>
    <g id="Page-1" stroke="none" stroke-width="1" fill="none" fill-rule="evenodd" stroke-linecap="round" stroke-linejoin="round">
        <g id="Карточка-товара" transform="translate(-627.000000, -1254.000000)" stroke="#FFFFFF" stroke-width="3">
            <g id="Преимущества" transform="translate(552.000000, 1237.000000)">
                <path d="M91.2741311,44.6869429 L91.2741311,52.6599897 C91.2741311,55.6387138 93.6886283,58.0539145 96.668056,58.0539145 L106.117801,58.0539145 C112.310227,58.0539145 117.470581,53.3114537 117.992597,47.1408375 L118.780545,37.8113948 C118.995823,35.264635 116.986556,33.0787833 114.431354,33.0787833 L105.967247,33.0787833 C105.132163,33.0787833 104.479292,32.359781 104.559494,31.5282146 L105.139198,25.544736 C105.502217,21.790024 102.550931,18.5390358 98.7786304,18.5390358 L97.2407252,32.6032005 C96.9149932,35.5882564 94.3935602,37.8486816 91.3916198,37.8486816 L91.3916198,34.1340706 L77.2036347,34.1340706 L77.2036347,54.4188018 C77.2036347,57.2040566 79.4605423,59.4609642 82.2457971,59.4609642 L86.1151836,59.4609642 L91.2741311,44.6869429 Z" id="Page-1"></path>
            </g>
        </g>
    </g>
</svg>