<?xml version="1.0" encoding="UTF-8"?>
<svg width="120px" height="121px" viewBox="0 0 120 121" version="1.1" xmlns="http://www.w3.org/2000/svg" xmlns:xlink="http://www.w3.org/1999/xlink">
    <!-- Generator: Sketch 46.1 (44463) - http://www.bohemiancoding.com/sketch -->
    <title>Group 7</title>
    <desc>Created with Sketch.</desc>
    <defs></defs>
    <g id="Page-1" stroke="none" stroke-width="1" fill="none" fill-rule="evenodd">
        <g id="Главная" transform="translate(-623.000000, -2462.000000)">
            <g id="Преимущества" transform="translate(0.000000, 2305.000000)">
                <g id="Group-7" transform="translate(623.000000, 157.000000)">
                    <ellipse id="Oval-3" fill="#E21776" cx="60" cy="60.4322709" rx="60" ry="60.1195219"></ellipse>
                    <path d="M52.3429561,64.960015 L52.3429561,75.7489632 C52.3429561,79.7797059 55.4507194,83.0479013 59.2856196,83.0479013 L71.4486371,83.0479013 C79.419072,83.0479013 86.061101,76.6305096 86.7330009,68.2805701 L87.7471894,55.6561774 C88.0242802,52.2099591 85.4380995,49.2521137 82.1492312,49.2521137 L71.2548547,49.2521137 C70.179996,49.2521137 69.3396684,48.2791758 69.4428983,47.1539188 L70.1890513,39.0572097 C70.6563024,33.9764176 66.8576232,29.5772533 62.0021959,29.5772533 L60.0227173,48.6085657 C59.603459,52.6478763 56.3580558,55.7066331 52.4941788,55.7066331 L52.4941788,50.6801047 L34.2324475,50.6801047 L34.2324475,78.1289482 C34.2324475,81.8978925 37.137373,84.9518894 40.7223482,84.9518894 L45.7027381,84.9518894" id="thumbup" stroke="#FFFFFF" stroke-width="3" stroke-linecap="round" stroke-linejoin="round"></path>
                </g>
            </g>
        </g>
    </g>
</svg>