<?xml version="1.0" encoding="UTF-8"?>
<svg width="208px" height="129px" viewBox="0 0 208 129" version="1.1" xmlns="http://www.w3.org/2000/svg" xmlns:xlink="http://www.w3.org/1999/xlink">
    <!-- Generator: Sketch 46.1 (44463) - http://www.bohemiancoding.com/sketch -->
    <title>Group 4</title>
    <desc>Created with Sketch.</desc>
    <defs></defs>
    <g id="Symbols" stroke="none" stroke-width="1" fill="none" fill-rule="evenodd">
        <g id="Banners/1" transform="translate(-740.000000, -281.000000)">
            <g id="Group-4" transform="translate(741.000000, 282.000000)">
                <path d="M206.094299,111.483981 C137.559338,132.12083 68.8623019,132.126268 0.308849133,111.483981 L0.308849133,15.479676 C68.8623019,-5.1626113 137.559338,-5.15717254 206.094299,15.479676 L206.094299,111.483981 Z" id="Fill-1" stroke="#C1C1C1"></path>
                <path d="M72.4926939,114.547843 C72.4616384,114.029765 71.9519636,109.657523 72.2051569,109.703558 C69.2497739,109.167578 66.4507642,107.7931 64.2202519,105.781072 C62.3167354,106.992965 60.4661957,108.288526 58.6755748,109.662273 C57.8608259,109.324682 50.6939581,103.710952 51.498477,103.044173 C53.4991789,101.385446 55.58574,99.829751 57.7468341,98.3858551 C56.6518554,95.6664935 56.264941,92.6650753 56.6346836,89.7568235 C54.5857544,89.2752813 52.5861486,89.4185017 50.5503723,88.9610732 C50.4520909,86.3575302 50.5481801,83.87419 50.7513193,81.2622437 C52.4250256,82.0397261 54.2496248,82.4909436 56.0932226,82.5833792 C56.7600014,82.6133386 57.9408394,79.7215279 58.213762,79.225006 C59.2868192,77.2707046 60.3609725,75.317134 61.4336644,73.3628326 C59.9605399,72.1370556 58.6832474,70.677084 57.6642632,69.0537972 C59.6382939,67.283271 61.8026763,65.725018 64.1080869,64.4144779 C65.4336067,65.5744904 66.7591266,66.7345029 68.0846464,67.8948807 C68.2220211,68.0150836 70.6618836,67.4045699 71.0535476,67.3377094 C72.7937491,67.0410385 74.5321237,66.4645031 76.2449233,66.0348418 C76.1221629,64.1967243 76.0969532,62.3520304 76.1689288,60.5113555 C78.7658954,60.5025869 81.2053925,60.0853477 83.810397,60.113115 C83.8125891,60.113115 83.6547544,65.1134082 83.6361211,65.4305392 C85.5129665,65.7122304 87.3737362,66.0099974 89.1468199,66.7147735 C90.9089428,67.4151653 92.3663569,68.7509152 94.0316599,69.6763677 C94.6078299,69.8152038 94.8011044,69.6343515 94.9695346,69.471767 C96.3049191,68.1798602 97.9822789,67.2449084 99.7834952,66.7878452 C100.5639,67.1784132 104.952949,71.5784228 104.769174,71.7369883 C103.800244,72.572928 102.857985,73.5725482 101.833155,74.3248209 C101.661071,74.4516002 99.5883938,75.4143193 99.5821827,75.3869174 C100.258461,78.472368 100.372818,81.9900374 100.372818,85.188749 C101.902208,85.5902778 103.475806,85.8219149 105.056346,85.8778147 C104.644952,89.1755385 104.541921,92.5116248 104.750175,95.8283472 C103.073546,95.8038682 101.396917,95.7797546 99.7199228,95.7552756 C99.4944968,95.7519873 99.2606675,95.7501605 99.0535093,95.8396733 C98.7838749,95.9562226 98.6015612,96.2075891 98.4324003,96.4476295 C96.7422529,98.8483987 95.1653666,101.15929 93.1138799,103.223199 C94.2406448,105.048163 94.833256,106.445293 96.4485049,107.907457 C96.6052436,108.245413 96.4923479,108.343695 96.3907783,108.417862 C94.2885068,109.952002 92.1862353,111.486507 90.0839638,113.020646 C89.324384,111.445221 88.3503388,109.973558 87.1969028,108.659364 C86.7318017,108.352829 86.5246436,108.422977 86.3386762,108.492761 C85.6539948,108.750338 76.7016211,111.808022 76.6961408,111.054653 C76.6884682,109.258917 76.7133126,107.463181 76.7706738,105.668176 C76.7363302,106.745983 68.6045512,103.366784 67.9944029,102.983158 C65.3842834,101.342334 63.2188049,98.9631212 62.0175069,96.1082116 C60.8184011,93.2598786 60.4961551,90.1057406 60.6291455,87.0180979 C60.6989289,85.4006568 60.8951263,83.7656786 61.5001596,82.2636907 C63.2991837,77.793167 68.210695,75.4767955 72.8419764,74.14543 C75.6921362,73.3262968 78.7556653,72.7223595 81.5952298,73.5791247 C85.3598814,74.7150235 87.9429644,78.1767931 89.6725704,81.7087115 C91.5223793,85.4857853 92.7266002,89.750247 92.0119594,93.8945059 C91.2973186,98.0387647 88.3105148,101.969654 84.196946,102.844322 C81.3383829,98.6960443 79.4388853,93.8912177 78.6891701,88.909923 C79.8970446,89.1514248 80.3296287,90.8693394 79.635448,91.8875929 C78.941998,92.9058464 77.5656934,93.2492832 76.3406472,93.1206771 C75.6391593,93.0468747 74.9022317,92.8130454 74.4780507,92.2489322 C73.0604606,90.3647797 76.45062,87.5445792 77.4922564,86.2197901 C79.3084524,83.9103605 81.1725103,81.6385627 83.0836994,79.4065891 C85.9897591,76.0127761 88.8720704,72.5981377 91.8263574,69.246341 C92.5475746,68.4275731 93.2830408,67.620862 94.0046234,66.8020941 C94.9874372,65.6873861 94.7974509,65.8496051 94.3747313,64.5924073 C93.8635951,63.0703248 93.1427433,61.3166051 92.8329194,59.7302195 C92.5709576,58.3842396 92.7189277,56.9154994 92.4207953,55.5348105 C89.3320565,55.3842829 86.2791228,54.5490739 83.5444162,53.1070048 C83.3646599,50.3664524 83.6379479,47.5970367 84.3500311,44.9445357 C87.1132357,44.8579458 89.877171,44.7717212 92.6403756,44.6851313 C94.4488991,40.5065288 96.801441,36.2632579 99.4068108,32.528931 C97.338883,30.7244265 96.0403997,28.260085 93.8241364,26.5951473 C96.5456902,24.6496145 99.2796661,22.7965174 101.975279,20.8053148 C101.495929,21.1589816 106.440323,24.5177202 106.74832,24.773471 C109.860442,22.6120115 113.94259,21.9576548 117.729893,22.0793191 C118.710515,19.6639356 119.931908,17.4220973 120.863571,14.9826001 C121.146724,14.6417208 121.278984,14.6556044 121.399917,14.6724109 C124.514962,15.0973226 127.45573,14.9405839 130.593793,15.0823429 C130.717649,17.7505543 130.980342,20.4121893 131.379678,23.0533643 C134.635386,24.2236068 137.905342,26.4840784 140.323283,28.9575539 C142.857408,27.6861071 145.560694,27.0339426 148.094819,25.7624958 C148.597187,25.6689641 148.73858,25.8081656 148.86061,25.9382332 C150.032679,27.1866624 151.152502,28.4818574 152.28219,29.7679185 C152.44514,29.9527898 154.178034,32.6546142 154.538278,32.3710962 C153.96503,32.8223137 149.765237,37.6563689 149.209527,37.2029593 C149.629324,37.5460307 149.779851,38.1119707 149.900785,38.6402788 C150.745128,42.3252823 151.525533,46.4457928 151.801744,50.2155594 C154.909847,50.8468985 157.64565,52.5315655 160.545498,53.7949744 L159.452346,61.5559148 C159.453442,61.5493383 151.925235,62.9336808 151.235073,63.1320703 C150.460149,66.8660318 148.950854,70.4458122 146.818257,73.6068919 C147.833588,75.8282702 148.888743,78.0350341 149.783505,80.3035436 C147.586606,82.7594819 145.407974,84.6703057 142.62979,86.443024 C139.912255,85.5256094 137.46399,83.8255973 135.654735,81.5998348 C132.310611,83.839481 128.572996,84.6038105 124.646491,85.0057046 C124.431295,87.7184897 123.808724,90.130585 122.764165,92.6307316 C119.784303,92.3632894 116.804806,92.0962125 113.82531,91.8287702 C113.536676,89.046567 112.640453,86.6753918 112.35255,83.8931886 C110.357694,83.4364908 108.928778,82.4156798 107.225112,81.3861002 C105.6369,80.4266694 103.913505,79.8720555 102.44038,78.6397021 C104.807902,76.5114902 106.805316,73.7256334 108.926586,71.3434974 C104.61755,69.9595203 101.520774,65.9193886 100.358204,61.5456847 C99.1959991,57.1716155 99.7283261,52.509644 100.860937,48.1282676 C101.817079,44.4301112 103.285454,40.7027262 106.093232,38.1134321 C109.222891,35.2278325 113.584904,34.1379688 117.795292,33.5102833 C121.34694,32.9805138 125.017329,32.7119755 128.494809,33.6103915 C134.328485,35.1174943 139.032473,39.9347431 141.031713,45.6182563 C143.031319,51.3021349 142.489858,57.7050386 140.191389,63.2745601 C139.249861,65.554761 138.018238,67.727912 136.420526,69.6073149 C130.184957,76.943709 118.192437,78.4833287 110.305813,72.9598424 C113.572847,69.6332554 116.790192,66.257345 119.945426,62.8244387 C122.574909,59.9640488 126.426882,56.6381925 127.699424,52.8585612 C128.704525,49.8739495 130.279219,46.634683 124.004556,46.1264697 C117.729893,45.6182563 115.390698,50.2155594 117.431396,53.6941355 C117.901701,54.4958192 120.024343,57.1708848 121.228564,58.6096657 C123.955964,61.8675654 127.291685,64.4930299 130.321235,67.4527972" id="Stroke-1" stroke="#E01976" stroke-width="2" stroke-linecap="round" stroke-linejoin="round" transform="translate(105.528526, 64.606656) rotate(16.000000) translate(-105.528526, -64.606656) "></path>
            </g>
        </g>
    </g>
</svg>